<svg xmlns="http://www.w3.org/2000/svg" xmlns:xlink="http://www.w3.org/1999/xlink" width="232" height="232" viewBox="0 0 232 232">
  <defs>
    <clipPath id="clip-path">
      <rect id="Rectángulo_5651" data-name="Rectángulo 5651" width="164.033" height="203.246" fill="none"/>
    </clipPath>
  </defs>
  <g id="Grupo_62352" data-name="Grupo 62352" transform="translate(8982 8640)">
    <g id="Grupo_62348" data-name="Grupo 62348" transform="translate(-8948 -8626)">
      <g id="Grupo_62347" data-name="Grupo 62347" clip-path="url(#clip-path)">
        <path id="Trazado_108181" data-name="Trazado 108181" d="M163.339,237.114c0,5.136-28.942,9.3-64.643,9.3s-64.643-4.164-64.643-9.3,28.942-9.3,64.643-9.3,64.643,4.164,64.643,9.3" transform="translate(-12.094 -80.909)" fill="#ffebb1"/>
        <path id="Trazado_108182" data-name="Trazado 108182" d="M88.014,89.735c-.893-.509-1.794-1.007-2.679-1.532A45.964,45.964,0,0,1,62.859,45.595a45.841,45.841,0,0,1,26.2-38.617,45.917,45.917,0,0,1,11.23-3.622,46.8,46.8,0,0,1,12.193-.607,45.9,45.9,0,0,1,37.262,24.961,45.63,45.63,0,0,1,4.338,13.24A46.207,46.207,0,0,1,150.438,68a45.725,45.725,0,0,1-8.682,12.634,45.159,45.159,0,0,1-7.65,6.336,2.168,2.168,0,0,0-.684.531,3.947,3.947,0,0,0-1.04.58c-1.168.725-2.418,1.3-3.615,1.973l-3.7,1.572-.874.333c-1.36.374-2.692.844-4.062,1.187a47.522,47.522,0,0,1-8.421,1.315A45.866,45.866,0,0,1,96.785,93c-.194-.052-.395-.077-.593-.114a3.161,3.161,0,0,0-.793-.217c-1.113-.439-2.249-.81-3.385-1.18-.709-.306-1.419-.61-2.127-.92-.626-.274-1.249-.555-1.873-.834M72.463,47.976a36.238,36.238,0,1,0,36.3-36.213,36.17,36.17,0,0,0-36.3,36.213" transform="translate(-22.291 -0.923)" fill="#db6e5f"/>
        <path id="Trazado_108183" data-name="Trazado 108183" d="M158.018,138.726l.874-.333c.212.94.383,1.892.645,2.817a14.535,14.535,0,0,0,1.4,4.191,1.041,1.041,0,0,1,.11.317c.433,1.716.862,3.433,1.3,5.149a27.924,27.924,0,0,0,1.744,5.639,10.308,10.308,0,0,1,.746,2.014c.644,2.519,1.292,5.037,1.973,7.545a41.6,41.6,0,0,0,1.182,4.133c.354.92.811,1.8,1.1,2.745.767,2.555,1.44,5.135,2.143,7.707.349,1.274.729,2.544,1.175,3.787,1.107,3.082,2.061,6.211,2.944,9.361.671,2.395,1.266,4.811,1.871,7.224a.939.939,0,0,0,.71.776,12.161,12.161,0,0,1,2.5.981c.059.034.127.026.181-.074-.863-2.31-1.644-4.671-2.419-7.035-3.177-9.693-6.047-19.475-8.513-29.373-1.609-6.458-3.393-12.872-4.861-19.365-.761-3.365-1.6-6.715-2.21-10.113,1.2-.673,2.446-1.248,3.614-1.973a3.928,3.928,0,0,1,1.04-.58c.7,4.249,1.746,8.427,2.723,12.616,1.033,4.431,2.2,8.83,3.318,13.241,1.052,4.15,2,8.326,3.157,12.45,2.064,7.382,4.144,14.76,6.593,22.028.966,2.868,1.93,5.735,3.023,8.558.041.1.079.21.115.316.179.526.179.54-.344.561-1.412.057-2.823.1-4.235.152a2.762,2.762,0,0,1-1.427-.322,12.838,12.838,0,0,0-2.357-.974,1.62,1.62,0,0,1-1.237-1.249q-.972-3.81-2.063-7.59c-.852-2.973-1.729-5.94-2.785-8.849-.72-1.982-1.27-4.016-1.835-6.046-.558-2.008-1.1-4.021-1.716-6.012-.3-.96-.731-1.878-1.122-2.806a13.519,13.519,0,0,1-.578-1.86c-.835-3.187-1.686-6.37-2.509-9.561a11.632,11.632,0,0,0-.817-2.2,18.122,18.122,0,0,1-1.209-3.559q-.871-3.456-1.733-6.913a1.845,1.845,0,0,0-.164-.509,16.72,16.72,0,0,1-1.469-4.522c-.224-.82-.379-1.66-.565-2.49" transform="translate(-56.12 -47.686)" fill="#0d66bf"/>
        <path id="Trazado_108184" data-name="Trazado 108184" d="M96.932,140.659a3.188,3.188,0,0,1,.793.217,22.639,22.639,0,0,1-1.148,3.084A34,34,0,0,0,94.915,149a53.5,53.5,0,0,1-1.715,5.236c-.734,1.95-1.545,3.871-2.3,5.813-.414,1.065-.735,2.163-1.041,3.265-.3,1.084-.8,2.093-1.181,3.145q-.976,2.685-1.98,5.36c-.471,1.259-.963,2.508-1.365,3.794-.455,1.453-.98,2.885-1.437,4.338-.478,1.519-1,3.024-1.571,4.507-.967,2.486-1.9,4.985-2.714,7.525-.67,2.091-1.291,4.2-2.079,6.248-.386,1-.791,2-1.175,3a1.335,1.335,0,0,1-.6.693,28.351,28.351,0,0,0-2.718,1.86,2.955,2.955,0,0,1-2.083.73c-1.272-.075-2.55-.019-3.855-.019-.076-.253.067-.472.128-.7,1.542-5.6,3.461-11.079,5.369-16.562,1.171-3.365,2.229-6.77,3.416-10.129,1.471-4.162,3.028-8.295,4.538-12.444.812-2.233,1.53-4.5,2.234-6.767.678-2.185,1.5-4.319,2.24-6.481a42.364,42.364,0,0,0,1.463-5.171,31.315,31.315,0,0,1,2.456-7.171c.212-.445.4-.9.6-1.351.625.279,1.247.56,1.873.834.707.31,1.417.613,2.127.92-.166.558-.314,1.122-.5,1.673a52.259,52.259,0,0,0-2,6.692,44.283,44.283,0,0,1-1.642,5.818c-.49,1.443-1.031,2.869-1.5,4.319-1.374,4.29-2.75,8.578-4.342,12.794-1.41,3.732-2.815,7.465-4.063,11.255-1.192,3.618-2.4,7.231-3.707,10.809-1.1,3.01-2.1,6.054-3.019,9.125a1.355,1.355,0,0,0-.146.765,28.575,28.575,0,0,1,2.98-1.89c.171-.076.2-.228.261-.369.829-2.084,1.553-4.2,2.19-6.352.554-1.869,1.142-3.726,1.817-5.555s1.372-3.649,2.044-5.479c1.366-3.722,2.428-7.549,3.86-11.249.743-1.922,1.443-3.861,2.148-5.8.375-1.03.851-2.022,1.152-3.083s.616-2.109,1-3.136c.61-1.637,1.28-3.252,1.927-4.875a60.879,60.879,0,0,0,2.138-6.367,30.579,30.579,0,0,1,.958-3.22c.62-1.561,1.22-3.13,1.828-4.7" transform="translate(-23.823 -48.914)" fill="#0d66bf"/>
        <path id="Trazado_108185" data-name="Trazado 108185" d="M77.8,53.024a36.238,36.238,0,1,1,36.151,36.3A36.156,36.156,0,0,1,77.8,53.024m35.581-22.881a22.683,22.683,0,1,0,22.7,22.646,22.7,22.7,0,0,0-22.7-22.646" transform="translate(-27.632 -5.97)" fill="#fff5d5"/>
        <path id="Trazado_108186" data-name="Trazado 108186" d="M120.5,37.485a22.683,22.683,0,1,1-22.66,22.684A22.572,22.572,0,0,1,120.5,37.485m-9.978,22.4a8.943,8.943,0,0,0,3.73,6.845,11.365,11.365,0,0,0,4.161,1.824,8.915,8.915,0,0,0,8.888-2.471,9.756,9.756,0,0,0,2.836-7.064,8.766,8.766,0,0,0-5.356-8.461,9.573,9.573,0,0,0-12.269,3.034,9.63,9.63,0,0,0-1.99,6.294" transform="translate(-34.748 -13.313)" fill="#db6e5f"/>
        <path id="Trazado_108187" data-name="Trazado 108187" d="M117.507,66.494A9.63,9.63,0,0,1,119.5,60.2a9.573,9.573,0,0,1,12.269-3.034,8.766,8.766,0,0,1,5.356,8.461,9.756,9.756,0,0,1-2.836,7.064,8.915,8.915,0,0,1-8.888,2.471,11.365,11.365,0,0,1-4.161-1.824,8.943,8.943,0,0,1-3.73-6.845" transform="translate(-41.733 -19.924)" fill="#fff4d5"/>
        <path id="Trazado_108188" data-name="Trazado 108188" d="M40.2,212.118c-.15.954-.281,1.913-.385,2.873-.063.584-.442,2.734-.509,3.031a1.928,1.928,0,0,1-1.361,1.605,1.8,1.8,0,0,1-2.031-.716,1.836,1.836,0,0,1-.328-1.449c.141-.829.311-1.653.412-2.487.31-2.556.73-5.094,1.215-7.62.413-2.152.862-4.3,1.288-6.447.139-.7.123-.687-.519-.951a7.255,7.255,0,0,0-1.342-.29c-.952-.2-1.84-.605-2.779-.843-2.691-.683-5.372-1.41-8.123-1.831a18.321,18.321,0,0,1-2.864-.821c-.712-.231-.727-.228-.916.523-.455,1.8-.849,3.626-1.372,5.41-.488,1.664-1.837,8.091-2.112,9.62a5.451,5.451,0,0,1-.364,1.324,1.776,1.776,0,0,1-3.435-.772,2.025,2.025,0,0,1,.023-.381c.562-2.589.847-5.232,1.5-7.8.328-1.284.753-2.542,1.1-3.822.549-2.042,1.078-4.089,1.431-6.178.1-.587.509-6.263.929-8.488.431-2.278.951-4.538,1.39-6.814.7-3.6,1.465-7.18,2.078-10.789.451-2.66,1.006-5.3,1.386-7.976.455-3.2,1.073-6.381,1.59-9.575.362-2.238.669-4.484,1.007-6.726.364-2.418,5.788-41.9,5.657-42.007q.309-2.966.907-5.887c.484-2.347.849-4.713,1.182-7.084.219-1.564.338-3.141.511-4.711.3-2.734.6-5.468,1.139-8.171.417-2.1,1.277-8.188,1.278-8.749a1.484,1.484,0,0,1,1.275-1.483,1.569,1.569,0,0,1,1.643.976,2.794,2.794,0,0,1,.18.967c.026.4-.637,6.3-.509,6.412.048.251.239.294.453.322,3.258.425,6.412,1.375,9.647,1.921q2.331.394,4.655.829a7.309,7.309,0,0,1,1.322.364c.819.322,1.713.226,2.538.5.257.086.281-.136.3-.318.1-1.012.2-2.024.282-3.038.07-.862.095-1.728.173-2.589a2.265,2.265,0,0,1,.834-1.736c1.274-.936,3.257-.546,3.08,2.516.069,1.593-1,11.178-1.233,12.625-.152.949-.685,4.994-.727,5.3-.135.088-2.184,11.312-2.733,14.942q-.645,4.271-1.265,8.546c-.3,2.073-.809,4.1-1.245,6.143-.953,4.462-2.071,8.886-2.935,13.367-.338,1.751-2.928,15.993-3.155,17.356-.132.1-1.553,9.666-1.688,10.57-.125.094-2.26,14.277-2.871,17.543-.023.125-1.51,8.821-1.985,11.512-.092.523-3.195,18.757-3.618,21.446M38.872,84.258c-.13.093-.152.194-.023.306q-.062.537-.125,1.072c-.139.095-.151.2-.017.307-.042.328-.1.655-.121.985a57.924,57.924,0,0,1-.844,6.358c-.175,1.047-.084.822.757,1.071.048.014.1.012.152.022,2,.388,4.012.7,6.034.942,1.845.224,3.682.509,5.528.724a16.87,16.87,0,0,1,4.437,1.091c.586.239,1.177.466,1.781.705a1.565,1.565,0,0,0,.143-.3c.417-1.938.842-3.876,1.137-5.837.37-2.467.588-4.955,1.058-7.407.115-.6.235-1.2.318-1.806.08-.586.052-.556-.5-.693-.965-.24-1.979-.233-2.919-.568a21.014,21.014,0,0,0-3.574-.8c-2.661-.454-5.311-.965-7.933-1.61-1.262-.31-2.524-.616-3.8-.835-.623-.106-.645-.083-.749.515-.33,1.907-.518,3.834-.736,5.756m-5.911,43.979c.151.159.313.129.461.152.856.127,1.715.244,2.568.386,3.015.5,5.985,1.234,9.008,1.694,1.487.227,2.985.34,4.477.507.7.078.729.031.862-.651.625-3.227,1.4-6.421,2.111-9.63.221-.994.446-1.989.655-2.986.115-.553.061-.633-.491-.653a8.118,8.118,0,0,1-1.128-.193c-1-.18-2.027-.185-3.031-.378q-1.879-.36-3.716-.885c-3.071-.879-6.3-.934-9.379-1.754-.241-.064-.315.094-.344.29-.088.578-.192,1.156-.258,1.737-.313,2.76-.767,5.5-1.185,8.244-.21,1.382-.408,2.766-.607,4.121M53.11,113.994c.693.008.7.008.816-.629.043-.225.076-.451.11-.678.336-2.265.662-4.533,1.009-6.8.2-1.308.438-2.61.658-3.915.044-.262.044-.457-.278-.607a18.449,18.449,0,0,0-4.146-1.532c-2.049-.4-4.132-.566-6.2-.856a49.144,49.144,0,0,1-7.56-1.468c-.47-.143-.552-.1-.624.352-.27,1.709-.516,3.422-.649,5.149-.107,1.4-.262,2.787-.4,4.179-.11,1.089-.239,2.176-.344,3.266-.057.593,0,.662.586.741.857.114,1.715.233,2.576.308a37.129,37.129,0,0,1,5.057.738,53.129,53.129,0,0,0,8.384,1.611,9.311,9.311,0,0,0,1,.136M22.464,191.562c0,.255,0,.51,0,.765,0,.646.005.644.607.861a17.513,17.513,0,0,0,3.389.91,77.118,77.118,0,0,1,8.266,1.848,37.172,37.172,0,0,0,3.91,1.014c.5.074.553.068.671-.438.017-.074.017-.152.034-.226a37.849,37.849,0,0,0,.489-4.245c.28-2.634.811-5.23,1.29-7.833.29-1.575.262-1.63-1.327-1.8a30.294,30.294,0,0,1-3.858-.484,24.916,24.916,0,0,0-5.224-.583c-.889-.024-1.774-.155-2.661-.237a26.62,26.62,0,0,1-3.246-.473.339.339,0,0,0-.455.281c-.163.665-.342,1.326-.475,2-.252,1.269-.485,2.542-.71,3.816a28.694,28.694,0,0,0-.7,4.829m8.28-47.361c-.046.807-.046.813.655.842a35.17,35.17,0,0,1,5.975.776c1.716.368,3.393.921,5.138,1.158,1.185.16,2.378.256,3.562.419,1.07.147,1.043.166,1.23-.923.422-2.458.864-4.913,1.31-7.367.259-1.427.559-2.848.806-4.277.135-.782.068-.82-.633-.858-.378-.02-.757-.089-1.14-.094a12.509,12.509,0,0,1-1.375-.034c-2.906-.365-5.768-.983-8.637-1.557-1.546-.309-3.106-.55-4.66-.825-.338-.06-.512.025-.546.415-.064.734-.2,1.462-.275,2.2-.215,2.205-.567,4.391-.883,6.583-.177,1.234-.367,2.467-.527,3.547m15.719,7.138c.108-.347-.071-.479-.312-.547a6.433,6.433,0,0,0-1.2-.224c-1.14-.1-2.28-.192-3.411-.395-1.506-.27-2.982-.664-4.461-1.043a58.605,58.605,0,0,0-6.566-.969c-.264-.037-.352.109-.388.349-.159,1.058-.32,2.114-.5,3.169q-.784,4.63-1.588,9.257c-.061.35.008.5.4.538.912.083,1.827.171,2.727.337a94.08,94.08,0,0,1,11.878,2.823,6.292,6.292,0,0,0,.745.166c.327.064.524-.028.582-.4.3-1.962.62-3.922.936-5.882.25-1.554.508-3.108.759-4.662.139-.854.27-1.71.4-2.514M41.5,179.558c.248.054.4-.027.448-.284.036-.2.089-.4.121-.6q.437-2.792.869-5.584c.24-1.535.485-3.069.721-4.6.075-.493.052-.54-.426-.574a4.2,4.2,0,0,1-1.338-.288A14.7,14.7,0,0,0,39.852,167c-3.872-1-7.764-1.907-11.718-2.53-.614-.1-.615-.1-.754.506-.259,1.118-.371,2.26-.566,3.387-.355,2.057-.805,4.1-1.207,6.146-.147.749-.227,1.513-.408,2.254-.267,1.1-.142.952.765,1.052,2.074.228,4.152.465,6.243.495.485.007.972,0,1.453.054,1.771.191,3.491.707,5.277.821a11.388,11.388,0,0,1,2.563.371" transform="translate(-5.212 -23.304)" fill="#dbbe36"/>
        <path id="Trazado_108189" data-name="Trazado 108189" d="M51.909,96.662c.135.11.124.212-.017.306-.135-.11-.123-.212.017-.306" transform="translate(-18.396 -34.33)" fill="#ffeeae"/>
        <path id="Trazado_108190" data-name="Trazado 108190" d="M52.139,94.524c.139.113.129.215-.023.306-.13-.112-.108-.213.023-.306" transform="translate(-18.478 -33.57)" fill="#ffeeae"/>
        <path id="Trazado_108191" data-name="Trazado 108191" d="M108.2,47.771a6.245,6.245,0,0,1,.655,1.586,25.622,25.622,0,0,1,1.382,4.19,5.261,5.261,0,0,0,.335.991c.25.613.059.947-.6,1.066a3.08,3.08,0,0,1-.892.052c-.662-.074-1.327-.126-1.991-.186a6.043,6.043,0,0,0-2.443-.3l-1.524-.136c-.3-.068-.58-.248-.9-.122-.509-.2-.609-.383-.385-.88a9.113,9.113,0,0,1,1.059-1.635c.22-.3.673-.542.586-.9-.068-.279-.481-.475-.743-.705-1.141-1.005-2.272-2.022-3.426-3.012-1.38-1.184-2.724-2.413-4.05-3.651-1.883-1.758-3.812-3.46-5.744-5.159-2.584-2.274-5.193-4.52-7.861-6.694q-2.867-2.336-5.749-4.655c-2.136-1.719-4.2-3.523-6.234-5.359a1.911,1.911,0,0,1-.6-.661c.51-.195,1.015-.4,1.533-.576.217-.072.35-.168.368-.4a.3.3,0,0,0,.146.022,24.358,24.358,0,0,0,2.557,2.165c1.25.976,2.529,1.916,3.776,2.895,2.467,1.936,4.976,3.821,7.369,5.853,2.792,2.37,5.594,4.729,8.349,7.142,2.68,2.347,5.323,4.739,7.948,7.148.987.905,2.073,1.7,2.979,2.7a3.563,3.563,0,0,0,.5.328c.871.673.871.676,1.573-.21a3.727,3.727,0,0,1,1.3-1.283l.608.206,0,0a.2.2,0,0,0,.128.184" transform="translate(-24.533 -7.325)" fill="#437286"/>
        <path id="Trazado_108192" data-name="Trazado 108192" d="M53.144,9.964,49.2,6a1.02,1.02,0,0,1,.771-.244c1.216-.13,2.433-.26,3.652-.364.384-.034.533-.137.561-.574.093-1.494.258-2.984.4-4.475A.393.393,0,0,1,54.733,0c.055.014.144.008.19.051q1.842,1.7,3.676,3.405a.524.524,0,0,0-.058.135,9.138,9.138,0,0,0-.5,2.333,17.229,17.229,0,0,1-.435,2.426c-.067.256-.141.453-.43.543a18.176,18.176,0,0,1-3.166.876,2.442,2.442,0,0,0-.87.195" transform="translate(-17.474)" fill="#fedc5a"/>
        <path id="Trazado_108193" data-name="Trazado 108193" d="M61.752,6.21a4.735,4.735,0,0,1,1.29,1,7.042,7.042,0,0,1,1.379,1.25c-.141-.053-.3-.129-.363.084a6.253,6.253,0,0,0-.186.725c-.214,1.155-.466,2.306-.613,3.47a1.539,1.539,0,0,1-1.3,1.429c-.17.043-.335.1-.5.154l-2.8.841a20.649,20.649,0,0,1-2.279-2.32,25.022,25.022,0,0,0,3.761-1,1.1,1.1,0,0,0,.8-.784,37.815,37.815,0,0,0,.871-4.636c.014-.064-.038-.143-.059-.215" transform="translate(-20.023 -2.205)" fill="#fcda59"/>
        <path id="Trazado_108194" data-name="Trazado 108194" d="M68.013,16.986c-.019.23-.151.326-.368.4-.518.172-1.023.382-1.532.576-.99.345-1.985.677-2.968,1.041a.7.7,0,0,1-.876-.15c-.5-.553-1.025-1.09-1.539-1.635.941-.246,1.882-.489,2.822-.74a4.875,4.875,0,0,0,1.115-.431,1.792,1.792,0,0,0,.935-1.19c.283-1.115.467-2.249.689-3.374a2.858,2.858,0,0,0,.169-1.1,18.9,18.9,0,0,1,2.405,1.94c.315.262.054.542,0,.813a.4.4,0,0,0-.156.578q-.31,1.244-.62,2.488a.5.5,0,0,0-.075.787" transform="translate(-21.568 -3.686)" fill="#fddb5a"/>
        <path id="Trazado_108195" data-name="Trazado 108195" d="M66.171,10.108a2.865,2.865,0,0,1-.169,1.1c-.222,1.126-.406,2.26-.69,3.374a1.79,1.79,0,0,1-.934,1.19,4.886,4.886,0,0,1-1.115.431c-.94.251-1.882.494-2.823.74a1.359,1.359,0,0,1-.527-.572l2.8-.841c.168-.05.333-.11.5-.153a1.541,1.541,0,0,0,1.3-1.43c.146-1.164.4-2.314.612-3.47a6.253,6.253,0,0,1,.186-.725c.067-.213.222-.136.363-.084.174.137.239.394.494.437" transform="translate(-21.278 -3.414)" fill="#4a7582"/>
        <path id="Trazado_108196" data-name="Trazado 108196" d="M61.374,5.983c.021.072.073.15.059.215a37.816,37.816,0,0,1-.871,4.636,1.1,1.1,0,0,1-.8.784,25.023,25.023,0,0,1-3.761,1,2.162,2.162,0,0,1-.686-.675,2.442,2.442,0,0,1,.87-.195,18.177,18.177,0,0,0,3.166-.876c.29-.09.363-.287.43-.543A17.229,17.229,0,0,0,60.215,7.9a9.138,9.138,0,0,1,.5-2.333l.363.286.3.126" transform="translate(-19.645 -1.978)" fill="#497582"/>
        <path id="Trazado_108197" data-name="Trazado 108197" d="M124.24,74.177a6.041,6.041,0,0,1,2.443.3,13.251,13.251,0,0,1-2.443-.3" transform="translate(-44.124 -26.334)" fill="#95d0d6"/>
        <path id="Trazado_108198" data-name="Trazado 108198" d="M71.937,20.192a.5.5,0,0,1,.075-.787,1.007,1.007,0,0,1,.07.809.289.289,0,0,1-.146-.022" transform="translate(-25.493 -6.892)" fill="#ffe893"/>
        <path id="Trazado_108199" data-name="Trazado 108199" d="M73.066,15.227a.394.394,0,0,1,.156-.577.411.411,0,0,1-.156.577" transform="translate(-25.926 -5.203)" fill="#ffe893"/>
        <path id="Trazado_108200" data-name="Trazado 108200" d="M120.474,73.769c.324-.127.606.054.9.122a1.18,1.18,0,0,1-.9-.122" transform="translate(-42.787 -26.183)" fill="#78b6c0"/>
        <path id="Trazado_108201" data-name="Trazado 108201" d="M64.047,5.782,63.684,5.5a.51.51,0,0,1,.058-.135c.193.074.347.177.305.421" transform="translate(-22.618 -1.904)" fill="#c7b96a"/>
        <path id="Trazado_108202" data-name="Trazado 108202" d="M129.223,62.29l-.608-.205a.4.4,0,0,1,.608.205" transform="translate(-45.678 -22.027)" fill="#9691a1"/>
        <path id="Trazado_108203" data-name="Trazado 108203" d="M129.682,62.62a.2.2,0,0,1-.128-.184.178.178,0,0,1,.128.184" transform="translate(-46.011 -22.174)" fill="#9691a1"/>
        <path id="Trazado_108204" data-name="Trazado 108204" d="M37.205,198.079c-.5-.029-1-.034-1.49-.092-.926-.11-1.469-.6-1.468-1.291a2.152,2.152,0,0,1,1.486-1.8c.32-.059.734.148.945-.132s.115-.7.12-1.05a10.836,10.836,0,0,1,.334-2.547,5.427,5.427,0,0,0,.139-1.319,13.954,13.954,0,0,1,.386-3.458,2.587,2.587,0,0,0-.088-1.541,8.245,8.245,0,0,1-.108-3.538,15.347,15.347,0,0,1,.6-2.84,23.194,23.194,0,0,0,.455-3.287c.669-4.47.862-8.983,1.233-13.481.235-2.85.33-5.694.3-8.547a1.667,1.667,0,0,0-.246-1.189,30.823,30.823,0,0,1-1.729,4.98,50.545,50.545,0,0,0-1.916,6.775,24.688,24.688,0,0,0-.6,5.684,22.966,22.966,0,0,1-.373,3.795,2.53,2.53,0,0,1-.794,1.338,3.123,3.123,0,0,0-.8,1.682c-.509,2.946-1.142,5.871-1.463,8.849a8.591,8.591,0,0,0,.045,2.646,21.59,21.59,0,0,1,.272,4.3,6.838,6.838,0,0,1-.426,2.108c-.1.307-.075.471.271.633a1.335,1.335,0,0,1,.9,1.581,1.465,1.465,0,0,1-1.473,1.113c-1.05.061-2.1.075-3.154.11-2-.093-3.994.152-5.993.194a2.393,2.393,0,0,0-.478.108c-.526.025-1.051.042-1.576.075a2.665,2.665,0,0,1-.989-.068,1.221,1.221,0,0,1-.9-.892,1.175,1.175,0,0,1,.5-1.235,2.077,2.077,0,0,1,.912-.377c.322-.061.642-.142.962-.213-.091-1.044-.2-2.056-.261-3.071a4.7,4.7,0,0,1,.65-2.791,7.057,7.057,0,0,0,.892-3.238,23.652,23.652,0,0,0-.3-6.2,8.379,8.379,0,0,1-.059-1.076,9.736,9.736,0,0,0-.1-1.489,11.072,11.072,0,0,1,.434-5.648,62.126,62.126,0,0,0,1.488-7.061c.789-4.282,1-8.633,1.667-12.925a40.24,40.24,0,0,1,2.2-9.016,2.4,2.4,0,0,0,.8.184,41.779,41.779,0,0,1,4.92.68,37.9,37.9,0,0,0,6.47.951,98.964,98.964,0,0,1,10.87,1.17,6.58,6.58,0,0,0,2.388.157,12.252,12.252,0,0,1,.067,3.642c-.278,2.282-.451,4.575-.793,6.852-.349,2.327-.536,4.678-.816,7.017-.464,3.878-.962,7.753-1.414,11.633-.427,3.66-.865,7.318-1.125,11-.09,1.27-.276,2.534-.4,3.8-.047.495-.034,1-.044,1.493a.956.956,0,0,0,.184.627,2.838,2.838,0,0,1,.278,2.766c-.181.594-.2.588.355.811a1.413,1.413,0,0,1,.418,2.554,2.452,2.452,0,0,1-1.827.624c-1.63-.089-3.264-.117-4.9-.17l-5.854-.348m5.65-45.354a4.664,4.664,0,0,0,1.633,4.152,2.053,2.053,0,0,0,.929.515,7.488,7.488,0,0,0,2.3.237,3.042,3.042,0,0,0,2.988-2.942c.012-.137.054-.271.064-.408.088-1.127.17-2.254.259-3.381.032-.4-.1-.6-.549-.609a48.927,48.927,0,0,1-4.954-.314c-.629-.072-1.25-.205-1.876-.3-.483-.075-.533-.01-.637.486a12.9,12.9,0,0,0-.156,2.568m-15.118.291c0,.215.008.382,0,.547a1.753,1.753,0,0,0,1.135,1.829,8.324,8.324,0,0,0,2.2.669,2.59,2.59,0,0,0,2.684-.862,5.226,5.226,0,0,0,.571-.81,15.918,15.918,0,0,0,1.211-3.688,5.481,5.481,0,0,0,.169-1.561c-.023-.633-.021-.674-.664-.649-1.635.061-3.256-.172-4.886-.174-.462,0-.972-.4-1.357-.052-.369.332-.3.925-.448,1.4a9.578,9.578,0,0,0-.619,3.354M27.112,194.9c-.938-.034-1.879.057-2.817-.068-.266-.035-.636-.074-.671.289-.037.384.368.35.614.392a10.362,10.362,0,0,0,1.317.132c1.936.08,3.867-.089,5.8-.1a1.461,1.461,0,0,0,.407-.055A.313.313,0,0,0,32,195.18a.271.271,0,0,0-.253-.279,5.971,5.971,0,0,0-1.154-.088c-1.16.1-2.321.048-3.482.086m21.364-23.885a.291.291,0,0,0-.568-.1,4.464,4.464,0,0,1-1.29,1.591,12.173,12.173,0,0,1-2.216,1.283c-.917.446-1.764,1.031-2.724,1.392-.159.06-.3.179-.226.378s.253.205.417.168a2.377,2.377,0,0,0,.544-.191c1.132-.574,2.266-1.144,3.387-1.74a6.305,6.305,0,0,0,2.441-2.18,1.021,1.021,0,0,0,.236-.6M43.606,195c.609,0,1.218,0,1.827,0a2.214,2.214,0,0,0,.811-.152c.133-.051.249-.132.217-.3-.026-.133-.145-.159-.252-.168-.5-.045-.991-.108-1.488-.115a39.631,39.631,0,0,1-4.478-.17,4.968,4.968,0,0,0-.746-.027c-.232.005-.558-.088-.582.276-.017.281.255.319.476.356.3.049.6.1.9.136a21.8,21.8,0,0,0,3.313.164m-16.767-16.12a4.306,4.306,0,0,0,.526-.27,23.281,23.281,0,0,0,4.121-3.827,1.785,1.785,0,0,0,.293-.5.358.358,0,0,0-.195-.486c-.19-.088-.291.041-.384.2a3.754,3.754,0,0,1-.466.682,28.754,28.754,0,0,1-3.568,3.217c-.2.15-.466.195-.6.424a.315.315,0,0,0-.008.386,1.119,1.119,0,0,0,.284.172m11.936,5.561a.242.242,0,0,0-.195.239,1.212,1.212,0,0,0,.181.544c.553,1.292,1.721,1.98,2.755,2.8a.787.787,0,0,0,.547.164c.2-.017.4-.072.43-.308.03-.213-.143-.271-.309-.313a2.457,2.457,0,0,1-.9-.571,7.09,7.09,0,0,1-2.137-2.27.448.448,0,0,0-.375-.282m1.245-34.809a2.2,2.2,0,0,0-1.179-2.2c-.129-.052-.265-.117-.384,0a.3.3,0,0,0,.016.445c.193.235.425.441.6.687.264.371.177.539-.27.573-.3.024-.607.029-.91.055a.252.252,0,0,0-.236.2c-.018.172.121.23.268.244.33.033.66.071.992.088.249.012.426.075.456.364.024.226.088.488.384.422.26-.057.254-.328.262-.551,0-.111,0-.222,0-.333M28.1,159.4a.348.348,0,0,0,.3.349,5.822,5.822,0,0,0,3-.263c.133-.048.243-.146.173-.315a.257.257,0,0,0-.263-.162c-.163.014-.322.061-.484.085a4.887,4.887,0,0,1-2.436.1c-.161-.057-.25.055-.288.2" transform="translate(-6.605 -50.658)" fill="#db6e5f"/>
        <path id="Trazado_108205" data-name="Trazado 108205" d="M54.751,125.487a7.369,7.369,0,0,1-2.475.357,93.262,93.262,0,0,0-10.537-1.261,41.369,41.369,0,0,1-6.761-.946,42.56,42.56,0,0,0-4.874-1.109,2.4,2.4,0,0,1-.8-.184,27.482,27.482,0,0,1,1.075-4.059q.658-2.516,1.31-5.034c.771-.42.867-.842.32-1.477a2.673,2.673,0,0,0-.537-.513c-1.48-.965-2.773-2.169-4.166-3.244a15.346,15.346,0,0,1-2.554-2.082,3.712,3.712,0,0,0-1.417-1.187,41.421,41.421,0,0,1,3.5-4.417,50.556,50.556,0,0,1,3.99-3.974,2.049,2.049,0,0,0,1.481,1.219c.691.2,1.388.382,2.085.556a19.715,19.715,0,0,0,5.32.791c1.136-.031,2.275-.046,3.409.009a14.878,14.878,0,0,0,4.818-.741,5.961,5.961,0,0,0,2.808-1.987,2.018,2.018,0,0,0,.462-1.386,3,3,0,0,0-.8-1.871A1.275,1.275,0,0,1,49.988,92a.717.717,0,0,0,.3-1.066c.59-.4,1.187-.788,1.767-1.2.447-.317.936-.636,1.02-1.231a3.341,3.341,0,0,1,1.134-2.036l.159-.119a3.5,3.5,0,0,0,1.181-.673L56.1,85.5a4.645,4.645,0,0,0,.531,1.3,25.273,25.273,0,0,1,1.822,3.631c.673,1.851,1.657,3.56,2.438,5.361.179.411.382.821.941.794a3.178,3.178,0,0,1-1.995,2.74,2.705,2.705,0,0,0-1.742,2.158,2.148,2.148,0,0,1-.754,1.352.721.721,0,0,0-.313.558,18.309,18.309,0,0,1-.368,2.714,36.608,36.608,0,0,0-.275,3.726c-.137,2.073-.409,4.132-.606,6.2-.136,1.432-.289,2.862-.415,4.3s-.236,2.869-.337,4.3a2,2,0,0,1-.281.858M50.007,112.8c-.038-.225-.094-.449-.321-.545a.471.471,0,0,0-.592.179,9.776,9.776,0,0,1-1.695,1.686,20.574,20.574,0,0,1-3.382,2.514c-.615.369-1.265.68-1.885,1.042-.364.213-.486.565-.319.829a.638.638,0,0,0,.856.285c.153-.063.3-.143.45-.212a17,17,0,0,0,2.535-1.559,26.3,26.3,0,0,0,3.918-3.434,1.552,1.552,0,0,0,.435-.785m3.557-17.379c-.2.039-.354.166-.3.392a1.23,1.23,0,0,0,.272.5,32.273,32.273,0,0,0,3.414,3.142c.23.193.537.472.793.182.286-.325-.127-.529-.317-.73-1.084-1.147-2.391-2.06-3.423-3.262a.519.519,0,0,0-.441-.229m-10.9,13.793c.286,0,.4,0,.507,0,.239-.008.443-.083.5-.342a.487.487,0,0,0-.3-.539,1.624,1.624,0,0,0-.471-.133,13.091,13.091,0,0,1-2.835-.881,1.092,1.092,0,0,0-.4-.091c-.382-.015-.564.268-.373.592a1.013,1.013,0,0,0,.345.348,8.549,8.549,0,0,0,3.021,1.047m-6.776-8.458c0-.1,0-.214,0-.324-.007-.147-.057-.287-.215-.311a.344.344,0,0,0-.382.252,3.471,3.471,0,0,0-.116.482c-.214,1-.457,1.987-.742,2.968-.094.321-.258.613-.329.934-.06.275-.1.618.23.713s.337-.264.431-.481a19.7,19.7,0,0,0,.953-3.25,2.561,2.561,0,0,0,.17-.981m-1.846,1.633h.035a9.788,9.788,0,0,0-.073-.984.391.391,0,0,0-.433-.308c-.253.005-.321.173-.32.388,0,.5,0,.992.019,1.488a1.109,1.109,0,0,0,.124.389c.068.151.157.308.355.287a.332.332,0,0,0,.287-.35c.019-.3.005-.606.005-.909m20.647.515a3.525,3.525,0,0,0,.462-.035.384.384,0,0,0,.346-.4.336.336,0,0,0-.3-.344,13.006,13.006,0,0,0-1.879-.208c-.173.021-.33.091-.366.278s.112.3.266.368a8.646,8.646,0,0,0,1.475.34" transform="translate(-8.287 -30.365)" fill="#53bced"/>
        <path id="Trazado_108206" data-name="Trazado 108206" d="M54.115,86.548a1.277,1.277,0,0,0,.421.953,3,3,0,0,1,.8,1.87,2.025,2.025,0,0,1-.462,1.386,5.977,5.977,0,0,1-2.808,1.987,13.728,13.728,0,0,1-5.446.688,9.292,9.292,0,0,0-2.017,0,17.674,17.674,0,0,1-6.083-.742c-.7-.174-1.395-.357-2.085-.557a2.051,2.051,0,0,1-1.482-1.219A3.323,3.323,0,0,0,35,90.25a2.153,2.153,0,0,1,.924-2.013c.282-.235.567-.457.538-.876a2.969,2.969,0,0,1,1.689-2.746A9.571,9.571,0,0,0,40.334,82.7a1.912,1.912,0,0,0,.386-1.408.382.382,0,0,0-.006-.046,4.175,4.175,0,0,1,1.4-4.041,11.727,11.727,0,0,1,1.86-1.653,1.731,1.731,0,0,0,.665-.824,21.036,21.036,0,0,1,1.032-2.082,4.91,4.91,0,0,1,3.144-2.272,7.39,7.39,0,0,1,2.476-.191,2.4,2.4,0,0,1,1.254.384,2.451,2.451,0,0,0,1.065.426,2.569,2.569,0,0,1,1.307.839,4.854,4.854,0,0,1,1.144,1.513.227.227,0,0,1-.317.166,1.74,1.74,0,0,1-1.121-.777,3.606,3.606,0,0,0-1.386-1.472,1.42,1.42,0,0,0-.145.924,8.785,8.785,0,0,1-.945,4.17c-.331.658-.64,1.217-.128,1.924a1.984,1.984,0,0,1,.218,1.128,1.4,1.4,0,0,0,.179.716c.228.379.463.755.675,1.143a4.777,4.777,0,0,1,.295,1.2,6.387,6.387,0,0,0,3.572-2.231,1.085,1.085,0,0,0,.388-.956,7.762,7.762,0,0,0-.725-2.245,4.089,4.089,0,0,1-.754.278c-.287.043-.791.212-.887-.217.059-.057.148-.249.068-.234-.268.048.107-.182.107-.182a1.572,1.572,0,0,0,1.334-.189h0c.023.093,1.08.369,1.294.509,0,0,1.364.583.591,2.77a.741.741,0,0,0-.044.328,1.492,1.492,0,0,1,.03.592c-.01.059-.02.172-.018.1,0,.074,0,.147-.006.221A3.332,3.332,0,0,0,57.2,83.052c-.084.595-.573.914-1.02,1.231-.581.411-1.177.8-1.767,1.2-.175-.059-.437-.322-.444.112a1.569,1.569,0,0,0,.146.954" transform="translate(-12.414 -24.916)" fill="#522f27"/>
        <path id="Trazado_108207" data-name="Trazado 108207" d="M73.846,66.708l-.558.175a5.541,5.541,0,0,1,.951-1.987,39.208,39.208,0,0,0,2.148-4.209c.881-1.968,1.661-3.983,2.6-5.925A37.383,37.383,0,0,0,81.918,46.5c.206-.943.446-1.879.625-2.827a3.862,3.862,0,0,0-.018-1.406c-.2-1.085-.5-2.149-.653-3.245a1.705,1.705,0,0,0-.544-1.175,1.74,1.74,0,0,1-.478-.951.732.732,0,0,1,.582-1,1.342,1.342,0,0,1,1.293.391c.387.4.787.781,1.153,1.195.185.209.334.2.456-.01a5.577,5.577,0,0,0,.907-2.722.668.668,0,0,0-.373-.665c-.522-.313-.689-.666-.553-.981a1.1,1.1,0,0,1,1.212-.491,1.533,1.533,0,0,1,1.023.486,1.289,1.289,0,0,1,.286.992,6.627,6.627,0,0,0-.206,2.058,1.873,1.873,0,0,0,.43-1.44c-.024-.3-.078-.652.282-.793a.851.851,0,0,1,.96.326,1.646,1.646,0,0,1,.424,1.459c.243.01.257-.206.377-.3.19-.152.333-.391.637-.268a.886.886,0,0,1,.648.688,1.254,1.254,0,0,1-.126.806,3.9,3.9,0,0,0-.37,1.052c.2.151.315.031.42-.026a.586.586,0,0,1,.816.15.724.724,0,0,1-.015.86,5.719,5.719,0,0,1-.81.943A6.642,6.642,0,0,0,88,43.794a14.417,14.417,0,0,1-.751,2.708,36,36,0,0,0-.847,3.792,85.753,85.753,0,0,1-2.305,9.574,33.49,33.49,0,0,1-1.451,3.257c-.909,1.959-1.691,3.97-2.568,5.94a33.89,33.89,0,0,1-1.981,3.921,1.3,1.3,0,0,1-.35-.639,27.519,27.519,0,0,0-2.623-5.3c-.417-.655-.515-.664-1.274-.335M88.746,36c-.37.337-.534.583-.462,1.006A1.23,1.23,0,0,0,88.746,36" transform="translate(-26.028 -11.574)" fill="#f3a9d9"/>
        <path id="Trazado_108208" data-name="Trazado 108208" d="M22.631,125.379c-1.18,1.278-2.285,2.623-3.482,3.886-1.386,1.462-2.694,3-3.952,4.571-.6.754-1.223,1.5-1.865,2.217a1.307,1.307,0,0,0-.382.963c.02.691-.006,1.384.012,2.075a1.819,1.819,0,0,1-.295,1.019,1.094,1.094,0,0,1-1.109.56c-.448-.091-.6-.451-.718-.829a4.447,4.447,0,0,1-.086-.638c-.667.49-1.132,1.076-1.718,1.526-1.312,1.009-2.552,2.109-3.775,3.225a3.655,3.655,0,0,1-.518.408.639.639,0,0,1-.84-.032.649.649,0,0,1-.148-.827,6.6,6.6,0,0,1,1.03-1.693,4.839,4.839,0,0,0,.72-1.039c-.342-.076-.475.124-.613.27a22.353,22.353,0,0,1-2.454,2.1,1.516,1.516,0,0,1-.729.372c-.42.058-.625-.161-.549-.586a1.469,1.469,0,0,1,.343-.654c.483-.6.964-1.208,1.451-1.808a.649.649,0,0,0,.2-.437l.072-.081-.086.067a6.267,6.267,0,0,0-1.548.774,6.2,6.2,0,0,1-.753.35.6.6,0,0,1-.769-.324.563.563,0,0,1,.155-.747c.344-.277.713-.522,1.065-.789a13.555,13.555,0,0,0,1.755-1.367,1.064,1.064,0,0,0-.695.061,1.419,1.419,0,0,1-.9-.055c-.566-.242-.631-.7-.117-1.054.431-.3.9-.546,1.356-.8a21.313,21.313,0,0,0,3-2.34c.257-.21.5-.431.776-.62a8.941,8.941,0,0,0,1.9-1.942c2.575-3.255,4.834-6.733,7.256-10.1.209-.291.442-.564.664-.845a13.752,13.752,0,0,1,1.987,1.42c.987.655,1.7,1.628,2.655,2.33a8.143,8.143,0,0,1,1.691,1.414M3.774,137.065a.207.207,0,0,0-.182.208c-.11.8.446,1.217.987,1.593a9.446,9.446,0,0,0,2.814,1.183.6.6,0,0,0,.662-.115c-.649-.245-1.263-.465-1.867-.708-1.069-.43-2.163-.838-2.415-2.161" transform="translate(0 -42.694)" fill="#f3a9d9"/>
        <path id="Trazado_108209" data-name="Trazado 108209" d="M29.876,230.73c.837.133.869.171.847.958-.005.19,0,.38-.005.569-.005.1.044.137.139.124l.35.008a3.732,3.732,0,0,1,.522,1.8.943.943,0,0,0,.07.319c.076.22.2.417.469.358.232-.05.268-.255.25-.457-.025-.273-.079-.542-.1-.815a8.14,8.14,0,0,1-.239-1.2l.521.005c.167.671.638,1.219.76,1.913a.354.354,0,0,0,.461.25c.233-.053.264-.248.264-.453a2.835,2.835,0,0,0-.36-1.089c-.085-.2-.388-.37-.15-.651a2.8,2.8,0,0,1,2.268,1.619,1.929,1.929,0,0,1-1.068,2.859,11.352,11.352,0,0,1-3.271.9c-.519.041-1.025.228-1.543.32q-2.205.393-4.417.758a4.142,4.142,0,0,1-2.25-.453.963.963,0,0,1-.551-.776,8.706,8.706,0,0,1-.071-1.989c.03-1.163.09-2.325.119-3.487a10.394,10.394,0,0,1,.167-1.065.675.675,0,0,1,.442-.557,60.412,60.412,0,0,0,6.373.233" transform="translate(-8.081 -81.862)" fill="#53bced"/>
        <path id="Trazado_108210" data-name="Trazado 108210" d="M52.321,232.746a2.114,2.114,0,0,1-.052.974c-.431,2.427,1.762,1.861,1.762,1.861a12.9,12.9,0,0,1,2.659-.037,2.4,2.4,0,0,1,1.208.839,1.436,1.436,0,0,1-.13,2.139,15.559,15.559,0,0,1-5.785,2.231c-.289.015-4.391.916-5.931.1a1.191,1.191,0,0,1-.693-1.135c.007-1,.054-1.989.128-2.983.073-.964.056-1.935.067-2.9a2.335,2.335,0,0,1,.186-.965.744.744,0,0,1,.765-.509c1.622.093,3.241.244,4.869.191a1.281,1.281,0,0,1,.945.2" transform="translate(-16.11 -82.521)" fill="#53bced"/>
        <path id="Trazado_108211" data-name="Trazado 108211" d="M64.387,77.6c.1.428.44.37.728.327a4.049,4.049,0,0,0,.754-.279,7.8,7.8,0,0,1,.725,2.245,1.085,1.085,0,0,1-.388.957,6.391,6.391,0,0,1-3.572,2.231,4.751,4.751,0,0,0-.3-1.2c-.212-.388-.447-.764-.675-1.143a1.41,1.41,0,0,1-.178-.716,1.987,1.987,0,0,0-.219-1.129c-.511-.705-.2-1.265.128-1.923a8.78,8.78,0,0,0,.946-4.17,1.42,1.42,0,0,1,.145-.924,3.606,3.606,0,0,1,1.386,1.472,1.738,1.738,0,0,0,1.121.777.228.228,0,0,0,.317-.166c.089.135.172.274.268.4.271.367.126.607-.23.789-.492.437-.492.437-.236,1.011.434.974.426.994-.545,1.27h0c-.116,0-.18.051-.176.172m-.8-3.225c-.041-.239-.172-.426-.42-.412a.428.428,0,0,0-.417.5.394.394,0,0,0,.414.413.439.439,0,0,0,.422-.5" transform="translate(-21.662 -25.525)" fill="#efa5d4"/>
        <path id="Trazado_108212" data-name="Trazado 108212" d="M30.6,123.652a8.124,8.124,0,0,0-1.691-1.414c-.954-.7-1.668-1.675-2.655-2.33a13.717,13.717,0,0,0-1.987-1.42,3.928,3.928,0,0,0-.976-.98c-.088-.064-.186-.115-.27-.185-.584-.5-.967-1.354,0-1.969a3.723,3.723,0,0,1,1.417,1.187,15.282,15.282,0,0,0,2.554,2.082c1.394,1.075,2.686,2.28,4.166,3.244a2.694,2.694,0,0,1,.537.513c.547.634.451,1.056-.32,1.476l-.769-.2" transform="translate(-7.964 -40.968)" fill="#ececd0"/>
        <path id="Trazado_108213" data-name="Trazado 108213" d="M74.153,85.381c.758-.33.856-.321,1.273.335a27.483,27.483,0,0,1,2.623,5.3,1.308,1.308,0,0,0,.35.639,1.989,1.989,0,0,0,.3.76c.433.886.9,1.757,1.294,2.661.192.444.534.976-.11,1.386-.559.027-.762-.382-.94-.794-.781-1.8-1.766-3.51-2.438-5.361a25.3,25.3,0,0,0-1.822-3.63,4.641,4.641,0,0,1-.531-1.3" transform="translate(-26.336 -30.248)" fill="#ececd0"/>
        <path id="Trazado_108214" data-name="Trazado 108214" d="M52.952,231.418a1.281,1.281,0,0,0-.945-.2c-1.628.054-3.247-.1-4.869-.191-.022-.812.27-1.6.2-2.412l5.854.348q-.121,1.228-.242,2.456" transform="translate(-16.741 -81.193)" fill="#f0a8d7"/>
        <path id="Trazado_108215" data-name="Trazado 108215" d="M30.289,229.765a60.408,60.408,0,0,1-6.373-.233q.033-.714.066-1.428a2.391,2.391,0,0,1,.478-.108c2-.042,3.99-.288,5.992-.195a16.658,16.658,0,0,1-.164,1.963" transform="translate(-8.494 -80.897)" fill="#f0a8d7"/>
        <path id="Trazado_108216" data-name="Trazado 108216" d="M36.837,233.339a8.139,8.139,0,0,0,.239,1.2c.02.273.074.543.1.815.017.2-.017.406-.25.457-.273.059-.393-.139-.469-.359a.958.958,0,0,1-.069-.319,3.739,3.739,0,0,0-.522-1.8.8.8,0,0,1,.973,0" transform="translate(-12.737 -82.813)" fill="#ececd0"/>
        <path id="Trazado_108217" data-name="Trazado 108217" d="M61.768,237.143a8.139,8.139,0,0,0,.239,1.2c.02.273.074.543.1.815.017.2-.017.406-.25.457-.273.059-.392-.139-.469-.359a.958.958,0,0,1-.069-.319,3.732,3.732,0,0,0-.522-1.8.8.8,0,0,1,.973,0" transform="translate(-21.591 -84.164)" fill="#ececd0"/>
        <path id="Trazado_108218" data-name="Trazado 108218" d="M59.5,237.2a9.461,9.461,0,0,0,.266,1.293c.02.272.074.542.1.814.018.2-.017.407-.25.457-.273.059-.393-.138-.469-.358a.979.979,0,0,1-.07-.32,3.723,3.723,0,0,0-.522-1.8.77.77,0,0,1,.947-.092" transform="translate(-20.794 -84.198)" fill="#ececd0"/>
        <path id="Trazado_108219" data-name="Trazado 108219" d="M39.157,233.314c-.238.28.064.448.15.651a2.847,2.847,0,0,1,.36,1.088c0,.206-.031.4-.264.453a.354.354,0,0,1-.461-.249c-.122-.694-.593-1.242-.76-1.913a.855.855,0,0,1,.976-.031" transform="translate(-13.56 -82.813)" fill="#ececd0"/>
        <path id="Trazado_108220" data-name="Trazado 108220" d="M66.533,79.229c.97-.276.979-.3.545-1.27-.256-.575-.256-.575.236-1.011a4.658,4.658,0,0,1,0,.657,1.734,1.734,0,0,0,.389,1.3,1.279,1.279,0,0,1-1.17.322" transform="translate(-23.629 -27.328)" fill="#522f27"/>
        <path id="Trazado_108221" data-name="Trazado 108221" d="M35.244,233.35c-.095.013-.144-.025-.139-.124l.139.124" transform="translate(-12.467 -82.831)" fill="#ececd0"/>
        <path id="Trazado_108222" data-name="Trazado 108222" d="M56.189,156.585a12.835,12.835,0,0,1,.157-2.567c.1-.5.153-.562.637-.486.626.1,1.247.23,1.876.3a48.9,48.9,0,0,0,4.953.314c.453.005.581.208.549.609-.088,1.127-.171,2.254-.259,3.381-.011.137-.053.271-.064.409a3.041,3.041,0,0,1-2.988,2.942,7.5,7.5,0,0,1-2.3-.236,2.052,2.052,0,0,1-.929-.515,4.666,4.666,0,0,1-1.633-4.152" transform="translate(-19.939 -54.518)" fill="#ffdb57"/>
        <path id="Trazado_108223" data-name="Trazado 108223" d="M32.767,156.039a9.57,9.57,0,0,1,.62-3.354c.15-.469.079-1.063.448-1.395.385-.346.894.051,1.357.051,1.63,0,3.251.236,4.885.174.643-.024.642.016.664.649a5.456,5.456,0,0,1-.169,1.561,15.888,15.888,0,0,1-1.211,3.688,5.218,5.218,0,0,1-.571.811,2.589,2.589,0,0,1-2.685.861,8.3,8.3,0,0,1-2.2-.669,1.754,1.754,0,0,1-1.135-1.829c.009-.165,0-.332,0-.547" transform="translate(-11.635 -53.681)" fill="#ffdb57"/>
        <path id="Trazado_108224" data-name="Trazado 108224" d="M29.879,223.63c1.16-.038,2.321.009,3.482-.086a5.976,5.976,0,0,1,1.154.088.271.271,0,0,1,.253.279.312.312,0,0,1-.236.3,1.441,1.441,0,0,1-.407.055c-1.935.015-3.867.184-5.8.105a10.365,10.365,0,0,1-1.317-.133c-.246-.042-.651-.008-.614-.392.035-.362.4-.324.671-.289.938.126,1.878.034,2.817.068" transform="translate(-9.372 -79.39)" fill="#3f484a"/>
        <path id="Trazado_108225" data-name="Trazado 108225" d="M61.052,186.478a1.014,1.014,0,0,1-.237.6,6.3,6.3,0,0,1-2.44,2.181c-1.121.6-2.255,1.167-3.387,1.74a2.345,2.345,0,0,1-.544.19c-.163.037-.347.025-.417-.168s.068-.319.226-.378c.961-.362,1.807-.946,2.724-1.393a12.131,12.131,0,0,0,2.215-1.283,4.455,4.455,0,0,0,1.29-1.59.291.291,0,0,1,.569.1" transform="translate(-19.181 -66.121)" fill="#3f484a"/>
        <path id="Trazado_108226" data-name="Trazado 108226" d="M54.795,223.329a21.8,21.8,0,0,1-3.313-.164c-.3-.034-.6-.087-.9-.137-.221-.036-.494-.075-.476-.356.024-.364.35-.27.581-.276a4.9,4.9,0,0,1,.747.028,39.634,39.634,0,0,0,4.478.17c.5.008.992.071,1.488.115.107.01.226.035.251.169.033.17-.083.25-.216.3a2.215,2.215,0,0,1-.811.152c-.609-.005-1.218,0-1.827,0" transform="translate(-17.794 -78.982)" fill="#3f484a"/>
        <path id="Trazado_108227" data-name="Trazado 108227" d="M31.185,196.035a1.127,1.127,0,0,1-.283-.172.314.314,0,0,1,.008-.386c.136-.229.407-.274.6-.424a28.7,28.7,0,0,0,3.567-3.216,3.78,3.78,0,0,0,.466-.682c.094-.16.194-.289.384-.2a.356.356,0,0,1,.194.486,1.777,1.777,0,0,1-.292.5,23.31,23.31,0,0,1-4.122,3.827,4.257,4.257,0,0,1-.526.27" transform="translate(-10.953 -67.808)" fill="#3f484a"/>
        <path id="Trazado_108228" data-name="Trazado 108228" d="M49.779,207.472a.448.448,0,0,1,.375.282,7.084,7.084,0,0,0,2.137,2.27,2.457,2.457,0,0,0,.9.571c.166.042.339.1.309.313-.032.235-.228.29-.43.308a.786.786,0,0,1-.547-.164c-1.034-.816-2.2-1.5-2.756-2.8a1.22,1.22,0,0,1-.181-.544.243.243,0,0,1,.2-.239" transform="translate(-17.609 -73.684)" fill="#3f484a"/>
        <path id="Trazado_108229" data-name="Trazado 108229" d="M50.516,152.246c0,.111,0,.222,0,.333-.007.223,0,.494-.261.551-.3.065-.36-.2-.384-.423-.03-.289-.206-.351-.456-.364-.331-.017-.662-.055-.992-.088-.147-.015-.286-.073-.268-.244a.253.253,0,0,1,.236-.2c.3-.026.607-.031.911-.054.446-.035.534-.2.269-.574-.175-.246-.408-.451-.6-.687a.3.3,0,0,1-.016-.445c.119-.118.255-.053.384,0a2.2,2.2,0,0,1,1.179,2.2" transform="translate(-17.101 -53.266)" fill="#3f484a"/>
        <path id="Trazado_108230" data-name="Trazado 108230" d="M33.339,168.418c.039-.15.126-.262.288-.205a4.876,4.876,0,0,0,2.435-.1c.163-.023.322-.071.485-.084a.257.257,0,0,1,.262.162c.07.169-.039.267-.172.314a5.809,5.809,0,0,1-3,.263.346.346,0,0,1-.3-.348" transform="translate(-11.84 -59.675)" fill="#3f484a"/>
        <path id="Trazado_108231" data-name="Trazado 108231" d="M60.144,127.52a1.552,1.552,0,0,1-.435.785,26.327,26.327,0,0,1-3.917,3.434,16.991,16.991,0,0,1-2.536,1.559c-.15.07-.3.149-.45.213a.638.638,0,0,1-.856-.286c-.168-.264-.045-.616.319-.829.619-.362,1.269-.673,1.884-1.042a20.607,20.607,0,0,0,3.383-2.514,9.8,9.8,0,0,0,1.695-1.686.471.471,0,0,1,.591-.179c.227.1.283.32.321.545" transform="translate(-18.424 -45.081)" fill="#49809b"/>
        <path id="Trazado_108232" data-name="Trazado 108232" d="M70.043,100.892a.52.52,0,0,1,.442.229c1.032,1.2,2.339,2.115,3.423,3.262.191.2.6.4.318.73-.257.29-.564.011-.793-.182a32.144,32.144,0,0,1-3.414-3.142,1.231,1.231,0,0,1-.273-.5c-.055-.226.1-.353.3-.392" transform="translate(-24.766 -35.832)" fill="#43768c"/>
        <path id="Trazado_108233" data-name="Trazado 108233" d="M51.41,121.187a8.524,8.524,0,0,1-3.021-1.047,1.009,1.009,0,0,1-.344-.348c-.192-.325-.01-.607.373-.592a1.073,1.073,0,0,1,.4.091,13.146,13.146,0,0,0,2.835.881,1.627,1.627,0,0,1,.471.133.487.487,0,0,1,.3.539c-.059.26-.263.334-.5.342-.11,0-.221,0-.507,0" transform="translate(-17.036 -42.334)" fill="#49809b"/>
        <path id="Trazado_108234" data-name="Trazado 108234" d="M41.794,108.813a2.569,2.569,0,0,1-.17.981,19.746,19.746,0,0,1-.953,3.251c-.1.217-.092.578-.431.481s-.29-.438-.23-.713c.071-.322.235-.614.328-.934.286-.981.529-1.97.743-2.968a3.427,3.427,0,0,1,.116-.482.344.344,0,0,1,.381-.252c.158.024.208.164.215.311.006.11,0,.221,0,.324" transform="translate(-14.195 -38.418)" fill="#43768c"/>
        <path id="Trazado_108235" data-name="Trazado 108235" d="M39.5,110.986c0,.3.012.607-.006.909a.333.333,0,0,1-.287.35c-.2.021-.287-.136-.355-.287a1.109,1.109,0,0,1-.124-.389c-.019-.5-.017-.992-.019-1.488,0-.215.067-.383.32-.388a.392.392,0,0,1,.433.308,9.6,9.6,0,0,1,.072.984H39.5" transform="translate(-13.747 -38.957)" fill="#43768c"/>
        <path id="Trazado_108236" data-name="Trazado 108236" d="M70.992,111.945a8.645,8.645,0,0,1-1.475-.34c-.155-.064-.3-.168-.266-.368s.193-.257.366-.278a13.007,13.007,0,0,1,1.879.208.336.336,0,0,1,.3.344.384.384,0,0,1-.346.4,3.526,3.526,0,0,1-.462.035" transform="translate(-24.593 -39.402)" fill="#43768c"/>
        <path id="Trazado_108237" data-name="Trazado 108237" d="M64.584,94.917a1.569,1.569,0,0,1-.146-.954c.006-.434.268-.171.444-.112a.717.717,0,0,1-.3,1.066" transform="translate(-22.883 -33.284)" fill="#ececd0"/>
        <path id="Trazado_108238" data-name="Trazado 108238" d="M97,37.872a1.23,1.23,0,0,1-.462,1.006c-.072-.423.092-.669.462-1.006" transform="translate(-34.279 -13.45)" fill="#fff"/>
        <path id="Trazado_108239" data-name="Trazado 108239" d="M5.744,146.346c.251,1.323,1.346,1.731,2.415,2.161.6.243,1.218.463,1.867.708a.6.6,0,0,1-.662.115,9.446,9.446,0,0,1-2.814-1.183c-.541-.377-1.1-.793-.987-1.593a.207.207,0,0,1,.182-.208" transform="translate(-1.97 -51.975)" fill="#78484b"/>
        <path id="Trazado_108240" data-name="Trazado 108240" d="M4.883,150.874l.086-.066-.072.081-.014-.015" transform="translate(-1.734 -53.56)" fill="#fff"/>
        <path id="Trazado_108241" data-name="Trazado 108241" d="M64.549,75.525a.439.439,0,0,1-.422.5.394.394,0,0,1-.414-.413.428.428,0,0,1,.417-.5c.248-.014.379.173.42.412" transform="translate(-22.627 -26.676)" fill="#78484b"/>
        <path id="Trazado_108242" data-name="Trazado 108242" d="M237.282,175.981c-.072,1.535-.175,3.068-.226,4.6-.039,1.17-.127,2.34-.078,3.509a46.7,46.7,0,0,0,.511,5.9c.082.48.037.976.164,1.453a17.3,17.3,0,0,1,.27,5.085,27.258,27.258,0,0,0,.01,2.773,10.791,10.791,0,0,1-.567,4.177,21.822,21.822,0,0,1-1.906,2.177,2.261,2.261,0,0,0-.433.262,10.5,10.5,0,0,1-3.281,1.858c-1.211.52-2.494.814-3.73,1.254a5.234,5.234,0,0,0-.647.1,7.457,7.457,0,0,1-2.814.25c-.409-.043-.825-.018-1.239-.025a6.676,6.676,0,0,0-1.959-.15,8.622,8.622,0,0,1-4.147-1c-.388-.2-.79-.378-1.185-.566l-2.31-1.442a2.3,2.3,0,0,0-.334-.278c-1.528-.848-1.933-2.282-2.029-3.877a.6.6,0,0,1,.049-.282,11.946,11.946,0,0,0,.484-1.9,29.383,29.383,0,0,0,.449-3.832c.28-1.8.316-3.631.54-5.44.152-1.229.232-2.468.344-3.7a1.979,1.979,0,0,0,.137-.482,17.99,17.99,0,0,0,.184-1.942,14.516,14.516,0,0,0,.1-3.226,6.918,6.918,0,0,1,1.154-3.257,9.545,9.545,0,0,0,1.229-5.242,5.031,5.031,0,0,0-1.484-2.841,1.725,1.725,0,0,0-1.418-.594c-.066,0-.13-.064-.195-.1.187-.4.7-.285.945-.59a1.1,1.1,0,0,0,.98-.3,33.765,33.765,0,0,0,5.433-1.376,2.54,2.54,0,0,1,1.134-.241c.181.4.553.4.915.442a45.924,45.924,0,0,0,4.93.157,2.973,2.973,0,0,1,.867.037,1.965,1.965,0,0,0,1.662-.258,32.491,32.491,0,0,1,4.8.874,3.746,3.746,0,0,0,.867.081c.316.017.575.106.674.444-.129.415-.272.827-.383,1.248a4.646,4.646,0,0,0-.026,2.37,11.412,11.412,0,0,0,1.306,3.138,1.783,1.783,0,0,1,.253.749M222.19,201.92c-.008.2-.019.39-.025.585s-.017.426.235.466.319-.172.348-.374c.034-.241.068-.483.083-.726.1-1.509.219-3.015.406-4.516.274-2.2.538-4.4.816-6.606.281-2.227.487-4.46.65-6.7.166-2.261.254-4.528.378-6.792.008-.159-.018-.307-.187-.351a.319.319,0,0,0-.358.192,1.85,1.85,0,0,0-.147.857c-.091,1.8-.161,3.607-.267,5.408-.2,3.313-.564,6.61-.974,9.9-.36,2.881-.788,5.751-.958,8.653m6.834-9.094c-.03-2-.155-4-.31-5.99-.213-2.772-.478-5.539-.892-8.29a4.475,4.475,0,0,0-.172-.709.3.3,0,0,0-.336-.225.359.359,0,0,0-.3.287.508.508,0,0,0,.032.425,2.782,2.782,0,0,1,.275,1.127c.266,1.858.438,3.727.614,5.6.3,3.182.453,6.37.511,9.564.02,1.051-.075,2.1-.121,3.142-.015.341-.028.683-.029,1.024,0,.156.063.293.243.306s.264-.117.3-.264a3.726,3.726,0,0,0,.046-.435,55.116,55.116,0,0,0,.133-5.558m-6.234-18.5c-1.394.018-2.464.144-3.54.095a1.375,1.375,0,0,0-.431.057.27.27,0,0,0-.182.286.261.261,0,0,0,.2.269,1.665,1.665,0,0,0,.435.04c.8-.027,1.611-.045,2.414-.1a19.636,19.636,0,0,1,3.439-.01c2.7.3,5.411.243,8.116.351a1.339,1.339,0,0,0,.292-.011c.168-.032.375-.065.383-.273.008-.241-.206-.324-.4-.34-.365-.029-.732-.03-1.1-.033-1.611-.015-3.222.017-4.831-.121a33.774,33.774,0,0,0-4.8-.21" transform="translate(-75.061 -59.203)" fill="#dbbe36"/>
        <path id="Trazado_108243" data-name="Trazado 108243" d="M208.2,226.46l2.31,1.442a6.723,6.723,0,0,1-.616,1.477,10.211,10.211,0,0,0-.554,4.885,2.762,2.762,0,0,0,1.482,2.222,6.7,6.7,0,0,0,2.382.611,2.375,2.375,0,0,0,2.254-.936,7.675,7.675,0,0,0,1.335-2.248c.166-.483.31-.975.494-1.45a6.922,6.922,0,0,0,.515-2.846c.413.006.829-.018,1.239.024a7.456,7.456,0,0,0,2.814-.25,5.116,5.116,0,0,1,.647-.1c.224,1.192.4,2.395.731,3.565a3.366,3.366,0,0,0,4.193,2.512,10.963,10.963,0,0,0,2.777-1.281,2.734,2.734,0,0,0,1.243-2.287,8.62,8.62,0,0,0-.451-2.87,13.2,13.2,0,0,0-1.049-3.015,21.744,21.744,0,0,0,1.906-2.176,3.621,3.621,0,0,1,.135,1.085c0,4.3.024,8.6-.018,12.893-.014,1.435-.2,2.869-.318,4.3-.112,1.336-.271,2.669-.36,4.006-.2,3.066-.377,6.134-.562,9.2-.008.146-.012.293-.011.439.015,2.954-.179,5.9-.277,8.852-.031.927-.024,1.856-.008,2.784.039,2.247-.188,4.486-.21,6.732,0,.122-.009.244-.006.366.012.5.022.515.551.527.464.01.928,0,1.392,0a2.994,2.994,0,0,1,.511.024,1.052,1.052,0,0,1,.905,1.078,1.037,1.037,0,0,1-1,.9c-.266.023-.536.006-.805.01l-1.976.026-5.814-.009c-.437-.037-.878-.05-1.311-.115-.62-.094-.935-.443-.908-.947.025-.468.34-.752.936-.842.625-.094.613-.094.584-.7-.066-1.365-.118-2.73-.179-4.1a36.975,36.975,0,0,0-.475-4.215,47.986,47.986,0,0,1-.419-4.882c-.142-2.459-.263-4.92-.393-7.38,0-.049-.005-.1-.005-.146,0-2.369-.2-4.729-.347-7.091-.161-2.579-.357-5.157-.539-7.736-.007-.1-.031-.19-.055-.329a1.222,1.222,0,0,0-.422.685,77.607,77.607,0,0,0-3.337,9.216,50.391,50.391,0,0,1-2.359,5.989c-1.076,2.566-1.969,5.2-2.97,7.8-.7,1.82-1.51,3.6-2.386,5.347-.807,1.61-1.524,3.266-2.307,4.956a2.171,2.171,0,0,0,1.077.087c.894-.054,1.112.373.967,1.188-.026.144-.084.281-.114.424-.073.35-.287.453-.635.454a19.721,19.721,0,0,0-2.414.04q-3.149-.207-6.3-.167c-1.049-.021-2.1-.037-3.148-.063-.649-.015-.738-.1-.685-.727a7.032,7.032,0,0,1,.165-1.083,1.086,1.086,0,0,1,1.283-.919,14.793,14.793,0,0,0,1.6.14.581.581,0,0,0,.644-.517c.458-1.673.769-3.374,1.093-5.075.429-2.252.892-4.5,1.265-6.758.36-2.189.7-4.383,1.111-6.562.629-3.305,1.338-6.6,1.971-9.9.619-3.234,1.386-6.436,2.053-9.66.346-1.669.553-3.367.832-5.05.1-.625.231-1.246.348-1.869m3.321,28.66a6.7,6.7,0,0,0-1.139,1.281,26.42,26.42,0,0,1-3.864,3.857c-.489.441-.952.905-1.423,1.365-.131.128-.215.279-.041.439a.317.317,0,0,0,.46-.01c.112-.094.214-.2.319-.3.262-.255.508-.529.789-.762a37.1,37.1,0,0,0,3.6-3.5,10.459,10.459,0,0,0,1.232-1.625c.13-.214.283-.4.063-.742m13.562,19.337c0,.01,0,.02,0,.03h-.513a1.2,1.2,0,0,0-.706.136.249.249,0,0,0-.139.3c.034.114.133.13.231.139.072.006.146,0,.219,0a26.429,26.429,0,0,1,4.856.42.818.818,0,0,0,.637-.079.288.288,0,0,0,.138-.243.211.211,0,0,0-.165-.211,3.394,3.394,0,0,0-.566-.141c-1.33-.124-2.66-.236-3.99-.351m-21.735-1.889h.364a6.75,6.75,0,0,0,2.022-.154c.175-.055.324-.144.316-.343-.01-.245-.215-.222-.38-.224a2.733,2.733,0,0,0-.436.025,13.731,13.731,0,0,1-3.69.013,11.1,11.1,0,0,0-1.164-.036c-.126,0-.246.038-.276.181a.285.285,0,0,0,.207.337,1.015,1.015,0,0,0,.283.055,16.052,16.052,0,0,0,2.754.146m22.892-7.481c.239-.017.369-.212.513-.37a32.155,32.155,0,0,0,3.236-4.135c.131-.2.575-.464.247-.7-.271-.195-.486.232-.642.454-.365.518-.727,1.036-1.134,1.522q-1.077,1.288-2.14,2.587a1.574,1.574,0,0,0-.243.446c-.037.1.036.181.163.194m-3.754-30.468c0-.111,0-.378,0-.645a.206.206,0,0,0-.177-.2.241.241,0,0,0-.242.124,1.171,1.171,0,0,0-.139.776,4.415,4.415,0,0,1-.642,2.359c-.057.107-.148.2-.193.308-.066.161-.108.347.086.447.173.089.255-.064.339-.184a4.33,4.33,0,0,0,.971-2.982M210.417,252.6a1.282,1.282,0,0,0-.363-.446,7.763,7.763,0,0,1-1.589-1.893c-.111-.224-.249-.61-.531-.442-.258.153-.007.486.1.719a7.947,7.947,0,0,0,1.793,2.1.481.481,0,0,0,.4.148.185.185,0,0,0,.188-.184m13.116-15.491a2.993,2.993,0,0,0-1.277.146c-.134.059-.3.1-.269.282.035.2.23.172.355.142a3.78,3.78,0,0,1,2.005-.006c.106.031.251.032.289-.131.025-.11-.055-.179-.124-.244-.3-.293-.689-.154-.98-.188m2.084,15.4c-.13.008-.237.015-.254.13a.227.227,0,0,0,.068.182,2.4,2.4,0,0,0,.758.384.21.21,0,0,0,.185-.06.2.2,0,0,0-.01-.19,1.133,1.133,0,0,0-.747-.448" transform="translate(-69.548 -79.462)" fill="#53bced"/>
        <path id="Trazado_108244" data-name="Trazado 108244" d="M223.8,132.509c-1.069-.58-1.15-1.341-.33-2.207a10.53,10.53,0,0,1,6.061-3,4.712,4.712,0,0,1,3.494.74,12.95,12.95,0,0,1,2.6,2.345,2.567,2.567,0,0,1,.471.736,1.83,1.83,0,0,0,.992,1.02,1.447,1.447,0,0,1,.96,1.491.5.5,0,0,0,.453.562,6.057,6.057,0,0,1,.775.212,1.224,1.224,0,0,1,.8,1.648,4.247,4.247,0,0,1-.425.929c-.142.262-.1.421.232.416.268,0,.538-.03.8-.013a.732.732,0,0,1,.606,1.233c-.161.244-.378.45-.534.7-.263.416-.184.617.276.755.186.056.383.075.574.116a1.1,1.1,0,0,1,.756,1.78,11.932,11.932,0,0,1-.819,1.031.56.56,0,0,0-.168.386c.217.07.462.141.7.226a1.461,1.461,0,0,1,.511,2.6,3.708,3.708,0,0,1-2.98.943.885.885,0,0,0-.827.281,2.137,2.137,0,0,1-2.56.437c-.195-.086-.346-.2-.585-.005a3.535,3.535,0,0,1-2.824.7,3.774,3.774,0,0,1-.92-.7c-.423.244-.818.482-1.223.7a4.93,4.93,0,0,1-1.452.662c-.8.142-1.607.241-2.157-.578a5.356,5.356,0,0,1-.291-1.652c.013-1.414.037-2.828.033-4.242a4.749,4.749,0,0,1,.273-1.575.874.874,0,0,1,.55-.619,1.494,1.494,0,0,0,.94-1.368,5.319,5.319,0,0,0,.008-.8,1.366,1.366,0,0,0-1.869-1.4c-.725.183-.886.03-.751-.732a2.675,2.675,0,0,1,.588-1.163c.112-.144.322-.214.361-.468a8.92,8.92,0,0,1-2.281-1.428c-.277-.229-.461-.568-.825-.693" transform="translate(-79.17 -45.185)" fill="#2e1b17"/>
        <path id="Trazado_108245" data-name="Trazado 108245" d="M200.508,170.588c.064.034.128.093.194.1a1.729,1.729,0,0,1,1.419.595,5.035,5.035,0,0,1,1.484,2.841,9.546,9.546,0,0,1-1.229,5.242,6.909,6.909,0,0,0-1.154,3.256c-.237.137-.268.394-.351.617a10.2,10.2,0,0,1-.712,1.512c-.553.965-1.21,1.866-1.69,2.879a10.173,10.173,0,0,0-.762,2.183c-.316.633-.661,1.252-.941,1.9a2.07,2.07,0,0,1-2.038,1.279,9.034,9.034,0,0,1-2.805-.357c-3.254-1-6.516-1.984-9.775-2.973-.912-.277-1.758-.716-2.643-1.058-.693-.268-.987-.921-1.413-1.438a22.613,22.613,0,0,1-1.46-2.443,1.494,1.494,0,0,1-.187-.772c-.032-1.021-.052-2.047-.062-3.063-.01-.963.047-1.942.077-2.915a.516.516,0,0,1,.343-.508c.4-.029.571.239.654.562a5.438,5.438,0,0,1,.175,1.007,16.737,16.737,0,0,0,.6,3.155c.1.4.191.432.567.277a1.548,1.548,0,0,0,1.027-1.6c.044-.057.11-.106.128-.17.085-.3.233-.586.58-.531.377.059.426.42.461.736.021.192,0,.388.01.581.012.411.028.822.043,1.234a2.627,2.627,0,0,0,.09.717.82.82,0,0,0,.7.806c.54.135,1.069.313,1.6.473a38.138,38.138,0,0,0,6.728,1.493c-.014.072-.064.171-.035.209a7.133,7.133,0,0,1,.88,1.666.228.228,0,0,0,.292.153c.181-.064.174-.229.122-.368a3.027,3.027,0,0,0-1.067-1.7,22.788,22.788,0,0,0,2.2-3.153c.538-1.111,1.087-2.216,1.631-3.325l.76-1.622a1.144,1.144,0,0,0,.532-.847c.18-.108.234-.3.334-.469.838-1.39,1.4-2.946,2.62-4.108a28.549,28.549,0,0,1,2.077-2.047m-22.139,12.443c0-.093-.025-.164-.1-.191a.147.147,0,0,0-.181.072c-.092.142-.181.285-.275.426-.073.11-.263.206-.1.354.143.127.272-.008.368-.108a.938.938,0,0,0,.286-.553m.542-.187a.824.824,0,0,0,.3.991.17.17,0,0,0,.255,0,.185.185,0,0,0,.01-.259c-.155-.208-.316-.413-.56-.731" transform="translate(-62.643 -60.585)" fill="#f3a8d8"/>
        <path id="Trazado_108246" data-name="Trazado 108246" d="M178.475,176.258a1.546,1.546,0,0,1-1.027,1.6c-.377.155-.466.119-.567-.277a16.788,16.788,0,0,1-.6-3.155,5.368,5.368,0,0,0-.175-1.007c-.083-.323-.25-.591-.654-.562l-2.739-11.237c-.023-.095-.054-.188-.073-.284-.124-.616-.1-.655.529-.73q5.2-.617,10.394-1.228,6.506-.775,13.01-1.557c.557-.066,1.117-.113,1.673-.184.295-.037.433.077.523.358.763,2.369,1.539,4.733,2.311,7.1a1.1,1.1,0,0,1-.98.3c-.479-1.791-1.086-3.545-1.5-5.352-.211-.909-.216-.922-1.139-.807q-3.665.456-7.328.932c-2.49.322-4.978.657-7.469.98-2.394.31-4.789.607-7.182.923-.859.113-.864.132-.629,1q1.352,4.978,2.715,9.952c.3,1.081.537,2.176.908,3.236" transform="translate(-61.293 -55.985)" fill="#e2762c"/>
        <path id="Trazado_108247" data-name="Trazado 108247" d="M222.166,135.418c.364.125.549.464.826.693a8.915,8.915,0,0,0,2.281,1.428c-.039.253-.249.323-.36.468a2.677,2.677,0,0,0-.589,1.162c-.134.762.026.915.752.733a1.365,1.365,0,0,1,1.868,1.4,5.4,5.4,0,0,1-.008.8,1.5,1.5,0,0,1-.94,1.368.873.873,0,0,0-.55.619,4.736,4.736,0,0,0-.273,1.575c0,1.414-.02,2.828-.032,4.242a11.924,11.924,0,0,1-3.348-.354c-.184-.117-.373-.23-.552-.355a3.083,3.083,0,0,1-1.4-2.216,17.212,17.212,0,0,1-.041-1.751.286.286,0,0,1,.29-.334c1.5-.195,2.013-1.379,2.514-2.561.079-.184.109-.4-.126-.5s-.343.109-.425.285a9.609,9.609,0,0,1-.78,1.4,1.619,1.619,0,0,1-1.322.762c-.153-.315-.021-.6-.029-.889,0-.14.05-.325-.135-.371a10.96,10.96,0,0,1-1.464-.778,5.159,5.159,0,0,1,.891-1.575,5.994,5.994,0,0,0,1.294-1.6,7.655,7.655,0,0,0,1.187-2.3,3.217,3.217,0,0,0,.475-1.355m.437,2.484a.425.425,0,0,0-.225-.422c-.177-.088-.326,0-.466.1a.873.873,0,0,0-.374,1.007.358.358,0,0,0,.429.18.9.9,0,0,0,.636-.868" transform="translate(-77.537 -48.094)" fill="#efa5d6"/>
        <path id="Trazado_108248" data-name="Trazado 108248" d="M200.577,307.529a.93.93,0,0,1,.162,1.083c-.223.542-.41,1.1-.628,1.641a1.612,1.612,0,0,1-1.789,1.188c-.605-.063-1.219-.041-1.829-.075-2.417-.14-4.834.047-7.251-.022-.61-.017-1.221-.03-1.831-.041a3.694,3.694,0,0,1-1.718-.572c-.566-.311-.378-.844-.383-1.31,0-.422.329-.58.665-.673a7.607,7.607,0,0,1,1.078-.2,67.984,67.984,0,0,0,7.175-1.423,5.828,5.828,0,0,0,.619-.219,2.2,2.2,0,0,1,.857-.013,12.129,12.129,0,0,0,1.213.19c1.219.153,2.439.3,3.659.446" transform="translate(-65.805 -108.981)" fill="#437286"/>
        <path id="Trazado_108249" data-name="Trazado 108249" d="M240.788,308.769a1.331,1.331,0,0,1,1.051,1.63c-.066.407-.109.82-.2,1.222a1.33,1.33,0,0,1-1.516,1.248c-2.071-.093-4.142-.212-6.214-.226-1.665-.012-3.293-.377-4.954-.39a5.367,5.367,0,0,1-.942-.122c-.427-.08-.81-.247-.9-.733a1.157,1.157,0,0,1,.807-1.095c.652-.2,1.308-.395,1.975-.535,1.717-.363,3.442-.7,5.163-1.041a4.662,4.662,0,0,1,.718-.049c1.666.137,3.336.055,5,.091" transform="translate(-80.659 -109.626)" fill="#437286"/>
        <path id="Trazado_108250" data-name="Trazado 108250" d="M216.66,145.772a11,11,0,0,0,1.464.778c.185.046.131.231.135.371.008.285-.124.574.029.89a1.623,1.623,0,0,0,1.323-.762,9.606,9.606,0,0,0,.78-1.4c.082-.175.176-.389.426-.285s.2.319.126.5c-.5,1.182-1.01,2.366-2.514,2.561a.285.285,0,0,0-.29.334,17.4,17.4,0,0,0,.041,1.751,3.087,3.087,0,0,0,1.4,2.216c.18.124.368.237.552.355a12.818,12.818,0,0,1-4.143-.222,5.431,5.431,0,0,1-1.486-.6,1.469,1.469,0,0,1-.167-2.582c.373-.272.47-.5.276-.894-.054-.108-.072-.233-.115-.347-.538-1.434.365-2.2,1.445-2.527a7.012,7.012,0,0,1,.717-.14" transform="translate(-75.876 -51.616)" fill="#321e1a"/>
        <path id="Trazado_108251" data-name="Trazado 108251" d="M205.844,305.966c-1.219-.148-2.439-.293-3.659-.446a12.147,12.147,0,0,1-1.213-.19,2.2,2.2,0,0,0-.857.013c.307-.981.813-1.887,1.079-2.884q3.155-.036,6.3.167a5.217,5.217,0,0,1-.759,1.461,9.864,9.864,0,0,0-.9,1.879" transform="translate(-71.071 -107.417)" fill="#f3a8d8"/>
        <path id="Trazado_108252" data-name="Trazado 108252" d="M235.337,166.035a1.964,1.964,0,0,1-1.662.258,2.979,2.979,0,0,0-.867-.037,45.92,45.92,0,0,1-4.93-.157c-.362-.041-.734-.037-.915-.442a4.265,4.265,0,0,1,.113-1.294.741.741,0,0,1,.786-.6,22.705,22.705,0,0,0,3.169.283c1.087.074,2.183.017,3.276.018a1.276,1.276,0,0,1,1,1.261c.017.237.017.474.025.711" transform="translate(-80.606 -58.16)" fill="#fdf4d5"/>
        <path id="Trazado_108253" data-name="Trazado 108253" d="M234.8,162.457c-1.092,0-2.189.056-3.276-.017a22.806,22.806,0,0,1-3.169-.284c0-.043,0-.086,0-.128l.115-.15a13.7,13.7,0,0,0,.528-1.853c.55.82,1.356.72,2.157.578a4.93,4.93,0,0,0,1.452-.662c.4-.221.8-.458,1.223-.7a3.774,3.774,0,0,0,.92.7c-.334.108-.244.351-.2.593a9.862,9.862,0,0,1,.253,1.929" transform="translate(-81.1 -56.554)" fill="#f3a8d8"/>
        <path id="Trazado_108254" data-name="Trazado 108254" d="M250.627,176.962a1.783,1.783,0,0,0-.253-.749,11.429,11.429,0,0,1-1.306-3.138,4.646,4.646,0,0,1,.026-2.37c.111-.42.254-.832.383-1.248a1.407,1.407,0,0,1,1.279,1.143,9.714,9.714,0,0,1,.531,5.3c-.1.406-.146.893-.659,1.065" transform="translate(-88.407 -60.183)" fill="#f3a8d8"/>
        <path id="Trazado_108255" data-name="Trazado 108255" d="M209.453,196.436a10.161,10.161,0,0,1,.762-2.183c.48-1.014,1.136-1.914,1.69-2.879a10.176,10.176,0,0,0,.712-1.513c.083-.222.113-.479.351-.616a14.555,14.555,0,0,1-.1,3.226,17.663,17.663,0,0,1-.184,1.942,1.991,1.991,0,0,1-.136.483c-.768.395-1.535.793-2.305,1.183-.256.13-.523.239-.785.357" transform="translate(-74.388 -67.211)" fill="#e2762c"/>
        <path id="Trazado_108256" data-name="Trazado 108256" d="M245.168,307.919c-1.668-.035-3.338.046-5-.091a4.658,4.658,0,0,0-.718.049l.033-1.6,5.814.009a5.581,5.581,0,0,0-.124,1.63" transform="translate(-85.039 -108.776)" fill="#f3a8d8"/>
        <path id="Trazado_108257" data-name="Trazado 108257" d="M221,141.089a6.007,6.007,0,0,1-1.294,1.6,1.817,1.817,0,0,1,1.294-1.6" transform="translate(-78.028 -50.108)" fill="#321e1a"/>
        <path id="Trazado_108258" data-name="Trazado 108258" d="M228.467,163.331l-.115.15.115-.15" transform="translate(-81.1 -58.007)" fill="#fdf4d5"/>
        <path id="Trazado_108259" data-name="Trazado 108259" d="M179.652,177.113c-.371-1.059-.611-2.155-.908-3.236q-1.364-4.974-2.715-9.952c-.235-.864-.23-.883.629-1,2.393-.315,4.788-.613,7.182-.923,2.49-.323,4.979-.658,7.469-.98q3.663-.474,7.328-.932c.923-.115.928-.1,1.139.807.418,1.807,1.025,3.561,1.5,5.352-.247.3-.758.188-.945.59a28.663,28.663,0,0,0-2.076,2.047c-1.222,1.161-1.783,2.717-2.621,4.108-.1.165-.154.362-.334.469-.541.144-1.077.314-1.625.426-2.768.567-5.555,1.049-8.293,1.759-.943.245-1.894.461-2.842.687-.215.052-.446.121-.567-.155A10.411,10.411,0,0,1,180.959,173c.417-.443.84-.883,1.252-1.331a1.361,1.361,0,0,1,1.787-.391c.333.148.664.306.983.485.576.324.651.309.916-.291a22.025,22.025,0,0,0,.921-2.387c.11-.355.291-.68.665-.69,1.323-.038,2.571-.608,3.9-.534a1.316,1.316,0,0,0,1.5-.989A1.8,1.8,0,0,1,193.4,166a6.028,6.028,0,0,1,2.064-1.3c.912-.266,1.631-.982,2.615-1.093a.38.38,0,0,0,.311-.5c-.066-.259-.288-.309-.522-.294a.48.48,0,0,0-.379.2,2.056,2.056,0,0,1-.886.624c-.718.362-1.453.689-2.178,1.036a1.094,1.094,0,0,1-.829.168c-.253-.074-.559.014-.577.295-.041.626-.513,1.043-.682,1.6a.746.746,0,0,1-.816.577,10.974,10.974,0,0,0-2.6.335,2.687,2.687,0,0,1-1.788,0,.553.553,0,0,0-.749.552,8.7,8.7,0,0,1-.914,2.826c-.055.144-.144.257-.33.164a8.427,8.427,0,0,1-1.815-.923c-.418-.356-.8-.307-1,.217a6.335,6.335,0,0,1-1.645,2.094c-.71-2.176-1.175-4.422-1.862-6.6-.044-.142-.108-.3.008-.415.329-.34.1-.56-.143-.791-.158-.152-.309-.312-.454-.477-.114-.13-.222-.294-.41-.264-.216.035-.191.247-.222.41-.059.31-.12.621-.188.929-.043.2.01.4.2.4.569,0,.648.414.766.813.124.42.268.836.372,1.261a59.189,59.189,0,0,0,2.663,8.566c.289.7.3.732,1.015.564,4.1-.963,8.217-1.84,12.347-2.658l-.76,1.622a4.338,4.338,0,0,0-.5.057q-6.318,1.482-12.634,2.97c-.014-.411-.03-.822-.043-1.234-.006-.194.012-.389-.009-.582-.035-.316-.084-.677-.462-.736-.346-.054-.495.228-.58.531-.018.064-.084.114-.128.17" transform="translate(-62.47 -56.84)" fill="#fdf4d5"/>
        <path id="Trazado_108260" data-name="Trazado 108260" d="M244.639,227.116a13.182,13.182,0,0,1,1.049,3.015,8.619,8.619,0,0,1,.451,2.869,2.734,2.734,0,0,1-1.243,2.287,10.964,10.964,0,0,1-2.777,1.281,3.366,3.366,0,0,1-4.193-2.512c-.328-1.17-.507-2.372-.731-3.565,1.236-.439,2.519-.733,3.73-1.253a10.518,10.518,0,0,0,3.281-1.858,2.327,2.327,0,0,1,.433-.262" transform="translate(-84.24 -80.661)" fill="#497e98"/>
        <path id="Trazado_108261" data-name="Trazado 108261" d="M225.2,231.91a6.929,6.929,0,0,1-.515,2.845c-.185.476-.328.967-.494,1.451a7.679,7.679,0,0,1-1.335,2.247,2.375,2.375,0,0,1-2.254.936,6.7,6.7,0,0,1-2.382-.611,2.761,2.761,0,0,1-1.482-2.222,10.2,10.2,0,0,1,.554-4.885,6.731,6.731,0,0,0,.616-1.477c.4.188.8.364,1.185.566a8.613,8.613,0,0,0,4.147,1,6.7,6.7,0,0,1,1.959.15" transform="translate(-76.95 -81.754)" fill="#497e98"/>
        <path id="Trazado_108262" data-name="Trazado 108262" d="M228.146,207.54c.169-2.9.6-5.773.957-8.653.411-3.291.778-6.589.974-9.9.106-1.8.177-3.605.268-5.408a1.841,1.841,0,0,1,.147-.857.319.319,0,0,1,.358-.193c.169.044.2.192.187.351-.124,2.264-.213,4.531-.378,6.792-.163,2.236-.37,4.471-.65,6.7-.278,2.2-.542,4.4-.816,6.606-.187,1.5-.31,3.007-.406,4.516-.015.242-.049.485-.084.725-.029.2-.088.416-.347.375s-.242-.268-.235-.466.017-.39.026-.585" transform="translate(-81.017 -64.822)" fill="#527a80"/>
        <path id="Trazado_108263" data-name="Trazado 108263" d="M237.637,198.838a55.292,55.292,0,0,1-.133,5.557,3.874,3.874,0,0,1-.047.435c-.035.147-.123.277-.3.264s-.244-.15-.243-.306c0-.341.014-.683.029-1.023.046-1.047.141-2.092.121-3.142-.059-3.195-.213-6.383-.512-9.564-.175-1.869-.348-3.738-.614-5.6a2.784,2.784,0,0,0-.275-1.127.506.506,0,0,1-.033-.425.36.36,0,0,1,.3-.287.3.3,0,0,1,.336.225,4.475,4.475,0,0,1,.172.709c.414,2.75.678,5.517.892,8.29.153,1.994.28,3.99.309,5.991" transform="translate(-83.674 -65.213)" fill="#527a80"/>
        <path id="Trazado_108264" data-name="Trazado 108264" d="M226.8,178.518a33.776,33.776,0,0,1,4.8.21c1.61.137,3.22.105,4.831.121.366,0,.733,0,1.1.033.2.016.41.1.4.34-.008.208-.215.241-.383.273a1.338,1.338,0,0,1-.292.011c-2.705-.108-5.415-.054-8.116-.351a19.634,19.634,0,0,0-3.439.01c-.8.054-1.609.072-2.414.1a1.664,1.664,0,0,1-.435-.04.261.261,0,0,1-.2-.269.27.27,0,0,1,.182-.286,1.375,1.375,0,0,1,.431-.057c1.076.049,2.146-.077,3.54-.095" transform="translate(-79.075 -63.391)" fill="#527a80"/>
        <path id="Trazado_108265" data-name="Trazado 108265" d="M216.551,272.4c.221.34.068.529-.063.743a10.489,10.489,0,0,1-1.232,1.625,37.172,37.172,0,0,1-3.6,3.5c-.28.233-.526.508-.789.762-.105.1-.207.207-.319.3a.317.317,0,0,1-.46.011c-.174-.16-.09-.311.041-.439.47-.459.933-.923,1.423-1.364a26.419,26.419,0,0,0,3.864-3.857,6.679,6.679,0,0,1,1.139-1.282" transform="translate(-74.577 -96.744)" fill="#4b829e"/>
        <path id="Trazado_108266" data-name="Trazado 108266" d="M240.442,302.389c1.33.116,2.661.228,3.99.351a3.4,3.4,0,0,1,.566.141.212.212,0,0,1,.166.211.287.287,0,0,1-.138.243.82.82,0,0,1-.638.079,26.421,26.421,0,0,0-4.856-.42c-.073,0-.147.005-.219,0-.1-.008-.2-.025-.23-.139a.249.249,0,0,1,.139-.3,1.2,1.2,0,0,1,.706-.136h.512c0-.01,0-.02,0-.03" transform="translate(-84.906 -107.394)" fill="#4b829e"/>
        <path id="Trazado_108267" data-name="Trazado 108267" d="M205.7,299.063a16.056,16.056,0,0,1-2.754-.146,1,1,0,0,1-.283-.055.285.285,0,0,1-.207-.337c.03-.143.15-.183.277-.181a11.109,11.109,0,0,1,1.164.036,13.731,13.731,0,0,0,3.69-.013,2.724,2.724,0,0,1,.435-.025c.166,0,.371-.021.381.224.008.2-.141.288-.317.344a6.77,6.77,0,0,1-2.022.153c-.121,0-.243,0-.364,0" transform="translate(-71.9 -105.957)" fill="#4b829e"/>
        <path id="Trazado_108268" data-name="Trazado 108268" d="M242.9,284.966c-.127-.014-.2-.095-.163-.194a1.574,1.574,0,0,1,.243-.446q1.062-1.3,2.14-2.587c.407-.486.769-1,1.134-1.522.157-.222.371-.649.643-.454.328.235-.117.5-.248.7a32.207,32.207,0,0,1-3.236,4.135c-.144.157-.275.352-.513.37" transform="translate(-86.204 -99.341)" fill="#4b829e"/>
        <path id="Trazado_108269" data-name="Trazado 108269" d="M236.371,240.143a4.33,4.33,0,0,1-.971,2.982c-.084.12-.166.273-.339.184-.194-.1-.152-.287-.086-.447.045-.11.136-.2.193-.308a4.412,4.412,0,0,0,.642-2.359,1.167,1.167,0,0,1,.14-.775.239.239,0,0,1,.241-.124.205.205,0,0,1,.177.2c.007.267,0,.535,0,.645" transform="translate(-83.432 -84.985)" fill="#4b829e"/>
        <path id="Trazado_108270" data-name="Trazado 108270" d="M217.025,266.94a.185.185,0,0,1-.188.184.481.481,0,0,1-.4-.147,7.953,7.953,0,0,1-1.793-2.1c-.112-.234-.362-.566-.105-.719.282-.168.42.219.531.442a7.738,7.738,0,0,0,1.589,1.893,1.284,1.284,0,0,1,.363.446" transform="translate(-76.155 -93.802)" fill="#4b829e"/>
        <path id="Trazado_108271" data-name="Trazado 108271" d="M237.939,244.468c.291.034.676-.105.98.188.068.066.148.135.123.244-.037.163-.183.163-.289.131a3.784,3.784,0,0,0-2,.006c-.126.03-.321.053-.356-.142-.032-.178.135-.224.269-.282a2.982,2.982,0,0,1,1.277-.146" transform="translate(-83.954 -86.822)" fill="#4b829e"/>
        <path id="Trazado_108272" data-name="Trazado 108272" d="M241.884,268.351a1.133,1.133,0,0,1,.747.448.2.2,0,0,1,.01.19.21.21,0,0,1-.185.06,2.4,2.4,0,0,1-.758-.384.227.227,0,0,1-.068-.182c.017-.115.124-.123.254-.13" transform="translate(-85.815 -95.305)" fill="#4b829e"/>
        <path id="Trazado_108273" data-name="Trazado 108273" d="M183.607,187.716q6.317-1.487,12.634-2.97a4.094,4.094,0,0,1,.5-.057c-.544,1.108-1.092,2.214-1.63,3.325a22.883,22.883,0,0,1-2.2,3.152l-.192.039A38.174,38.174,0,0,1,186,189.711c-.535-.159-1.063-.337-1.6-.473a.82.82,0,0,1-.7-.805,2.662,2.662,0,0,1-.09-.717" transform="translate(-65.205 -65.592)" fill="#e17328"/>
        <path id="Trazado_108274" data-name="Trazado 108274" d="M195.6,176.5c-4.13.818-8.248,1.695-12.347,2.658-.713.168-.726.133-1.016-.564a59.106,59.106,0,0,1-2.662-8.566c-.1-.425-.249-.84-.373-1.261-.117-.4-.2-.812-.765-.814-.188,0-.241-.206-.2-.4.068-.308.129-.619.188-.929.032-.164.006-.375.222-.41.188-.031.3.133.41.263.145.164.3.324.453.477.24.232.472.451.144.791-.115.12-.053.274-.008.415.687,2.183,1.152,4.429,1.862,6.605a.433.433,0,0,0,.277.424,10.408,10.408,0,0,0,1.017,3.184c.122.276.353.206.567.155.949-.226,1.9-.442,2.842-.687,2.739-.711,5.524-1.192,8.293-1.759.548-.112,1.084-.283,1.625-.426a1.144,1.144,0,0,1-.532.847" transform="translate(-63.296 -59.031)" fill="#6eafd8"/>
        <path id="Trazado_108275" data-name="Trazado 108275" d="M197.728,194.771l.192-.039a3.026,3.026,0,0,1,1.067,1.7c.052.139.059.3-.123.368a.227.227,0,0,1-.291-.153,7.131,7.131,0,0,0-.88-1.666c-.029-.038.022-.138.035-.209" transform="translate(-70.208 -69.16)" fill="#321e1a"/>
        <path id="Trazado_108276" data-name="Trazado 108276" d="M179.066,189.775a.939.939,0,0,1-.286.553c-.1.1-.226.235-.368.108-.166-.148.025-.244.1-.354.094-.141.183-.284.275-.426a.147.147,0,0,1,.181-.072c.077.026.1.1.1.192" transform="translate(-63.34 -67.328)" fill="#321e1a"/>
        <path id="Trazado_108277" data-name="Trazado 108277" d="M180.27,189.594c.244.318.4.522.56.731a.185.185,0,0,1-.01.259.17.17,0,0,1-.255,0,.824.824,0,0,1-.3-.991" transform="translate(-64.002 -67.335)" fill="#321e1a"/>
        <path id="Trazado_108278" data-name="Trazado 108278" d="M224.345,139.018a.9.9,0,0,1-.636.867.357.357,0,0,1-.429-.18.873.873,0,0,1,.374-1.006c.141-.1.289-.192.466-.1a.425.425,0,0,1,.225.422" transform="translate(-79.279 -49.21)" fill="#321e1a"/>
        <path id="Trazado_108279" data-name="Trazado 108279" d="M183.6,174.526a.432.432,0,0,1-.276-.424,6.349,6.349,0,0,0,1.644-2.094c.2-.524.58-.573,1-.217a8.424,8.424,0,0,0,1.815.923c.186.094.274-.019.33-.163a8.7,8.7,0,0,0,.914-2.826.553.553,0,0,1,.749-.553,2.679,2.679,0,0,0,1.788,0,11.045,11.045,0,0,1,2.6-.335.746.746,0,0,0,.816-.577c.17-.556.642-.973.682-1.6.018-.281.324-.369.577-.295a1.094,1.094,0,0,0,.829-.168c.725-.347,1.46-.675,2.178-1.036a2.055,2.055,0,0,0,.886-.624.479.479,0,0,1,.379-.2c.234-.015.456.035.522.293a.382.382,0,0,1-.311.5c-.983.111-1.7.827-2.614,1.093a6.029,6.029,0,0,0-2.065,1.3,1.8,1.8,0,0,0-.517.874,1.316,1.316,0,0,1-1.5.989c-1.334-.074-2.581.5-3.9.533-.374.011-.555.335-.665.69a21.979,21.979,0,0,1-.921,2.388c-.266.6-.34.615-.916.291-.319-.179-.649-.337-.983-.485a1.361,1.361,0,0,0-1.787.391c-.413.448-.834.888-1.252,1.332" transform="translate(-65.106 -58.365)" fill="#537c8b"/>
      </g>
    </g>
    <rect id="Rectángulo_5655" data-name="Rectángulo 5655" width="232" height="232" transform="translate(-8982 -8640)" fill="none"/>
  </g>
</svg>
