<svg xmlns="http://www.w3.org/2000/svg" xmlns:xlink="http://www.w3.org/1999/xlink" width="820" height="205" viewBox="0 0 820 205">
  <defs>
    <clipPath id="clip-path">
      <rect id="Rectángulo_5565" data-name="Rectángulo 5565" width="820" height="205" fill="#dbbe36"/>
    </clipPath>
  </defs>
  <g id="Grupo_62403" data-name="Grupo 62403" transform="translate(-390 -4039)">
    <g id="Grupo_62265" data-name="Grupo 62265" transform="translate(390 4039)">
      <g id="Grupo_62264" data-name="Grupo 62264" clip-path="url(#clip-path)">
        <path id="Trazado_107185" data-name="Trazado 107185" d="M1570,102.5A102.5,102.5,0,1,1,1467.5,0,102.5,102.5,0,0,1,1570,102.5" transform="translate(-750 0)" fill="#db6e5f"/>
        <path id="Trazado_107186" data-name="Trazado 107186" d="M1574.822,129.286a80.536,80.536,0,1,1-80.536-80.536,80.536,80.536,0,0,1,80.536,80.536" transform="translate(-776.786 -26.786)" fill="#fff"/>
        <path id="Trazado_107187" data-name="Trazado 107187" d="M1136.915,102.477l-25-25a102.5,102.5,0,1,0,.015,49.978Z" transform="translate(-500)" fill="#f8de63"/>
        <path id="Trazado_107188" data-name="Trazado 107188" d="M1119.822,129.286a80.536,80.536,0,1,1-80.536-80.536,80.536,80.536,0,0,1,80.536,80.536" transform="translate(-526.786 -26.786)" fill="#fff"/>
        <path id="Trazado_107189" data-name="Trazado 107189" d="M681.915,102.477l-25-25a102.5,102.5,0,1,0,.015,49.978Z" transform="translate(-250)" fill="#53bced"/>
        <path id="Trazado_107190" data-name="Trazado 107190" d="M664.821,129.286A80.536,80.536,0,1,1,584.286,48.75a80.536,80.536,0,0,1,80.536,80.536" transform="translate(-276.786 -26.786)" fill="#fff"/>
        <path id="Trazado_107191" data-name="Trazado 107191" d="M226.915,102.477l-25-25a102.5,102.5,0,1,0,.015,49.978Z" fill="#0d66bf"/>
        <path id="Trazado_107192" data-name="Trazado 107192" d="M209.821,129.286A80.536,80.536,0,1,1,129.286,48.75a80.536,80.536,0,0,1,80.536,80.536" transform="translate(-26.786 -26.786)" fill="#fff"/>
      </g>
    </g>
    <path id="Trazado_108459" data-name="Trazado 108459" d="M15.684,15.434V21H13.809V6.781h5.244a5.269,5.269,0,0,1,3.657,1.191,4.039,4.039,0,0,1,1.323,3.154,3.986,3.986,0,0,1-1.294,3.188,5.5,5.5,0,0,1-3.706,1.118Zm0-1.533h3.369a3.369,3.369,0,0,0,2.3-.709,2.593,2.593,0,0,0,.8-2.05,2.679,2.679,0,0,0-.8-2.035,3.156,3.156,0,0,0-2.2-.792H15.684ZM28.106,21H26.3V6h1.807Zm9.414,0a3.8,3.8,0,0,1-.254-1.113A4.031,4.031,0,0,1,34.258,21.2a3.73,3.73,0,0,1-2.563-.884,2.859,2.859,0,0,1-1-2.241,2.987,2.987,0,0,1,1.255-2.563,5.916,5.916,0,0,1,3.53-.913h1.758v-.83a2.029,2.029,0,0,0-.566-1.509A2.276,2.276,0,0,0,35,11.693a2.634,2.634,0,0,0-1.621.488,1.439,1.439,0,0,0-.654,1.182H30.909a2.493,2.493,0,0,1,.562-1.528,3.832,3.832,0,0,1,1.523-1.167,5.125,5.125,0,0,1,2.114-.43,4.177,4.177,0,0,1,2.861.913,3.294,3.294,0,0,1,1.074,2.515v4.863a5.946,5.946,0,0,0,.371,2.314V21Zm-3-1.377a3.175,3.175,0,0,0,1.611-.439,2.658,2.658,0,0,0,1.1-1.143V15.873H35.821q-3.32,0-3.32,1.943a1.645,1.645,0,0,0,.566,1.328A2.177,2.177,0,0,0,34.522,19.623Zm9.063-9.189.059,1.328a3.851,3.851,0,0,1,3.164-1.523q3.35,0,3.379,3.779V21H48.38V14.008a2.432,2.432,0,0,0-.522-1.689,2.094,2.094,0,0,0-1.6-.547,2.607,2.607,0,0,0-1.543.469,3.183,3.183,0,0,0-1.035,1.23V21H41.876V10.434ZM54.874,21H53.067V10.434h1.807ZM52.921,7.631a1.078,1.078,0,0,1,.269-.742,1.008,1.008,0,0,1,.8-.3,1.024,1.024,0,0,1,.8.3,1.067,1.067,0,0,1,.273.742,1.032,1.032,0,0,1-.273.732,1.043,1.043,0,0,1-.8.293,1.026,1.026,0,0,1-.8-.293A1.043,1.043,0,0,1,52.921,7.631ZM58.37,21V11.83H56.7v-1.4h1.67v-.9a3.671,3.671,0,0,1,1.011-2.754,3.919,3.919,0,0,1,2.856-.986,8.6,8.6,0,0,1,2.764.6l-.3,1.523a6.26,6.26,0,0,0-2.324-.488,2.274,2.274,0,0,0-1.675.522,2.154,2.154,0,0,0-.513,1.567v.918h2.158v1.4H60.186V21ZM65.9,21H64.083V10.434H65.9Zm7.178-1.279a2.6,2.6,0,0,0,1.689-.586,2.061,2.061,0,0,0,.8-1.465h1.709a3.276,3.276,0,0,1-.625,1.729,4.116,4.116,0,0,1-1.538,1.309,4.438,4.438,0,0,1-2.036.488,4.353,4.353,0,0,1-3.433-1.44,5.737,5.737,0,0,1-1.274-3.94v-.3a6.361,6.361,0,0,1,.566-2.744A4.314,4.314,0,0,1,70.562,10.9a4.619,4.619,0,0,1,2.5-.664A4.238,4.238,0,0,1,76.021,11.3a3.8,3.8,0,0,1,1.255,2.764H75.567a2.49,2.49,0,0,0-.776-1.685,2.415,2.415,0,0,0-1.724-.659,2.529,2.529,0,0,0-2.134.991,4.655,4.655,0,0,0-.757,2.866v.342a4.562,4.562,0,0,0,.752,2.813A2.541,2.541,0,0,0,73.077,19.721ZM85.831,21a3.8,3.8,0,0,1-.254-1.113A4.031,4.031,0,0,1,82.569,21.2a3.73,3.73,0,0,1-2.563-.884,2.859,2.859,0,0,1-1-2.241,2.987,2.987,0,0,1,1.255-2.563,5.916,5.916,0,0,1,3.53-.913h1.758v-.83a2.029,2.029,0,0,0-.566-1.509,2.276,2.276,0,0,0-1.67-.562,2.634,2.634,0,0,0-1.621.488,1.439,1.439,0,0,0-.654,1.182H79.219a2.493,2.493,0,0,1,.562-1.528A3.832,3.832,0,0,1,81.3,10.668a5.125,5.125,0,0,1,2.114-.43,4.177,4.177,0,0,1,2.861.913,3.294,3.294,0,0,1,1.074,2.515v4.863a5.946,5.946,0,0,0,.371,2.314V21Zm-3-1.377a3.175,3.175,0,0,0,1.611-.439,2.658,2.658,0,0,0,1.1-1.143V15.873H84.132q-3.32,0-3.32,1.943a1.645,1.645,0,0,0,.566,1.328A2.177,2.177,0,0,0,82.833,19.623Zm12.461-7.568a5.414,5.414,0,0,0-.889-.068A2.381,2.381,0,0,0,91.993,13.5V21H90.186V10.434h1.758l.029,1.221a2.813,2.813,0,0,1,2.52-1.416,1.846,1.846,0,0,1,.8.137Z" transform="translate(441 4160.166)" fill="#12263f"/>
    <path id="Trazado_108460" data-name="Trazado 108460" d="M6.149,21H4.274V6.781H6.149Zm4.844-10.566.049,1.172a3.9,3.9,0,0,1,3.135-1.367,3.021,3.021,0,0,1,3.018,1.7,4,4,0,0,1,1.372-1.23,4.052,4.052,0,0,1,2-.469q3.477,0,3.535,3.682V21H22.292V14.027a2.426,2.426,0,0,0-.518-1.694,2.279,2.279,0,0,0-1.738-.562,2.4,2.4,0,0,0-1.67.6,2.436,2.436,0,0,0-.771,1.616V21H15.778V14.076a2.016,2.016,0,0,0-2.256-2.3,2.417,2.417,0,0,0-2.432,1.514V21H9.284V10.434Zm24.756,5.4a6.327,6.327,0,0,1-1.1,3.887A3.537,3.537,0,0,1,31.657,21.2a3.875,3.875,0,0,1-3.027-1.221v5.088H26.823V10.434h1.65l.088,1.172a3.722,3.722,0,0,1,3.066-1.367,3.6,3.6,0,0,1,3.013,1.436,6.4,6.4,0,0,1,1.108,3.994Zm-1.807-.205a4.669,4.669,0,0,0-.762-2.822,2.454,2.454,0,0,0-2.09-1.035,2.656,2.656,0,0,0-2.461,1.455v5.049a2.661,2.661,0,0,0,2.48,1.445,2.442,2.442,0,0,0,2.065-1.03A5.1,5.1,0,0,0,33.942,15.629ZM40.007,21H38.2V6h1.807Zm7.275.2a4.617,4.617,0,0,1-3.5-1.411,5.237,5.237,0,0,1-1.348-3.774v-.332a6.341,6.341,0,0,1,.6-2.808,4.685,4.685,0,0,1,1.68-1.934,4.223,4.223,0,0,1,2.339-.7,3.957,3.957,0,0,1,3.2,1.357A5.877,5.877,0,0,1,51.4,15.482v.752H44.245a3.756,3.756,0,0,0,.913,2.524,2.87,2.87,0,0,0,2.222.962A3.147,3.147,0,0,0,49,19.33a4.073,4.073,0,0,0,1.162-1.035l1.1.859A4.437,4.437,0,0,1,47.282,21.2Zm-.225-9.473a2.41,2.41,0,0,0-1.836.8A3.868,3.868,0,0,0,44.3,14.75H49.6v-.137a3.441,3.441,0,0,0-.742-2.134A2.269,2.269,0,0,0,47.058,11.723Zm8.135-1.289.049,1.172a3.9,3.9,0,0,1,3.135-1.367,3.021,3.021,0,0,1,3.018,1.7,4,4,0,0,1,1.372-1.23,4.052,4.052,0,0,1,2-.469q3.477,0,3.535,3.682V21H66.491V14.027a2.426,2.426,0,0,0-.518-1.694,2.279,2.279,0,0,0-1.738-.562,2.4,2.4,0,0,0-1.67.6,2.436,2.436,0,0,0-.771,1.616V21H59.977V14.076a2.016,2.016,0,0,0-2.256-2.3,2.417,2.417,0,0,0-2.432,1.514V21H53.483V10.434ZM75.407,21.2a4.617,4.617,0,0,1-3.5-1.411,5.237,5.237,0,0,1-1.348-3.774v-.332a6.341,6.341,0,0,1,.6-2.808,4.685,4.685,0,0,1,1.68-1.934,4.223,4.223,0,0,1,2.339-.7,3.957,3.957,0,0,1,3.2,1.357,5.877,5.877,0,0,1,1.143,3.887v.752H72.37a3.756,3.756,0,0,0,.913,2.524,2.87,2.87,0,0,0,2.222.962,3.147,3.147,0,0,0,1.621-.391,4.073,4.073,0,0,0,1.162-1.035l1.1.859A4.437,4.437,0,0,1,75.407,21.2Zm-.225-9.473a2.41,2.41,0,0,0-1.836.8,3.869,3.869,0,0,0-.918,2.231h5.293v-.137a3.441,3.441,0,0,0-.742-2.134A2.269,2.269,0,0,0,75.183,11.723Zm8.145-1.289.059,1.328a3.85,3.85,0,0,1,3.164-1.523q3.35,0,3.379,3.779V21H88.122V14.008a2.432,2.432,0,0,0-.522-1.689,2.094,2.094,0,0,0-1.6-.547,2.607,2.607,0,0,0-1.543.469,3.183,3.183,0,0,0-1.035,1.23V21H81.618V10.434ZM95.1,7.875v2.559h1.973v1.4H95.1v6.561a1.467,1.467,0,0,0,.264.953,1.11,1.11,0,0,0,.9.318,4.374,4.374,0,0,0,.859-.117V21a5.268,5.268,0,0,1-1.387.194,2.25,2.25,0,0,1-1.826-.732,3.147,3.147,0,0,1-.615-2.08V11.83H91.374v-1.4H93.3V7.875ZM105.71,21a3.8,3.8,0,0,1-.254-1.113,4.031,4.031,0,0,1-3.008,1.309,3.73,3.73,0,0,1-2.563-.884,2.859,2.859,0,0,1-1-2.241,2.987,2.987,0,0,1,1.255-2.563,5.916,5.916,0,0,1,3.53-.913h1.758v-.83a2.029,2.029,0,0,0-.566-1.509,2.276,2.276,0,0,0-1.67-.562,2.634,2.634,0,0,0-1.621.488,1.439,1.439,0,0,0-.654,1.182H99.1a2.493,2.493,0,0,1,.562-1.528,3.832,3.832,0,0,1,1.523-1.167,5.125,5.125,0,0,1,2.114-.43,4.177,4.177,0,0,1,2.861.913,3.294,3.294,0,0,1,1.074,2.515v4.863a5.946,5.946,0,0,0,.371,2.314V21Zm-3-1.377a3.175,3.175,0,0,0,1.611-.439,2.658,2.658,0,0,0,1.1-1.143V15.873h-1.416q-3.32,0-3.32,1.943a1.645,1.645,0,0,0,.566,1.328A2.177,2.177,0,0,0,102.712,19.623Zm12.461-7.568a5.414,5.414,0,0,0-.889-.068,2.381,2.381,0,0,0-2.412,1.514V21h-1.807V10.434h1.758l.029,1.221a2.813,2.813,0,0,1,2.52-1.416,1.846,1.846,0,0,1,.8.137Z" transform="translate(643.157 4160.166)" fill="#12263f"/>
    <path id="Trazado_108461" data-name="Trazado 108461" d="M29.851,16.488a5.231,5.231,0,0,1-1.665,3.481A5.457,5.457,0,0,1,24.46,21.2a5.01,5.01,0,0,1-4.038-1.807A7.268,7.268,0,0,1,18.9,14.555V13.188A8.1,8.1,0,0,1,19.611,9.7a5.288,5.288,0,0,1,2.007-2.31,5.588,5.588,0,0,1,3.008-.806,5.138,5.138,0,0,1,3.633,1.265,5.294,5.294,0,0,1,1.592,3.5H27.966a4.085,4.085,0,0,0-1.06-2.468,3.206,3.206,0,0,0-2.28-.764,3.355,3.355,0,0,0-2.817,1.329,6.1,6.1,0,0,0-1.021,3.782v1.378a6.273,6.273,0,0,0,.967,3.685,3.124,3.124,0,0,0,2.705,1.368,3.608,3.608,0,0,0,2.4-.708,3.929,3.929,0,0,0,1.108-2.466Zm1.8-.869a6.241,6.241,0,0,1,.61-2.793,4.553,4.553,0,0,1,1.7-1.914,4.626,4.626,0,0,1,2.485-.674,4.456,4.456,0,0,1,3.491,1.494,5.748,5.748,0,0,1,1.333,3.975v.127a6.3,6.3,0,0,1-.591,2.769,4.486,4.486,0,0,1-1.689,1.909,4.679,4.679,0,0,1-2.524.684A4.445,4.445,0,0,1,32.98,19.7a5.719,5.719,0,0,1-1.333-3.955Zm1.816.215a4.52,4.52,0,0,0,.815,2.822,2.763,2.763,0,0,0,4.37-.015,4.943,4.943,0,0,0,.811-3.022,4.513,4.513,0,0,0-.825-2.817,2.623,2.623,0,0,0-2.192-1.079,2.594,2.594,0,0,0-2.158,1.064A4.906,4.906,0,0,0,33.464,15.834Zm11.777-5.4.059,1.328a3.851,3.851,0,0,1,3.164-1.523q3.35,0,3.379,3.779V21H50.036V14.008a2.432,2.432,0,0,0-.522-1.689,2.094,2.094,0,0,0-1.6-.547,2.607,2.607,0,0,0-1.543.469,3.183,3.183,0,0,0-1.035,1.23V21H43.532V10.434ZM57.018,7.875v2.559h1.973v1.4H57.018v6.561a1.467,1.467,0,0,0,.264.953,1.11,1.11,0,0,0,.9.318,4.374,4.374,0,0,0,.859-.117V21a5.268,5.268,0,0,1-1.387.194,2.25,2.25,0,0,1-1.826-.732,3.147,3.147,0,0,1-.615-2.08V11.83H53.288v-1.4h1.924V7.875Zm9.189,4.18a5.414,5.414,0,0,0-.889-.068A2.381,2.381,0,0,0,62.907,13.5V21H61.1V10.434h1.758l.029,1.221a2.813,2.813,0,0,1,2.52-1.416,1.846,1.846,0,0,1,.8.137Zm.986,3.564a6.241,6.241,0,0,1,.61-2.793,4.553,4.553,0,0,1,1.7-1.914,4.626,4.626,0,0,1,2.485-.674,4.456,4.456,0,0,1,3.491,1.494,5.748,5.748,0,0,1,1.333,3.975v.127a6.3,6.3,0,0,1-.591,2.769,4.486,4.486,0,0,1-1.689,1.909,4.679,4.679,0,0,1-2.524.684A4.445,4.445,0,0,1,68.527,19.7a5.719,5.719,0,0,1-1.333-3.955Zm1.816.215a4.52,4.52,0,0,0,.815,2.822,2.763,2.763,0,0,0,4.37-.015,4.943,4.943,0,0,0,.811-3.022,4.513,4.513,0,0,0-.825-2.817,2.623,2.623,0,0,0-2.192-1.079,2.594,2.594,0,0,0-2.158,1.064A4.906,4.906,0,0,0,69.011,15.834ZM81.042,21H79.235V6h1.807Zm9.414,0a3.8,3.8,0,0,1-.254-1.113A4.031,4.031,0,0,1,87.194,21.2a3.73,3.73,0,0,1-2.563-.884,2.859,2.859,0,0,1-1-2.241,2.987,2.987,0,0,1,1.255-2.563,5.916,5.916,0,0,1,3.53-.913h1.758v-.83a2.029,2.029,0,0,0-.566-1.509,2.276,2.276,0,0,0-1.67-.562,2.634,2.634,0,0,0-1.621.488,1.439,1.439,0,0,0-.654,1.182H83.845a2.493,2.493,0,0,1,.562-1.528,3.832,3.832,0,0,1,1.523-1.167,5.125,5.125,0,0,1,2.114-.43,4.177,4.177,0,0,1,2.861.913,3.294,3.294,0,0,1,1.074,2.515v4.863a5.946,5.946,0,0,0,.371,2.314V21Zm-3-1.377a3.175,3.175,0,0,0,1.611-.439,2.658,2.658,0,0,0,1.1-1.143V15.873H88.757q-3.32,0-3.32,1.943A1.645,1.645,0,0,0,86,19.145,2.177,2.177,0,0,0,87.458,19.623Zm12.461-7.568a5.414,5.414,0,0,0-.889-.068A2.381,2.381,0,0,0,96.618,13.5V21H94.811V10.434h1.758l.029,1.221a2.813,2.813,0,0,1,2.52-1.416,1.846,1.846,0,0,1,.8.137Z" transform="translate(843.843 4160.166)" fill="#12263f"/>
    <path id="Trazado_108462" data-name="Trazado 108462" d="M28.918,6.781l4.648,11.6,4.648-11.6h2.432V21H38.771V15.463l.176-5.977L34.279,21H32.844L28.185,9.516l.186,5.947V21H26.5V6.781ZM48.059,21.2a4.617,4.617,0,0,1-3.5-1.411,5.237,5.237,0,0,1-1.348-3.774v-.332a6.341,6.341,0,0,1,.6-2.808,4.685,4.685,0,0,1,1.68-1.934,4.223,4.223,0,0,1,2.339-.7,3.957,3.957,0,0,1,3.2,1.357,5.877,5.877,0,0,1,1.143,3.887v.752H45.021a3.756,3.756,0,0,0,.913,2.524,2.87,2.87,0,0,0,2.222.962,3.147,3.147,0,0,0,1.621-.391,4.073,4.073,0,0,0,1.162-1.035l1.1.859A4.437,4.437,0,0,1,48.059,21.2Zm-.225-9.473a2.41,2.41,0,0,0-1.836.8,3.868,3.868,0,0,0-.918,2.231h5.293v-.137a3.441,3.441,0,0,0-.742-2.134A2.269,2.269,0,0,0,47.834,11.723Zm8.3-1.289V22.221q0,3.047-2.764,3.047a3.371,3.371,0,0,1-1.1-.175V23.656a3.493,3.493,0,0,0,.82.078,1.227,1.227,0,0,0,.923-.327,1.619,1.619,0,0,0,.317-1.139V10.434Zm-1.992-2.8a1.083,1.083,0,0,1,.269-.737.987.987,0,0,1,.786-.308,1.024,1.024,0,0,1,.8.3,1.067,1.067,0,0,1,.273.742A1.032,1.032,0,0,1,56,8.363a1.043,1.043,0,0,1-.8.293,1.01,1.01,0,0,1-.791-.293A1.054,1.054,0,0,1,54.143,7.631Zm4.424,7.988a6.241,6.241,0,0,1,.61-2.793,4.553,4.553,0,0,1,1.7-1.914,4.626,4.626,0,0,1,2.485-.674,4.456,4.456,0,0,1,3.491,1.494,5.748,5.748,0,0,1,1.333,3.975v.127a6.3,6.3,0,0,1-.591,2.769,4.486,4.486,0,0,1-1.689,1.909,4.679,4.679,0,0,1-2.524.684A4.445,4.445,0,0,1,59.9,19.7a5.719,5.719,0,0,1-1.333-3.955Zm1.816.215a4.52,4.52,0,0,0,.815,2.822,2.763,2.763,0,0,0,4.37-.015,4.943,4.943,0,0,0,.811-3.022,4.513,4.513,0,0,0-.825-2.817,2.623,2.623,0,0,0-2.192-1.079A2.594,2.594,0,0,0,61.2,12.787,4.906,4.906,0,0,0,60.383,15.834Zm15.176-3.779a5.414,5.414,0,0,0-.889-.068A2.381,2.381,0,0,0,72.258,13.5V21H70.451V10.434h1.758l.029,1.221a2.813,2.813,0,0,1,2.52-1.416,1.846,1.846,0,0,1,.8.137ZM83.351,21a3.8,3.8,0,0,1-.254-1.113A4.031,4.031,0,0,1,80.09,21.2a3.73,3.73,0,0,1-2.563-.884,2.859,2.859,0,0,1-1-2.241,2.987,2.987,0,0,1,1.255-2.563,5.916,5.916,0,0,1,3.53-.913h1.758v-.83a2.029,2.029,0,0,0-.566-1.509,2.276,2.276,0,0,0-1.67-.562,2.634,2.634,0,0,0-1.621.488,1.439,1.439,0,0,0-.654,1.182H76.74a2.493,2.493,0,0,1,.562-1.528,3.832,3.832,0,0,1,1.523-1.167,5.125,5.125,0,0,1,2.114-.43,4.177,4.177,0,0,1,2.861.913,3.294,3.294,0,0,1,1.074,2.515v4.863a5.946,5.946,0,0,0,.371,2.314V21Zm-3-1.377a3.175,3.175,0,0,0,1.611-.439,2.658,2.658,0,0,0,1.1-1.143V15.873H81.652q-3.32,0-3.32,1.943a1.645,1.645,0,0,0,.566,1.328A2.177,2.177,0,0,0,80.353,19.623Zm12.461-7.568a5.414,5.414,0,0,0-.889-.068A2.381,2.381,0,0,0,89.514,13.5V21H87.707V10.434h1.758l.029,1.221a2.813,2.813,0,0,1,2.52-1.416,1.846,1.846,0,0,1,.8.137Z" transform="translate(1044.529 4160.166)" fill="#12263f"/>
    <path id="lightbulb-solid" d="M9.568,45.256a3.189,3.189,0,0,0,.534,1.762l1.7,2.559A3.186,3.186,0,0,0,14.458,51H20.6a3.186,3.186,0,0,0,2.654-1.422l1.7-2.559a3.186,3.186,0,0,0,.534-1.762l0-3.82H9.563l0,3.82ZM0,17.53A17.433,17.433,0,0,0,4.339,29.063a28.625,28.625,0,0,1,5.2,9.109c0,.026.007.052.011.078H25.511c0-.026.007-.051.011-.078a28.625,28.625,0,0,1,5.2-9.109A17.527,17.527,0,1,0,0,17.53ZM17.531,9.562A7.978,7.978,0,0,0,9.562,17.53a1.594,1.594,0,0,1-3.187,0A11.168,11.168,0,0,1,17.531,6.374a1.594,1.594,0,0,1,0,3.187Z" transform="translate(477.469 4097.336)" fill="#0d66bf"/>
    <path id="tools-solid" d="M49.864,39.412,38.2,27.748A7.4,7.4,0,0,0,29.7,26.364L19.078,15.747V9.562L6.329,0-.045,6.374,9.517,19.123H15.7L26.319,29.74A7.411,7.411,0,0,0,27.7,38.246L39.367,49.909a3.7,3.7,0,0,0,5.249,0l5.249-5.249a3.721,3.721,0,0,0,0-5.249Zm-16.872-17a10.479,10.479,0,0,1,7.46,3.088l1.932,1.932a14.1,14.1,0,0,0,4.362-2.938,14.324,14.324,0,0,0,3.775-13.615,1.192,1.192,0,0,0-2-.548l-7.41,7.41-6.763-1.125L33.221,9.85l7.41-7.41A1.2,1.2,0,0,0,40.064.428,14.347,14.347,0,0,0,26.458,4.2a14.114,14.114,0,0,0-4.1,10.319L30.532,22.7a10.85,10.85,0,0,1,2.46-.289ZM22.644,30.577,17,24.93,1.817,40.119a6.374,6.374,0,0,0,9.014,9.014L23.142,36.822a10.7,10.7,0,0,1-.5-6.245ZM6.329,47.011a2.39,2.39,0,1,1,2.39-2.39A2.4,2.4,0,0,1,6.329,47.011Z" transform="translate(676.708 4097.335)" fill="#53bced"/>
    <path id="stars-solid" d="M25.868,8.563l4.945,2.062,2.062,4.945a.663.663,0,0,0,1.188,0l2.062-4.945L41.07,8.563a.664.664,0,0,0,0-1.188L36.125,5.313,34.063.368a.663.663,0,0,0-1.188,0L30.813,5.313,25.868,7.375a.664.664,0,0,0,0,1.188Zm10.42,18.062L25.848,25.1l-4.672-9.482a2.286,2.286,0,0,0-4.1,0L12.4,25.1,1.962,26.625A2.288,2.288,0,0,0,.7,30.53L8.257,37.9,6.464,48.318a2.285,2.285,0,0,0,3.317,2.411l9.343-4.919,9.343,4.919a2.286,2.286,0,0,0,3.317-2.411L30,37.9l7.56-7.371A2.293,2.293,0,0,0,36.287,26.625Zm14.419-4.788-3.956-1.649L45.1,16.232a.531.531,0,0,0-.95,0L42.5,20.188l-3.956,1.649a.531.531,0,0,0,0,.95L42.5,24.437l1.65,3.955a.53.53,0,0,0,.95,0l1.649-3.955,3.956-1.649a.531.531,0,0,0,0-.95Z" transform="translate(1078.029 4097.335)" fill="#db6e5f"/>
    <path id="ballot-check-solid" d="M35.859,0H2.391A2.385,2.385,0,0,0,0,2.391V48.609A2.385,2.385,0,0,0,2.391,51H35.859a2.385,2.385,0,0,0,2.391-2.391V2.391A2.385,2.385,0,0,0,35.859,0ZM6.375,11.156A1.6,1.6,0,0,1,7.969,9.563h3.188a1.6,1.6,0,0,1,1.594,1.594v3.188a1.6,1.6,0,0,1-1.594,1.594H7.969a1.6,1.6,0,0,1-1.594-1.594Zm.159,12.889L7.8,22.791a.535.535,0,0,1,.757,0l2.052,2.072,4.741-4.7a.535.535,0,0,1,.757,0l1.255,1.265a.535.535,0,0,1,0,.757l-6.395,6.335a.535.535,0,0,1-.757,0L6.534,24.8A.535.535,0,0,1,6.534,24.046Zm6.216,15.8a1.6,1.6,0,0,1-1.594,1.594H7.969a1.6,1.6,0,0,1-1.594-1.594V36.656a1.6,1.6,0,0,1,1.594-1.594h3.188a1.6,1.6,0,0,1,1.594,1.594Zm19.125-.8a.8.8,0,0,1-.8.8H16.734a.8.8,0,0,1-.8-.8V37.453a.8.8,0,0,1,.8-.8H31.078a.8.8,0,0,1,.8.8Zm0-12.75a.889.889,0,0,1-.956.8H16.954s2.909-3.008,3.028-3.187H30.909a.889.889,0,0,1,.956.8V26.3Zm0-12.75a.8.8,0,0,1-.8.8H16.734a.8.8,0,0,1-.8-.8V11.953a.8.8,0,0,1,.8-.8H31.078a.8.8,0,0,1,.8.8Z" transform="translate(883.718 4097.335)" fill="#dbbe36"/>
  </g>
</svg>
