<svg xmlns="http://www.w3.org/2000/svg" width="39.863" height="39.87" viewBox="0 0 39.863 39.87">
  <path id="tools-light" d="M39.13,30.325l-9.685-9.693a6.228,6.228,0,0,0-7.84-.786l-6.657-6.657V7.474L4.983,0,0,4.983l7.474,9.966h5.715l6.657,6.657a6.226,6.226,0,0,0,.794,7.84l9.693,9.693a2.489,2.489,0,0,0,1.76.732,2.457,2.457,0,0,0,1.76-.732l5.286-5.286a2.5,2.5,0,0,0-.008-3.527ZM12.457,12.309v.148H8.72L3.293,5.216,5.216,3.293,12.457,8.72ZM32.085,37.371,22.4,27.678A3.733,3.733,0,1,1,27.678,22.4l9.693,9.685Zm-27.1-3.737a1.246,1.246,0,1,0,1.246-1.246A1.249,1.249,0,0,0,4.983,33.634ZM21.551,5.209a9.182,9.182,0,0,1,6.524-2.717,9.389,9.389,0,0,1,1.612.14l-5.4,5.4L25.366,14.5l6.47,1.074,5.4-5.4a9.174,9.174,0,0,1-2.577,8.136,9.056,9.056,0,0,1-2.336,1.674l1.837,1.837a11.273,11.273,0,0,0,2.258-1.752A11.654,11.654,0,0,0,39.5,8.915a2.108,2.108,0,0,0-1.487-1.526,2.138,2.138,0,0,0-2.079.545l-4.975,4.975-3.441-.576-.576-3.441,4.975-4.975A2.121,2.121,0,0,0,30.932.358,11.674,11.674,0,0,0,19.783,3.449,11.422,11.422,0,0,0,17.44,6.875v5.279l1.721,1.721a9.17,9.17,0,0,1,2.39-8.665ZM8.331,36.367a3.509,3.509,0,0,1-4.843,0,3.435,3.435,0,0,1,0-4.843L14.863,20.149,13.1,18.39,1.728,29.764a5.913,5.913,0,0,0,4.181,10.1,5.852,5.852,0,0,0,4.181-1.736l7.926-7.918a9.026,9.026,0,0,1-1.207-2.32Z" fill="#db6e5f"/>
</svg>
