<svg xmlns="http://www.w3.org/2000/svg" width="39.196" height="44.789" viewBox="0 0 39.196 44.789">
  <path id="phone-volume-light" d="M13.493,16.463a2.914,2.914,0,0,0,2.992-1.811l2.843-7.086a2.9,2.9,0,0,0-1.163-3.543L12.478.481a2.9,2.9,0,0,0-3.6.411,30.408,30.408,0,0,0,0,43.082,2.9,2.9,0,0,0,3.6.411l5.686-3.543A2.9,2.9,0,0,0,19.328,37.3l-2.843-7.086A2.937,2.937,0,0,0,13.493,28.4l-3.779.376a21.645,21.645,0,0,1,0-12.693ZM7.8,31.779l5.983-.595a.1.1,0,0,1,.1.061l2.843,7.086a.1.1,0,0,1-.044.122L11,42a.106.106,0,0,1-.131-.017,27.594,27.594,0,0,1,0-39.11A.106.106,0,0,1,11,2.851l5.686,3.543a.1.1,0,0,1,.044.122L13.887,13.6a.1.1,0,0,1-.1.061L7.8,13.068C5.288,19.988,5.384,25.131,7.8,31.779ZM25.5,8.161l-.525.5a1.061,1.061,0,0,0-.2,1.26,2.821,2.821,0,0,1,0,2.616,1.061,1.061,0,0,0,.2,1.26l.525.5a1.051,1.051,0,0,0,1.636-.227,5.623,5.623,0,0,0,0-5.695,1.059,1.059,0,0,0-1.636-.21Zm5.668-3.823a1.058,1.058,0,0,0-1.566-.114l-.507.49a1.047,1.047,0,0,0-.114,1.391,8.413,8.413,0,0,1,0,10.243A1.047,1.047,0,0,0,29.1,17.74l.507.49a1.065,1.065,0,0,0,1.566-.114A11.2,11.2,0,0,0,31.172,4.338ZM35.187.411a1.061,1.061,0,0,0-1.54-.079l-.507.49a1.046,1.046,0,0,0-.079,1.435,14.017,14.017,0,0,1,0,17.967,1.064,1.064,0,0,0,.079,1.435l.507.49a1.061,1.061,0,0,0,1.54-.079,16.832,16.832,0,0,0,0-21.659Z" transform="translate(0.063 -0.038)" fill="#db6e5f"/>
</svg>
