<svg xmlns="http://www.w3.org/2000/svg" width="55.99" height="44.789" viewBox="0 0 55.99 44.789">
  <path id="laptop-house-light" d="M54.591,36.432h-2.8v-11.2a2.671,2.671,0,0,0-2.52-2.8H29.109a2.67,2.67,0,0,0-2.52,2.8v11.2h-2.8a1.4,1.4,0,0,0-1.4,1.4V41.1a3.746,3.746,0,0,0,3.727,3.732H52.263A3.747,3.747,0,0,0,55.99,41.1V37.832A1.4,1.4,0,0,0,54.591,36.432Zm-25.2-11.2h19.6v11.2h-19.6Zm23.8,15.858a.941.941,0,0,1-.928.94H26.126a.943.943,0,0,1-.938-.933V39.232h28ZM17.259,14.036a1.873,1.873,0,0,0-1.87,1.863v7.467a1.874,1.874,0,0,0,1.87,1.868h6.53a5.627,5.627,0,0,1,2.8-4.9V15.9a1.876,1.876,0,0,0-1.866-1.863Zm6.53,8.4h-5.6v-5.6h5.6Zm-15.4,9.8v-17.5a1.645,1.645,0,0,0-.071-.35L20.988,3.295l12.6,11.023v5.317h2.8V16.77l3.275,2.865h1.75a1.374,1.374,0,0,0,.542-1.079,1.6,1.6,0,0,0-.442-1.021l-5.117-4.486V4.238a1.4,1.4,0,0,0-2.8,0V10.6L21.911.388a1.4,1.4,0,0,0-1.843,0L.466,17.535A1.6,1.6,0,0,0,0,18.576a1.4,1.4,0,0,0,1.4,1.4,1.629,1.629,0,0,0,.91-.335l3.278-2.871V32.233a4.208,4.208,0,0,0,4.2,4.2h9.8v-2.8h-9.8a1.4,1.4,0,0,1-1.4-1.4Z" transform="translate(0 -0.042)" fill="#db6e5f"/>
</svg>
