<svg xmlns="http://www.w3.org/2000/svg" xmlns:xlink="http://www.w3.org/1999/xlink" width="295" height="456" viewBox="0 0 295 456">
  <defs>
    <clipPath id="clip-path">
      <path id="Trazado_107416" data-name="Trazado 107416" d="M46.376,282.615A12.814,12.814,0,1,0,59.19,269.8a12.777,12.777,0,0,0-12.814,12.814" transform="translate(-46.376 -269.801)" fill="none"/>
    </clipPath>
    <clipPath id="clip-path-2">
      <path id="Trazado_107431" data-name="Trazado 107431" d="M46.376,64.483A12.814,12.814,0,1,0,59.19,51.669,12.776,12.776,0,0,0,46.376,64.483" transform="translate(-46.376 -51.669)" fill="none"/>
    </clipPath>
    <clipPath id="clip-path-3">
      <path id="Trazado_107445" data-name="Trazado 107445" d="M316.562,171.833a12.814,12.814,0,1,0,12.814-12.814,12.777,12.777,0,0,0-12.814,12.814" transform="translate(-316.562 -159.019)" fill="none"/>
    </clipPath>
  </defs>
  <g id="Grupo_62411" data-name="Grupo 62411" transform="translate(-1125 -9784.326)">
    <rect id="Rectángulo_5558" data-name="Rectángulo 5558" width="295" height="456" rx="15" transform="translate(1125 9784.326)" fill="#f8de63"/>
    <g id="Grupo_62325" data-name="Grupo 62325" transform="translate(0 -70)">
      <g id="Grupo_62324" data-name="Grupo 62324" transform="translate(6.872 7.814)">
        <path id="Trazado_107773" data-name="Trazado 107773" d="M254.859,119.535C266.52,76.329,219.317,26.013,149.428,7.151S13.43,8.025,1.769,51.23,37.312,144.753,107.2,163.614s136-.873,147.659-44.079" transform="translate(1180.245 10207) rotate(-90)" fill="#ffed97" opacity="0.6"/>
        <g id="Grupo_62322" data-name="Grupo 62322" transform="translate(1148.276 9970.747)">
          <path id="Trazado_107388" data-name="Trazado 107388" d="M187.643,230.968q-1.235,0-2.45-.047l.057-1.472a65.475,65.475,0,0,0,7.765-.171l.116,1.469c-1.847.147-3.694.222-5.487.222m-10.361-.883a50.057,50.057,0,0,1-7.711-2l.485-1.391a48.635,48.635,0,0,0,7.484,1.943Zm23.708-.376-.265-1.449c2.495-.456,5.049-1.042,7.593-1.742l.391,1.421c-2.585.712-5.183,1.308-7.719,1.771m15.262-4.172-.5-1.386c2.4-.869,4.84-1.848,7.242-2.912l.6,1.347c-2.433,1.077-4.9,2.07-7.336,2.951m14.454-6.384-.681-1.306c2.272-1.186,4.565-2.473,6.814-3.823l.759,1.263c-2.274,1.365-4.594,2.666-6.892,3.866m13.545-8.121-.828-1.22c2.126-1.444,4.261-2.98,6.347-4.565l.892,1.173c-2.107,1.6-4.264,3.152-6.412,4.611m12.574-9.549-.951-1.126c1.977-1.669,3.946-3.416,5.851-5.191l1.005,1.077c-1.923,1.792-3.91,3.555-5.905,5.24m11.547-10.759-1.055-1.028q1.751-1.8,3.465-3.667.939-1.026,1.859-2.063l1.1.977q-.926,1.045-1.875,2.081-1.731,1.888-3.5,3.7m10.462-11.806-1.147-.924c1.632-2.027,3.231-4.117,4.753-6.211l1.192.866c-1.536,2.114-3.15,4.223-4.8,6.269m9.28-12.77-1.235-.8c1.434-2.2,2.813-4.438,4.1-6.658l1.275.739c-1.3,2.243-2.694,4.505-4.141,6.723m7.915-13.661-1.313-.668c1.191-2.342,2.314-4.718,3.339-7.065l1.351.59c-1.037,2.372-2.173,4.776-3.377,7.143m6.315-14.479-1.384-.5c.9-2.479,1.717-4.976,2.422-7.422l1.417.408c-.716,2.478-1.541,5.008-2.455,7.517m4.364-15.195-1.443-.3c.538-2.581.965-5.168,1.271-7.689L308,115c-.31,2.562-.744,5.191-1.29,7.812m1.87-15.718-1.474-.033q.02-.865.02-1.722c0-2.047-.087-4.081-.263-6.046l1.467-.131c.18,2.009.271,4.088.27,6.178q0,.872-.02,1.755m-2.9-15.466a50.579,50.579,0,0,0-2.252-7.4l1.372-.538a52.189,52.189,0,0,1,2.318,7.617ZM300,77.316a40.74,40.74,0,0,0-4.625-6.163l1.088-.993a42.157,42.157,0,0,1,4.792,6.387Z" transform="translate(-107.016 -47.38)" fill="#fff"/>
          <g id="Grupo_62318" data-name="Grupo 62318" transform="translate(150.346 131.336)">
            <path id="Trazado_107393" data-name="Trazado 107393" d="M550.015,474.113,541.46,459.4a40.351,40.351,0,0,1,7.721-18.987l12.274,18.464-7.652-24a75.132,75.132,0,0,1,12.388-10.332l10.163,15.288-5.77-18.1a133.1,133.1,0,0,1,15.023-7.754l4.284,10.872-1.22-12.194a220.4,220.4,0,0,1,23.32-8.164,135.826,135.826,0,0,1-.772,22.734l-15.995,1.874,15.441,2.367a111.739,111.739,0,0,1-3.676,16.571l-19.07-1.679,17.458,6.435a64.308,64.308,0,0,1-9.554,17.5l-24.313-2.958,20.271,7.472A42.222,42.222,0,0,1,574.7,485.087L557.08,479.7l10.945,6.953a64,64,0,0,1-20.128-.22,42.136,42.136,0,0,1-6.668-20.636Z" transform="translate(-541.229 -404.497)" fill="#97deff"/>
            <path id="Trazado_107394" data-name="Trazado 107394" d="M569.431,494.594c1.887-3.449,3.911-6.821,5.952-10.185q3.142-4.994,6.451-9.885c4.424-6.511,9.175-12.792,14.025-18.99,4.955-6.115,10.019-12.142,15.316-17.958q3.988-4.349,8.062-8.612c2.764-2.8,5.515-5.606,8.36-8.321l-7.767,8.866q-3.89,4.422-7.707,8.9c-5.088,5.974-10.144,11.972-14.981,18.145-4.94,6.091-9.652,12.361-14.281,18.692-2.321,3.162-4.581,6.368-6.809,9.6l-3.34,4.851Z" transform="translate(-560.274 -415.401)" fill="#fff"/>
            <path id="Trazado_107395" data-name="Trazado 107395" d="M588.233,604.458l1.589-7.163a28.053,28.053,0,0,1,9.582-5.323l-1.379,9.312,5.125-10.37a51.867,51.867,0,0,1,8.5-1.185l-1.142,7.71,3.865-7.82a82.682,82.682,0,0,1,8.677.307l-1.993,4.868,3.675-4.711c3.71.38,7.748,1,12.147,1.892a79.115,79.115,0,0,1-8.073,8.146l-7.059-2.659,5.389,4.092A73.3,73.3,0,0,1,620,606.843l-7.081-4.6,4.809,6a46.131,46.131,0,0,1-9.811,4.4l-8.748-6.164,5.584,6.968a27.113,27.113,0,0,1-10.362.183l-5.233-5.651,2.018,4.829a27.025,27.025,0,0,1-8-4.289,18.09,18.09,0,0,1,4.371-8.934Z" transform="translate(-569.556 -529.503)" fill="#53bced"/>
            <path id="Trazado_107396" data-name="Trazado 107396" d="M589.139,615.456c3.865-1.75,7.813-3.315,11.8-4.772s8.029-2.758,12.084-4.011c4.073-1.194,8.161-2.338,12.283-3.35s8.261-1.941,12.43-2.728l-12.281,3.3c-4.083,1.129-8.164,2.264-12.21,3.513-4.065,1.189-8.093,2.5-12.112,3.832s-8.009,2.76-11.993,4.217" transform="translate(-573.583 -536.923)" fill="#fff"/>
          </g>
          <path id="Trazado_107398" data-name="Trazado 107398" d="M608.122,102.716a20.678,20.678,0,1,1-.879-29.23,20.678,20.678,0,0,1,.879,29.23" transform="translate(-379.044 -45.828)" fill="#db6e5f"/>
          <path id="Trazado_107399" data-name="Trazado 107399" d="M578.8,162.32l-6.71,12.073,17.59-4.638Z" transform="translate(-378.837 -109.616)" fill="#eb5654"/>
          <path id="Trazado_107400" data-name="Trazado 107400" d="M627.178,107.056a4.964,4.964,0,0,1-.622,2.489,7.851,7.851,0,0,1-2.325,2.317l-1.087.787a5.8,5.8,0,0,0-1.451,1.416,3.04,3.04,0,0,0-.523,1.573h-3.819a5.3,5.3,0,0,1,.822-2.6,7.916,7.916,0,0,1,2.168-2.146,10.014,10.014,0,0,0,2.159-1.867,2.85,2.85,0,0,0,.629-1.8,2.524,2.524,0,0,0-.822-1.988,3.411,3.411,0,0,0-2.339-.73,3.584,3.584,0,0,0-2.424.844,3.379,3.379,0,0,0-1.152,2.232l-4.077-.171a6.681,6.681,0,0,1,2.389-4.52,8.03,8.03,0,0,1,5.207-1.617,8.354,8.354,0,0,1,5.328,1.538,5.114,5.114,0,0,1,1.938,4.241m-9.942,10.815h4.134v3.863h-4.134Z" transform="translate(-406.005 -68.393)" fill="#fff"/>
          <path id="Trazado_107401" data-name="Trazado 107401" d="M492.755,26.063a13.029,13.029,0,1,1,5.121-1.056,13.052,13.052,0,0,1-5.121,1.056M492.721.834a12.2,12.2,0,1,0,11.226,7.388A12.132,12.132,0,0,0,492.721.834" transform="translate(-316.452 0)" fill="#fff"/>
          <rect id="Rectángulo_5593" data-name="Rectángulo 5593" width="4.126" height="2.98" transform="translate(171.183 6.485) rotate(-23.222)" fill="#fff"/>
          <path id="Trazado_107402" data-name="Trazado 107402" d="M516.039,29.856l-1.1.473-.689.3-3.1,1.331L515.2,41.4l3.792-1.627-3.683-8.584,1.1-.473Z" transform="translate(-337.683 -20.162)" fill="#fff"/>
          <path id="Trazado_107447" data-name="Trazado 107447" d="M95.517,458.2,91.7,462.011l1.2,4.481,4.487,1.2,3.812-3.813a6.343,6.343,0,0,1-7.9,6.774L80.555,483.406A3.223,3.223,0,1,1,76,478.847L88.743,466.1a6.343,6.343,0,0,1,6.774-7.9M80.038,477.982l1.381,1.381,9.393-9.393-1.382-1.381Z" transform="translate(-65.607 -309.405)" fill="#fff"/>
          <path id="Trazado_107448" data-name="Trazado 107448" d="M74.749,467.892a.546.546,0,0,1,.772,0l.971.971a.546.546,0,0,1,0,.772l-1.218,1.218,12.982,12.921L87.131,484.9,74.149,471.979,72.931,473.2a.546.546,0,0,1-.772,0l-.971-.971a.546.546,0,0,1,0-.772.546.546,0,0,0,0-.772l-.224-.224a.546.546,0,0,0-.772,0,.546.546,0,0,1-.772,0l-6.168-6.229a.546.546,0,0,1,0-.772l3.562-3.561a.546.546,0,0,1,.772,0l6.168,6.229a.546.546,0,0,1,0,.772.546.546,0,0,0,0,.772l.224.224a.546.546,0,0,0,.772,0" transform="translate(-57.531 -310.464)" fill="#fff"/>
          <path id="Trazado_107449" data-name="Trazado 107449" d="M66.539,474.972A20.571,20.571,0,1,1,87.11,454.4a20.594,20.594,0,0,1-20.571,20.57m0-39.451A18.88,18.88,0,1,0,85.419,454.4a18.9,18.9,0,0,0-18.88-18.881" transform="translate(-45.967 -292.971)" fill="#fff"/>
          <g id="Grupo_62320" data-name="Grupo 62320" transform="translate(12.004 5.076)">
            <path id="Trazado_107397" data-name="Trazado 107397" d="M141.022,137.543H5.772A5.772,5.772,0,0,1,0,131.771V21.4a5.772,5.772,0,0,1,5.772-5.772h135.25a5.772,5.772,0,0,1,5.772,5.772V131.771a5.772,5.772,0,0,1-5.772,5.772" transform="translate(0 -15.632)" fill="#beeaff"/>
            <path id="Trazado_107403" data-name="Trazado 107403" d="M72,282.615A12.814,12.814,0,1,1,59.191,269.8,12.778,12.778,0,0,1,72,282.615" transform="translate(-31.319 -187.275)" fill="#fff"/>
            <g id="Grupo_62294" data-name="Grupo 62294" transform="translate(15.058 82.526)">
              <g id="Grupo_62293" data-name="Grupo 62293" clip-path="url(#clip-path)">
                <path id="Trazado_107404" data-name="Trazado 107404" d="M72.933,294.031a11.167,11.167,0,0,0,5.256.663,12.67,12.67,0,0,0,.3-5.991c-1.686-8.5-5.822-5.318-5.822-5.318s-3.952-3.372-6.1,5.8a7.978,7.978,0,0,0,.579,5.509,11.166,11.166,0,0,0,5.256-.663Z" transform="translate(-59.852 -278.566)" fill="#9c2622"/>
                <path id="Trazado_107405" data-name="Trazado 107405" d="M75.175,330.667a14.262,14.262,0,0,1-19.755,0c2.041-4.081,5.7-6.8,9.877-6.8s7.837,2.718,9.877,6.8" transform="translate(-52.484 -306.313)" fill="#eb5654"/>
                <path id="Trazado_107406" data-name="Trazado 107406" d="M80.9,324.5s1.506,3.834,0,5.04c-.99.792-3.283-1.139-3.283-1.139s-2.293,1.932-3.283,1.139c-1.506-1.205,0-5.04,0-5.04a8.85,8.85,0,0,1,6.566,0" transform="translate(-64.807 -306.317)" fill="#e1f0fa"/>
                <path id="Trazado_107407" data-name="Trazado 107407" d="M82.5,312.21a6.971,6.971,0,0,0,.56,4.18,7.124,7.124,0,0,1-2.576,3.346,7.126,7.126,0,0,1-2.576-3.346,6.972,6.972,0,0,0,.56-4.18Z" transform="translate(-67.669 -298.44)" fill="#f79885"/>
                <path id="Trazado_107408" data-name="Trazado 107408" d="M83.66,312.207a7.506,7.506,0,0,0-.1,1.257c-.523,1.128-1.189,1.9-1.911,1.9s-1.4-.78-1.915-1.911a7.393,7.393,0,0,0-.1-1.249Z" transform="translate(-68.831 -298.438)" fill="#f0786a"/>
                <path id="Trazado_107409" data-name="Trazado 107409" d="M71.707,297.941a1.215,1.215,0,1,0,1.172-1.535,1.391,1.391,0,0,0-1.172,1.535" transform="translate(-63.482 -287.768)" fill="#22365b"/>
                <path id="Trazado_107410" data-name="Trazado 107410" d="M95.1,297.941a1.215,1.215,0,1,1-1.172-1.535,1.391,1.391,0,0,1,1.172,1.535" transform="translate(-77.697 -287.768)" fill="#22365b"/>
                <path id="Trazado_107411" data-name="Trazado 107411" d="M82.1,289.385c0,3.042-1.552,7.172-3.467,7.172s-3.467-4.13-3.467-7.172,1.552-3.845,3.467-3.845,3.467.8,3.467,3.845" transform="translate(-65.818 -280.43)" fill="#f79885"/>
                <path id="Trazado_107412" data-name="Trazado 107412" d="M74.592,289.961c-.03-.335-.045-.665-.045-.983,0-3.2,1.553-4.041,3.467-4.041s3.467.844,3.467,4.041c0,.318-.016.648-.045.983h.29c.034-.365.053-.725.053-1.071,0-3.36-1.684-4.247-3.764-4.247s-3.764.888-3.764,4.247c0,.346.019.706.053,1.071Z" transform="translate(-65.199 -279.824)" fill="#22365b"/>
                <path id="Trazado_107413" data-name="Trazado 107413" d="M78.631,285.54c-1.915,0-3.467.8-3.467,3.846,0,.093,0,.188,0,.283h0c2.415.44,4.419-2.481,4.419-2.481a4.615,4.615,0,0,0,2.5,2.526c0-.111.006-.22.006-.328,0-3.043-1.552-3.846-3.467-3.846" transform="translate(-65.817 -280.43)" fill="#c93b38"/>
                <path id="Trazado_107414" data-name="Trazado 107414" d="M77.875,307.983c-2.92,0-3.624-3.3-3.631-3.338l.35-.071c.026.124.654,3.051,3.281,3.051Z" transform="translate(-65.196 -293.284)" fill="#22365b"/>
                <path id="Trazado_107415" data-name="Trazado 107415" d="M84.455,313.645c0,.232-.4.421-.9.421s-.9-.189-.9-.421.4-.421.9-.421.9.189.9.421" transform="translate(-70.873 -299.125)" fill="#22365b"/>
              </g>
            </g>
            <path id="Trazado_107417" data-name="Trazado 107417" d="M58.336,294.985a13.222,13.222,0,1,1,9.159-3.684,13.161,13.161,0,0,1-9.159,3.684m0-25.628a12.4,12.4,0,1,0,12.4,12.4,12.418,12.418,0,0,0-12.4-12.4" transform="translate(-30.464 -186.421)" fill="#eb5654"/>
            <path id="Trazado_107418" data-name="Trazado 107418" d="M72,64.483A12.814,12.814,0,1,1,59.191,51.669,12.778,12.778,0,0,1,72,64.483" transform="translate(-31.319 -39.968)" fill="#fff"/>
            <g id="Grupo_62298" data-name="Grupo 62298" transform="translate(15.058 11.701)">
              <g id="Grupo_62297" data-name="Grupo 62297" clip-path="url(#clip-path-2)">
                <path id="Trazado_107419" data-name="Trazado 107419" d="M72.933,75.9a11.165,11.165,0,0,0,5.256.663,12.668,12.668,0,0,0,.3-5.991c-1.686-8.5-5.822-5.318-5.822-5.318s-3.952-3.372-6.1,5.8a7.978,7.978,0,0,0,.579,5.509A11.164,11.164,0,0,0,72.4,75.9Z" transform="translate(-59.852 -60.434)" fill="#9c2622"/>
                <path id="Trazado_107420" data-name="Trazado 107420" d="M75.175,112.535a14.262,14.262,0,0,1-19.755,0c2.041-4.081,5.7-6.8,9.877-6.8s7.837,2.718,9.877,6.8" transform="translate(-52.484 -88.181)" fill="#eb5654"/>
                <path id="Trazado_107421" data-name="Trazado 107421" d="M80.9,106.372s1.506,3.835,0,5.04c-.99.792-3.283-1.139-3.283-1.139s-2.293,1.931-3.283,1.139c-1.506-1.2,0-5.04,0-5.04a8.85,8.85,0,0,1,6.566,0" transform="translate(-64.807 -88.185)" fill="#e1f0fa"/>
                <path id="Trazado_107422" data-name="Trazado 107422" d="M82.5,94.078a6.97,6.97,0,0,0,.56,4.18,7.122,7.122,0,0,1-2.576,3.346,7.124,7.124,0,0,1-2.576-3.346,6.972,6.972,0,0,0,.56-4.18Z" transform="translate(-67.669 -80.308)" fill="#f79885"/>
                <path id="Trazado_107423" data-name="Trazado 107423" d="M83.66,94.075a7.511,7.511,0,0,0-.1,1.257c-.523,1.128-1.189,1.9-1.911,1.9s-1.4-.78-1.915-1.911a7.393,7.393,0,0,0-.1-1.249Z" transform="translate(-68.831 -80.306)" fill="#f0786a"/>
                <path id="Trazado_107424" data-name="Trazado 107424" d="M71.707,79.809a1.215,1.215,0,1,0,1.172-1.535,1.391,1.391,0,0,0-1.172,1.535" transform="translate(-63.482 -69.636)" fill="#22365b"/>
                <path id="Trazado_107425" data-name="Trazado 107425" d="M95.1,79.809a1.215,1.215,0,1,1-1.172-1.535A1.391,1.391,0,0,1,95.1,79.809" transform="translate(-77.697 -69.636)" fill="#22365b"/>
                <path id="Trazado_107426" data-name="Trazado 107426" d="M82.1,71.253c0,3.042-1.552,7.172-3.467,7.172s-3.467-4.13-3.467-7.172,1.552-3.845,3.467-3.845,3.467.8,3.467,3.845" transform="translate(-65.818 -62.298)" fill="#f79885"/>
                <path id="Trazado_107427" data-name="Trazado 107427" d="M74.592,71.83c-.03-.335-.045-.665-.045-.983,0-3.2,1.553-4.041,3.467-4.041s3.467.844,3.467,4.041c0,.318-.016.648-.045.983h.29c.034-.365.053-.725.053-1.071,0-3.36-1.684-4.247-3.764-4.247s-3.764.887-3.764,4.247c0,.346.019.706.053,1.071Z" transform="translate(-65.199 -61.693)" fill="#22365b"/>
                <path id="Trazado_107428" data-name="Trazado 107428" d="M78.631,67.409c-1.915,0-3.467.8-3.467,3.845,0,.093,0,.188,0,.283h0c2.415.44,4.419-2.481,4.419-2.481a4.615,4.615,0,0,0,2.5,2.526c0-.111.006-.22.006-.328,0-3.042-1.552-3.845-3.467-3.845" transform="translate(-65.817 -62.298)" fill="#c93b38"/>
                <path id="Trazado_107429" data-name="Trazado 107429" d="M77.875,89.851c-2.92,0-3.624-3.3-3.631-3.338l.35-.071c.026.124.654,3.051,3.281,3.051Z" transform="translate(-65.196 -75.152)" fill="#22365b"/>
                <path id="Trazado_107430" data-name="Trazado 107430" d="M84.455,95.514c0,.232-.4.421-.9.421s-.9-.189-.9-.421.4-.421.9-.421.9.189.9.421" transform="translate(-70.873 -80.994)" fill="#22365b"/>
              </g>
            </g>
            <g id="Grupo_62302" data-name="Grupo 62302" transform="translate(102.785 46.556)">
              <g id="Grupo_62301" data-name="Grupo 62301" clip-path="url(#clip-path-3)">
                <path id="Trazado_107434" data-name="Trazado 107434" d="M365.461,179.219a17.8,17.8,0,0,1-.675,6.808l-.711-6.808Z" transform="translate(-348.648 -172.66)" fill="#9c2622"/>
                <path id="Trazado_107435" data-name="Trazado 107435" d="M343.759,216.079c.7,4.2-6.767,6.837-11.031,6.837s-12.5-3.1-10.956-6.837c2.271-2.271,6.345-3.783,10.993-3.783s8.723,1.512,10.993,3.783" transform="translate(-319.951 -194.998)" fill="#008eb0"/>
                <path id="Trazado_107436" data-name="Trazado 107436" d="M350.713,196.044s-.471,3.5.665,5.533c0,0-.516,3.662-3.261,5.214a7.664,7.664,0,0,1-3.8-5.119c1.136-2.033.7-5.628.7-5.628Z" transform="translate(-335.302 -184.022)" fill="#f79885"/>
                <path id="Trazado_107437" data-name="Trazado 107437" d="M351.975,199.316a3.52,3.52,0,0,1,.37,1.515,2.61,2.61,0,0,1-2.477,2.358,3.4,3.4,0,0,1-3.162-2.96.9.9,0,0,1,.781-.914Z" transform="translate(-336.918 -186.232)" fill="#f0786a"/>
                <path id="Trazado_107438" data-name="Trazado 107438" d="M351.86,176.791c0,5.784-1.727,7.516-3.859,7.516s-3.859-1.358-3.859-7.516c0-3.188,1.728-4.029,3.859-4.029s3.859.841,3.859,4.029" transform="translate(-335.188 -168.3)" fill="#f79885"/>
                <path id="Trazado_107439" data-name="Trazado 107439" d="M344.811,170.038s-2.03-1.832-2.179,1.04a27.711,27.711,0,0,0,.635,6.333c.171,1.973.756,4.954,3.856,4.954s3.28-3.662,3.28-3.662a8.239,8.239,0,0,0-6.4-.07,6.774,6.774,0,0,1-.594-2.823c.068-.816.14-1.768.164-2.412,0,0,7.544,1.8,8.022-1.381.627-4.176-6.784-1.981-6.784-1.981" transform="translate(-334.155 -166.071)" fill="#9c2622"/>
                <path id="Trazado_107440" data-name="Trazado 107440" d="M356.364,187.951a.194.194,0,0,1-.13-.049.648.648,0,0,0-.9-.005.2.2,0,0,1-.272-.288,1.035,1.035,0,0,1,1.43-.005.2.2,0,0,1,.019.28.2.2,0,0,1-.149.067" transform="translate(-342.522 -178.13)" fill="#00685d"/>
                <path id="Trazado_107441" data-name="Trazado 107441" d="M345.248,188.137l-.033,0-.853-.147a.2.2,0,0,1-.162-.229.192.192,0,0,1,.23-.161l.852.147a.2.2,0,0,1-.033.393" transform="translate(-335.224 -178.315)" fill="#00685d"/>
                <path id="Trazado_107442" data-name="Trazado 107442" d="M348.225,188.2a1.586,1.586,0,1,1,1.586-1.586,1.587,1.587,0,0,1-1.586,1.586m0-2.776a1.19,1.19,0,1,0,1.191,1.19,1.192,1.192,0,0,0-1.191-1.19" transform="translate(-336.874 -176.584)" fill="#00685d"/>
                <path id="Trazado_107443" data-name="Trazado 107443" d="M359.984,188.2a1.586,1.586,0,1,1,1.586-1.586,1.587,1.587,0,0,1-1.586,1.586m0-2.776a1.19,1.19,0,1,0,1.191,1.19,1.192,1.192,0,0,0-1.191-1.19" transform="translate(-344.814 -176.584)" fill="#00685d"/>
                <path id="Trazado_107444" data-name="Trazado 107444" d="M355.09,199.015c0,.535-.8.968-1.784.968s-1.784-.433-1.784-.968.8-.969,1.784-.969,1.784.434,1.784.969" transform="translate(-340.171 -185.374)" fill="#f79885"/>
              </g>
            </g>
            <path id="Trazado_107446" data-name="Trazado 107446" d="M328.523,184.2a13.223,13.223,0,1,1,9.159-3.684,13.161,13.161,0,0,1-9.159,3.684m0-25.627a12.4,12.4,0,1,0,12.4,12.4,12.418,12.418,0,0,0-12.4-12.4" transform="translate(-212.925 -111.609)" fill="#008eb0"/>
            <path id="Trazado_107474" data-name="Trazado 107474" d="M221.495,269.8H148.387a1.761,1.761,0,0,0-1.761,1.761v6.821l-6.18,4.233,6.18,4.229v6.821a1.761,1.761,0,0,0,1.761,1.761h73.108a1.761,1.761,0,0,0,1.761-1.761V271.562a1.761,1.761,0,0,0-1.761-1.761" transform="translate(-94.844 -187.275)" fill="#fff"/>
            <path id="Trazado_107475" data-name="Trazado 107475" d="M221.495,51.669H148.387a1.761,1.761,0,0,0-1.761,1.761v6.821l-6.18,4.233,6.18,4.229v6.821a1.761,1.761,0,0,0,1.761,1.761h73.108a1.761,1.761,0,0,0,1.761-1.761V53.43a1.762,1.762,0,0,0-1.761-1.761" transform="translate(-94.844 -39.968)" fill="#fff"/>
            <path id="Trazado_107476" data-name="Trazado 107476" d="M48.137,159.018h73.108a1.762,1.762,0,0,1,1.761,1.762V167.6l6.18,4.233-6.18,4.229v6.821a1.761,1.761,0,0,1-1.761,1.761H48.137a1.761,1.761,0,0,1-1.761-1.761V160.78a1.762,1.762,0,0,1,1.761-1.762" transform="translate(-31.318 -112.462)" fill="#fff"/>
            <rect id="Rectángulo_5600" data-name="Rectángulo 5600" width="23.335" height="4.118" transform="translate(23.829 53.171)" fill="#b5d6ea"/>
            <rect id="Rectángulo_5601" data-name="Rectángulo 5601" width="32.786" height="4.118" transform="translate(50.132 53.171)" fill="#b5d6ea"/>
            <rect id="Rectángulo_5602" data-name="Rectángulo 5602" width="21.815" height="4.118" transform="translate(42.17 61.452)" fill="#b5d6ea"/>
            <rect id="Rectángulo_5603" data-name="Rectángulo 5603" width="6.648" height="4.118" transform="translate(66.953 61.452)" fill="#b5d6ea"/>
            <rect id="Rectángulo_5604" data-name="Rectángulo 5604" width="15.372" height="4.118" transform="translate(23.829 61.452)" fill="#b5d6ea"/>
            <rect id="Rectángulo_5605" data-name="Rectángulo 5605" width="37.871" height="4.118" transform="translate(60.431 18.259)" fill="#b5d6ea"/>
            <rect id="Rectángulo_5606" data-name="Rectángulo 5606" width="18.25" height="4.118" transform="translate(101.27 18.259)" fill="#b5d6ea"/>
            <rect id="Rectángulo_5607" data-name="Rectángulo 5607" width="21.612" height="4.118" transform="translate(91.515 26.597)" fill="#b5d6ea"/>
            <rect id="Rectángulo_5608" data-name="Rectángulo 5608" width="28.116" height="4.118" transform="translate(60.431 26.597)" fill="#b5d6ea"/>
            <path id="Trazado_107477" data-name="Trazado 107477" d="M218.51,304.464a2.309,2.309,0,1,1-2.309-2.309,2.309,2.309,0,0,1,2.309,2.309" transform="translate(-144.444 -209.124)" fill="#b5d6ea"/>
            <path id="Trazado_107478" data-name="Trazado 107478" d="M267.68,304.464a2.309,2.309,0,1,1-2.309-2.309,2.309,2.309,0,0,1,2.309,2.309" transform="translate(-177.649 -209.124)" fill="#b5d6ea"/>
            <path id="Trazado_107479" data-name="Trazado 107479" d="M315.13,301.151a3.9,3.9,0,1,1-3.9-3.9,3.9,3.9,0,0,1,3.9,3.9" transform="translate(-207.541 -205.811)" fill="#b5d6ea"/>
          </g>
          <g id="Grupo_62319" data-name="Grupo 62319" transform="translate(36.691 141.105)">
            <path id="Trazado_107389" data-name="Trazado 107389" d="M297.163,489.079l4.862-17.115a42.193,42.193,0,0,0-12.735-17.238l-7.658,21.883,1.543-26.3a78.547,78.547,0,0,0-15.224-7.262l-6.341,18.118,1.163-19.83a139.176,139.176,0,0,0-17.227-3.969l-1.527,12.123-1.919-12.67a230.548,230.548,0,0,0-25.738-2.238,142.02,142.02,0,0,0,6.664,22.833l16.69-2.239-15.031,6.392a116.827,116.827,0,0,0,8.012,15.838l18.887-6.635L235.56,481.809a67.237,67.237,0,0,0,14.208,15.26l23.867-9.288-18.6,12.815a44.148,44.148,0,0,0,19.961,5.988l16.458-10.013-9.29,9.876a66.92,66.92,0,0,0,20.335-5.431,44.055,44.055,0,0,0,1.416-22.632Z" transform="translate(-209.43 -434.583)" fill="#97deff"/>
            <path id="Trazado_107390" data-name="Trazado 107390" d="M309.332,508.076l-4.591-4.111-4.639-4.05q-4.64-4.045-9.382-7.963c-6.338-5.205-12.754-10.31-19.3-15.242-6.526-4.964-13.183-9.756-19.872-14.508q-5.017-3.565-10.111-7.026L231.268,448.2c3.584,2.015,7.1,4.147,10.622,6.267q5.232,3.264,10.4,6.64c6.882,4.506,13.591,9.279,20.164,14.231,6.548,4.984,12.966,10.148,19.123,15.611q4.613,4.1,9.093,8.345c2.938,2.881,5.861,5.773,8.666,8.78" transform="translate(-219.496 -443.78)" fill="#fff"/>
            <path id="Trazado_107391" data-name="Trazado 107391" d="M256.458,587.608l-3.353-8.364a34.457,34.457,0,0,0-12.674-4.543l3.527,11.012-8.278-11.547a63.657,63.657,0,0,0-10.538.257l2.92,9.118-6.242-8.707a101.557,101.557,0,0,0-10.456,2.1l3.386,5.5-5.392-4.977c-4.42,1.2-9.192,2.751-14.345,4.713a97.169,97.169,0,0,0,11.408,8.264l8.026-4.629-5.716,6.034a90.04,90.04,0,0,0,9.7,4.986l7.665-6.986-4.633,8.231a56.651,56.651,0,0,0,12.767,3.375l9.374-9.213-5.379,9.558a33.3,33.3,0,0,0,12.6-1.843l5.216-7.891-1.484,6.254a33.187,33.187,0,0,0,8.845-6.792,22.222,22.222,0,0,0-7.077-9.957Z" transform="translate(-195.013 -528.769)" fill="#53bced"/>
            <path id="Trazado_107392" data-name="Trazado 107392" d="M269.443,609.913c-5.119-.972-10.239-1.9-15.376-2.722s-10.28-1.6-15.443-2.231c-5.153-.707-10.325-1.27-15.5-1.824s-10.357-1.038-15.543-1.552c5.21.123,10.413.425,15.609.83s10.379.978,15.554,1.613c5.165.711,10.323,1.48,15.445,2.454s10.219,2.082,15.252,3.433" transform="translate(-203.501 -547.36)" fill="#fff"/>
          </g>
          <g id="Grupo_62321" data-name="Grupo 62321" transform="translate(65.062 76.884)">
            <path id="Trazado_107450" data-name="Trazado 107450" d="M431.535,459.286c2.459,47.875-14.386,65.325-14.386,65.325H370.626s-10.236-47.2,2.639-56.617a31.472,31.472,0,0,1,9.151-4.275c14.585-4.556,37.051-4.705,49.119-4.433" transform="translate(-339.372 -386.988)" fill="#c7a91e"/>
            <path id="Trazado_107451" data-name="Trazado 107451" d="M554.216,309.295q-.29,6.978-.948,13.246c-12.026-.272-34.515-.123-49.805,4.433,3.432-18.021,9.532-46.61,15.809-59.514,9.532-19.6,37.288-16.09,34.945,41.835" transform="translate(-431.682 -250.243)" fill="#dbbe36"/>
            <path id="Trazado_107452" data-name="Trazado 107452" d="M511.052,286.006s5.693-9.037,16.495-5.757,14.094,20.4,7.95,52.656c0,0-.583,4.588,12.877,5.047l-30.652,14.407L496.216,350.9Z" transform="translate(-426.789 -265.655)" fill="#c7a91e"/>
            <path id="Trazado_107453" data-name="Trazado 107453" d="M428.915,392.356a73.12,73.12,0,0,1-20.834,9.748s-4.848-7.607-6,0c0,0-1.663.748,6.189,2.572,10.977,2.55,23.213.457,27.714-6.565,1.919-2.993,2.082-7.462,3.3-11.9l-8.605-4.642s-.582,7.479-1.765,10.787" transform="translate(-363.119 -334.561)" fill="#f0786a"/>
            <path id="Trazado_107454" data-name="Trazado 107454" d="M495.409,321.674c-4.279,5.486-4.938,19.447-4.938,19.447l8.605,4.642c2.973-10.815-.908-21.946-3.668-24.089" transform="translate(-422.909 -294.114)" fill="#265173"/>
            <path id="Trazado_107455" data-name="Trazado 107455" d="M483.77,311.238s13.752-10.241,32.478-1.463c0,0,5.267,27.693-8.193,54.027s-34.819-5.267-34.819-5.267,11.7-8.089,10.533-47.3" transform="translate(-411.271 -283.677)" fill="#008eb0"/>
            <path id="Trazado_107456" data-name="Trazado 107456" d="M514.009,368.077c6.921-2.91,11.248-12.312,11.932-20.644l-6.8-15.253s-5.11,8.335-9.206,25.013c0,0-10.91,6.889-21.928,10.235-.386.938-.772,1.78-1.153,2.539,5.969-.021,14.462-.486,14.462-.486Z" transform="translate(-420.469 -301.209)" fill="#265173"/>
            <path id="Trazado_107457" data-name="Trazado 107457" d="M490.642,392.356a104.526,104.526,0,0,1-26.407,9.748s-6.144-7.607-7.607,0c0,0-2.108.748,7.845,2.572,13.913,2.55,27.6.128,33.3-6.894a39.215,39.215,0,0,0,6.012-11.571l-9.532-4.642a68.632,68.632,0,0,1-3.612,10.787" transform="translate(-399.928 -334.561)" fill="#f79885"/>
            <path id="Trazado_107458" data-name="Trazado 107458" d="M583.551,316.65c-6.109-2.092-7.623,9.346-10.652,20.91l9.532,4.642c3.767-10.815,4.618-23.409,1.12-25.552" transform="translate(-478.574 -290.552)" fill="#008eb0"/>
            <path id="Trazado_107459" data-name="Trazado 107459" d="M336.712,634.507a20.551,20.551,0,0,1-11.265,8.485h14.045v-7.315Z" transform="translate(-311.467 -505.373)" fill="#008eb0"/>
            <path id="Trazado_107460" data-name="Trazado 107460" d="M293.655,634.507a20.551,20.551,0,0,1-11.265,8.485h14.044v-7.315Z" transform="translate(-282.39 -505.373)" fill="#008eb0"/>
            <path id="Trazado_107461" data-name="Trazado 107461" d="M403.542,453.385s-47.241-6.757-66.531,5.368c-10.848,6.819-23.982,53.05-23.982,53.05l4.1,1.756s19.737-13.587,26.261-39.281c0,0,56.224,4.865,60.157-20.893" transform="translate(-303.081 -381.791)" fill="#51192b"/>
            <path id="Trazado_107462" data-name="Trazado 107462" d="M432.62,456.764s-43.976-2.473-57.143,8.06c-5.777,4.622-19.39,50.358-19.39,50.358l4.1,1.756s19.737-13.587,26.261-39.281c0,0,42.243,4.865,46.176-20.893" transform="translate(-332.159 -385.171)" fill="#ab4b38"/>
            <rect id="Rectángulo_5597" data-name="Rectángulo 5597" width="31.283" height="0.993" transform="translate(45.045 73.197) rotate(-4.783)" fill="#22365b"/>
            <path id="Trazado_107463" data-name="Trazado 107463" d="M367.626,380.489l-30.387,2.492-.4.659,15.066,24.82,30.387-2.492.488-.57Z" transform="translate(-319.158 -333.832)" fill="#265173"/>
            <rect id="Rectángulo_5598" data-name="Rectángulo 5598" width="30.507" height="0.993" transform="translate(33.202 74.188) rotate(-4.783)" fill="#265173"/>
            <path id="Trazado_107464" data-name="Trazado 107464" d="M394.523,419.176a3.828,3.828,0,0,0,3.576,2.263c1.262-.2,1.707-1.546.994-3a3.827,3.827,0,0,0-3.576-2.263c-1.262.2-1.707,1.546-.994,3" transform="translate(-357.885 -357.915)" fill="#b5d6ea"/>
            <path id="Trazado_107465" data-name="Trazado 107465" d="M526.422,262.085s-3.267-12.57-9.023-19.856c-1.161-1.653-8.58,2.235-8.839,3.913s3.9,12.168,6.53,13.621a6.557,6.557,0,0,0,2.532-.892s.46,1.164.8,2.312a2.251,2.251,0,0,1-1.97,2.647s.982,5.246,4.48,7.48c6.241-4.786,7.728-8.35,7.728-8.35Z" transform="translate(-435.118 -240.193)" fill="#f79885"/>
            <path id="Trazado_107466" data-name="Trazado 107466" d="M537.094,290.142c-.293-.905-.6-1.673-.6-1.673a10.51,10.51,0,0,0,3.517-2.812,8.47,8.47,0,0,1-2.916,4.485" transform="translate(-453.988 -269.791)" fill="#f0786a"/>
            <path id="Trazado_107467" data-name="Trazado 107467" d="M513.67,246a17.39,17.39,0,0,0,3.8,2.459c.154-3.4-3.037-10.882-5.223-11.568a2.212,2.212,0,0,0-2.448,1.034c-5.25-1.034-9.414,1.886-9.2,4.6s3.115,2.81,5.184,2.31a14.068,14.068,0,0,0,4.377-2.327,23.7,23.7,0,0,1,2.087,7.651s-4.1.216-5.732,1.87c0,0,1.518,4.19,3.311,4.561s5.3-3.169,5.3-3.169a45.119,45.119,0,0,0-3.228-8.959c.466-2.45,3.175-.815,1.764,1.535" transform="translate(-429.746 -236.791)" fill="#9c2622"/>
            <rect id="Rectángulo_5599" data-name="Rectángulo 5599" width="3.733" height="0.37" transform="translate(79.257 9.243) rotate(-37.465)" fill="#00685d"/>
            <path id="Trazado_107468" data-name="Trazado 107468" d="M521.2,268.576a1.876,1.876,0,0,1-.693-.141,2.71,2.71,0,0,1-1.279-1.121,1.848,1.848,0,1,1,2.736,1.051,1.445,1.445,0,0,1-.764.211m-.894-4.017a1.09,1.09,0,0,0-.575.156,1.756,1.756,0,0,0-.188,2.406,2.352,2.352,0,0,0,1.1.971,1.247,1.247,0,0,0,1.13-.042,1.755,1.755,0,0,0,.188-2.406,2.09,2.09,0,0,0-1.655-1.085" transform="translate(-442.043 -255.295)" fill="#00685d"/>
            <path id="Trazado_107469" data-name="Trazado 107469" d="M510.836,272.875a2.563,2.563,0,0,1-1.9-1.393c-.68-1.112-.694-2.3-.034-2.7s1.714.15,2.393,1.261a3.336,3.336,0,0,1,.517,1.563,1.2,1.2,0,0,1-.483,1.141.914.914,0,0,1-.487.132m-1.59-1.586c.551.9,1.412,1.426,1.885,1.138a.861.861,0,0,0,.307-.811,2.97,2.97,0,0,0-.462-1.384c-.553-.9-1.417-1.427-1.885-1.139s-.4,1.292.156,2.2" transform="translate(-435.025 -258.303)" fill="#00685d"/>
            <path id="Trazado_107470" data-name="Trazado 107470" d="M514.749,269.5l-.274-.247a1.4,1.4,0,0,1,1.675-.505l-.169.329c-.021-.012-.594-.284-1.231.423" transform="translate(-439.119 -258.305)" fill="#00685d"/>
            <path id="Trazado_107471" data-name="Trazado 107471" d="M525.083,284.3c.193.547-.389,1.251-1.3,1.574s-1.808.141-2-.406.389-1.251,1.3-1.574,1.808-.141,2,.406" transform="translate(-444.027 -268.492)" fill="#f79885"/>
            <path id="Trazado_107472" data-name="Trazado 107472" d="M508.612,459.286C503.653,507.16,484.1,524.61,484.1,524.61H437.582s-2.923-47.2,11.411-56.617a37.454,37.454,0,0,1,9.814-4.275c15.291-4.556,37.78-4.7,49.805-4.433" transform="translate(-387.027 -386.988)" fill="#dbbe36"/>
            <path id="Trazado_107473" data-name="Trazado 107473" d="M517.993,509.063c-.454,1.708-13.645,49.653-63.221,49.218h41.107s15.087-13.479,22.114-49.218" transform="translate(-398.801 -420.659)" fill="#c7a91e"/>
          </g>
        </g>
      </g>
      <rect id="Rectángulo_5634" data-name="Rectángulo 5634" width="279" height="279" transform="translate(1133 9947)" fill="none"/>
    </g>
  </g>
</svg>
