<svg xmlns="http://www.w3.org/2000/svg" xmlns:xlink="http://www.w3.org/1999/xlink" width="295" height="456" viewBox="0 0 295 456">
  <defs>
    <clipPath id="clip-path">
      <rect id="Rectángulo_5587" data-name="Rectángulo 5587" width="231.984" height="210.676" fill="none"/>
    </clipPath>
    <clipPath id="clip-path-2">
      <path id="Trazado_107310" data-name="Trazado 107310" d="M486.869,80.895a24.317,24.317,0,1,0,24.317-24.318,24.318,24.318,0,0,0-24.317,24.318" transform="translate(-486.869 -56.577)" fill="none"/>
    </clipPath>
    <clipPath id="clip-path-4">
      <path id="Trazado_107317" data-name="Trazado 107317" d="M257.215,18.534A16.89,16.89,0,1,0,274.1,1.644a16.89,16.89,0,0,0-16.89,16.89" transform="translate(-257.215 -1.644)" fill="none"/>
    </clipPath>
    <clipPath id="clip-path-6">
      <path id="Trazado_107327" data-name="Trazado 107327" d="M108.9,178.516a19.9,19.9,0,1,0,19.9-19.9,19.9,19.9,0,0,0-19.9,19.9" transform="translate(-108.896 -158.617)" fill="none"/>
    </clipPath>
  </defs>
  <g id="Grupo_62409" data-name="Grupo 62409" transform="translate(-495 -9784.326)">
    <rect id="Rectángulo_5556" data-name="Rectángulo 5556" width="295" height="456" rx="15" transform="translate(495 9784.326)" fill="#f8de63"/>
    <g id="Grupo_62328" data-name="Grupo 62328" transform="translate(0 -70)">
      <g id="Grupo_62317" data-name="Grupo 62317" transform="translate(5.492 6.44)">
        <path id="Trazado_107771" data-name="Trazado 107771" d="M257.588,120.815c11.785-43.669-35.923-94.524-106.56-113.587S13.574,8.111,1.788,51.779,37.711,146.3,108.349,165.366s137.454-.883,149.24-44.551" transform="translate(543.462 10209.748) rotate(-90)" fill="#ffed97" opacity="0.6"/>
        <g id="Grupo_62288" data-name="Grupo 62288" transform="translate(521.016 9971.022)">
          <g id="Grupo_62275" data-name="Grupo 62275">
            <g id="Grupo_62274" data-name="Grupo 62274" clip-path="url(#clip-path)">
              <path id="Trazado_107247" data-name="Trazado 107247" d="M116.582,310.148l-.3-1.5c2.628-.522,5.3-1.1,7.937-1.7l.343,1.487c-2.654.613-5.34,1.19-7.982,1.715m-89.139-.262a76.816,76.816,0,0,1-7.745-2.75l.591-1.407a75.074,75.074,0,0,0,7.591,2.694Zm105.049-3.405L132.106,305c2.609-.683,5.242-1.41,7.827-2.162l.426,1.465c-2.6.756-5.244,1.487-7.868,2.173M12.344,303.4a34.266,34.266,0,0,1-6.528-5.127L6.908,297.2a32.734,32.734,0,0,0,6.237,4.9Zm135.818-1.477-.466-1.453c2.585-.831,5.175-1.7,7.7-2.592l.507,1.439c-2.536.894-5.14,1.771-7.74,2.606m15.4-5.43-.55-1.424c2.538-.978,5.072-2,7.533-3.034l.592,1.407c-2.476,1.041-5.024,2.068-7.575,3.051M1.139,291.329a18.229,18.229,0,0,1-1-3.312A7.546,7.546,0,0,1,0,286.548a10.356,10.356,0,0,1,.73-3.665l1.427.543a8.839,8.839,0,0,0-.63,3.123,6.033,6.033,0,0,0,.111,1.171,16.656,16.656,0,0,0,.915,3.034Zm177.479-1.18-.637-1.386c2.5-1.152,4.962-2.337,7.313-3.523l.687,1.363c-2.367,1.194-4.844,2.387-7.363,3.546m14.586-7.373-.741-1.333c2.408-1.34,4.761-2.721,6.992-4.105l.8,1.3c-2.251,1.4-4.626,2.79-7.055,4.141M6.58,277.056l-1.071-1.088a33.29,33.29,0,0,1,6.641-5l.767,1.32a31.726,31.726,0,0,0-6.337,4.765M207.1,274.131l-.876-1.249c2.293-1.611,4.465-3.25,6.454-4.872l.964,1.183c-2.017,1.645-4.218,3.306-6.542,4.938m12.666-10.411-1.075-1.085a59.2,59.2,0,0,0,5.337-6l1.212.929a60.8,60.8,0,0,1-5.474,6.155m9.849-13.183-1.379-.654a23.8,23.8,0,0,0,2.236-7.5l1.516.171a25.279,25.279,0,0,1-2.373,7.987m.079-15.861a21.734,21.734,0,0,0-3.817-6.825l1.187-.959a23.259,23.259,0,0,1,4.081,7.307Z" transform="translate(0 -156.734)" fill="#b5d6ea"/>
              <path id="Trazado_107248" data-name="Trazado 107248" d="M669.755,173.024,678.008,190a.767.767,0,0,0,1.262.176l9.542-10.681a.767.767,0,0,0-.316-1.235L670.7,171.965a.767.767,0,0,0-.946,1.059" transform="translate(-462.602 -118.759)" fill="#b5d6ea"/>
              <path id="Trazado_107249" data-name="Trazado 107249" d="M683.645,184.926l8.566,10.227,4.408,1.04-1.529-4.263-11.124-7.362a.243.243,0,0,0-.32.359" transform="translate(-472.211 -127.467)" fill="#e1f0fa"/>
              <path id="Trazado_107250" data-name="Trazado 107250" d="M263.725,148l-6.869,10.888a.518.518,0,0,1-.865.02l-1.974-2.778,6.574-6.278a.171.171,0,0,0-.194-.275l-8.09,4.152-1.984-2.778a.518.518,0,0,1,.315-.8l12.526-2.93a.518.518,0,0,1,.56.784" transform="translate(-172.854 -101.684)" fill="#fff"/>
              <path id="Trazado_107251" data-name="Trazado 107251" d="M251.135,161.523l1.608-3.276,8.165-4.19a.425.425,0,0,1,.49.681l0,0-6.634,6.336Zm1.99-2.9-1.12,2.281,2.523-.309,6.092-5.818Z" transform="translate(-173.48 -106.39)" fill="#fff"/>
              <path id="Trazado_107252" data-name="Trazado 107252" d="M438.99,244.278a15.514,15.514,0,1,1-7.879-28.92l0,1.571a13.945,13.945,0,1,0,8.5,2.835l.951-1.252a15.511,15.511,0,0,1-1.572,25.766" transform="translate(-287.134 -148.766)" fill="#fff"/>
              <path id="Trazado_107253" data-name="Trazado 107253" d="M466.341,212.75l-5.226-2.342-.029,4.618Z" transform="translate(-318.511 -145.346)" fill="#fff"/>
              <path id="Trazado_107254" data-name="Trazado 107254" d="M439.358,257.359l.01-1.516a7.42,7.42,0,0,1,1.227-1.827,16.719,16.719,0,0,1,2-1.853,10.172,10.172,0,0,0,1.622-1.528,1.973,1.973,0,0,0,.47-1.186,1.268,1.268,0,0,0-1.429-1.438,1.43,1.43,0,0,0-1.071.37,1.984,1.984,0,0,0-.485,1.128l-2.2-.139a3.444,3.444,0,0,1,1.153-2.317,3.9,3.9,0,0,1,2.6-.785,4.083,4.083,0,0,1,2.715.827,2.819,2.819,0,0,1,.934,2.275,3.134,3.134,0,0,1-.312,1.389,4.909,4.909,0,0,1-.785,1.142,8.762,8.762,0,0,1-1.059.977q-.582.455-1.13.887a12.617,12.617,0,0,0-1,.872,3.03,3.03,0,0,0-.67.944l5.083.032-.011,1.8Z" transform="translate(-303.502 -170.118)" fill="#fff"/>
              <path id="Trazado_107255" data-name="Trazado 107255" d="M474.093,255.726l-.014,2.231L472,257.944l.014-2.231-4.982-.032.01-1.64,4.67-7.052,2.44.015-.046,7.1,1.462.009-.01,1.624Zm-2.05-5.221c0-.28.012-.583.033-.909s.036-.536.046-.629a11.765,11.765,0,0,1-.738,1.254l-2.566,3.848,3.2.02Z" transform="translate(-322.616 -170.617)" fill="#fff"/>
              <path id="Trazado_107256" data-name="Trazado 107256" d="M139.679,408.956l8.919-19.051a59.386,59.386,0,0,0-12.065-24.686l-13.126,23.908,6.629-31.121a110.205,110.205,0,0,0-16.852-13.474l-10.868,19.8,5-23.467a186.914,186.914,0,0,0-19.843-10.141l-4.03,14.092.015-15.824a298.042,298.042,0,0,0-30.319-10.714,185.857,185.857,0,0,0,3.8,29.517L77.269,350.3l-19.108,3a160.5,160.5,0,0,0,6.682,21.531L88.6,372.746l-21.136,8.267a95.9,95.9,0,0,0,14.184,22.768l30.183-3.72-24.541,9.6a60.107,60.107,0,0,0,22.739,13.419l21.471-6.9-12.887,8.972a77.724,77.724,0,0,0,25.265-.186,51.488,51.488,0,0,0,5.81-26.756Z" transform="translate(-36.708 -219.86)" fill="#97deff"/>
              <path id="Trazado_107257" data-name="Trazado 107257" d="M151.515,436.631c-1.6-2.109-3.173-4.233-4.741-6.359l-4.808-6.3q-4.807-6.3-9.758-12.479c-6.624-8.222-13.352-16.354-20.275-24.323-6.885-8-13.96-15.838-21.076-23.644q-5.337-5.855-10.786-11.611L69.222,340.341c3.931,3.541,7.748,7.2,11.583,10.85q5.665,5.557,11.226,11.224c7.408,7.561,14.547,15.386,21.489,23.382,6.9,8.028,13.618,16.227,19.958,24.71q4.75,6.366,9.314,12.862c2.973,4.38,5.93,8.769,8.722,13.263" transform="translate(-47.818 -235.103)" fill="#fff"/>
              <path id="Trazado_107258" data-name="Trazado 107258" d="M89.922,589.893l-1.339-9.17A35.438,35.438,0,0,0,77,573.13l.875,11.859-5.5-13.538a65.548,65.548,0,0,0-10.6-2.28l.725,9.819-4.145-10.208a104.433,104.433,0,0,0-10.96-.416l2.061,6.317-4.193-6.274c-4.708.135-9.853.538-15.477,1.259a99.952,99.952,0,0,0,9.417,11.008l9.139-2.7-7.167,4.657a92.58,92.58,0,0,0,8.5,7.32l9.345-5.14-6.613,7.115a58.235,58.235,0,0,0,11.953,6.448l11.59-6.955-7.679,8.261a34.245,34.245,0,0,0,13.037,1.189l7.115-6.634-2.989,5.9a34.135,34.135,0,0,0,10.478-4.662,22.851,22.851,0,0,0-4.679-11.659Z" transform="translate(-20.582 -392.614)" fill="#53bced"/>
              <path id="Trazado_107259" data-name="Trazado 107259" d="M102.2,601.641c-4.884-2.2-9.78-4.365-14.719-6.423s-9.893-4.074-14.9-5.948c-4.982-1.947-10.018-3.755-15.058-5.555s-10.106-3.531-15.167-5.293c5.179,1.377,10.309,2.932,15.407,4.587s10.142,3.476,15.163,5.357c4.993,1.954,9.966,3.964,14.853,6.172s9.716,4.541,14.423,7.1" transform="translate(-29.257 -399.566)" fill="#fff"/>
              <path id="Trazado_107260" data-name="Trazado 107260" d="M614.02,469.649l-1.753-.628a12.486,12.486,0,0,0-.233-4.69l1.689-.8a2.5,2.5,0,1,0-2.132-4.516l-1.692.8a12.215,12.215,0,0,0-3.474-3.159l.63-1.758a2.5,2.5,0,0,0-4.7-1.684l-.63,1.758a12.25,12.25,0,0,0-4.69.233l-.8-1.7a2.5,2.5,0,0,0-4.516,2.132l.8,1.691a12.261,12.261,0,0,0-3.159,3.474l-1.758-.63a2.5,2.5,0,0,0-1.684,4.7l1.758.63a12.217,12.217,0,0,0,.233,4.69l-1.7.8a2.5,2.5,0,0,0,2.132,4.516l1.689-.8a12.479,12.479,0,0,0,3.474,3.159l-.628,1.753a2.5,2.5,0,1,0,4.7,1.684l.629-1.753a12.437,12.437,0,0,0,4.689-.233l.8,1.689a2.5,2.5,0,1,0,4.516-2.132l-.8-1.69a12.438,12.438,0,0,0,3.159-3.473l1.752.628a2.5,2.5,0,1,0,1.684-4.7m-16.968,5.777a8.669,8.669,0,1,1,11.082-5.233,8.678,8.678,0,0,1-11.082,5.233m5.547-15.473a7.768,7.768,0,1,0,4.687,9.936,7.776,7.776,0,0,0-4.687-9.936m-4.416,12.318a5.318,5.318,0,1,1,6.8-3.209,5.318,5.318,0,0,1-6.8,3.209" transform="translate(-403.611 -311.938)" fill="#fff"/>
              <path id="Trazado_107261" data-name="Trazado 107261" d="M507.453,403.657l-7.882,85.682-1.486-.122,6.241-85.817Z" transform="translate(-344.069 -278.663)" fill="#7fb8db"/>
              <path id="Trazado_107262" data-name="Trazado 107262" d="M621.518,403.4l6.24,85.817-1.486.122-7.883-85.682Z" transform="translate(-427.175 -278.663)" fill="#7fb8db"/>
              <path id="Trazado_107263" data-name="Trazado 107263" d="M316.422,441.012c-8.863,0-11.295-15.435-13.25-28.427-.284-1.882-.548-3.643-.814-5.193a1.521,1.521,0,0,1,1.241-1.756h1.434a1.516,1.516,0,0,1,1.755,1.242c.269,1.568.538,3.35.824,5.255,1.495,9.941,4,26.566,10.251,26.566a.488.488,0,0,1,.052,0,1.52,1.52,0,0,1,1.52,1.5c.009.84-1.554.809-1.58.809Z" transform="translate(-208.849 -280.192)" fill="#22365b"/>
              <rect id="Rectángulo_5584" data-name="Rectángulo 5584" width="2.399" height="20.32" transform="translate(115.054 175.562)" fill="#22365b"/>
              <rect id="Rectángulo_5585" data-name="Rectángulo 5585" width="4.188" height="22.77" transform="translate(114.159 155.928)" fill="#265173"/>
              <path id="Trazado_107264" data-name="Trazado 107264" d="M363.938,642.988c-.016-.1-1.646-10.444-7.025-10.444s-7.009,10.34-7.025,10.444l-1.5-.226c.072-.479,1.846-11.738,8.528-11.738s8.456,11.259,8.527,11.738Z" transform="translate(-240.659 -435.902)" fill="#22365b"/>
              <path id="Trazado_107265" data-name="Trazado 107265" d="M349.392,643.147c-.168-.433-4.261-10.6-18.961-10.6s-18.793,10.17-18.961,10.6l-1.421-.544c.045-.116,4.6-11.581,20.382-11.581s20.336,11.464,20.381,11.581Z" transform="translate(-214.178 -435.902)" fill="#22365b"/>
              <path id="Trazado_107266" data-name="Trazado 107266" d="M431.409,666.194a2.732,2.732,0,1,1,2.732,2.732,2.732,2.732,0,0,1-2.732-2.732" transform="translate(-298.011 -458.31)" fill="#265173"/>
              <path id="Trazado_107267" data-name="Trazado 107267" d="M392.279,666.194a2.732,2.732,0,1,1,2.732,2.732,2.731,2.731,0,0,1-2.732-2.732" transform="translate(-270.981 -458.31)" fill="#265173"/>
              <path id="Trazado_107268" data-name="Trazado 107268" d="M341.981,666.194a2.732,2.732,0,1,1,2.732,2.732,2.732,2.732,0,0,1-2.732-2.732" transform="translate(-236.236 -458.31)" fill="#265173"/>
              <path id="Trazado_107269" data-name="Trazado 107269" d="M303.435,666.194a2.732,2.732,0,1,1,2.732,2.732,2.732,2.732,0,0,1-2.732-2.732" transform="translate(-209.609 -458.31)" fill="#265173"/>
              <path id="Trazado_107270" data-name="Trazado 107270" d="M319.555,503.82h31.034a2.787,2.787,0,0,0,2.788-2.788v-.76a2.787,2.787,0,0,0-2.788-2.788H319.555a2.788,2.788,0,0,0-2.788,2.788v.76a2.788,2.788,0,0,0,2.788,2.788" transform="translate(-218.818 -343.655)" fill="#22365b"/>
              <path id="Trazado_107271" data-name="Trazado 107271" d="M310.887,487.925H342.9a5.96,5.96,0,0,1,5.96,5.96h0a1.137,1.137,0,0,1-1.137,1.137H306.064a1.137,1.137,0,0,1-1.137-1.137h0a5.96,5.96,0,0,1,5.96-5.96" transform="translate(-210.639 -337.051)" fill="#5aa5d1"/>
              <path id="Trazado_107272" data-name="Trazado 107272" d="M277.665,290.762h0c10.247,0,19.8,8.382,21.34,18.72l2.37,15.929c1.021,6.861-3.664,12.424-10.465,12.424H278.428c-6.8,0-13.141-5.562-14.162-12.424l-2.37-15.929c-1.538-10.339,5.522-18.72,15.769-18.72" transform="translate(-180.768 -200.854)" fill="#53bced"/>
              <path id="Trazado_107273" data-name="Trazado 107273" d="M372.587,264.982c-3.913,1.512-.661,40.25,10.128,40.931,16.566,1.046,25.108-1.569,25.108-1.569a3.039,3.039,0,0,0,.348-4.708c-2.441-2.615-20.749-4.882-20.749-4.882s-7.164-32.736-14.835-29.772" transform="translate(-256.275 -182.915)" fill="#db6e5f"/>
              <path id="Trazado_107274" data-name="Trazado 107274" d="M394.5,320.114c-2.189-14.3-4.882-20.5-4.882-20.5l-4.94,21.98c1.871,4.767,4.362,8.178,7.493,8.375,2.487.157,4.771.224,6.894.237,1.419-.757,2.376-2.015,2.506-4.683.174-3.574-7.07-5.405-7.07-5.405" transform="translate(-265.727 -206.966)" fill="#cc4a38"/>
              <path id="Trazado_107275" data-name="Trazado 107275" d="M450.717,502.682c-10.854-5.493-7.114-49.871-7.114-49.871a71.337,71.337,0,0,1-15.327.345q-.706-.063-1.444-.157h-.011c-3.254-1.349-3.264-17.366,10.273-20.829,3.965-1.015,9.091-.952,15.63.868.011,0,.021.011.032.011,3.044,1.13,5.346,2.385,6.591,3.724,8.506,9.154-8.631,65.909-8.631,65.909" transform="translate(-293.605 -298.083)" fill="#f79885"/>
              <path id="Trazado_107276" data-name="Trazado 107276" d="M441.817,432.417c-.663.1-1.308.223-1.916.378a15.334,15.334,0,0,0-10.472,8.59c-1.13,5.441.785,11.147,2.625,11.911h.01c.942-.1,1.475-.188,1.475-.188l-.032.345c-.009.135-.016.3-.021.5a71.708,71.708,0,0,0,12.92-.511s-2.147,25.5,1.54,40.229c1.655-13.872,6.1-54.079,2.509-57.381-1.226-1.133-4.6-2.713-8.64-3.868" transform="translate(-296.41 -298.707)" fill="#f0786a"/>
              <path id="Trazado_107277" data-name="Trazado 107277" d="M495.08,667.112a30.579,30.579,0,0,0-.383,4.335h3.211l.8-2.7a8.229,8.229,0,0,0-3.626-1.633" transform="translate(-341.73 -460.831)" fill="#22365b"/>
              <path id="Trazado_107278" data-name="Trazado 107278" d="M508.725,659.415s-7.163-3-8.034-8.794l-3.952.5s-.329,1.591-.8,4.6A19.544,19.544,0,0,1,502,660.055h6.935Z" transform="translate(-342.584 -449.44)" fill="#265173"/>
              <path id="Trazado_107279" data-name="Trazado 107279" d="M440.256,504.153c-11.989-3.138-12.293-45.058-11.979-49.526l.032-.345s-.533.084-1.475.188h-.011c-3.254-1.349-3.264-17.366,10.273-20.829,3.756,1.14,6.612,2.416,8.129,3.818,4.352,4-4.969,66.693-4.969,66.693" transform="translate(-293.605 -299.553)" fill="#f79885"/>
              <path id="Trazado_107280" data-name="Trazado 107280" d="M373.382,421.421c-6.538-1.82-11.665-1.883-15.63-.868-13.537,3.463-13.527,19.48-10.274,20.829h-.021c-7.177.774-37.515,2.751-37.285-19.626.021-2.344.084-4.708.167-7.062,4.833.053,10.033.283,15.264.68,0-.23.01-.45.021-.68,16.529.157,36.888,2.7,47.757,6.727" transform="translate(-214.262 -286.465)" fill="#0d66bf"/>
              <path id="Trazado_107281" data-name="Trazado 107281" d="M430.834,500.358h-.01v-1.046Z" transform="translate(-297.607 -344.917)" fill="#265173"/>
              <path id="Trazado_107282" data-name="Trazado 107282" d="M461.741,667.112a11.734,11.734,0,0,0,.6,4.335h2.119l.768-2.7a7.78,7.78,0,0,0-3.491-1.633" transform="translate(-318.941 -460.831)" fill="#22365b"/>
              <path id="Trazado_107283" data-name="Trazado 107283" d="M471.241,659.415s-5.242-2.891-5.62-8.794l-4.585.416a9.448,9.448,0,0,1,.241,4.683s-.047,1.128,3,4.335h7.165Z" transform="translate(-318.477 -449.44)" fill="#265173"/>
              <path id="Trazado_107284" data-name="Trazado 107284" d="M328.328,239.607a82.945,82.945,0,0,0-.709,8.288c-.1,4.485-7.788,15.917-7.788,15.917s-6.364-3.661-2.2-27.549c3.419-1.133,7.216-.579,10.7,3.344" transform="translate(-218.439 -162.849)" fill="#9c2622"/>
              <path id="Trazado_107285" data-name="Trazado 107285" d="M318.068,260.628c-3.93,3.216-9.067,34.611-8.081,51.52,0,0,11.754-4.539,36.071-3.968-7.239-5.182-4.669-38.921-12.3-47.291-2.907-3.189-12.816-2.616-15.693-.262" transform="translate(-214.049 -178.691)" fill="#db6e5f"/>
              <path id="Trazado_107286" data-name="Trazado 107286" d="M351.157,208.486s.666-7.606.626-10.239c0,0,3.665,1.755,5.225,1.268s1.894-11.8-2.291-16.373c-5.214-5.7-13.409,1.453-11.946,5.744s5.183,6.6,3.482,16.276a7.562,7.562,0,0,0,4.9,3.324" transform="translate(-236.662 -125.048)" fill="#f79885"/>
              <path id="Trazado_107287" data-name="Trazado 107287" d="M323.728,178.426c2.235-6.167,10.321-5.514,11.08-3.379a1.928,1.928,0,0,0,.826,0,2.9,2.9,0,0,1,4.453,3.4l-2.29-.922s.528,3.8-4.051,7.46c0,0-1.714-1.9-2.488-.439s1.757,2.487,1.757,2.487-.872,4.479-1.53,9.606a84.843,84.843,0,0,1-10.7-3.343,126.526,126.526,0,0,1,2.939-14.865" transform="translate(-221.596 -119.877)" fill="#9c2622"/>
              <path id="Trazado_107288" data-name="Trazado 107288" d="M355.195,206.41c.317,1.491-.354,2.9-1.5,3.14s-2.329-.768-2.646-2.259.354-2.9,1.5-3.141,2.329.769,2.646,2.26" transform="translate(-242.447 -140.999)" fill="#265173"/>
              <path id="Trazado_107289" data-name="Trazado 107289" d="M364.177,220.11c-4.34,0-6.7-4.211-6.722-4.261a.28.28,0,0,1,.491-.268c.118.217,2.974,5.288,8.266,3.646a.28.28,0,1,1,.167.535,7.409,7.409,0,0,1-2.2.348" transform="translate(-246.901 -148.819)" fill="#22365b"/>
              <path id="Trazado_107290" data-name="Trazado 107290" d="M386.93,225.532c.127.4-.053.819-.687,1.02s-1.481.11-1.609-.292.513-.964,1.147-1.165,1.022.035,1.149.438" transform="translate(-265.689 -155.442)" fill="#22365b"/>
              <path id="Trazado_107291" data-name="Trazado 107291" d="M355.218,208.108a1.669,1.669,0,1,1-2.014-1.72,1.906,1.906,0,0,1,2.014,1.72" transform="translate(-243.16 -142.551)" fill="#5aa5d1"/>
              <path id="Trazado_107292" data-name="Trazado 107292" d="M353.611,187.983s-3.023-8.4,3.378-9.57l.826,0s-5.794,1.077-3.16,9.391Z" transform="translate(-243.777 -123.242)" fill="#5aa5d1"/>
              <path id="Trazado_107293" data-name="Trazado 107293" d="M350.392,309.573c-5.66-1.781-11.624-2.958-11.624-2.958s-1.913-24.752-10.468-21.447c-4.364,1.686-8.737,35.443,3.294,36.2a86.648,86.648,0,0,0,20.846-.924,75.464,75.464,0,0,1-2.048-10.874" transform="translate(-223.671 -196.78)" fill="#cc4a38"/>
              <path id="Trazado_107294" data-name="Trazado 107294" d="M330.6,267.651c-3.913,1.512-7.476,39.422,3.313,40.1,16.566,1.046,25.108-1.569,25.108-1.569a3.039,3.039,0,0,0,.349-4.708c-2.441-2.615-20.749-4.882-20.749-4.882s-.348-31.908-8.02-28.944" transform="translate(-225.708 -184.755)" fill="#db6e5f"/>
              <path id="Trazado_107295" data-name="Trazado 107295" d="M425.02,377.87c-.21-1.7,5.9-1.831,6.811-1.439s3.313,4.577,3.117,5.3-3.468.735-4.583-.265c-.729-.654-1.5-1.5-1.5-1.5s-3.444,1.177-3.847-2.092" transform="translate(-293.594 -259.906)" fill="#f79885"/>
              <path id="Trazado_107296" data-name="Trazado 107296" d="M253.7,403.657l-7.883,85.682-1.486-.122,6.241-85.817Z" transform="translate(-168.784 -278.663)" fill="#7fb8db"/>
              <path id="Trazado_107297" data-name="Trazado 107297" d="M367.77,403.4l6.241,85.817-1.486.122-7.883-85.682Z" transform="translate(-251.889 -278.663)" fill="#7fb8db"/>
              <rect id="Rectángulo_5586" data-name="Rectángulo 5586" width="131.904" height="3.24" transform="translate(72.285 123.246)" fill="#ed9d22"/>
              <path id="Trazado_107298" data-name="Trazado 107298" d="M414.073,393.991h45.172a1.242,1.242,0,0,0,1.242-1.242v-.81H412.831v.81a1.242,1.242,0,0,0,1.242,1.242" transform="translate(-285.178 -270.745)" fill="#265173"/>
              <path id="Trazado_107299" data-name="Trazado 107299" d="M481.787,326.469H506a2.879,2.879,0,0,0,2.26-1.427l14.33-26.451c.427-.788.108-1.427-.714-1.427H497.663a2.879,2.879,0,0,0-2.26,1.427l-14.33,26.451c-.427.788-.107,1.427.714,1.427" transform="translate(-332.188 -205.276)" fill="#265173"/>
              <path id="Trazado_107300" data-name="Trazado 107300" d="M481.654,388.887H506.3a2.868,2.868,0,0,0,1.864-.861,2.877,2.877,0,0,1-2.123,1.21H481.837a.806.806,0,0,1-.881-.58,1,1,0,0,0,.7.232" transform="translate(-332.237 -268.043)" fill="#22365b"/>
              <path id="Trazado_107301" data-name="Trazado 107301" d="M553.738,338.482c-.68,1.225-1.9,2.217-2.726,2.217s-.943-.993-.263-2.217,1.9-2.217,2.725-2.217.943.993.263,2.217" transform="translate(-380.144 -232.287)" fill="#e1f0fa"/>
            </g>
          </g>
          <g id="Grupo_62277" data-name="Grupo 62277" transform="translate(150.547 17.494)">
            <g id="Grupo_62276" data-name="Grupo 62276" clip-path="url(#clip-path-2)">
              <path id="Trazado_107302" data-name="Trazado 107302" d="M508.02,199.864h39.9a105.127,105.127,0,0,0-.2-30.093c-20.856-10.463-39.7,2.4-39.7,2.4Z" transform="translate(-501.48 -131.937)" fill="#008eb0"/>
              <path id="Trazado_107303" data-name="Trazado 107303" d="M556.966,110.1a4.352,4.352,0,0,1-2.758-3.7c-.3-3.665-.926-10.831-1.969-20.131-.441-2.26-9.972-1.656-11.02-.029s-1.591,14.48.476,17.215a7.474,7.474,0,0,0,3.05.247s.138,7.122-1.7,7.395c0,0,1.119,5.981,5.107,8.527,7.115-5.456,8.81-9.52,8.81-9.52" transform="translate(-523.77 -76.062)" fill="#f79885"/>
              <path id="Trazado_107304" data-name="Trazado 107304" d="M554.511,145.408a18.455,18.455,0,0,0,.058-2.354,11.99,11.99,0,0,0,4.969-1.3,8.82,8.82,0,0,1-5.027,3.65" transform="translate(-533.595 -115.419)" fill="#f0786a"/>
              <path id="Trazado_107305" data-name="Trazado 107305" d="M549.251,94.969a19.827,19.827,0,0,1-2.819-4.326c2.56-1.792.5-4.752-1.124-2.417a12.9,12.9,0,0,1-.907-2.844,16.034,16.034,0,0,1-5.638.391c-2.386-.44-5.363-1.884-4.325-4.812s6.447-1.4,8.58-.92c0,0,4.553-1.8,6.521-.086s1.454,11.54-.287,15.014" transform="translate(-519.582 -72.213)" fill="#9c2622"/>
              <path id="Trazado_107306" data-name="Trazado 107306" d="M558.024,107.5l-.1-.41,4.139-.991.1.41Z" transform="translate(-535.954 -90.786)" fill="#00685d"/>
              <path id="Trazado_107307" data-name="Trazado 107307" d="M548.874,111.424a2.49,2.49,0,0,1-2.156-2.378c-.188-1.449.564-2.746,1.677-2.89s2.172.917,2.359,2.365-.564,2.745-1.677,2.89a1.559,1.559,0,0,1-.2.013m-1.739-2.432c.161,1.219,1.017,2.119,1.889,2s1.472-1.2,1.314-2.418-1.01-2.112-1.889-2-1.472,1.2-1.314,2.418" transform="translate(-528.192 -90.816)" fill="#00685d"/>
              <path id="Trazado_107308" data-name="Trazado 107308" d="M535.693,110.606a1.442,1.442,0,0,1-1.116-.675,3.792,3.792,0,0,1-.659-1.757c-.191-1.473.345-2.716,1.221-2.831a1.372,1.372,0,0,1,1.245.667,4.129,4.129,0,0,1,.472,3.625,1.374,1.374,0,0,1-1.034.963.957.957,0,0,1-.129.009m-.426-4.851a.507.507,0,0,0-.075.005c-.62.08-1.014,1.161-.858,2.359a3.379,3.379,0,0,0,.58,1.56.968.968,0,0,0,.854.5c.283-.036.53-.286.7-.7a3.709,3.709,0,0,0-.419-3.216,1.047,1.047,0,0,0-.779-.506" transform="translate(-519.343 -90.258)" fill="#00685d"/>
              <path id="Trazado_107309" data-name="Trazado 107309" d="M543.875,109.244c-.019-.023-.49-.57-1.479-.131l-.171-.385a1.6,1.6,0,0,1,1.978.252Z" transform="translate(-525.108 -92.458)" fill="#00685d"/>
            </g>
          </g>
          <g id="Grupo_62279" data-name="Grupo 62279">
            <g id="Grupo_62278" data-name="Grupo 62278" clip-path="url(#clip-path)">
              <path id="Trazado_107311" data-name="Trazado 107311" d="M510.049,104.584a24.826,24.826,0,1,1,24.827-24.826,24.854,24.854,0,0,1-24.827,24.826m0-48.635a23.809,23.809,0,1,0,23.809,23.809,23.835,23.835,0,0,0-23.809-23.809" transform="translate(-335.185 -37.946)" fill="#008eb0"/>
            </g>
          </g>
          <g id="Grupo_62281" data-name="Grupo 62281" transform="translate(79.535 0.508)">
            <g id="Grupo_62280" data-name="Grupo 62280" clip-path="url(#clip-path-4)">
              <path id="Trazado_107312" data-name="Trazado 107312" d="M287.522,80.026A16.378,16.378,0,0,0,280.7,92.192h16.45a15.18,15.18,0,0,0-9.631-12.166" transform="translate(-273.44 -55.789)" fill="#ffb157"/>
              <path id="Trazado_107313" data-name="Trazado 107313" d="M302.508,46.023a12.568,12.568,0,0,0,1.168-5.852s2.911,1.6,3.41,1.171c.889-.773,4.2-8.832-1.029-13.932s-9.693,1.938-7.884,4.755,3.763,5.883,1.134,10.267c1.635,4.006,3.2,3.59,3.2,3.59" transform="translate(-285.225 -18.196)" fill="#ca5c47"/>
              <path id="Trazado_107314" data-name="Trazado 107314" d="M284.2,28.946a2.339,2.339,0,0,1-2.31.791c-1.271-.439-.686-3.685-.686-3.685s-3.444,3.065-4.589,1.035c-1.335-1.976,3.434-3.326,3.434-3.326s-5.819-.228-5.222-2.966,5.151-.715,5.151-.715-4.291-2.4-1.788-5.079c2-2.146,5.365,2.2,5.365,2.2s-1.216-3.127.02-3.682c1.563-.7,3.222,3.324,3.222,3.324s-.5-2.542,1.622-2.34,2.3,5.152,2.3,5.152-3.295,1.472-5.5,6.425c.879,4.474-.754,5.223-1.019,2.87" transform="translate(-269.348 -9.788)" fill="#265173"/>
              <path id="Trazado_107315" data-name="Trazado 107315" d="M312.8,32.786l-1.232-2.722s-7.63,1.757-6.562,10.371c0,0,4.244-9.009,7.794-7.649" transform="translate(-290.157 -21.276)" fill="#ffb157"/>
              <path id="Trazado_107316" data-name="Trazado 107316" d="M310.531,50.228s-1.549-1.74-2.05-.609,2,1.791,2,1.791Z" transform="translate(-292.583 -34.521)" fill="#ca5c47"/>
            </g>
          </g>
          <g id="Grupo_62283" data-name="Grupo 62283">
            <g id="Grupo_62282" data-name="Grupo 62282" clip-path="url(#clip-path)">
              <path id="Trazado_107318" data-name="Trazado 107318" d="M272.969,34.8a17.4,17.4,0,1,1,17.4-17.4,17.418,17.418,0,0,1-17.4,17.4m0-33.78A16.382,16.382,0,1,0,289.35,17.4,16.4,16.4,0,0,0,272.969,1.017" transform="translate(-176.545)" fill="#265173"/>
            </g>
          </g>
          <g id="Grupo_62285" data-name="Grupo 62285" transform="translate(33.672 49.047)">
            <g id="Grupo_62284" data-name="Grupo 62284" clip-path="url(#clip-path-6)">
              <path id="Trazado_107319" data-name="Trazado 107319" d="M219.353,273.2c-2.961-9.021-6.28-14.884-7.916-16.431L213.3,273.2Z" transform="translate(-179.73 -226.421)" fill="#ffb157"/>
              <path id="Trazado_107320" data-name="Trazado 107320" d="M216.916,291.436c-1.172-4.959-2.044-8.27-2.044-8.27s-.011.413-.028,1.153l.805,7.117Z" transform="translate(-182.083 -244.654)" fill="#db7d00"/>
              <path id="Trazado_107321" data-name="Trazado 107321" d="M138,266.1c-1.244-9.251-2.188-16.431-2.188-16.431-9.385-5.993-30.167-2.051-33.854,0l.269,16.431Z" transform="translate(-104.101 -219.316)" fill="#ffb157"/>
              <path id="Trazado_107322" data-name="Trazado 107322" d="M144.748,246.786c.009.032,4.616,10.457,11.06,9.453s.95-9.347.941-9.369a53.662,53.662,0,0,0-12-.084" transform="translate(-133.662 -219.32)" fill="#f3e190"/>
              <path id="Trazado_107323" data-name="Trazado 107323" d="M108.556,279.583c-.7-10.64-2.691-13.576-2.691-13.576l-3.609,2.856.176,10.72Z" transform="translate(-104.31 -232.8)" fill="#db7d00"/>
              <path id="Trazado_107324" data-name="Trazado 107324" d="M88.815,272.861c.386-9.287-.177-17.841-4.532-16.431-2.525.818-5.562,7.956-7.91,16.431Z" transform="translate(-86.43 -226.079)" fill="#ffb157"/>
              <path id="Trazado_107325" data-name="Trazado 107325" d="M157.613,206.841c-2.672.685-7.622-2.514-9.21-7.484,0,0,2.675-20.212,3.823-20.976s9.263-.165,9.761.818.362,12.279-.6,14.851l-3.84-.4.528,5.707s2.767,6.656-.458,7.482" transform="translate(-136.187 -172.03)" fill="#f79885"/>
              <path id="Trazado_107326" data-name="Trazado 107326" d="M161.249,170.33c-4.934-2.254-8.434-2.964-7,.828-3.763-1.724-3.462,2.6-2.592,3.619-2.055.5.186,5.915-.626,10.92,0,0,3.616-4.357,4.2-6.338,0,0-1.905-.758-1.086-2.314s2.157.463,2.157.463-1.083,7.91,2.9,9.873a8.813,8.813,0,0,0,4.039.354c.4-.23.99-4.877.524-5.972,0,0-3.167.053-4.431,1.433,0,0-2.051-2.044-2.333-7.444l.078-.2a7.09,7.09,0,0,0,7.442-.671c4.033-2.774-.369-7.474-3.275-4.553" transform="translate(-137.817 -165.428)" fill="#c93b38"/>
            </g>
          </g>
          <g id="Grupo_62287" data-name="Grupo 62287">
            <g id="Grupo_62286" data-name="Grupo 62286" clip-path="url(#clip-path)">
              <path id="Trazado_107328" data-name="Trazado 107328" d="M127.658,197.788a20.408,20.408,0,1,1,20.408-20.408,20.431,20.431,0,0,1-20.408,20.408m0-39.8a19.39,19.39,0,1,0,19.391,19.391,19.413,19.413,0,0,0-19.391-19.391" transform="translate(-74.087 -108.435)" fill="#c93b38"/>
              <path id="Trazado_107329" data-name="Trazado 107329" d="M418.965,177.63l-.664-1.374,3.541-1.716.664,1.374Zm10.867-5.267-.667-1.373,7.326-3.551.667,1.373Z" transform="translate(-288.956 -115.664)" fill="#b5d6ea"/>
              <path id="Trazado_107330" data-name="Trazado 107330" d="M414.228,46.778a71.179,71.179,0,0,0-7.072-3.841l.651-1.381a72.846,72.846,0,0,1,7.223,3.924Zm-14.54-6.836a66.782,66.782,0,0,0-7.767-2.077l.3-1.5a68.4,68.4,0,0,1,7.945,2.124Zm-15.728-3.2a67.951,67.951,0,0,0-8.043-.166l-.058-1.525a69.836,69.836,0,0,1,8.223.169Z" transform="translate(-259.637 -24.177)" fill="#b5d6ea"/>
              <path id="Trazado_107331" data-name="Trazado 107331" d="M183.144,109.4l-1.34-.733a59.565,59.565,0,0,1,4.459-6.929l1.224.911a57.935,57.935,0,0,0-4.344,6.751m9.546-12.876-1.1-1.059a70.657,70.657,0,0,1,6.043-5.579l.968,1.179a69.44,69.44,0,0,0-5.912,5.458" transform="translate(-125.588 -62.093)" fill="#b5d6ea"/>
            </g>
          </g>
        </g>
      </g>
      <rect id="Rectángulo_5632" data-name="Rectángulo 5632" width="279" height="279" transform="translate(503 9947)" fill="none"/>
    </g>
  </g>
</svg>
