<svg xmlns="http://www.w3.org/2000/svg" xmlns:xlink="http://www.w3.org/1999/xlink" width="206" height="206" viewBox="0 0 206 206">
  <defs>
    <clipPath id="clip-path">
      <rect id="Rectángulo_5691" data-name="Rectángulo 5691" width="187.126" height="177.548" fill="none"/>
    </clipPath>
  </defs>
  <g id="Grupo_62393" data-name="Grupo 62393" transform="translate(0.457 -0.017)">
    <rect id="Rectángulo_5694" data-name="Rectángulo 5694" width="206" height="206" transform="translate(-0.457 0.017)" fill="none"/>
    <g id="Grupo_62390" data-name="Grupo 62390" transform="translate(9.542 14.42)">
      <g id="Grupo_62389" data-name="Grupo 62389" clip-path="url(#clip-path)">
        <path id="Trazado_108416" data-name="Trazado 108416" d="M4.171,72.41c-13.4,25.762,6.538,62.658,44.524,82.41s79.639,14.881,93.035-10.88-6.538-62.658-44.524-82.411S17.567,46.648,4.171,72.41" transform="translate(12.01 -16.914)" fill="#f3f9ff"/>
        <path id="Trazado_108417" data-name="Trazado 108417" d="M328.822,561.386a7.284,7.284,0,0,0,4.595-3.168,5.612,5.612,0,0,0,.7-2.211h2.605a25.2,25.2,0,0,0,.207,3.586,10.243,10.243,0,0,1,.258,1.887c.012.254.019.524.017.833h-8.862v-.348a.6.6,0,0,1,.477-.579" transform="translate(-227.219 -384.766)" fill="#265173"/>
        <path id="Trazado_108418" data-name="Trazado 108418" d="M443.986,561.188a7.3,7.3,0,0,0,2.39-2.969,5.057,5.057,0,0,0,.213-2.211h2.68c.068,1.547.169,2.988.262,3.586a14.581,14.581,0,0,1,.18,1.887c.008.253.013.524.011.833h-6.162V562a1.008,1.008,0,0,1,.425-.809" transform="translate(-306.951 -384.766)" fill="#265173"/>
        <path id="Trazado_108419" data-name="Trazado 108419" d="M344.495,322.153c-.452,4.211-.836,8.578-1.184,13-1.828,23.123-2.6,47.617-6.257,57.319h-3.707c-6.257-33.474-5.778-57.8-3.238-74.589a36.756,36.756,0,0,0,8.406,3.21,40.2,40.2,0,0,0,5.979,1.059" transform="translate(-227.22 -219.981)" fill="#dbbe36"/>
        <path id="Trazado_108420" data-name="Trazado 108420" d="M364.716,340.334l3.3,16.521c.148-2.058.3-4.117.463-6.164q.279-3.551.6-7.034Z" transform="translate(-252.389 -235.516)" fill="#bb9f1a"/>
        <path id="Trazado_108421" data-name="Trazado 108421" d="M391.923,394.687h-3.168c-4.456-13.224-16.395-39.687-23.3-57.319a112.188,112.188,0,0,1-4.795-14.061,10.6,10.6,0,0,1-.313-2.224l16.317,1.576c3.934,11.294,19.128,55.882,15.255,72.028" transform="translate(-249.368 -222.194)" fill="#dbbe36"/>
        <path id="Trazado_108422" data-name="Trazado 108422" d="M335.073,226.9l-3.124-10.478a62.244,62.244,0,0,1-7.7-2.733l-3.022,8.157a46.672,46.672,0,0,0,13.841,5.054" transform="translate(-222.297 -147.872)" fill="#008eb0"/>
        <path id="Trazado_108423" data-name="Trazado 108423" d="M342.019,235.5l1.488-7.4-4.526,6.329c1.067.417,2.092.776,3.038,1.075" transform="translate(-234.58 -157.848)" fill="#265173"/>
        <path id="Trazado_108424" data-name="Trazado 108424" d="M293.167,187.965c-.921,4.694,3.444,8.045,8.558,10.32l3.022-8.156c-1.142-.489-2.339-1.04-3.545-1.661,0,0,10.795-5.529,16.1-6.032a3.589,3.589,0,0,0,2.768,1.632c1.9.126,2.281-3.39,2.281-3.39s-26.752-5.08-29.179,7.287" transform="translate(-202.79 -124.317)" fill="#f79885"/>
        <path id="Trazado_108425" data-name="Trazado 108425" d="M338.812,222.157s-4.356,8.717-7.664,31.926c0,0,10.151,8.267,26.033,1.741a211.262,211.262,0,0,1,2.443-32.529s-8.147-1.9-20.812-1.138" transform="translate(-229.159 -153.612)" fill="#008eb0"/>
        <path id="Trazado_108426" data-name="Trazado 108426" d="M409.384,255.51l2.686,5.413.3-3.322Z" transform="translate(-283.299 -176.816)" fill="#265173"/>
        <path id="Trazado_108427" data-name="Trazado 108427" d="M413.765,226.254s-3.831,5.328-4.38,9.01c0,0,2.045,2.418,5.65,6.167l4.834-7.219c-4.52-7.47-6.1-7.959-6.1-7.959" transform="translate(-283.3 -156.571)" fill="#008eb0"/>
        <path id="Trazado_108428" data-name="Trazado 108428" d="M438.123,255.663a63.8,63.8,0,0,1-5.562-6.953l-4.834,7.219s4.453,5.208,8.349,6.152C446.435,264.592,456.1,247.2,456.1,247.2c-10.51,4.4-17.979,8.459-17.979,8.459" transform="translate(-295.994 -171.069)" fill="#f79885"/>
        <path id="Trazado_108429" data-name="Trazado 108429" d="M372.152,180.924l.716,2.654a.326.326,0,0,0,.4.23l5.407-1.459a.326.326,0,0,0,.229-.4l-.716-2.654a.326.326,0,0,0-.4-.23l-5.407,1.459a.326.326,0,0,0-.229.4" transform="translate(-257.526 -123.908)" fill="#265173"/>
        <path id="Rectángulo_5690" data-name="Rectángulo 5690" d="M.6,0H5.011a.6.6,0,0,1,.6.6V2.4a.6.6,0,0,1-.6.6H.6a.6.6,0,0,1-.6-.6V.6A.6.6,0,0,1,.6,0Z" transform="translate(114.966 56.794) rotate(-15.104)" fill="#e1f0fa"/>
        <path id="Trazado_108430" data-name="Trazado 108430" d="M384.6,185.784c-1.345-2.3-.294-7.1-.294-7.1.18-1.747.87-4.77,1.083-7.478.136-1.428-5.664-2.75-6.577-1.963s-3.507,8.368-2.756,10.366a10.658,10.658,0,0,0,2.355.615,24.628,24.628,0,0,0-.994,4.071c-.152,1.061-.321,5.039,1.235,5.638,2.465.949,5.948-4.144,5.948-4.144" transform="translate(-260.146 -116.952)" fill="#f79885"/>
        <path id="Trazado_108431" data-name="Trazado 108431" d="M385.926,172.742a10.833,10.833,0,0,1-1.812-3.808c1.845-.618,1.191-2.226-.191-1.118a13.679,13.679,0,0,1-.093-2.383,9.989,9.989,0,0,1-3.436-.762c-1.347-.684-2.87-2.072-1.734-3.638s4.1.3,5.287.966c0,0,3.467-.307,4.339,1.067s-1.4,6.742-2.36,9.677" transform="translate(-261.763 -111.015)" fill="#9c2622"/>
        <path id="Trazado_108432" data-name="Trazado 108432" d="M512.989,247.032s1.668-1.629,2.489-1.394c.414.118,3.08.5,3.051.968-.033.528-.763.322-.763.322a5.672,5.672,0,0,1,1.672,3.051c0,.549-1.191.744-1.865-.2.232.6.152.879-.012.843-.528-.117-1.5-3.578-4.84-1.995Z" transform="translate(-354.81 -169.969)" fill="#f79885"/>
        <path id="Trazado_108433" data-name="Trazado 108433" d="M445.474,31.054a20.107,20.107,0,1,1-5.922-27.811,20.106,20.106,0,0,1,5.922,27.811" transform="translate(-282.687 0)" fill="#db6e5f"/>
        <path id="Trazado_108434" data-name="Trazado 108434" d="M426.027,104.268l-4.321,12.717,16.022-7.5Z" transform="translate(-291.826 -72.155)" fill="#db6e5f"/>
        <path id="Trazado_108435" data-name="Trazado 108435" d="M464.992,38.694a4.836,4.836,0,0,1-.605,2.42,7.644,7.644,0,0,1-2.261,2.253l-1.057.765a5.65,5.65,0,0,0-1.412,1.377,2.969,2.969,0,0,0-.508,1.53h-3.714a5.144,5.144,0,0,1,.8-2.531,7.7,7.7,0,0,1,2.107-2.087,9.732,9.732,0,0,0,2.1-1.815,2.773,2.773,0,0,0,.613-1.746,2.456,2.456,0,0,0-.8-1.934,3.319,3.319,0,0,0-2.275-.709,3.486,3.486,0,0,0-2.358.821,3.281,3.281,0,0,0-1.12,2.169l-3.965-.166a6.5,6.5,0,0,1,2.323-4.4,7.812,7.812,0,0,1,5.063-1.572,8.126,8.126,0,0,1,5.182,1.5,4.975,4.975,0,0,1,1.885,4.124M455.324,49.21h4.019v3.756h-4.019Z" transform="translate(-311.779 -22.888)" fill="#fff"/>
        <path id="Trazado_108436" data-name="Trazado 108436" d="M280.243,37.458a13.435,13.435,0,1,0,7.18-17.592,13.435,13.435,0,0,0-7.18,17.592" transform="translate(-193.204 -13.02)" fill="#db6e5f"/>
        <path id="Trazado_108437" data-name="Trazado 108437" d="M324.571,92.577l1.34,8.874-9.652-6.822Z" transform="translate(-218.856 -64.065)" fill="#db6e5f"/>
        <path id="Trazado_108438" data-name="Trazado 108438" d="M317.953,45.521a3.234,3.234,0,0,1-.4,1.617,5.106,5.106,0,0,1-1.511,1.506l-.707.512a3.764,3.764,0,0,0-.943.92,1.976,1.976,0,0,0-.339,1.023h-2.482a3.444,3.444,0,0,1,.535-1.692,5.143,5.143,0,0,1,1.408-1.394,6.521,6.521,0,0,0,1.4-1.213,1.852,1.852,0,0,0,.409-1.166,1.641,1.641,0,0,0-.534-1.292,2.216,2.216,0,0,0-1.52-.474,2.33,2.33,0,0,0-1.576.549,2.2,2.2,0,0,0-.748,1.45l-2.649-.111a4.34,4.34,0,0,1,1.552-2.937,5.217,5.217,0,0,1,3.384-1.051,5.426,5.426,0,0,1,3.462,1,3.323,3.323,0,0,1,1.259,2.756m-6.46,7.027h2.686v2.509h-2.686Z" transform="translate(-213.345 -28.902)" fill="#fff"/>
        <path id="Trazado_108439" data-name="Trazado 108439" d="M162.784,439.252c2.266,20.78,6.767,37.437,9.849,38.673,1.826-16.029,2.551-27.806,2.976-40.245a40.187,40.187,0,0,1-12.825,1.572" transform="translate(-112.649 -302.881)" fill="#ffbeb1"/>
        <path id="Trazado_108440" data-name="Trazado 108440" d="M195.421,567.88v1.347h-9.05c0-.27,0-1.126.017-1.347Z" transform="translate(-128.971 -392.981)" fill="#ed9d22"/>
        <path id="Trazado_108441" data-name="Trazado 108441" d="M190.282,558.652a7.643,7.643,0,0,0,5.179,2.842h-9.033a7.718,7.718,0,0,1,.264-1.644,16.444,16.444,0,0,0,3.59-1.2" transform="translate(-129.011 -386.595)" fill="#265173"/>
        <path id="Trazado_108442" data-name="Trazado 108442" d="M114.455,476.088c1.964-15.968,5.641-27.25,8.137-38.944-4.113.01-9.924-1.476-13.239-2.434-.474,18.319.1,35.06,5.1,41.378" transform="translate(-75.581 -300.826)" fill="#ffbeb1"/>
        <path id="Trazado_108443" data-name="Trazado 108443" d="M126.814,567.88l.174,1.347H120.7c-.037-.27-.142-1.126-.162-1.347Z" transform="translate(-83.411 -392.981)" fill="#ed9d22"/>
        <path id="Trazado_108444" data-name="Trazado 108444" d="M123.464,558.416a8.22,8.22,0,0,0,3.242,2.842h-6.281a10.677,10.677,0,0,1-.029-1.644c.8-.173,2.169-1.714,3.068-1.2" transform="translate(-83.303 -386.359)" fill="#265173"/>
        <path id="Trazado_108445" data-name="Trazado 108445" d="M188.766,208.132c.513,1.072-.392,7.143,2.311,19.061,0,0,7.223-5.746,9.045-8.512,0,0,2.8-1.49,2.76,2.448-.027,2.9-6.726,15.459-11.414,14.764-6.988-1.037-6.992-21.482-2.7-27.76" transform="translate(-128.595 -144.03)" fill="#c75444"/>
        <path id="Trazado_108446" data-name="Trazado 108446" d="M172.168,352.075c.57-18.523-2.606-38.1-2.606-38.1L156.5,316.666c-.111,11.428-.367,24.714.868,37.275,2.391.075,10.038-.093,14.8-1.866" transform="translate(-108.228 -217.277)" fill="#265173"/>
        <path id="Trazado_108447" data-name="Trazado 108447" d="M161.354,345.642l-4.33,2.524c.188,7.108.008,18.817.636,26.2,3.581-10.646,3.695-28.729,3.695-28.729" transform="translate(-108.663 -239.189)" fill="#22365b"/>
        <path id="Trazado_108448" data-name="Trazado 108448" d="M113.882,302.843c-2.822,2.483-5.76,20.9-6.22,40.613,3.314,1.063,10.2,2.791,14.311,2.78,3.314-17.228,5.728-29.827,5.741-36.2Z" transform="translate(-74.504 -209.572)" fill="#265173"/>
        <path id="Trazado_108449" data-name="Trazado 108449" d="M142.206,242.628s-20.115,2.663-27.776-1.168c.982-13.068,1.792-36.838,6.81-40.284,0,0,12.574-.51,18.32,2.044,2.544,3.408,2.7,23.77,2.647,39.408" transform="translate(-79.187 -139.188)" fill="#db6e5f"/>
        <path id="Trazado_108450" data-name="Trazado 108450" d="M163.328,201.991c.127,1.588.163,5.257-2.28,4.824-2.53-.448-4.262-4.122-4.817-5.468a60.777,60.777,0,0,1,7.1.645" transform="translate(-108.114 -139.334)" fill="#db6e5f"/>
        <path id="Trazado_108451" data-name="Trazado 108451" d="M135.513,238.3c-5.535-3.625-8.943-13.428-8.743-21.64l5-6.491s7.084,11.392,8.045,15.635c0,0,5.983-2.594,10.361-4.971.075,3.656.549,8.537.489,12.826-3.055,2.4-10.929,7.409-15.154,4.641" transform="translate(-87.721 -145.441)" fill="#c75444"/>
        <path id="Trazado_108452" data-name="Trazado 108452" d="M129.738,201.269c2.172.712,4.256,9.789,9.151,21.707,0,0,13.088-7.129,16.387-9.9,0,0,3.192.426,2.447,3.3s-12.286,15.776-20.669,14.764c-6.167-.745-15.083-23.6-7.316-29.874" transform="translate(-87.686 -139.281)" fill="#db6e5f"/>
        <path id="Trazado_108453" data-name="Trazado 108453" d="M232.95,236.86a14.108,14.108,0,0,1,1.76-2.32c.56-.415,2.382-1.2,5.771-.531,0,0-1.6,3.7-5.092,2.932l-.563,1.556c-1.274.253-1.987-.184-1.876-1.636" transform="translate(-161.197 -161.758)" fill="#ab4b38"/>
        <path id="Trazado_108454" data-name="Trazado 108454" d="M235.548,226.579l-2.89-.35c-.269-.033-.316-.277-.105-.546l4.821-6.149a1.108,1.108,0,0,1,.869-.428l2.89.35c.269.033.316.277.1.546l-4.821,6.149a1.107,1.107,0,0,1-.869.428" transform="translate(-160.839 -151.621)" fill="#265173"/>
        <path id="Trazado_108455" data-name="Trazado 108455" d="M246.553,228.042c-.782.634-1.774,2.586.068,4.67a5.1,5.1,0,0,0,2.6-2.71c.283-.789-2.1-2.428-2.672-1.96" transform="translate(-169.941 -157.751)" fill="#ffbeb1"/>
        <path id="Trazado_108456" data-name="Trazado 108456" d="M228.266,226.03a2.92,2.92,0,0,1-2.134,2.819c-1.736.638-2.91,1.157-2.91,1.157l-1.779,2.322s-2.594.139-1.9-2.308c3.139-1.614,4.332-6.234,6.81-4.443,0,0,1.8-.056,1.915.453" transform="translate(-151.844 -155.821)" fill="#ffbeb1"/>
        <path id="Trazado_108457" data-name="Trazado 108457" d="M159,168.292a74.542,74.542,0,0,1,7.317-14.355c.839-1.266,6.491,1.507,6.719,2.762s-2.684,9.22-4.633,10.364a6.157,6.157,0,0,1-2.8-.971s-.509,2.255-.632,3.016c-1.363,8.415-5.968-.816-5.968-.816" transform="translate(-110.032 -106.303)" fill="#ffbeb1"/>
        <path id="Trazado_108458" data-name="Trazado 108458" d="M169.151,156.794a10.83,10.83,0,0,0,3.1-1.884c-1.107-1.737.9-3.02,1.294-1.189.541-.536,1-1.061,1-1.061a23.491,23.491,0,0,0,3.6,1.218c1.564.334,3.741.205,3.848-1.84.049-.941-1.381-1.8-2.627-1.167,0,0,.213-4.255-3.454-1.779a1.919,1.919,0,0,0-2.25-1.9c-.66.033-2.177,1.563-1.456,2.977-.762.148-2.246,1.581-1.593,2.9,0,0-1.29.132-1.468,3.726" transform="translate(-117.055 -101.856)" fill="#22365b"/>
      </g>
    </g>
  </g>
</svg>
