<svg xmlns="http://www.w3.org/2000/svg" xmlns:xlink="http://www.w3.org/1999/xlink" width="206" height="207" viewBox="0 0 206 207">
  <defs>
    <clipPath id="clip-path">
      <rect id="Rectángulo_5689" data-name="Rectángulo 5689" width="187.906" height="143.345" fill="none"/>
    </clipPath>
  </defs>
  <g id="Grupo_62392" data-name="Grupo 62392" transform="translate(0.457 -0.148)">
    <rect id="Rectángulo_5693" data-name="Rectángulo 5693" width="206" height="207" transform="translate(-0.457 0.148)" fill="none"/>
    <g id="Grupo_62388" data-name="Grupo 62388" transform="translate(9.152 35.36)">
      <g id="Grupo_62387" data-name="Grupo 62387" clip-path="url(#clip-path)">
        <path id="Trazado_108391" data-name="Trazado 108391" d="M159.7,25.935c15.095,29.028-7.367,70.6-50.17,92.86S19.8,135.564,4.7,106.536s7.367-70.6,50.169-92.86S144.608-3.093,159.7,25.935" transform="translate(8.059 6.043)" fill="#f3f9ff"/>
        <path id="Trazado_108392" data-name="Trazado 108392" d="M259.6,387.673H114.459a5.421,5.421,0,0,1-5.421-5.421v-.377h155.98v.377a5.421,5.421,0,0,1-5.421,5.421" transform="translate(-77.112 -270.063)" fill="#12263f"/>
        <path id="Trazado_108393" data-name="Trazado 108393" d="M139.1,181.959H55.634a6,6,0,0,1-5.414-4.031L27.7,103.221a2.948,2.948,0,0,1,2.984-4.031H114.15a6,6,0,0,1,5.414,4.031l22.518,74.707a2.948,2.948,0,0,1-2.984,4.031" transform="translate(-19.468 -70.147)" fill="#12263f"/>
        <path id="Trazado_108394" data-name="Trazado 108394" d="M195.237,372.639H110.525a6.2,6.2,0,0,1-4.681-2.431,6.049,6.049,0,0,0,5.175,3.416h83.464a3.015,3.015,0,0,0,2.88-1.639,3.464,3.464,0,0,1-2.127.654" transform="translate(-74.853 -261.812)" fill="#22365b"/>
        <path id="Trazado_108395" data-name="Trazado 108395" d="M151.629,186.83H67.8L46.336,115.611h83.827Z" transform="translate(-32.769 -81.761)" fill="#fff"/>
        <path id="Trazado_108396" data-name="Trazado 108396" d="M164.382,186.037c-7.7,0-15.806-3-22.828-8.435a40.621,40.621,0,0,1-14.317-20.267c-2.339-7.96-1.343-15.4,2.806-20.94,3.919-5.236,10.226-8.12,17.759-8.12a31.043,31.043,0,0,1,6.075.609c12.3,2.4,24.11,11.879,29.393,23.577a33.779,33.779,0,0,1,1.677,4.511c2.354,8.037,1.323,15.519-2.905,21.068-3.926,5.157-10.2,8-17.659,8" transform="translate(-89.107 -90.716)" fill="#e1f0fa"/>
        <path id="Trazado_108397" data-name="Trazado 108397" d="M146.235,127.359a30.356,30.356,0,0,1,5.948.6c12.1,2.365,23.695,11.617,28.93,23.209a32.989,32.989,0,0,1,1.646,4.425c2.365,8.073,1.121,15.349-2.8,20.494-3.654,4.8-9.622,7.743-17.144,7.743-7.814,0-15.816-3.175-22.431-8.3a40.149,40.149,0,0,1-14.092-19.937c-4.581-15.589,4.347-28.23,19.943-28.23m0-1.3c-7.742,0-14.233,2.976-18.278,8.38-4.274,5.71-5.307,13.35-2.909,21.512a41.274,41.274,0,0,0,14.542,20.6c7.134,5.527,15.382,8.571,23.224,8.571,7.67,0,14.124-2.931,18.175-8.254,4.356-5.716,5.425-13.4,3.011-21.643a34.416,34.416,0,0,0-1.71-4.6c-5.364-11.877-17.365-21.5-29.861-23.944a31.688,31.688,0,0,0-6.2-.62" transform="translate(-87.54 -89.152)" fill="#b5d6ea"/>
        <path id="Trazado_108398" data-name="Trazado 108398" d="M305.51,130.486c-6.112,4.146-3.131,34.781,7.236,38.669s27.293-20.863,27.293-20.863l-7.981-2.944s-8.649,5.914-15.344,6.993c0,0-8.1-18.844-11.2-21.855" transform="translate(-213.83 -92.28)" fill="#0d66bf"/>
        <path id="Trazado_108399" data-name="Trazado 108399" d="M391.053,95.082a17.378,17.378,0,1,1-17.378-17.377,17.378,17.378,0,0,1,17.378,17.377" transform="translate(-251.975 -54.953)" fill="#fff"/>
        <path id="Trazado_108400" data-name="Trazado 108400" d="M372.109,111.543a18.026,18.026,0,1,1,18.025-18.025,18.046,18.046,0,0,1-18.025,18.025m0-34.755a16.729,16.729,0,1,0,11.83,4.9,16.748,16.748,0,0,0-11.83-4.9" transform="translate(-250.409 -53.388)" fill="#db6e5f"/>
        <rect id="Rectángulo_5688" data-name="Rectángulo 5688" width="5.684" height="4.105" transform="translate(118.797 29.071)" fill="#db6e5f"/>
        <path id="Trazado_108401" data-name="Trazado 108401" d="M413.071,126.466h-7.338v14.159h5.684V127.758h1.653Z" transform="translate(-286.936 -89.437)" fill="#db6e5f"/>
        <path id="Trazado_108402" data-name="Trazado 108402" d="M221.209,146.744c-.207,9.764-.823,19.9-1.153,24.919-3.654,4.8-9.622,7.743-17.144,7.743-7.814,0-15.816-3.175-22.431-8.3.583-10.056,2.948-37.463,11.8-47.57.181-.207.363-.4.551-.6,4.108-4.011,22.379-4.321,26.487,0,1.84,1.944,2.132,12.628,1.892,23.8" transform="translate(-127.637 -84.733)" fill="#53bced"/>
        <path id="Trazado_108403" data-name="Trazado 108403" d="M248.393,161.606a68.638,68.638,0,0,1-6.97,1.646s-10.22-25.634-19.65-19.238c-7.292,4.946.044,35.047,12.413,39.685,3.689,1.383,8.49.271,13.412-1.97.323-5.648.675-13.059.8-20.122" transform="translate(-154.79 -101.122)" fill="#0d66bf"/>
        <path id="Trazado_108404" data-name="Trazado 108404" d="M369.821,179.815s4.427-7.946,5.322-7.5-.985,4.3-.985,4.3,6.089,1.7,7.79,1.522.716,3.9-4.029,4.232-5.462-.65-7.522,1.051Z" transform="translate(-261.539 -121.85)" fill="#f79885"/>
        <path id="Trazado_108405" data-name="Trazado 108405" d="M218.927,131.587c-6.112,4.146,2.969,36.9,13.335,40.79S264.5,157.855,264.5,157.855l-2.429-8.268s-16.559,5.946-23.255,7.026c0,0-11.987-30.386-19.89-25.026" transform="translate(-153.428 -92.61)" fill="#53bced"/>
        <path id="Trazado_108406" data-name="Trazado 108406" d="M258.931,119.586s-.208,4.268,4.246,10.261l4.859-3.32,4.6,2.268a63.379,63.379,0,0,0-1.578-8.167,30.794,30.794,0,0,0-12.126-1.042" transform="translate(-183.116 -84.405)" fill="#0d66bf"/>
        <path id="Trazado_108407" data-name="Trazado 108407" d="M262.332,57.64a44.234,44.234,0,0,0,5.409-13.314c1.811-7.9-3-10.663,4.555-11.955s9.507.064,9.671,6.6-1.63,15.272-3.729,16.08c-1.008.388-3.767-.447-3.767-.447s-1.651,7.223-4.126,9c-4.688-.353-8.012-5.969-8.012-5.969" transform="translate(-185.522 -22.581)" fill="#f79885"/>
        <path id="Trazado_108408" data-name="Trazado 108408" d="M293.008,29.27c-.658,1.219-1.418,3.338-10.412,1.523-.748.852-.517,2.254-.91,3.969,0,0-1.318-2.628-2.234-.512-.189.437-.589,2.407,1.4,2.561,0,0-2.452,5.4-5.835,4.622,1.344-5.733-3.249-17.92,3.577-17.833-2.284-5.668,8.718-1.85,8.282.344l.985.12c7.082-1.645,6.428,2.826,5.145,5.205" transform="translate(-194.293 -14.596)" fill="#265173"/>
        <path id="Trazado_108409" data-name="Trazado 108409" d="M294.671,105.626a40.722,40.722,0,0,1-3.775-1.551,21.151,21.151,0,0,0,3.263,3.463s.346-1.116.512-1.912" transform="translate(-205.723 -73.602)" fill="#f0786a"/>
        <path id="Trazado_108410" data-name="Trazado 108410" d="M290.671,61.1c-.172,1.754-1.4,3.07-2.748,2.938s-2.3-1.66-2.127-3.415,1.4-3.07,2.748-2.938,2.3,1.66,2.127,3.415" transform="translate(-202.102 -40.786)" fill="#22365b"/>
        <path id="Trazado_108411" data-name="Trazado 108411" d="M292.316,40.594s-.4-10.311,7.066-9.367l.912.283s-6.763-.837-6.763,9.246Z" transform="translate(-206.724 -22.04)" fill="#5aa5d1"/>
        <path id="Trazado_108412" data-name="Trazado 108412" d="M300.757,79.344h0c-6.947-.042-8.454-7.355-8.468-7.429a.324.324,0,0,1,.636-.124c.055.28,1.424,6.868,7.836,6.906a.324.324,0,0,1,0,.648" transform="translate(-206.702 -50.585)" fill="#22365b"/>
        <path id="Trazado_108413" data-name="Trazado 108413" d="M322.157,94.979c0,.488-.345.884-1.114.884s-1.671-.4-1.671-.884.9-.884,1.671-.884,1.114.4,1.114.884" transform="translate(-225.861 -66.544)" fill="#22365b"/>
        <path id="Trazado_108414" data-name="Trazado 108414" d="M290.725,62.8c-.131,1.335-1.067,2.337-2.091,2.236a2.2,2.2,0,0,1-1.619-2.6c.131-1.335,1.067-2.337,2.091-2.237a2.2,2.2,0,0,1,1.619,2.6" transform="translate(-202.967 -42.569)" fill="#5aa5d1"/>
        <path id="Trazado_108415" data-name="Trazado 108415" d="M281.983,213.182l-4,1.08,3.065-3.319a9.8,9.8,0,0,1,.931,2.239" transform="translate(-196.593 -149.18)" fill="#008eb0"/>
      </g>
    </g>
  </g>
</svg>
