<svg xmlns="http://www.w3.org/2000/svg" xmlns:xlink="http://www.w3.org/1999/xlink" width="232" height="232" viewBox="0 0 232 232">
  <defs>
    <clipPath id="clip-path">
      <rect id="Rectángulo_5646" data-name="Rectángulo 5646" width="163.305" height="203.246" fill="none"/>
    </clipPath>
  </defs>
  <g id="Grupo_62349" data-name="Grupo 62349" transform="translate(-684 -3060)">
    <rect id="Rectángulo_5653" data-name="Rectángulo 5653" width="232" height="232" transform="translate(684 3060)" fill="none"/>
    <g id="Grupo_62342" data-name="Grupo 62342" transform="translate(718 3074)">
      <path id="Trazado_108180" data-name="Trazado 108180" d="M0,0H48.287V21.066H0Z" transform="translate(106.058 149.773)" fill="#fff"/>
      <rect id="Rectángulo_5644" data-name="Rectángulo 5644" width="59.897" height="32.328" transform="translate(103.408 170.918)" fill="#fedb52"/>
      <g id="Grupo_62341" data-name="Grupo 62341">
        <g id="Grupo_62340" data-name="Grupo 62340" clip-path="url(#clip-path)">
          <path id="Trazado_107823" data-name="Trazado 107823" d="M121.907,138.188c.424,1.651,2.713,15.43,3.128,17.8s3.315,18.812,3.72,21.111c.3,1.723.6,3.447.908,5.207a7.74,7.74,0,0,1-2.106.494c-1.5.3-3.016.518-4.523.783-2.152.379-4.3.768-6.453,1.155-3.18.572-6.358,1.156-9.539,1.716-3.492.616-6.991,1.2-10.482,1.819-2.8.5-5.588,1.037-8.385,1.54-2.845.513-5.695,1-8.541,1.507-2.629.469-5.252.979-7.885,1.424-2.538.429-5.075.863-7.605,1.332-.665.123-.742.047-.858-.614-.379-2.178-.772-4.353-1.159-6.53a37.188,37.188,0,0,1,3.694-1.619c.348-.135.767-.164.977-.551l.558-.031c.089,1.265-1.262-6.475-1.088-4.978-1,.271-2,.57-3.009.8a8.961,8.961,0,0,1-2.208.374l-.555-3.159c-.462-2.315-.878-4.638-1.223-6.974.4-.315.8-.63,1.2-.942.638-.5.644-.5.277-1.246a26.228,26.228,0,0,0-1.553-2.7,22.976,22.976,0,0,1-1.331-2.067c.119-.079.121-.184.1-.316q-.686-3.793-1.363-7.587c-.4-2.245-.781-4.492-1.171-6.738.313-.042.628-.074.94-.125q2.847-.467,5.693-.941,5.475-.91,10.95-1.823l11.021-1.833q5.041-.84,10.082-1.681l10.082-1.677q4.609-.766,9.217-1.531,4.248-.7,8.5-1.4" transform="translate(-20.556 -51.252)" fill="#db6e5f"/>
          <path id="Trazado_107824" data-name="Trazado 107824" d="M33.935,275.685c-.462,0-.926.017-1.388,0-.443-.011-.722-.213-.752-.54a.626.626,0,0,1,.494-.717c.462-.1.442-.371.345-.7a3.594,3.594,0,0,1-.033-1.731,4.434,4.434,0,0,0-.041-1.962,58.6,58.6,0,0,1-1.19-6.091c-.388-2.431-1.068-4.8-1.543-7.216-.493-2.51-.854-5.045-1.143-7.588a31.533,31.533,0,0,0-.931-4.484c-.282.147-.267.4-.333.591q-2.077,6.049-4.138,12.1a13.431,13.431,0,0,1-.541,1.436,54.931,54.931,0,0,0-2.814,8.144Q19.172,269.5,18.255,272c-.025.069-.059.135-.08.2-.116.4-.065.473.34.506a3,3,0,0,1,1.026.082,14.049,14.049,0,0,1-.261,1.722.416.416,0,0,1-.5.4c-.532-.036-1.065-.05-1.6-.074q-3.972-.144-7.944-.008c-1.114.04-2.226.079-3.341.083-.339-.028-.678-.06-1.018-.085a.5.5,0,0,1-.518-.574c0-.121.013-.243.022-.364.072-.906.162-.99,1.055-1a2.15,2.15,0,0,1,.292,0c.382.052.557-.082.615-.493.36-2.529,1.064-4.992,1.46-7.515A73,73,0,0,1,9.52,257.5c1.1-4.162,2.173-8.331,3.078-12.541.26-1.212.587-2.409.883-3.613.291-.015.581-.046.872-.044,4.062.025,8.124-.008,12.187.062,4.085.071,8.173.034,12.261.047.291,0,.582.023.873.036.143,3.112.307,6.221.656,9.32.388,3.435,1.084,6.826,1.434,10.264.186,1.817.695,3.583.781,5.412.026.535.048,1.07.05,1.6a46.559,46.559,0,0,0,.258,4.738c.035.326.1.522.5.538a.66.66,0,0,1,.717.663c.007.364-.22.609-.687.723-.165.04-.336.053-.5.079-.244.009-.455.15-.708.147-1.141-.014-7.223.676-8.239.751m-19.186-2.6h1.1c.186,0,.446.071.469-.2.026-.291-.25-.312-.464-.347a2.805,2.805,0,0,0-.364-.018,15.1,15.1,0,0,0-2.476.163c-1.567.215-3.117.55-4.7.656a.737.737,0,0,0-.144.018c-.124.033-.231.091-.211.244a.207.207,0,0,0,.2.186,3.45,3.45,0,0,0,.654.009q1.631-.2,3.258-.431a20.6,20.6,0,0,1,2.686-.282m20.275,1.067a37.859,37.859,0,0,0,5.275-.726.544.544,0,0,0,.138-.043c.141-.062.265-.148.219-.325a.243.243,0,0,0-.289-.165c-.193.018-.385.053-.578.084a30.149,30.149,0,0,1-5.5.69A1.292,1.292,0,0,0,34,273.7c-.123.025-.24.076-.237.228a.232.232,0,0,0,.24.226c.34.015.681.006,1.022.006m-4.677-31.52a8.455,8.455,0,0,0-1.676.852.3.3,0,0,0,.3.506q.827-.362,1.641-.752a.3.3,0,0,0,.188-.352c-.049-.194-.2-.255-.455-.254m-2.826.875c-.013.236-.021.453.208.525s.347-.1.406-.3a4.182,4.182,0,0,1,.6-1.39.246.246,0,0,0-.044-.33.287.287,0,0,0-.393-.052,1.061,1.061,0,0,0-.306.3,4.971,4.971,0,0,0-.472,1.251" transform="translate(-1.618 -89.495)" fill="#db6e5f"/>
          <path id="Trazado_107825" data-name="Trazado 107825" d="M43.751,220.653c-.291-.013-.581-.035-.873-.036-4.087-.013-8.175.025-12.261-.047-4.062-.07-8.124-.038-12.187-.062-.291,0-.581.029-.872.044a11.242,11.242,0,0,0-1.6-.04c-.6-.016-.634-.023-.579-.614a23.626,23.626,0,0,1,.92-5.08c.439-1.368.976-2.7,1.541-4.014.93-2.169,1.585-4.441,2.494-6.618.769-1.839,1.52-3.685,2.3-5.522a5.1,5.1,0,0,1,.79-1.466.881.881,0,0,0,.991.2,8.153,8.153,0,0,1,.9-.248,2.145,2.145,0,0,1-.021.506,9.113,9.113,0,0,0-.128,2.238,1.708,1.708,0,0,0,.285,1.03.359.359,0,0,0,.428.192c.173-.062.164-.224.162-.366a3.005,3.005,0,0,0-.079-.791,3.08,3.08,0,0,1-.019-1.224c.079-.618.14-1.24.208-1.86,1.221-.478,2.445-.952,3.665-1.435,1.085-.429,2.166-.868,3.249-1.3a5.964,5.964,0,0,1,.16,1,8.93,8.93,0,0,0,.359,1.914c.062.191.138.472.433.378.255-.081.134-.3.112-.493-.121-1.029-.221-2.06-.329-3.091,1.521-.713,3.047-1.413,4.629-1.985.564-.2.579-.257.4-.8-.375-1.107-.759-2.21-1.13-3.319a11.826,11.826,0,0,1-.672-2.384c0-.041.008-.082.014-.123a.645.645,0,0,1,.4.289,13.116,13.116,0,0,1,1.5,2.225,2.007,2.007,0,0,1,.155.629c.192,1.111.4,2.219.6,3.318.3.009.408-.172.552-.289,1.357-1.1,2.7-2.207,4.164-3.164.346,2.335.761,4.659,1.224,6.973-.217-.029-.437-.045-.65-.089-1.45-.3-2.9-.606-4.348-.907-.2-.042-.414-.174-.615.04.155,1.573.628,3.087.907,4.638.062.345.218.431.551.369.716-.135,1.444-.206,2.155-.36a18.2,18.2,0,0,0,2.555-.532,8.962,8.962,0,0,0,2.209-.374c1.01-.234,2.006-.533,3.008-.8.5-.084.509.25.51.593a.719.719,0,0,0-.095.489,25.833,25.833,0,0,0,.116,3.928c-.211.386-.63.416-.977.55a37.419,37.419,0,0,0-3.695,1.619q-1.972.761-3.946,1.521c-.238.091-.356.216-.263.494.662,1.986,1.043,4.051,1.736,6.032a30.173,30.173,0,0,1,1.128,4.6,13.152,13.152,0,0,0,.458,1.987,8.1,8.1,0,0,1,.271.909c.106.482,0,.627-.492.659-.437.028-.876.017-1.315.028-.365.009-.729.025-1.094.037M29.712,210.238a3.631,3.631,0,0,0,.583-.076c.788-.151,1.537-.468,2.318-.616A33.047,33.047,0,0,0,39.4,207.41a12.326,12.326,0,0,0,2.221-1.09c.339-.233.461-.461.308-.7-.2-.311-.433-.12-.632-.008a24.042,24.042,0,0,1-2.567,1.209,26.719,26.719,0,0,1-3.975,1.415c-1.154.277-2.315.54-3.454.87a5.7,5.7,0,0,1-1.714.267,2.7,2.7,0,0,1-2.678-1.856,6.246,6.246,0,0,1-.449-1.306c-.022-.153-.1-.293-.269-.294-.215,0-.28.167-.3.347a1.565,1.565,0,0,0,0,.437,6.509,6.509,0,0,0,.483,1.447,3.686,3.686,0,0,0,3.329,2.093m3.517-9.485c-.24.1-.405.187-.581.238a12.824,12.824,0,0,0-3.2,1.393c-.24.149-.619.247-.4.63.19.336.5.188.773.052.086-.044.164-.106.247-.156a8.222,8.222,0,0,1,1.5-.739c1.535-.539,3.072-1.074,4.654-1.466a3.628,3.628,0,0,0,.552-.184.315.315,0,0,0,.205-.35.343.343,0,0,0-.354-.306,2.948,2.948,0,0,0-.356.053,6.35,6.35,0,0,1-3.709-.39.976.976,0,0,0-.562-.124.368.368,0,0,0-.371.291.325.325,0,0,0,.169.371c.233.13.476.245.721.35a2.058,2.058,0,0,1,.708.335" transform="translate(-5.697 -68.704)" fill="#53bced"/>
          <path id="Trazado_107826" data-name="Trazado 107826" d="M41.723,173.373a11.933,11.933,0,0,0,.672,2.384c.371,1.108.755,2.211,1.13,3.319.182.537.167.591-.4.795-1.582.572-3.108,1.272-4.629,1.985a1.571,1.571,0,0,0-.734.293c-1.083.435-2.164.873-3.249,1.3-1.22.483-2.443.957-3.665,1.435a1.724,1.724,0,0,0-.837.274,8.017,8.017,0,0,0-.9.248.882.882,0,0,1-.991-.2,37.212,37.212,0,0,1,.764-10.531c.468-2.09.85-4.2,1.215-6.311.154-.885.148-1.8.245-2.691a23.49,23.49,0,0,1,.879-3.69c.252-.915.5-1.831.687-2.763a7.942,7.942,0,0,1,.914-2.533c1.137-1.9,2.615-3.472,4.946-3.717a7.716,7.716,0,0,1,5.917,1.552c.075.062.147.128.216.2,1.027,1.018,1.047,1.668.087,2.74-1.562,1.432-2.8,3.168-4.351,4.615a.875.875,0,0,0-.229.927c.488,2.331.952,4.667,1.447,7a21.453,21.453,0,0,0,.863,3.375" transform="translate(-10.399 -56.712)" fill="#522f26"/>
          <path id="Trazado_107827" data-name="Trazado 107827" d="M14.332,300c.293.007.586,0,.876.025.374.036.439.163.316.536-.532,1.615-1.068,3.229-1.594,4.846a10.143,10.143,0,0,0-.306,1.125c-.087.43.025.525.455.431a14.2,14.2,0,0,0,2.011-.645,33.865,33.865,0,0,1,3.4-1.073c.3-.079.457-.023.577.25.632,1.43,1.524,2.715,2.267,4.084.081.15.142.311.23.457.192.315.055.491-.233.63a1.678,1.678,0,0,1-.774.176c-.609-.01-1.219,0-1.828,0-5.288,0-10.577.006-15.865-.011-1.019,0-2.033-.152-3.057-.144-.637,0-.815-.225-.812-.855a16.9,16.9,0,0,1,.34-2.376c.326-2.206.871-4.374,1.156-6.59.1-.779.023-.991,1.1-.987.341,0,.682,0,1.024,0a.979.979,0,0,0,.634.116Q9.29,300,14.332,300" transform="translate(0 -111.22)" fill="#fff"/>
          <path id="Trazado_107828" data-name="Trazado 107828" d="M121.641,136.59q-4.248.7-8.5,1.4-4.609.762-9.217,1.531L93.845,141.2q-5.041.839-10.082,1.681l-11.021,1.833q-5.474.911-10.95,1.823-2.846.474-5.693.941c-.312.051-.627.084-.94.125a8.019,8.019,0,0,1-.446-2.2c-.039-.29.129-.415.428-.465q7.392-1.226,14.778-2.473,7.639-1.287,15.277-2.584,6.7-1.13,13.4-2.255,6.666-1.125,13.331-2.256c2.883-.488,5.766-.966,8.647-1.466.332-.057.5-.014.567.34.152.786.329,1.566.5,2.35m-62.765,8.363a.648.648,0,0,0-.652.637.663.663,0,0,0,.684.607.619.619,0,0,0,.588-.686.553.553,0,0,0-.619-.559m-1.926,1.476c.438-.011.662-.221.639-.6a.552.552,0,0,0-.618-.554.6.6,0,0,0-.674.659c.019.345.232.505.653.494m3.726-.621a.655.655,0,0,0,.7-.576.668.668,0,0,0-.676-.531.634.634,0,0,0-.64.563c-.013.343.22.549.613.544" transform="translate(-20.29 -49.654)" fill="#457185"/>
          <path id="Trazado_107829" data-name="Trazado 107829" d="M60.563,296.338a.468.468,0,0,0,.073,0c.989-.2,1.159-.109,1.348.912a73.328,73.328,0,0,0,2.082,7.881c.135.449.224.5.682.293.689-.3,1.376-.616,2.055-.945a1.141,1.141,0,0,1,1.33.12c2.007,1.534,4.038,3.039,6.064,4.55.2.146.444.25.4.551a.692.692,0,0,1-.593.566c-.187.05-18.8-.005-19.043-.023a1.057,1.057,0,0,1-1.055-.829c-.662-2.285-2.246-8.694-2.616-9.547-.169-.388-.138-.406.51-.769a9.918,9.918,0,0,1,1.39-.4,65.736,65.736,0,0,0,7.376-2.355" transform="translate(-18.989 -109.875)" fill="#fff"/>
          <path id="Trazado_107830" data-name="Trazado 107830" d="M57.079,184.608a52.242,52.242,0,0,0-4.164,3.164c-.144.116-.256.3-.552.289-.2-1.1-.406-2.207-.6-3.319a2,2,0,0,0-.155-.628,13.12,13.12,0,0,0-1.5-2.225.65.65,0,0,0-.4-.289c-.045-.459-.079-.92-.127-1.379a5.356,5.356,0,0,1,.065-2.032c.075-.271.153-.45.469-.42a4.819,4.819,0,0,0,1.716-.3,3.468,3.468,0,0,0,2.094-1.483,1.572,1.572,0,0,1,.446-.565,25.113,25.113,0,0,1,1.3,2.224A23.2,23.2,0,0,0,57,179.717a26.29,26.29,0,0,1,1.553,2.7c.367.749.361.75-.277,1.246-.4.311-.8.628-1.2.942" transform="translate(-18.363 -65.063)" fill="#522f26"/>
          <path id="Trazado_107831" data-name="Trazado 107831" d="M53.084,169.757a1.577,1.577,0,0,0-.445.565,3.469,3.469,0,0,1-2.094,1.483,4.816,4.816,0,0,1-1.715.3c-.317-.03-.4.15-.47.42a5.382,5.382,0,0,0-.065,2.032c.049.459.082.92.127,1.379-.006.041-.011.082-.014.123a21.462,21.462,0,0,1-.863-3.375c-.5-2.33-.959-4.666-1.447-7a.874.874,0,0,1,.23-.927c1.548-1.446,2.788-3.183,4.35-4.615.035.481.516.8.48,1.3-.178.077-.389-.053-.558.1a.4.4,0,0,0-.112.463.332.332,0,0,0,.322.25.327.327,0,0,0,.343-.31,4.4,4.4,0,0,0,.005-.5c.219.028.226.234.291.374a31.7,31.7,0,0,1,1.865,4.886,4.442,4.442,0,0,1-.229,3.047m-2.7-6.452A6.194,6.194,0,0,1,50,162.134c-.057-.143-.156-.272-.325-.223a.29.29,0,0,0-.194.351,9.13,9.13,0,0,0,.229.917c.265.846.476.949,1.3.664a.674.674,0,0,1-.043.559,6.655,6.655,0,0,0-.221.766.311.311,0,0,0,.224.4c.2.045.313-.1.367-.277a3.9,3.9,0,0,0,.291-1.487c-.064-.78-.33-.933-1.019-.566a1.192,1.192,0,0,1-.22.065m.381,3.64a1.645,1.645,0,0,0,1.509-1.233.356.356,0,0,0-.242-.4c-.171-.068-.276.041-.359.167-.067.1-.121.211-.18.316a.739.739,0,0,1-.747.474.73.73,0,0,0-.288.032.312.312,0,0,0,.017.617,1.451,1.451,0,0,0,.29.03m-2.1-3.49a.436.436,0,0,0-.4.513.465.465,0,0,0,.422.435c.225.025.437-.228.432-.49a.435.435,0,0,0-.459-.457" transform="translate(-17.082 -59.395)" fill="#db7c61"/>
          <path id="Trazado_107832" data-name="Trazado 107832" d="M16.464,298.005q-5.041,0-10.082-.011a.979.979,0,0,1-.634-.116q.331-1.618.663-3.236c1.115,0,2.228-.043,3.342-.083q3.967-.142,7.943.008l-1.232,3.439" transform="translate(-2.132 -109.223)" fill="#db7c61"/>
          <path id="Trazado_107833" data-name="Trazado 107833" d="M61.092,295.629c-1.292.615-8.77,2.69-9.232,2.828a5.209,5.209,0,0,0-.269-1.546,6.15,6.15,0,0,1-.222-1.485c1.015-.075,7.1-.765,8.239-.751.253,0,.464-.139.708-.148.008.417.651.717.776,1.1" transform="translate(-19.052 -109.236)" fill="#db7c61"/>
          <path id="Trazado_107834" data-name="Trazado 107834" d="M70.109,183.647c0-.343-.014-.677-.51-.593-.174-1.5-.548-2.959-.827-4.437q-.778-4.113-1.592-8.219c-.445-2.262-.908-4.521-1.354-6.784q-.7-3.537-1.377-7.078c-.1-.54-.057-.611.481-.747,1.2-.305,13.378-2.51,16.168-3.033,1.907-.359,3.812-.732,5.721-1.083,2.577-.476,5.157-.934,7.734-1.4q2.436-.444,4.869-.9,3.829-.714,7.658-1.432c1.5-.28,3-.557,4.553-.845.22,1.156.435,2.272.642,3.39.474,2.552.954,5.1,1.416,7.658.466,2.58.9,5.164,1.371,7.744.407,2.245.866,4.481,1.253,6.729q.363,2.117.77,4.224a3.441,3.441,0,0,1,.024.511c-.681-.792-1.365-1.582-2.043-2.377q-2.036-2.388-4.067-4.779c-.474-.555-.973-1.09-1.439-1.651-.255-.308-.446-.266-.71,0-.57.566-1.166,1.1-1.756,1.65a1.89,1.89,0,0,1-.622.5c-.072-.207-.145-.413-.216-.621a12.544,12.544,0,0,0-2.577-4.465c-3.589-3.939-8.1-5.191-13.216-4.224a12.694,12.694,0,0,0-9.909,14.9q-2.432,2.423-4.863,4.848c-.135.135-.3.254-.291.481l.008,0a.238.238,0,0,0-.249.12,5.494,5.494,0,0,1-.634.164c-.471.067-.564-.013-.577-.479-.01-.34.017-.683,0-1.023-.031-.5-.291-.632-.733-.387a1.961,1.961,0,0,0-.609.615,16.437,16.437,0,0,0-1.23,2.067,1.633,1.633,0,0,1-1.259.974" transform="translate(-23.887 -54.554)" fill="#f8de63"/>
          <path id="Trazado_107835" data-name="Trazado 107835" d="M79.1,194.117c-.013-.227.157-.346.291-.481q2.43-2.425,4.863-4.848l2.661-2.572,1.718,1.906q3.622,4.015,7.244,8.029c.381.422.391.419.773.056q6.538-6.221,13.073-12.444a1.316,1.316,0,0,0,.45-.562,1.9,1.9,0,0,0,.622-.5c.589-.546,1.185-1.085,1.755-1.651.265-.262.455-.3.711,0,.467.561.964,1.1,1.439,1.651q2.038,2.386,4.068,4.779c.678.795,1.361,1.585,2.043,2.377a17.921,17.921,0,0,1,.562,2.628c.218.969.63,3.439.122,3.535-2.622.491-46.4,8.52-46.439,8.248-.2-1.246-.576-2.459-.664-3.724a10.1,10.1,0,0,1,3.014-.473c.609.015,1.22.03,1.828-.006a8.478,8.478,0,0,1,2.109-.013,1,1,0,0,0,.5-.093c.352-.131.418-.391.168-.681a2.1,2.1,0,0,0-.823-.593c-.307-.123-.613-.249-.953-.387a.671.671,0,0,1,.466-.111c.654-.052,1.309-.094,1.963-.15a.384.384,0,0,0,.4-.351c.023-.237-.137-.352-.337-.413-.138-.043-.287-.054-.426-.1a8.309,8.309,0,0,1-1.361-.43c.1-.185.232-.138.338-.148a4.947,4.947,0,0,0,1.195-.325c.231-.081.47-.214.408-.522-.053-.26-.286-.31-.513-.321-.243-.013-.488-.007-.731-.013a9.912,9.912,0,0,1-1.212-.036l.873-.553a1.223,1.223,0,0,0,.492-.525c.159-.352.045-.576-.33-.616a2.253,2.253,0,0,0-.649.074,8.478,8.478,0,0,1-1.709.349" transform="translate(-27.591 -67.071)" fill="#fbf2cc"/>
          <path id="Trazado_107836" data-name="Trazado 107836" d="M78.692,200.926a8.479,8.479,0,0,0,1.709-.349,2.253,2.253,0,0,1,.649-.074c.375.04.489.264.33.616a1.223,1.223,0,0,1-.492.525l-.873.553a9.918,9.918,0,0,0,1.212.036c.243.006.488,0,.731.013.227.011.459.062.513.321.062.308-.177.44-.408.522a4.948,4.948,0,0,1-1.195.325c-.107.009-.241-.037-.338.148a8.309,8.309,0,0,0,1.361.43c.139.042.287.053.426.1.2.061.359.176.337.413a.384.384,0,0,1-.4.351c-.654.055-1.309.1-1.963.15a.671.671,0,0,0-.466.111c.34.138.646.264.953.387a2.1,2.1,0,0,1,.823.593c.25.29.184.55-.168.681a1,1,0,0,1-.5.093,8.478,8.478,0,0,0-2.109.013c-.608.036-1.219.021-1.828.006a10.1,10.1,0,0,0-3.014.473l-.558.031a25.821,25.821,0,0,1-.116-3.927.716.716,0,0,1,.095-.489A1.633,1.633,0,0,0,74.663,202a16.466,16.466,0,0,1,1.23-2.067,1.956,1.956,0,0,1,.61-.615c.441-.246.7-.115.732.387.021.34-.005.682,0,1.023.014.466.106.545.577.478a5.489,5.489,0,0,0,.634-.164c.1,0,.2,0,.249-.12Z" transform="translate(-27.183 -73.88)" fill="#de7f62"/>
          <path id="Trazado_107837" data-name="Trazado 107837" d="M16.865,291.5a20.6,20.6,0,0,0-2.686.282q-1.627.23-3.258.43a3.4,3.4,0,0,1-.655-.009.207.207,0,0,1-.194-.186c-.02-.154.087-.211.211-.245a.793.793,0,0,1,.145-.018c1.582-.106,3.133-.442,4.7-.656a15.021,15.021,0,0,1,2.476-.163,2.811,2.811,0,0,1,.364.018c.213.035.489.056.464.347-.024.269-.283.2-.47.2-.365,0-.73,0-1.1,0" transform="translate(-3.735 -107.902)" fill="#425154"/>
          <path id="Trazado_107838" data-name="Trazado 107838" d="M52.356,292.782c-.341,0-.682.009-1.022-.005a.233.233,0,0,1-.24-.226c0-.152.114-.2.237-.228a1.289,1.289,0,0,1,.29-.026,30.148,30.148,0,0,0,5.5-.689c.193-.031.384-.066.578-.084a.243.243,0,0,1,.289.165c.045.177-.079.263-.219.325a.567.567,0,0,1-.139.044,37.945,37.945,0,0,1-5.274.725" transform="translate(-18.95 -108.121)" fill="#425154"/>
          <path id="Trazado_107839" data-name="Trazado 107839" d="M44.606,243.425c.254,0,.405.059.454.254a.3.3,0,0,1-.188.352q-.814.388-1.641.752a.3.3,0,0,1-.3-.506,8.432,8.432,0,0,1,1.676-.851" transform="translate(-15.877 -90.283)" fill="#425154"/>
          <path id="Trazado_107840" data-name="Trazado 107840" d="M41.171,243.869a4.97,4.97,0,0,1,.472-1.251,1.061,1.061,0,0,1,.306-.3.287.287,0,0,1,.393.052.246.246,0,0,1,.044.33,4.182,4.182,0,0,0-.6,1.39c-.059.2-.165.378-.406.3s-.221-.289-.208-.525" transform="translate(-15.268 -89.852)" fill="#425154"/>
          <path id="Trazado_107841" data-name="Trazado 107841" d="M35.916,222.15a3.686,3.686,0,0,1-3.329-2.093,6.5,6.5,0,0,1-.483-1.448,1.561,1.561,0,0,1,0-.437c.016-.18.081-.349.3-.347.17,0,.248.142.27.294a6.18,6.18,0,0,0,.449,1.307,2.7,2.7,0,0,0,2.678,1.856,5.722,5.722,0,0,0,1.715-.267c1.139-.33,2.3-.593,3.453-.87a26.772,26.772,0,0,0,3.976-1.415,23.982,23.982,0,0,0,2.567-1.209c.2-.112.435-.3.632.008.154.242.031.471-.308.7a12.39,12.39,0,0,1-2.221,1.09,33.04,33.04,0,0,1-6.791,2.136c-.78.147-1.529.465-2.317.616a3.718,3.718,0,0,1-.582.075" transform="translate(-11.901 -80.616)" fill="#427184"/>
          <path id="Trazado_107842" data-name="Trazado 107842" d="M41.259,209.1a2.057,2.057,0,0,0-.708-.335c-.245-.106-.488-.221-.721-.35a.325.325,0,0,1-.169-.371.368.368,0,0,1,.371-.291.976.976,0,0,1,.562.124,6.35,6.35,0,0,0,3.709.39,2.948,2.948,0,0,1,.356-.053.343.343,0,0,1,.354.306.315.315,0,0,1-.205.35,3.626,3.626,0,0,1-.552.184c-1.582.392-3.119.927-4.654,1.466a8.22,8.22,0,0,0-1.5.739c-.083.05-.16.112-.247.156-.268.137-.583.284-.773-.052-.218-.383.162-.481.4-.63a12.825,12.825,0,0,1,3.2-1.393c.176-.052.341-.139.581-.238" transform="translate(-13.728 -77.052)" fill="#427184"/>
          <path id="Trazado_107843" data-name="Trazado 107843" d="M31.089,204.012a1.726,1.726,0,0,1,.837-.274c-.069.62-.129,1.241-.208,1.86a3.069,3.069,0,0,0,.02,1.224,3.032,3.032,0,0,1,.079.791c0,.142.011.3-.162.366a.36.36,0,0,1-.429-.192,1.707,1.707,0,0,1-.284-1.03,9.144,9.144,0,0,1,.128-2.238,2.145,2.145,0,0,0,.021-.506" transform="translate(-11.474 -75.564)" fill="#457185"/>
          <path id="Trazado_107844" data-name="Trazado 107844" d="M43.5,199.215a1.555,1.555,0,0,1,.734-.293c.108,1.03.208,2.062.329,3.09.022.193.143.411-.112.493-.294.094-.371-.187-.433-.378a8.93,8.93,0,0,1-.359-1.914,5.974,5.974,0,0,0-.16-1" transform="translate(-16.133 -73.778)" fill="#457185"/>
          <path id="Trazado_107845" data-name="Trazado 107845" d="M60.949,151.481a.554.554,0,0,1,.619.559.62.62,0,0,1-.588.686.663.663,0,0,1-.684-.608.649.649,0,0,1,.653-.637" transform="translate(-22.363 -56.182)" fill="#ffdb52"/>
          <path id="Trazado_107846" data-name="Trazado 107846" d="M57.886,153.149c-.422.011-.634-.15-.653-.494a.6.6,0,0,1,.674-.659.552.552,0,0,1,.618.554c.023.377-.2.587-.639.6" transform="translate(-21.227 -56.373)" fill="#ffdb52"/>
          <path id="Trazado_107847" data-name="Trazado 107847" d="M63.832,152.188c-.394.005-.626-.2-.613-.544a.634.634,0,0,1,.64-.563.668.668,0,0,1,.676.531.655.655,0,0,1-.7.576" transform="translate(-23.447 -56.034)" fill="#ffd951"/>
          <path id="Trazado_107848" data-name="Trazado 107848" d="M52.4,164.342a1.191,1.191,0,0,0,.22-.065c.69-.367.956-.214,1.02.566a3.912,3.912,0,0,1-.292,1.488c-.055.175-.166.321-.367.277a.311.311,0,0,1-.224-.4,6.653,6.653,0,0,1,.221-.766.672.672,0,0,0,.043-.559c-.82.284-1.03.181-1.3-.664a8.959,8.959,0,0,1-.228-.917.289.289,0,0,1,.193-.351c.169-.049.269.08.325.223a6.194,6.194,0,0,0,.386,1.171" transform="translate(-19.096 -60.431)" fill="#522f26"/>
          <path id="Trazado_107849" data-name="Trazado 107849" d="M53.209,169.98a1.455,1.455,0,0,1-.291-.03.312.312,0,0,1-.017-.617.733.733,0,0,1,.288-.032.74.74,0,0,0,.747-.474c.059-.106.112-.216.179-.317.084-.125.189-.234.359-.167a.357.357,0,0,1,.242.4,1.645,1.645,0,0,1-1.509,1.233" transform="translate(-19.525 -62.429)" fill="#522f26"/>
          <path id="Trazado_107850" data-name="Trazado 107850" d="M49.967,165.408a.435.435,0,0,1,.459.457c0,.262-.207.515-.432.49a.465.465,0,0,1-.422-.435.436.436,0,0,1,.4-.513" transform="translate(-18.383 -61.348)" fill="#522f26"/>
          <path id="Trazado_107851" data-name="Trazado 107851" d="M53.751,162.219a4.4,4.4,0,0,1,0,.5.327.327,0,0,1-.344.31.332.332,0,0,1-.323-.25.4.4,0,0,1,.113-.463c.168-.152.38-.022.557-.1v0" transform="translate(-19.676 -60.164)" fill="#522f26"/>
          <path id="Trazado_107852" data-name="Trazado 107852" d="M115.829,178.92a1.307,1.307,0,0,1-.45.562q-6.534,6.224-13.073,12.445c-.381.363-.391.365-.773-.057q-3.625-4.012-7.244-8.029l-1.718-1.906-2.661,2.572a12.693,12.693,0,0,1,9.909-14.9c5.114-.966,9.627.286,13.215,4.224a12.536,12.536,0,0,1,2.577,4.465c.07.208.144.415.216.621" transform="translate(-33.247 -62.791)" fill="#427184"/>
          <path id="Trazado_107853" data-name="Trazado 107853" d="M81.741,201.938c-.047.116-.145.123-.249.12a.237.237,0,0,1,.249-.12" transform="translate(-30.224 -74.896)" fill="#fbf2cc"/>
          <path id="Trazado_107854" data-name="Trazado 107854" d="M170.362,77.949a2.746,2.746,0,0,1,.831-.617c.922-.628,1.795-1.317,2.658-2.021a1.445,1.445,0,0,1,.242-.131,10.7,10.7,0,0,1,1.048,1.209c1.509,1.771,3.163,3.405,4.794,5.059A16.14,16.14,0,0,1,181.77,83.9a.384.384,0,0,1-.017.554c-1,1.06-2,2.129-2.987,3.185-.207-.037-.281-.2-.382-.313q-3.956-4.6-7.905-9.2a1.786,1.786,0,0,1-.116-.172" transform="translate(-63.185 -27.883)" fill="#ce7257"/>
          <path id="Trazado_107855" data-name="Trazado 107855" d="M129.686,107.571l-6,19.4,10.529,3.26,1.388-4.484a5.624,5.624,0,0,0,.858.347,5.536,5.536,0,1,0,2.371-10.776l1.388-4.483Z" transform="translate(-45.872 -39.897)" fill="#53bced"/>
          <path id="Trazado_107856" data-name="Trazado 107856" d="M76.43,70.764a24.839,24.839,0,1,0,10.154,41.36l10.96,3.393,6.9-22.292L93.486,89.832A24.834,24.834,0,0,0,76.43,70.764" transform="translate(-16.407 -25.831)" fill="#ffefb2"/>
          <path id="Trazado_107857" data-name="Trazado 107857" d="M102.593,113.057a32.89,32.89,0,0,1-13.608,2.5,29.818,29.818,0,0,1-7.1-1.022c-2.047-.573-4.924-1.7-5.536-4-.691-2.6,3.134-3.1,4.872-3.176a15.1,15.1,0,0,1,6.893,1.33,7.467,7.467,0,0,0,1.393.734l.287.176q.337-.675-.388-.32a5.171,5.171,0,0,1-.662,0,8.984,8.984,0,0,1-3.711-1.024,11.262,11.262,0,0,1-4.954-4.413c-1.381-2.738,1.6-3.824,3.811-3.73,2.3.1,6.171,1.029,6.843,3.631l.594-.954c-2.693.829-5.346-1.9-6.49-4.058a8.738,8.738,0,0,1-1.056-3.81c-.008-.333-.052-.961.247-1.2.252-.2.727-.113,1.009-.08a17.562,17.562,0,0,1,2.564.528c6.335,1.728,11.318,6.616,16.3,10.641.8.643,1.645-.7.857-1.339-4.915-3.97-9.8-8.692-15.962-10.608-2.026-.63-6.062-2-6.553,1.181a9.807,9.807,0,0,0,2.082,6.836c1.611,2.18,4.515,4.333,7.362,3.456a.81.81,0,0,0,.594-.954c-.736-2.849-4.023-4.2-6.653-4.668-2.374-.42-5.753-.342-7.08,2.091-1.393,2.555.824,5.19,2.671,6.765,2.271,1.936,5.23,3.517,8.3,3.284,1.015-.077,2.386-.81,1.7-2.019a3.668,3.668,0,0,0-1.6-1.164,16.92,16.92,0,0,0-2.2-.966,15.728,15.728,0,0,0-9.094-.537c-2.571.691-4.53,2.87-3.228,5.573,1.332,2.768,4.7,3.985,7.492,4.608a34.555,34.555,0,0,0,20.733-1.885c.946-.393.2-1.8-.741-1.406" transform="translate(-27.704 -34.131)" fill="#fff"/>
          <rect id="Rectángulo_5645" data-name="Rectángulo 5645" width="64.854" height="6.521" transform="translate(19.935 49.055) rotate(-15.429)" fill="#457185"/>
          <path id="Trazado_107858" data-name="Trazado 107858" d="M162.63,37.987a27.53,27.53,0,1,1-15.019-35.92,27.53,27.53,0,0,1,15.019,35.92" transform="translate(-40.658 0)" fill="#457185"/>
          <path id="Trazado_107859" data-name="Trazado 107859" d="M161.42,38.745A23.922,23.922,0,1,1,148.368,7.533,23.922,23.922,0,0,1,161.42,38.745" transform="translate(-42.785 -2.127)" fill="#ffefb2"/>
          <path id="Trazado_107860" data-name="Trazado 107860" d="M182.6,189a2.356,2.356,0,0,1-.223-.267c-.226-.361-.2-.6.161-.82a.7.7,0,0,0,.4-.511c.267-1.6.754-3.158,1.1-4.74.481-2.174.7-4.4,1-6.6a102.628,102.628,0,0,1,2.215-12.391,19.215,19.215,0,0,0,.37-2.685c.259-2.168.654-4.311,1.054-6.455a1.943,1.943,0,0,0,0-.748,9.664,9.664,0,0,1-.032-1.739c0-.651.006-1.3.01-1.952.321-.186.639-.38.966-.554,3.98-2.12,7.795-4.53,11.745-6.7,1.689-.929,3.363-1.882,5.043-2.825a2.144,2.144,0,0,1,.364,1.109.9.9,0,0,0,.159.454,64.551,64.551,0,0,1,3.938,9.675c1.068,3.415,2.114,6.836,3.044,10.292,1.038,3.859,1.943,7.751,2.892,11.632a75.818,75.818,0,0,0,2.457,8.135c.577,1.571,1.068,3.17,1.519,4.783a20.089,20.089,0,0,0,.781,1.936.38.38,0,0,0,.293.255.761.761,0,0,1,.679.764c0,.392-.3.639-.86.763-.091.02-.183.034-.274.051-1.158.021-2.316.051-3.475.06-2.459.019-4.917.026-7.375.039-.3-.014-.606-.008-.9-.048a.956.956,0,0,1-.832-.65.72.72,0,0,1,.276-.864c.262-.207.194-.409.116-.674-.529-1.806-1.137-3.581-1.839-5.329-1.3-3.234-2.53-6.492-3.806-9.735-1.047-2.659-2.069-5.327-2.986-8.033-.4-1.185-.74-2.392-1.121-3.631-.236.122-.22.34-.233.523-.136,1.9-.424,3.782-.659,5.67a70.088,70.088,0,0,1-1.348,7.252c-.952,4.07-1.753,8.168-2.46,12.287-.227,1.327-.506,2.644-.76,3.966a1.278,1.278,0,0,0,.248,1.341.6.6,0,0,1-.474,1,6.4,6.4,0,0,1-.834-.038c-.921-.373-1.836-.761-2.764-1.117-2.525-.967-5.055-1.919-7.583-2.878m14.888-34.08-.118.138c-.284-.084-.564-.181-.851-.25a2.287,2.287,0,0,0-1.233-.1c-.23.07-.459.16-.481.436-.025.321.216.442.475.508.381.1.771.163,1.151.265a2.426,2.426,0,0,0,1.295.145c.247-.066.333.084.408.266.2.493.4.989.614,1.478.07.161.129.407.363.343s.274-.31.233-.519a5.621,5.621,0,0,0-.247-.868,27.42,27.42,0,0,0-1.333-2.986,9.343,9.343,0,0,0-1.04-1.645,2.484,2.484,0,0,0-.734-.632c-.24-.13-.543-.319-.739,0-.186.3.137.442.331.587a7.019,7.019,0,0,1,1.906,2.835m14.7,33.777c1.871-.2,3.753-.162,5.63-.243a7.244,7.244,0,0,0,1.574-.273c.208-.055.422-.145.37-.415-.042-.216-.243-.276-.436-.268-.347.016-.692.074-1.039.084-2.295.064-4.587.168-6.871.423a4.087,4.087,0,0,0-.481.06c-.164.038-.32.127-.314.32.008.23.177.309.384.311.394,0,.789,0,1.183,0m-27.967-.619c-.136-.021-.291-.03-.354.126-.07.172.078.255.2.306.3.122.609.232.918.335a37.45,37.45,0,0,1,6.557,2.732,4.562,4.562,0,0,0,.509.228,1.876,1.876,0,0,0,.33.108.237.237,0,0,0,.3-.118.26.26,0,0,0-.123-.354c-.059-.037-.124-.063-.185-.1a43.049,43.049,0,0,0-7.874-3.189c-.089-.027-.179-.05-.277-.076" transform="translate(-67.589 -51.926)" fill="#dbbe36"/>
          <path id="Trazado_107861" data-name="Trazado 107861" d="M207.917,127.131c-1.68.942-3.355,1.9-5.043,2.825-3.95,2.172-7.765,4.583-11.745,6.7-.328.174-.645.369-.966.554a1.008,1.008,0,0,1-.416-.846,26.986,26.986,0,0,0-1.034-6.376c-.546-2.684-1.125-5.363-1.444-8.085-.171-1.451-.229-2.916-.31-4.377a20.421,20.421,0,0,0-.323-3.038c.006-.277.028-.554.015-.83-.067-1.407-.142-2.814-.143-4.224,0-.623-.052-1.244-.092-1.866a15.165,15.165,0,0,1-.14-2.278,1.971,1.971,0,0,1,.67.358c1.036.664,1.963,1.488,3.059,2.062a2.154,2.154,0,0,0-.156,1.49.505.505,0,0,1-.168.563,2.572,2.572,0,0,0-.788,1.946,1.036,1.036,0,0,1-.151.6,3.228,3.228,0,0,0-.43,1.942,1.854,1.854,0,0,0,1.4,1.858,2.549,2.549,0,0,0,1.973-.1,11.381,11.381,0,0,1,1.809-.71,12.481,12.481,0,0,0,3-1.468c1.813-1.214,3.636-2.416,5.361-3.755-.013.658.306,1.253.352,1.906a8.815,8.815,0,0,0,1,3.236c1.366,2.8,2.391,5.731,3.536,8.616.351.883.72,1.758,1.068,2.643.081.2.255.406.106.652" transform="translate(-69.08 -39.052)" fill="#0d66bf"/>
          <path id="Trazado_107862" data-name="Trazado 107862" d="M203.058,97.919c-1.726,1.339-3.548,2.541-5.361,3.755a12.507,12.507,0,0,1-3,1.469,11.241,11.241,0,0,0-1.809.71,2.552,2.552,0,0,1-1.973.1,1.854,1.854,0,0,1-1.4-1.859,3.228,3.228,0,0,1,.43-1.942,1.035,1.035,0,0,0,.151-.6,2.576,2.576,0,0,1,.787-1.946.506.506,0,0,0,.169-.563,2.152,2.152,0,0,1,.156-1.489,2.006,2.006,0,0,1,.222-.264.563.563,0,0,0,.118-.884,1.383,1.383,0,0,1-.216-.863,4.962,4.962,0,0,1,1.99-3.872l.126-.109.03-.021a.449.449,0,0,0,.382-.289c.13-.352-.159-.442-.367-.569a1.815,1.815,0,0,1-.9-1.695A6.66,6.66,0,0,1,194,83.2a1.287,1.287,0,0,0,.276-1.017,3.114,3.114,0,0,0-.165-.6,4.219,4.219,0,0,1-.242-1.432,7.9,7.9,0,0,1,.372-2.29c-.546-.2-1.066-.39-1.589-.573-.136-.047-.288-.062-.321.135a5.086,5.086,0,0,1-1.032,1.792c-.125.2-.352.353-.321.617a.449.449,0,0,0,.38-.006c.235-.081.481-.133.565.184s-.1.474-.374.576a2,2,0,0,1-1.03.093.6.6,0,0,1-.474-.971,9.012,9.012,0,0,1,.585-.863,7.645,7.645,0,0,0,.981-1.6c.078-.208.1-.345-.132-.442a3.9,3.9,0,0,0-.955-.405c-.113-.2-.33-.237-.511-.335-.388-.208-.457-.427-.2-.783a8.153,8.153,0,0,1,3.77-2.637,1.891,1.891,0,0,1,1.03-.1c.637.12,1.268.269,1.9.442a5.371,5.371,0,0,1,2.6,1.789,3.608,3.608,0,0,1,.916,2.143c.079,1,.155,1.992.206,2.99a.55.55,0,0,0,.411.6,1.733,1.733,0,0,1,1.154,1.734,4.056,4.056,0,0,1-.637,2.315c-.064.1-.126.2-.181.3-.211.4-.209.418.215.572a1.133,1.133,0,0,1,.542.3,12.306,12.306,0,0,0,1.282,1.449,1.024,1.024,0,0,1,.069,1.241,2.354,2.354,0,0,1-.607.756,1.87,1.87,0,0,0-.561,1.238c-.036.224.016.383.283.333a3.634,3.634,0,0,1,1.762.3.839.839,0,0,1,.632.741,2.055,2.055,0,0,1,.021.417c-.023.575,0,1.081.738,1.246a1.035,1.035,0,0,1,.656.766,2.107,2.107,0,0,1-.935,2.464c-.676.406-1.343.828-2.014,1.243" transform="translate(-70.287 -26.894)" fill="#522f26"/>
          <path id="Trazado_107863" data-name="Trazado 107863" d="M178.437,90.143a4.958,4.958,0,0,0-1.99,3.872,1.377,1.377,0,0,0,.216.862.564.564,0,0,1-.118.884,2,2,0,0,0-.223.264c-1.1-.574-2.023-1.4-3.059-2.062a1.966,1.966,0,0,0-.67-.358,1.72,1.72,0,0,0-.608-.453c-1.892-1.124-3.775-2.26-5.629-3.446a4.044,4.044,0,0,0-1.2-.68c-.026-.159-.161-.216-.276-.291-2.821-1.842-5.568-3.8-8.533-5.419a3.5,3.5,0,0,0-.846-.308c-1.082-.269-2.16-.551-3.244-.81a2.638,2.638,0,0,1-.981-.511c-.531-.4-.457-.9.159-1.161.1-.04.237.006.308-.215-.475-.246-.961-.5-1.448-.749-.186-.1-.381-.176-.559-.285a.615.615,0,0,1-.323-.762.6.6,0,0,1,.74-.369c.637.128,1.266.294,1.9.449.155.038.3.141.482.069-.009-.217-.2-.282-.334-.382a17.746,17.746,0,0,0-1.816-1.17.618.618,0,0,1,.316-1.178,2.191,2.191,0,0,1,.591.2c.617.272,1.226.562,1.843.832.183.08.352.241.614.151.043-.208-.12-.319-.234-.443a10.063,10.063,0,0,1-1.324-1.7,2.6,2.6,0,0,1-.2-.364c-.2-.51.111-.888.657-.817a1.773,1.773,0,0,1,.9.508,10.528,10.528,0,0,0,1.818,1.288.676.676,0,0,0,.383.141c.151-.246.051-.509.1-.754.087-.475.305-.771.634-.83a.832.832,0,0,1,.867.573c.283.636.537,1.287.761,1.947a2.618,2.618,0,0,0,.8,1.191,15.553,15.553,0,0,0,3.512,2.364,48.924,48.924,0,0,1,7.144,4.064.875.875,0,0,0,.513.184.31.31,0,0,0,.089.315,6.808,6.808,0,0,0,1.867,1.11,12.967,12.967,0,0,1,.932-4.157,17.637,17.637,0,0,1,1.931-3.769,1.432,1.432,0,0,1,.133.26c.064.312.244.443.552.351.242-.072.43-.232.393-.5-.043-.315-.279-.4-.572-.352l-.275.044c-.025-.025-.05-.049-.075-.072l.152-.413.446-.407a3.9,3.9,0,0,1,.954.4c.236.1.21.234.132.442a7.617,7.617,0,0,1-.981,1.6,9.016,9.016,0,0,0-.586.863.6.6,0,0,0,.474.971,2,2,0,0,0,1.03-.093c.271-.1.454-.272.374-.575s-.331-.265-.565-.184a.45.45,0,0,1-.381.006c-.03-.264.2-.422.321-.617a5.072,5.072,0,0,0,1.032-1.792c.035-.2.186-.183.321-.135.523.183,1.042.375,1.589.573a7.9,7.9,0,0,0-.372,2.289,4.24,4.24,0,0,0,.242,1.432,3,3,0,0,1,.165.6,1.285,1.285,0,0,1-.276,1.017,6.663,6.663,0,0,0-1.41,3.787,1.815,1.815,0,0,0,.9,1.694c.208.128.5.218.366.569h-.421a.737.737,0,0,0-.106-.248,9.659,9.659,0,0,0-1.526-1.18.933.933,0,0,0-.89,0c.878.437,1.658,1.008,2.529,1.421l.032.3-.03.02a.128.128,0,0,0-.126.11M175.6,82.7a1.61,1.61,0,0,0,1.37-.522c.15-.167.265-.342.074-.545a.318.318,0,0,0-.5.012,1.3,1.3,0,0,1-1.04.281,1.839,1.839,0,0,1-1.007-.217.322.322,0,0,0-.486.089c-.125.2-.009.353.128.491a1.014,1.014,0,0,0,.484.265,3.348,3.348,0,0,0,.972.146m.2,1.412c.069,0,.137,0,.206,0,.219-.01.437-.06.448-.32s-.2-.331-.421-.343a2.22,2.22,0,0,0-.342,0c-.251.025-.639-.107-.65.286-.01.34.342.366.623.381.046,0,.092,0,.137,0m2.588-5.183a.452.452,0,0,0-.446-.425.48.48,0,0,0-.486.478.52.52,0,0,0,.482.493.544.544,0,0,0,.45-.546M153.962,77.2c-.016-.014-.031-.04-.047-.04s-.031.026-.047.04l.07.043.023-.043" transform="translate(-55.402 -27.363)" fill="#dd7d61"/>
          <path id="Trazado_107864" data-name="Trazado 107864" d="M221.915,219.34c2.459-.013,4.917-.02,7.374-.039,1.159-.009,2.317-.04,3.475-.06a53.256,53.256,0,0,1,1.283,7.907c.156,1.222.309,2.444.539,3.656.181.948.075,1.071-.868,1.095q-5.755.143-11.51.271-3.627.08-7.254.138c-.344.006-.71.063-.988-.223a3.506,3.506,0,0,1-1.08-1.343,1.1,1.1,0,0,1,.16-1,34.075,34.075,0,0,1,2.71-3.63,7.115,7.115,0,0,1,1.2-1.058,1.117,1.117,0,0,1,1.575.116,16.574,16.574,0,0,1,1.646,1.8,2.029,2.029,0,0,0,1.494.759,15.734,15.734,0,0,1,1.578.274c.522.084.57.037.452-.494-.286-1.293-.583-2.584-.881-3.875-.331-1.426-.686-2.847-.908-4.3" transform="translate(-78.937 -81.314)" fill="#0d66bf"/>
          <path id="Trazado_107865" data-name="Trazado 107865" d="M176.158,217.88c2.528.958,5.058,1.911,7.583,2.877.928.355,1.843.744,2.764,1.117-.522,1.863-1.362,3.606-2.044,5.408-.477,1.26-.947,2.523-1.429,3.781-.238.624-.247.622-.893.622l-16.183,0c-.163,0-.326,0-.488,0-.478-.017-.515-.046-.561-.508a8.173,8.173,0,0,1,1.434-5.686,4.073,4.073,0,0,1,.835-.931,1.957,1.957,0,0,1,2.221-.2,6.907,6.907,0,0,1,1.468,1.168,1.507,1.507,0,0,0,1.276.571.7.7,0,0,0,.666-.478c.955-2.371,2.137-4.644,3.021-7.046.088-.238.22-.461.332-.691" transform="translate(-61.143 -80.809)" fill="#0d66bf"/>
          <path id="Trazado_107866" data-name="Trazado 107866" d="M172.895,98.015a4.03,4.03,0,0,1,1.2.68c1.853,1.186,3.737,2.322,5.629,3.446a1.72,1.72,0,0,1,.608.453,15.068,15.068,0,0,0,.141,2.277c.04.622.091,1.244.092,1.867,0,1.41.077,2.817.144,4.224.013.276-.009.553-.016.829a33.517,33.517,0,0,1-6.256-.091,8.31,8.31,0,0,1-2.559-.854,2.469,2.469,0,0,1-1.106-3.4c.074-.193.17-.378.255-.566-1.28-1.586-1-3.174.84-4.71-.19-.285-.4-.557-.566-.858a2.055,2.055,0,0,1,1.263-3.191l.33-.111" transform="translate(-63.141 -36.353)" fill="#522f26"/>
          <path id="Trazado_107867" data-name="Trazado 107867" d="M187.31,79.827l.275-.044c.293-.047.528.037.572.352.037.269-.15.429-.393.5-.308.091-.488-.039-.552-.351a1.458,1.458,0,0,0-.132-.26,17.594,17.594,0,0,0-1.931,3.769,12.95,12.95,0,0,0-.933,4.157,6.808,6.808,0,0,1-1.867-1.11.309.309,0,0,1-.089-.315,4.216,4.216,0,0,0,1.3-.793,1.408,1.408,0,0,0,.473-1.112c-.023-.6,0-1.208,0-1.812a2.523,2.523,0,0,1,.991-2.06,5.756,5.756,0,0,1,2.363-1.409c-.051.138-.1.276-.152.414-.058.042-.113.088-.025.147.011.008.065-.048.1-.075" transform="translate(-67.596 -29.427)" fill="#58332a"/>
          <path id="Trazado_107868" data-name="Trazado 107868" d="M204.9,161.588A7.026,7.026,0,0,0,203,158.753c-.194-.144-.518-.288-.332-.587.2-.316.5-.127.739,0a2.487,2.487,0,0,1,.734.632,9.379,9.379,0,0,1,1.04,1.644,27.293,27.293,0,0,1,1.332,2.986,5.642,5.642,0,0,1,.248.868c.041.209,0,.455-.234.519s-.293-.182-.362-.344c-.212-.489-.41-.985-.614-1.478-.076-.182-.161-.332-.408-.265a2.435,2.435,0,0,1-1.3-.145c-.38-.1-.769-.168-1.151-.265-.259-.066-.5-.187-.475-.508.021-.276.251-.366.481-.436a2.284,2.284,0,0,1,1.232.1c.288.069.568.165.851.25l.119-.138" transform="translate(-75 -58.598)" fill="#4c7681"/>
          <path id="Trazado_107869" data-name="Trazado 107869" d="M228.925,216.692c-.394,0-.789,0-1.183,0-.206,0-.377-.081-.384-.311-.006-.192.15-.282.314-.32a4.359,4.359,0,0,1,.481-.06c2.283-.255,4.576-.359,6.871-.423.347-.01.692-.069,1.039-.084.193-.009.394.052.435.268.053.269-.162.359-.37.415a7.275,7.275,0,0,1-1.574.273c-1.877.081-3.758.043-5.629.243" transform="translate(-84.324 -79.924)" fill="#4b7681"/>
          <path id="Trazado_107870" data-name="Trazado 107870" d="M185.176,216.407c.1.026.188.049.277.076a43.047,43.047,0,0,1,7.874,3.189c.061.033.126.059.185.1a.26.26,0,0,1,.123.354.237.237,0,0,1-.3.118,1.876,1.876,0,0,1-.33-.108,4.582,4.582,0,0,1-.509-.228,37.446,37.446,0,0,0-6.557-2.732c-.309-.1-.616-.213-.918-.335-.125-.05-.273-.133-.2-.306.064-.156.218-.147.354-.126" transform="translate(-68.541 -80.258)" fill="#537980"/>
          <path id="Trazado_107871" data-name="Trazado 107871" d="M195.795,99.409l-.032-.294-.007.007h.422a.448.448,0,0,1-.383.289" transform="translate(-72.603 -36.761)" fill="#65382d"/>
          <path id="Trazado_107872" data-name="Trazado 107872" d="M195.569,99.726a.13.13,0,0,1,.126-.11l-.126.11" transform="translate(-72.534 -36.946)" fill="#65382d"/>
          <path id="Trazado_107873" data-name="Trazado 107873" d="M190.1,87.267a3.348,3.348,0,0,1-.972-.146,1.016,1.016,0,0,1-.484-.265c-.137-.138-.252-.293-.128-.491a.322.322,0,0,1,.486-.089,1.84,1.84,0,0,0,1.007.217,1.3,1.3,0,0,0,1.039-.281.319.319,0,0,1,.5-.012c.192.2.076.378-.074.545a1.608,1.608,0,0,1-1.37.522" transform="translate(-69.897 -31.929)" fill="#5e3429"/>
          <path id="Trazado_107874" data-name="Trazado 107874" d="M194.275,98.209c-.87-.412-1.651-.984-2.529-1.421a.933.933,0,0,1,.89,0,9.7,9.7,0,0,1,1.526,1.18.746.746,0,0,1,.106.249l.007-.007" transform="translate(-71.116 -35.855)" fill="#65382d"/>
          <path id="Trazado_107875" data-name="Trazado 107875" d="M190.922,89.811c-.046,0-.091,0-.137,0-.281-.015-.633-.04-.623-.381.011-.393.4-.26.65-.285a2.22,2.22,0,0,1,.342,0c.223.012.432.082.421.343s-.229.31-.447.32c-.069,0-.137,0-.206,0" transform="translate(-70.529 -33.06)" fill="#65382d"/>
          <path id="Trazado_107876" data-name="Trazado 107876" d="M194.934,81.719a.544.544,0,0,1-.45.546.519.519,0,0,1-.483-.493.481.481,0,0,1,.486-.477.452.452,0,0,1,.447.425" transform="translate(-71.953 -30.15)" fill="#65382d"/>
          <path id="Trazado_107877" data-name="Trazado 107877" d="M156.61,79.2l-.023.043-.07-.043c.016-.014.031-.04.047-.04s.031.026.047.04" transform="translate(-58.05 -29.358)" fill="#fff"/>
          <path id="Trazado_107878" data-name="Trazado 107878" d="M190.205,80.071c-.034.026-.088.082-.1.075-.087-.059-.033-.106.025-.147.025.023.05.048.074.072" transform="translate(-70.491 -29.671)" fill="#dd7d61"/>
          <path id="Trazado_107879" data-name="Trazado 107879" d="M118.508,269.342l15.992-.009c.672,0,1.344-.005,2.016,0,.555.006.54.018.7.533a4.57,4.57,0,0,1,.194,1.369c.016,4.913.068,9.827.039,14.74a55.879,55.879,0,0,0,.469,6.72c.13,1.127.255,2.255.382,3.383a10.083,10.083,0,0,0-1.707,2.691c-.219.512-.559.331-1.122.327-4.03-.025-8.061-.009-12.092-.016-.669,0-1.339-.058-2.009-.089-.237-1.319-.523-2.63-.65-3.967a17.289,17.289,0,0,1-.092-1.731q.026-4.718.043-9.437c0-.245.088-.511-.1-.733a11.8,11.8,0,0,1,.839-2.771c.128-.223.359-.481.082-.747-.161-.154-.382.023-.64.469a5.888,5.888,0,0,0-.745,2.64c-.013.223-.069.342-.262.415-1.435.059-2.871.1-4.3.182-2.243.132-4.487.232-6.735.26q-3.753.046-7.506.1c-.661.01-.677.015-.787.664-.332,1.963-.671,3.925-.92,5.9-.261,2.067-.651,4.115-1.024,6.165-.169.934-.194,1.885-.432,2.812a.772.772,0,0,1-.681.658,6.612,6.612,0,0,1-1.245.092c-4.055,0-8.111.047-12.165-.014-2.806-.042-5.6.084-8.4.2-2.572.1-5.143.059-7.714.044-1.9-.011-3.8-.062-5.7-.115-.948-.027-1.892-.12-2.837-.218-.394-.041-.435-.2-.42-.531a9.051,9.051,0,0,1,.349-1.838c.062-.24.208-.471.1-.735l-.006.009a15.852,15.852,0,0,0,.829-2.866,6.087,6.087,0,0,0,.291-1.613,15.287,15.287,0,0,0,.508-2.468,28.866,28.866,0,0,0,.623-3.341.616.616,0,0,1,.576-.631,4.279,4.279,0,0,1,.757-.062q7.539-.016,15.078-.028c.827,0,.816,0,.979-.834.263-1.339.581-2.669.807-4.014a70.784,70.784,0,0,0,1.144-8.387c.006-.115.032-.23.048-.344.3-.006.6-.016.9-.016l35.727-.011a6.548,6.548,0,0,0,.694-.019c.562-.06.68-.208.616-.768-.021-.182-.09-.358-.128-.539a11.289,11.289,0,0,1-.361-1.48M101.763,279.5c-.131-.207-.026-.349.03-.5a21.253,21.253,0,0,1,1.614-3.3c.095-.159.2-.313.293-.472a.262.262,0,0,0-.046-.372.308.308,0,0,0-.386.022,1.743,1.743,0,0,0-.474.589,21.486,21.486,0,0,0-2.338,5.546c-.175.647-.3,1.307-.447,1.961-.042.184-.089.405.137.477.274.088.353-.164.42-.352a2.766,2.766,0,0,0,.192-.737,3.228,3.228,0,0,1,1.9-2.623,7.553,7.553,0,0,1,1.049-.537q1.261-.492,2.52-.988c.172-.067.344-.135.511-.216.128-.062.247-.157.209-.319a.328.328,0,0,0-.374-.24,2.484,2.484,0,0,0-.8.208,16.75,16.75,0,0,0-4.008,1.848m-19.028,9.191c.287.02.5-.009.549-.267.045-.235-.145-.32-.325-.373a3.146,3.146,0,0,1-.558-.255,4.235,4.235,0,0,1-1.478-1.511c-.1-.153-.249-.315-.454-.209-.24.125-.178.345-.083.54a4.839,4.839,0,0,0,1.122,1.471,2.426,2.426,0,0,0,1.227.6m-3.229-1.21c-.019-.359-.02-.661-.055-.958-.026-.22.148-.594-.253-.588-.342.006-.284.353-.3.6,0,.069,0,.138,0,.207a11.907,11.907,0,0,1-.223,2.544,1.029,1.029,0,0,0-.021.342.29.29,0,0,0,.264.275.266.266,0,0,0,.277-.165,2.1,2.1,0,0,0,.123-.393,8.442,8.442,0,0,0,.191-1.862m42.824-5.018a1.394,1.394,0,0,0,.225-.082q1.15-.629,2.3-1.266a1.313,1.313,0,0,0,.272-.21c.119-.116.22-.257.1-.424s-.281-.117-.431-.039a19.694,19.694,0,0,0-2.347,1.311.725.725,0,0,0-.349.41c-.038.162.02.269.23.3" transform="translate(-21.87 -99.892)" fill="#0d66bf"/>
          <path id="Trazado_107880" data-name="Trazado 107880" d="M126.97,248.612a11.385,11.385,0,0,0,.361,1.48c.038.181.108.357.128.539.065.56-.054.707-.616.768a6.539,6.539,0,0,1-.694.019l-35.727.011c-.3,0-.6.01-.9.016a8,8,0,0,1-.9-.066c-.487-.088-.613-.3-.512-.781.533-2.574,1.092-5.142,1.723-7.695a16.655,16.655,0,0,1,1.031-2.862c.282-.527.579-1.046.842-1.583a6.216,6.216,0,0,0,.758-1.607,2.015,2.015,0,0,0-.728-.009c-.6-.01-1.2-.026-1.8-.028-1.85-.008-3.7-.02-5.548-.008a3.306,3.306,0,0,1-1.767-.525,1.638,1.638,0,0,1-.836-1.492c-.01-1.253.208-2.482.313-3.722.186-2.186.771-4.316.84-6.516a17.368,17.368,0,0,1,.264-1.918,4.812,4.812,0,0,0,.477-.065c1.427-.34,2.807-.85,4.245-1.16a2.168,2.168,0,0,0,1.223-.568l1.225-.28a4,4,0,0,1,.152,1.115c0,1.292.045,2.586-.006,3.876-.041,1.036-.135,2.07-.137,3.108,0,.653.023.662.656.593,1.053-.116,2.108-.212,3.163-.316a41.525,41.525,0,0,0,5.107-1.053c.064.124.119.252.191.369a7.514,7.514,0,0,0,1.888,2.358,6.423,6.423,0,0,0,1.953,1.022c.344.1.544.228.6.633a1.325,1.325,0,0,0,1.113,1.179,1.682,1.682,0,0,0,1.5-.36,5.57,5.57,0,0,0,.875-.885,1.712,1.712,0,0,1,.745-.582,4.392,4.392,0,0,0,2.714-3.871,12.769,12.769,0,0,0,3.665-.371c.818-.147,1.641-.273,2.454-.445,1.356-.286,2.729-.488,4.075-.825a.657.657,0,0,0,.454-.265,4.476,4.476,0,0,0,.856-1.8c.182-1.328.6-2.62.676-3.96a31.014,31.014,0,0,1,.468-3.643,3.672,3.672,0,0,1,.25-.934,1.95,1.95,0,0,0,1.28-.056c1.458-.349,2.826-1.007,4.316-1.251a.633.633,0,0,0,.547-.755c.867.084,1.239.463,1.226,1.439-.018,1.365-.078,2.73-.17,4.092-.038.556-.06,1.11-.048,1.665a29.345,29.345,0,0,1-.274,4.084c-.074.621-.1,1.249-.125,1.87-.05,1.319-.254,2.63-.193,3.953.009.208,0,.417-.006.625A2.978,2.978,0,0,1,128.9,233.7a43.232,43.232,0,0,1-4.7,2.689c-.942.464-.909.467-.607,1.444.588,1.9,1.139,3.813,1.712,5.719.133.443.277.883.442,1.315a6.671,6.671,0,0,1,.4,1.4,7.124,7.124,0,0,0,.82,2.343m2.092-24.792a.155.155,0,0,0-.206-.125,1.114,1.114,0,0,0-.514.338,27.091,27.091,0,0,1-3.113,2.411,4.77,4.77,0,0,0-.444.33c-.14.121-.3.266-.126.463.145.165.289.046.423-.049.394-.281.791-.557,1.183-.842a18.949,18.949,0,0,0,2.534-2.138c.109-.114.254-.206.263-.388m-39.089,6.657a4.892,4.892,0,0,0,.36,1.771c.062.145.127.34.331.28.25-.072.169-.289.132-.465-.023-.112-.079-.217-.106-.328a4.768,4.768,0,0,1-.2-.942c-.011-.322-.388-.5-.257-.883.062-.181-.2-.26-.389-.068a5.888,5.888,0,0,0-1.39,1.961c-.065.169-.184.372.037.489s.319-.1.408-.256c.069-.119.1-.257.167-.379a3.856,3.856,0,0,1,.909-1.18m2.888,4.56c-.236-.159-.277-.35-.386-.491s-.153-.407-.391-.285-.068.315-.01.484c.176.516.764.857.619,1.522-.028.129.2.162.315.035a.994.994,0,0,0,.159-.451c.165-.6.331-1.2.505-1.8.077-.265.183-.523.265-.787.059-.189.221-.449-.021-.553-.272-.117-.289.206-.376.374a2.494,2.494,0,0,0-.122.323c-.179.522-.357,1.045-.557,1.628m29.4-1.922a26.759,26.759,0,0,0,.489,2.807.353.353,0,0,0,.092.181.268.268,0,0,0,.177.067c.079,0,.109-.084.113-.152a1.287,1.287,0,0,0-.02-.273q-.226-1.4-.457-2.794a.428.428,0,0,0-.065-.192.225.225,0,0,0-.162-.09.2.2,0,0,0-.141.123,1.736,1.736,0,0,0-.027.323m1.41,2.212c.041-.018.107-.027.119-.057.248-.645.5-1.292.729-1.943a.164.164,0,0,0-.147-.2.207.207,0,0,0-.219.138,9.729,9.729,0,0,0-.654,1.751.406.406,0,0,0,.013.2.157.157,0,0,0,.16.105m-.321-7.864c-.023-.043-.037-.125-.086-.158q-.539-.37-1.092-.72a.179.179,0,0,0-.245.054.219.219,0,0,0-.025.257,1.991,1.991,0,0,0,1.158.808c.142.042.266-.048.288-.242" transform="translate(-30.333 -79.162)" fill="#fff"/>
          <path id="Trazado_107881" data-name="Trazado 107881" d="M106.626,230.019a41.8,41.8,0,0,1-5.107,1.053,15.419,15.419,0,0,1,.993-2.438c.627-1.34,1.285-2.667,1.894-4.016a10.988,10.988,0,0,1,4.3-4.691,2.727,2.727,0,0,1,1.913-.466,1.428,1.428,0,0,0,.746-.1,2.981,2.981,0,0,1,1.7-.077,7.455,7.455,0,0,1,3.819,2.263,13.344,13.344,0,0,1,2.583,3.5c.765,1.5,1.513,3.019,2.393,4.462a12.773,12.773,0,0,1-3.665.37,10.686,10.686,0,0,0,.143-2.208,6.586,6.586,0,0,0-.735-3.071.643.643,0,0,0-.569-.434,3.371,3.371,0,0,1-1.444-.459,11.072,11.072,0,0,1-3.267-2.647c-.158-.214-.355-.4-.538-.6a.861.861,0,0,0-.122.152,7.337,7.337,0,0,1-3.035,3.585c-.531.328-1.076.635-1.594.981-.318.213-.676.416-.7.885-.022.484-.078.966-.1,1.451a4.634,4.634,0,0,0,.384,2.5" transform="translate(-37.652 -81.298)" fill="#553128"/>
          <path id="Trazado_107882" data-name="Trazado 107882" d="M179.072,317.708a1.836,1.836,0,0,1,.937,1.8,1.081,1.081,0,0,1-.632.92,2.992,2.992,0,0,1-1.424.222c-.925-.006-1.85-.034-2.776-.025-3.47.032-6.939.042-10.409-.022a11.1,11.1,0,0,1-2.533-.35,2.26,2.26,0,0,1-1.921-2.3c-.026-.393-.028-.786-.042-1.179.159-.294.44-.2.681-.2q6-.008,11.993,0c.116,0,.475-.02.589-.009.358.032.148.123-.057.444-.075.116-.17.22-.241.339-.188.317-.383.632-.545.963-.08.162-.126.389.075.5.248.133.3-.113.382-.268a15.387,15.387,0,0,1,1.319-1.946l1.237.035c-.057.194-.116.388-.17.583-.145.524-.1.584.483.654-.086.16-.181.317-.257.483s-.169.383.028.493c.233.131.371-.074.48-.256.094-.157.171-.323.269-.477a5.044,5.044,0,0,1,.736-1.147l1.045.309c.141.645.141.645.75.447" transform="translate(-59.444 -117.406)" fill="#db6e5f"/>
          <path id="Trazado_107883" data-name="Trazado 107883" d="M89.06,221.112a2.163,2.163,0,0,1-1.223.567c-1.438.311-2.818.82-4.245,1.161a4.8,4.8,0,0,1-.477.065,1.036,1.036,0,0,1-.491-.72,33.419,33.419,0,0,1-1-4.677,10.058,10.058,0,0,1-.066-1.456,1.691,1.691,0,0,1,.028-.276c.051-.261.134-.505.455-.53a.517.517,0,0,1,.552.427c.13.4.253.795.4,1.186a.994.994,0,0,0,.357.593c-.038-.609-.076-1.144-.1-1.679-.014-.3-.018-.6-.007-.9.018-.455.213-.707.511-.693.271.013.462.249.474.661a5.412,5.412,0,0,0,.143,1.1.809.809,0,0,0,.272.5c0-.279-.009-.493,0-.706.023-.468.239-.738.57-.727.311.01.5.247.539.688.046.459.095.918.142,1.374.233.041.222-.138.264-.249a6.153,6.153,0,0,1,.2-.591.654.654,0,0,1,.715-.437c.366.064.36.369.364.652a6.564,6.564,0,0,0,.067,1.522,3.238,3.238,0,0,0,.542,1.263,10.716,10.716,0,0,1,1.024,1.889" transform="translate(-30.246 -79.436)" fill="#df7f63"/>
          <path id="Trazado_107884" data-name="Trazado 107884" d="M54.814,301.894a15.152,15.152,0,0,1-.508,2.468,6.42,6.42,0,0,0-1.083.747,22.293,22.293,0,0,1-3.471,2.527,7.685,7.685,0,0,0-1.23.777,31.583,31.583,0,0,1-3.753,2.848,5.054,5.054,0,0,1-1.851.883c-.714-.216-.958-.644-.549-1.212a15.818,15.818,0,0,1,3.455-3.86c2.148-1.524,4.425-2.867,6.694-4.209a14.1,14.1,0,0,1,2.3-.969" transform="translate(-15.641 -111.969)" fill="#dbbe36"/>
          <path id="Trazado_107885" data-name="Trazado 107885" d="M154.22,211.328a.633.633,0,0,1-.547.755c-1.49.243-2.857.9-4.316,1.251a1.95,1.95,0,0,1-1.28.056c-.065-.147-.187-.3-.185-.442.015-1.079-.478-2.065-.55-3.127-.006-.092-.026-.183-.029-.276a.689.689,0,0,1,.447-.771.727.727,0,0,1,.811.388,6.521,6.521,0,0,1,.318.739,1.013,1.013,0,0,0,.533-.183,20.341,20.341,0,0,1,3.785-1.32c.648-.159,1.28-.383,1.918-.583.28-.088.551-.127.755.141a.758.758,0,0,1-.026.849,1.291,1.291,0,0,1-.414.46c-.258.194-.518.388-.786.568-.666.45-.729.658-.435,1.495" transform="translate(-54.637 -77.052)" fill="#df7f63"/>
          <path id="Trazado_107886" data-name="Trazado 107886" d="M43.358,313.6a5.055,5.055,0,0,0,1.851-.883,31.634,31.634,0,0,0,3.753-2.848,7.655,7.655,0,0,1,1.23-.777,22.293,22.293,0,0,0,3.471-2.527,6.393,6.393,0,0,1,1.083-.747,6.111,6.111,0,0,1-.291,1.613,21.624,21.624,0,0,1-.708,2.715c-.05.163-.115.143-.115.143-.243.032-.543.233-.837.281a2.212,2.212,0,0,0-.254-1.205c-.122-.171-.293-.268-.476-.162-.2.116-.053.264.02.41a1.149,1.149,0,0,1-.244,1.492l-1.143.48c-.079-.215-.147-.435-.24-.644A.892.892,0,0,0,50,310.45c-.131-.054-.286-.071-.371.068-.067.111,0,.221.106.291a.987.987,0,0,1,.421,1.022l-1.849.652a.959.959,0,0,0-.659.23c-.86.275-1.716.567-2.582.819a2.6,2.6,0,0,1-1.7.067" transform="translate(-16.081 -113.424)" fill="#db6e5f"/>
          <path id="Trazado_107887" data-name="Trazado 107887" d="M183.3,316.112c-.583-.069-.627-.129-.483-.654.054-.2.114-.389.17-.583a3.636,3.636,0,0,0,.246-1.985.123.123,0,0,0-.208-.07,7.01,7.01,0,0,0-1.275,2.021,15.254,15.254,0,0,0-1.319,1.945c-.082.155-.134.4-.383.268-.2-.108-.154-.335-.075-.5.162-.33.357-.645.546-.963.07-.118.165-.222.24-.338a5.556,5.556,0,0,0,.71-1.052,8.341,8.341,0,0,1,1.683-2.355c.783-.009.8.016.812.8a9.211,9.211,0,0,1-.215,1.554c-.039.243-.164.491.087.695.084.522-.257.855-.537,1.215" transform="translate(-66.726 -115.661)" fill="#f9e4aa"/>
          <path id="Trazado_107888" data-name="Trazado 107888" d="M185.1,316.263c.279-.36.621-.694.537-1.215.376-.518.747-1.04,1.13-1.553a4.211,4.211,0,0,1,1.149-1.08.893.893,0,0,1,.446-.157c.432-.019.6.106.6.548a5.71,5.71,0,0,1-.462,2.2,2.55,2.55,0,0,0-.346,1.1c-.609.2-.609.2-.75-.447a4.592,4.592,0,0,0,.885-2.716,6.1,6.1,0,0,0-1.929,2.408,5.043,5.043,0,0,0-.736,1.147c-.1.154-.176.32-.269.478-.109.181-.247.387-.48.256-.2-.11-.1-.327-.028-.493s.171-.323.257-.483" transform="translate(-68.523 -115.812)" fill="#ffeeb4"/>
          <path id="Trazado_107889" data-name="Trazado 107889" d="M50.172,314.682a.96.96,0,0,1,.659-.23.887.887,0,0,0,1.081.4,1.134,1.134,0,0,0,.767-1.047.986.986,0,0,0-.42-1.021c-.1-.071-.174-.181-.107-.292.085-.139.24-.122.371-.067a.889.889,0,0,1,.464.488c.093.208.161.428.24.644-.106.223-.119.434.207.366a1.1,1.1,0,0,0,.936-.846,1.149,1.149,0,0,0,.244-1.492c-.074-.145-.221-.293-.02-.41.182-.106.354-.009.476.162a2.207,2.207,0,0,1,.254,1.205,3.472,3.472,0,0,1-.8,1.432,1.948,1.948,0,0,1-1.113.642,1.224,1.224,0,0,0-.734.352,1.383,1.383,0,0,1-1.766.282c-.277-.135-.642-.181-.737-.563" transform="translate(-18.608 -115.393)" fill="#ffebaf"/>
          <path id="Trazado_107890" data-name="Trazado 107890" d="M155.73,289.157c.193-.073.249-.192.262-.415a5.888,5.888,0,0,1,.745-2.64c.257-.446.479-.623.639-.469.277.266.047.524-.082.747a11.858,11.858,0,0,0-.839,2.77l-.726.007" transform="translate(-57.758 -105.917)" fill="#ece8c7"/>
          <path id="Trazado_107891" data-name="Trazado 107891" d="M97.088,250.622a2.031,2.031,0,0,1,.728.009,6.251,6.251,0,0,1-.758,1.607c-.263.536-.56,1.056-.842,1.582a2.43,2.43,0,0,1,.225-1.006c.25-.721.469-1.451.647-2.192" transform="translate(-35.684 -92.942)" fill="#6c4936"/>
          <path id="Trazado_107892" data-name="Trazado 107892" d="M125.938,282.729a16.75,16.75,0,0,1,4.008-1.848,2.469,2.469,0,0,1,.8-.208.328.328,0,0,1,.374.24c.037.162-.082.257-.21.319-.166.081-.338.148-.511.216q-1.259.5-2.52.988a7.553,7.553,0,0,0-1.049.537,3.227,3.227,0,0,0-1.9,2.623,2.766,2.766,0,0,1-.192.737c-.067.189-.147.44-.42.352-.226-.072-.179-.293-.138-.477.147-.654.273-1.314.448-1.961a21.464,21.464,0,0,1,2.338-5.546,1.743,1.743,0,0,1,.474-.589.307.307,0,0,1,.385-.022.262.262,0,0,1,.047.372c-.094.159-.2.313-.293.472a21.252,21.252,0,0,0-1.614,3.3c-.056.146-.162.288-.03.5" transform="translate(-46.045 -103.118)" fill="#ece8c7"/>
          <path id="Trazado_107893" data-name="Trazado 107893" d="M95.311,298.547a2.426,2.426,0,0,1-1.227-.6,4.846,4.846,0,0,1-1.122-1.471c-.1-.195-.157-.415.083-.54.2-.106.35.056.454.209a4.235,4.235,0,0,0,1.478,1.511,3.137,3.137,0,0,0,.558.254c.179.053.369.138.325.373-.049.259-.262.287-.549.268" transform="translate(-34.447 -109.745)" fill="#ece8c7"/>
          <path id="Trazado_107894" data-name="Trazado 107894" d="M91.105,297.274a8.367,8.367,0,0,1-.191,1.862,2.1,2.1,0,0,1-.123.393.266.266,0,0,1-.277.165.291.291,0,0,1-.264-.275,1.027,1.027,0,0,1,.021-.342,11.907,11.907,0,0,0,.223-2.544c0-.069,0-.138,0-.207.017-.245-.041-.593.3-.6.4-.006.227.369.253.588.035.3.036.6.055.958" transform="translate(-33.47 -109.682)" fill="#ece8c7"/>
          <path id="Trazado_107895" data-name="Trazado 107895" d="M159.542,288.973c-.211-.032-.268-.139-.23-.3a.724.724,0,0,1,.349-.41,19.691,19.691,0,0,1,2.347-1.311c.15-.078.313-.131.431.039s.014.308-.1.424a1.313,1.313,0,0,1-.272.21q-1.145.638-2.3,1.266a1.393,1.393,0,0,1-.225.082" transform="translate(-59.083 -106.399)" fill="#ece8c7"/>
          <path id="Trazado_107896" data-name="Trazado 107896" d="M109.4,230.763a4.64,4.64,0,0,1-.385-2.5c.019-.484.075-.967.1-1.451.021-.469.378-.672.7-.885.518-.347,1.063-.654,1.594-.981a7.333,7.333,0,0,0,3.035-3.585.908.908,0,0,1,.123-.152c.183.2.38.388.538.6a11.036,11.036,0,0,0,3.267,2.647,3.38,3.38,0,0,0,1.444.459.642.642,0,0,1,.569.433,6.6,6.6,0,0,1,.735,3.071,10.686,10.686,0,0,1-.143,2.208,4.392,4.392,0,0,1-2.714,3.871,1.713,1.713,0,0,0-.745.583,5.565,5.565,0,0,1-.875.885,1.68,1.68,0,0,1-1.5.36,1.325,1.325,0,0,1-1.113-1.178c-.052-.405-.252-.535-.6-.634a6.417,6.417,0,0,1-1.953-1.021,7.537,7.537,0,0,1-1.888-2.358c-.072-.118-.128-.246-.191-.369m7.118-4.431c-.221.121-.449.233-.662.367-.18.114-.349.255-.222.508.15.3.371.208.586.092.63-.34,1.263-.676,1.884-1.034a1.592,1.592,0,0,0,.459-.416.525.525,0,0,0-.4-.892,1.565,1.565,0,0,0-.68.1c-.522.183-1.058.321-1.577.52s-.666.057-.669-.488.014-1.063.018-1.595a4.294,4.294,0,0,0-.02-.484c-.018-.165-.065-.337-.266-.349s-.268.151-.284.322a20.223,20.223,0,0,0-.121,2.559.776.776,0,0,0,.8.784,1.918,1.918,0,0,0,1.008-.181.257.257,0,0,1,.147.187m-.723,3.3a4.481,4.481,0,0,0,2.126-.6c1.193-.5,1.381-1.589,1.632-2.647a.357.357,0,0,0-.3-.466c-.226-.033-.325.123-.385.318-.116.375-.233.751-.366,1.121a1.413,1.413,0,0,1-.657.865,4.1,4.1,0,0,1-2.307.622,2.161,2.161,0,0,1-1.936-1.239c-.162-.358-.317-.72-.5-1.07-.092-.182-.22-.41-.469-.316-.264.1-.178.35-.111.539.162.457.343.908.527,1.358a1.764,1.764,0,0,0,.625.815,3.283,3.283,0,0,0,2.119.694m.778,1.943a1.974,1.974,0,0,0,1.025-.451.306.306,0,0,0,.081-.431.31.31,0,0,0-.424-.116,5.683,5.683,0,0,1-1.093.413c-.242.064-.24.347-.025.48a.725.725,0,0,0,.437.1m-.12-7.61c-.265,0-.45.1-.488.377a.446.446,0,0,0,.438.5.421.421,0,0,0,.444-.427.39.39,0,0,0-.393-.452m-2.76,1.076a.469.469,0,0,0,.415-.444.36.36,0,0,0-.364-.411.446.446,0,0,0-.439.442c-.021.247.122.376.389.413" transform="translate(-40.427 -82.043)" fill="#dc7c60"/>
          <path id="Trazado_107897" data-name="Trazado 107897" d="M154.295,229.863c-.009.182-.153.274-.262.388a18.954,18.954,0,0,1-2.535,2.138c-.391.285-.789.561-1.183.842-.133.1-.277.215-.423.049-.173-.2-.014-.342.126-.463a4.847,4.847,0,0,1,.444-.33,27.1,27.1,0,0,0,3.114-2.411,1.112,1.112,0,0,1,.513-.338.155.155,0,0,1,.206.125" transform="translate(-55.565 -85.205)" fill="#5c7f7d"/>
          <path id="Trazado_107898" data-name="Trazado 107898" d="M93.852,240.081a3.866,3.866,0,0,0-.909,1.18c-.064.122-.1.26-.167.379-.089.154-.178.376-.408.255s-.1-.32-.037-.489a5.887,5.887,0,0,1,1.39-1.961c.186-.191.45-.113.389.068-.13.382.247.561.257.883a4.749,4.749,0,0,0,.2.942c.027.112.083.216.106.329.036.175.118.393-.132.465-.2.059-.268-.136-.331-.281a4.916,4.916,0,0,1-.36-1.771" transform="translate(-34.211 -88.766)" fill="#5c7f7d"/>
          <path id="Trazado_107899" data-name="Trazado 107899" d="M98.865,246.384c.2-.583.377-1.105.557-1.628a2.324,2.324,0,0,1,.122-.323c.086-.167.1-.491.376-.374.242.1.079.364.021.553-.082.264-.187.522-.265.787-.175.6-.34,1.2-.506,1.8a.993.993,0,0,1-.159.451c-.118.127-.343.094-.315-.035.145-.666-.444-1.007-.62-1.522-.057-.169-.216-.368.01-.484s.289.153.391.285.15.333.386.491" transform="translate(-36.336 -90.509)" fill="#5c7f7d"/>
          <path id="Trazado_107900" data-name="Trazado 107900" d="M146.129,244.451a1.79,1.79,0,0,1,.026-.323.2.2,0,0,1,.142-.123.223.223,0,0,1,.162.09.423.423,0,0,1,.065.191q.231,1.4.457,2.794a1.294,1.294,0,0,1,.019.274c0,.067-.033.149-.112.152a.266.266,0,0,1-.177-.067.348.348,0,0,1-.092-.181,26.726,26.726,0,0,1-.489-2.807" transform="translate(-54.197 -90.498)" fill="#5c7f7d"/>
          <path id="Trazado_107901" data-name="Trazado 107901" d="M148.265,246.933a.156.156,0,0,1-.16-.1.414.414,0,0,1-.013-.2,9.713,9.713,0,0,1,.654-1.751.207.207,0,0,1,.219-.138.164.164,0,0,1,.147.2c-.233.651-.48,1.3-.729,1.942-.011.03-.077.038-.118.057" transform="translate(-54.923 -90.768)" fill="#5c7f7d"/>
          <path id="Trazado_107902" data-name="Trazado 107902" d="M146.989,235.2c-.022.194-.146.284-.288.242a1.99,1.99,0,0,1-1.158-.808.219.219,0,0,1,.025-.257.178.178,0,0,1,.245-.054q.553.349,1.092.72c.048.033.063.114.086.158" transform="translate(-53.968 -86.896)" fill="#5c7f7d"/>
          <path id="Trazado_107903" data-name="Trazado 107903" d="M182.842,315.321a6.266,6.266,0,0,1,1.451-2.179,3.786,3.786,0,0,1-.213,2.213l-1.237-.035" transform="translate(-67.814 -116.14)" fill="#5c7f7d"/>
          <path id="Trazado_107904" data-name="Trazado 107904" d="M117.833,232.413a3.286,3.286,0,0,1-2.119-.695,1.762,1.762,0,0,1-.625-.815c-.184-.45-.365-.9-.528-1.359-.067-.189-.153-.44.111-.539.249-.092.376.135.469.316.178.35.333.712.5,1.07a2.16,2.16,0,0,0,1.936,1.239,4.111,4.111,0,0,0,2.307-.622,1.418,1.418,0,0,0,.657-.865c.133-.371.249-.746.366-1.122.06-.2.159-.351.384-.317a.357.357,0,0,1,.3.466c-.252,1.058-.439,2.148-1.633,2.647a4.491,4.491,0,0,1-2.125.6" transform="translate(-42.464 -84.822)" fill="#5c3329"/>
          <path id="Trazado_107905" data-name="Trazado 107905" d="M119.649,227a1.916,1.916,0,0,1-1.008.181.776.776,0,0,1-.8-.784,20.235,20.235,0,0,1,.121-2.559c.016-.17.076-.334.284-.321s.248.184.266.349a4.3,4.3,0,0,1,.019.484c0,.532-.019,1.063-.018,1.595s.161.681.669.488,1.055-.337,1.577-.52a1.565,1.565,0,0,1,.68-.1.525.525,0,0,1,.4.892,1.592,1.592,0,0,1-.459.416c-.62.358-1.253.693-1.883,1.034-.215.116-.437.206-.586-.092-.126-.252.042-.394.222-.508.213-.135.44-.246.662-.367a2.161,2.161,0,0,0,.96-.518c-.372.119-.8.042-1.107.33" transform="translate(-43.703 -82.9)" fill="#5c3329"/>
          <path id="Trazado_107906" data-name="Trazado 107906" d="M120.687,237.078a.725.725,0,0,1-.437-.1c-.216-.133-.217-.416.025-.48a5.643,5.643,0,0,0,1.093-.413.31.31,0,0,1,.424.116.306.306,0,0,1-.081.431,1.974,1.974,0,0,1-1.025.451" transform="translate(-44.54 -87.544)" fill="#5c3329"/>
          <path id="Trazado_107907" data-name="Trazado 107907" d="M120.557,225.594a.39.39,0,0,1,.393.452.421.421,0,0,1-.444.427.446.446,0,0,1-.438-.5c.038-.275.223-.376.488-.377" transform="translate(-44.53 -83.67)" fill="#5c3329"/>
          <path id="Trazado_107908" data-name="Trazado 107908" d="M116.23,226.8c-.267-.037-.41-.166-.389-.413a.446.446,0,0,1,.439-.442.36.36,0,0,1,.364.411.469.469,0,0,1-.415.444" transform="translate(-42.963 -83.8)" fill="#5c3329"/>
          <path id="Trazado_107909" data-name="Trazado 107909" d="M120.719,228.862c.31-.289.734-.211,1.107-.33a2.161,2.161,0,0,1-.96.518.257.257,0,0,0-.147-.187" transform="translate(-44.773 -84.76)" fill="#6c4936"/>
        </g>
      </g>
    </g>
  </g>
</svg>
