<svg xmlns="http://www.w3.org/2000/svg" xmlns:xlink="http://www.w3.org/1999/xlink" width="232" height="232" viewBox="0 0 232 232">
  <defs>
    <clipPath id="clip-path">
      <rect id="Rect치ngulo_5650" data-name="Rect치ngulo 5650" width="194.333" height="182.016" fill="none"/>
    </clipPath>
  </defs>
  <g id="Grupo_62351" data-name="Grupo 62351" transform="translate(-340 -3060)">
    <rect id="Rect치ngulo_5654" data-name="Rect치ngulo 5654" width="232" height="232" transform="translate(340 3060)" fill="none"/>
    <g id="Grupo_62346" data-name="Grupo 62346" transform="translate(358.833 3084.992)">
      <g id="Grupo_62345" data-name="Grupo 62345" clip-path="url(#clip-path)">
        <path id="Trazado_108041" data-name="Trazado 108041" d="M22.308,187.548c0-4.122-.031-8.245.014-12.367.021-1.955.163-3.909.3-5.86.046-.661-.155-.785-.777-.688a22.686,22.686,0,0,1-3.672.067c-.5,0-.667.149-.735.643-.672,4.834-1.026,9.691-1.249,14.565-.176,3.86-.113,7.72-.174,11.58-.029,1.8-.2,3.592-.221,5.392a1.276,1.276,0,0,1-1.259,1.41c-.7-.005-1.2-.559-1.259-1.429-.128-2.011.211-4.012.139-6.021a141.268,141.268,0,0,1,.192-14.16,77.991,77.991,0,0,1,1.288-11.646c.077-.356.034-.509-.38-.546-2.07-.184-2.451-.355-3.609,1.939a15.152,15.152,0,0,0-1.288,5.288c-.672,6.108-.58,12.24-.689,18.368-.066,3.7-.255,7.4-.4,11.1-.026.65-.107,1.3-.159,1.946A1.316,1.316,0,0,1,7.052,208.5a1.239,1.239,0,0,1-1.207-1.362c.05-2.162.157-4.322.206-6.486.117-5.19.262-10.38.289-15.572a87.5,87.5,0,0,1,.914-11.925,11,11,0,0,1,2-4.877c.308-.43.139-.527-.218-.718a12.243,12.243,0,0,1-2.585-1.6,2.274,2.274,0,0,1-.857-1.6A12.124,12.124,0,0,1,5.6,161.7a4.416,4.416,0,0,1,3-3.418,22.37,22.37,0,0,1,6.085-1.375,50.9,50.9,0,0,1,6.478-.384c1.985.023,3.943.327,5.923.417a6.185,6.185,0,0,1,4.4,2.584,1.856,1.856,0,0,1,.454,1.307c-.093,1.291-.214,2.576-.182,3.875a2.074,2.074,0,0,1-1.5,1.982c-1.443.643-1.422.651-.731,2.024a21.669,21.669,0,0,1,1.76,6.86,72.947,72.947,0,0,1,.706,12.8c-.135,3.908-.239,7.827-.634,11.712a71.624,71.624,0,0,0-.611,8.491c.018,1.017-.511,1.613-1.318,1.61s-1.306-.606-1.325-1.619a74.06,74.06,0,0,1,.411-8.041q.246-2.725.329-5.464a122.544,122.544,0,0,0,.007-14.155,56.264,56.264,0,0,0-1.257-8.9,17.549,17.549,0,0,0-1.415-3.468c-.272-.553-.682-.339-1.071-.273-.471.079-.166.405-.16.612.039,1.278.148,2.555.143,3.831q-.054,13.816-.142,27.633a3.963,3.963,0,0,1-.142,1.317,1.334,1.334,0,0,1-1.43.982,1.3,1.3,0,0,1-1.262-1.091,3.738,3.738,0,0,1-.071-.853c-.014-4.384.022-8.767.257-13.15M19.4,165.095a17.255,17.255,0,0,0,2.9-.117c2.1-.219,4.206-.35,6.283-.742.287-.054.638-.106.6-.477-.046-.422-.4-.29-.678-.249a51.366,51.366,0,0,1-12.218.7,26.389,26.389,0,0,1-6.983-1.213,2.4,2.4,0,0,0-.377-.1c-.191-.038-.4-.017-.476.172-.111.268.169.272.309.34a12.269,12.269,0,0,0,2.8.979,57.476,57.476,0,0,0,7.842.716" transform="translate(-1.495 -42.373)" fill="#355b69"/>
        <path id="Trazado_108042" data-name="Trazado 108042" d="M20.479,167.451a57.474,57.474,0,0,1-7.842-.716,12.27,12.27,0,0,1-2.8-.979c-.14-.068-.42-.071-.309-.34.078-.19.285-.21.476-.172a2.41,2.41,0,0,1,.377.1,26.388,26.388,0,0,0,6.983,1.213,51.365,51.365,0,0,0,12.218-.7c.279-.041.632-.173.678.249.041.371-.311.423-.6.477-2.077.392-4.185.524-6.283.742a17.254,17.254,0,0,1-2.9.117" transform="translate(-2.573 -44.729)" fill="#ebe8c9"/>
        <path id="Trazado_108043" data-name="Trazado 108043" d="M37.494,159.794a31.775,31.775,0,0,0,.142-3.555c.009-.448-.1-.567-.584-.524-3.414.3-6.816.893-10.257.671-3.363-.217-6.769-.109-10.047-1.078a14.024,14.024,0,0,1-4.35-2.056,4.519,4.519,0,0,1-1.936-2.881,3.293,3.293,0,0,0,2.636.37,2,2,0,0,0,1.777-2.189c-.026-.785.358-1.542.068-2.343-.1-.283.238-.265.438-.288.29.015.582.01.869.046,1.808.228,3.621.4,5.44.455a14.419,14.419,0,0,0,8.681-2.915,2.67,2.67,0,0,0,1.215-2.886,76.208,76.208,0,0,1,11.51,2.169c2.8.634,5.653,1.068,8.485,1.572a73.4,73.4,0,0,1,7.479,1.748,4.806,4.806,0,0,1,3.056,3.317,10.241,10.241,0,0,1,.446,2.808,42.273,42.273,0,0,1-.335,7.2c-.26,2.468-.458,4.943-.767,7.4-.593,4.711-.822,9.463-1.778,14.137-.57,2.787-.837,5.637-1.208,8.463-.14,1.065-.1,1.073,1,1.16a1,1,0,0,1,1.06,1.115c-.005.265.008.529,0,.794-.029.819-.333,1.16-1.149,1.212-.686.044-1.375.031-2.062.043a20.044,20.044,0,0,0-3.777.236c-1.556.386-3.379-.031-4.632,1.375a19.906,19.906,0,0,0-4.295.134c-1.449.02-2.884.238-4.329.33-2.051.13-4.106.106-6.155.223-.925-.02-1.849-.063-2.773-.054a1.168,1.168,0,0,1-1.3-1.1,7.8,7.8,0,0,1-.186-1.33,1.136,1.136,0,0,1,.982-1.251c.632-.084.791-.445.879-.99.481-3,.875-6.013,1.513-8.976.627-2.916,1.405-5.8,1.936-8.738.789-4.363,1.433-8.751,2.14-13.129a2.65,2.65,0,0,1,.085-.3,5.842,5.842,0,0,0,.921,1.282c1.647,1.887,3.859,3.019,5.884,4.4a5.343,5.343,0,0,0,1.809.963c.251.055.5.036.606-.23s-.105-.379-.292-.49c-.318-.189-.65-.357-.954-.566-2.495-1.711-5.3-3.026-7.177-5.533a.649.649,0,0,0-.706-.226m15.383,13.2c0-.328,0-.434,0-.54-.005-.34-.079-.7-.478-.69s-.451.377-.463.711a8.586,8.586,0,0,1-.047.951c-.828,5.515-1.426,11.055-1.872,16.613-.028.344-.094.745.371.834.505.1.644-.314.694-.681a20.108,20.108,0,0,0,.21-2.288c.061-3.074.586-6.1.887-9.15.2-2,.481-3.986.7-5.759m-2.7-3.17c0-.131,0-.184,0-.236-.035-.4.172-.99-.414-1.039-.609-.052-.494.553-.533.947a17.507,17.507,0,0,1-2.48,7.364q-1.319,2.21-2.625,4.428c-.2.334-.481.739,0,1.04.512.319.685-.179.893-.491a51.1,51.1,0,0,0,3.8-6.674,14.77,14.77,0,0,0,1.363-5.338m4.22-8.044c.356-.136.357-.363.4-.565.182-.826.369-1.649.543-2.476.588-2.793,1.228-5.579.888-8.474-.193-1.634-.6-3.129-2.191-3.985-.224-.12-.513-.308-.7.009-.163.276.053.521.268.669a3.677,3.677,0,0,1,1.45,2.024,10.64,10.64,0,0,1,.314,3.3,44.9,44.9,0,0,1-.667,5.581,14.82,14.82,0,0,0-.306,3.913m5.1,8.04c-.071-.265-.094-.541-.376-.591-.26-.047-.425.117-.535.368-.4.918-.809,1.833-1.238,2.739-.575,1.216-1.173,2.42-1.76,3.632-.155.319-.314.681.112.889.407.2.623-.123.8-.433a2.31,2.31,0,0,0,.109-.211q1.243-2.693,2.482-5.389c.152-.334.274-.682.4-1m-5.839,21.616c1.294-.179,2.625-.36,3.956-.546.4-.056.756-.211.656-.7s-.49-.38-.834-.329c-1.3.193-2.61.36-3.906.594-.405.073-1.156-.137-1.094.56s.775.247,1.222.419m7.5-29.069a.605.605,0,0,0-.217-.491c-1.039-.976-2.076-1.955-3.123-2.922-.22-.2-.505-.349-.785-.117-.341.283-.059.543.113.743a30.489,30.489,0,0,0,2.981,2.955,1.181,1.181,0,0,0,.574.233.359.359,0,0,0,.457-.4m-23.8,27.784a.329.329,0,0,0,.546.278,9.51,9.51,0,0,0,3.021-3.164c.152-.271.33-.626-.027-.845-.384-.236-.556.15-.731.393a13.084,13.084,0,0,1-2.471,2.747.9.9,0,0,0-.338.591m1.677-39.013c-.031-.405.058-.828-.363-1.009-.222-.1-.416.117-.48.315a8.024,8.024,0,0,0-.52,3.4.49.49,0,0,0,.514.5.483.483,0,0,0,.491-.519,14.388,14.388,0,0,1,.358-2.685m3.356.51c0-.16-.005-.325-.177-.4a.564.564,0,0,0-.654.146c-.685.721-1.362,1.453-2.006,2.21a.53.53,0,0,0,.064.834c.3.207.54.012.745-.218.561-.626,1.128-1.245,1.684-1.874a1.232,1.232,0,0,0,.344-.7" transform="translate(-2.832 -38.068)" fill="#53bced"/>
        <path id="Trazado_108044" data-name="Trazado 108044" d="M28.754,126.265a2.67,2.67,0,0,1-1.215,2.886,14.418,14.418,0,0,1-8.681,2.915c-1.82-.053-3.633-.227-5.44-.454-.287-.036-.578-.032-.869-.046A20.535,20.535,0,0,0,7,130.476q-2.155-.327-4.309-.656a4.57,4.57,0,0,1-.465-.1c-2.239-.583-2.6-1.278-1.911-3.487a24.076,24.076,0,0,0,.622-5.021c.438-4.665.516-9.345.521-14.029,0-2.585.841-5.046,1.4-7.545A44.921,44.921,0,0,1,5.66,91.808,5.949,5.949,0,0,1,8.873,88.79c.721-.318,1.391-.758,2.139-1.03a1.335,1.335,0,0,1,.764-.155,3.3,3.3,0,0,0,1.356,3.26,8.375,8.375,0,0,0,3.981,1.616,4.406,4.406,0,0,0,2.259-.158,1.023,1.023,0,0,0,.791-1.042c3.246.33,5.957,1.525,7.516,4.612a27.089,27.089,0,0,1,2.024,6.9,34.927,34.927,0,0,1,.647,6.537c.008.535.152.835.7.949A94.726,94.726,0,0,1,42.564,113.8c.571.2,1.356.1,1.682.564s-.341,1.054-.3,1.645a25.825,25.825,0,0,0-1.826,4.309c-.635,1.276-.636,1.277-2.027.741-.193-.075-.379-.173-.567-.26.226-.632-.6-.773-.6-1.3.013-.105.026-.209.039-.314.2-.387-.183-.485-.345-.686-.108-.135-.4-.2-.3-.408.292-.594-.153-.8-.505-1.059-.827-.605-1.661-1.2-2.494-1.8a4.315,4.315,0,0,0-2.666-.836c-.342.007-.683-.068-1.018-.09a10.7,10.7,0,0,0-3.531-.088c-.449.117-.617.279-.626.727a18.312,18.312,0,0,0,.6,5.074,15.025,15.025,0,0,0,.536,5.112c.09.382-.179.793.136,1.133M14.26,105.654a39.675,39.675,0,0,0-.157-5.469A22.021,22.021,0,0,0,13.5,96.52c-.066-.248-.2-.47-.472-.457-.318.015-.326.3-.325.54a5.333,5.333,0,0,0,.034.871c.758,4.416.478,8.853.3,13.289-.013.333-.178.43-.442.551a8.594,8.594,0,0,1-3.907.881c-.341-.01-.777-.132-.772.49,0,.6.4.583.811.6a8.185,8.185,0,0,0,3.285-.384c.171-.066.365-.166.5.028a.465.465,0,0,1-.048.524c-.276.451-.576.888-.843,1.344-.153.262-.564.544-.063.848.4.243.791.319,1.073-.193a9.02,9.02,0,0,0,.662-1.171,1.579,1.579,0,0,1,1.861-1.167c3.573.324,7.158.508,10.723.923.3.034.734.247.773-.346.028-.42-.063-.715-.586-.73-.579-.017-1.157-.095-1.733-.165-3.145-.381-6.308-.56-9.468-.742-.589-.034-.782-.174-.75-.77a48.465,48.465,0,0,0,.145-5.627m5.117,17.015v-.026c.979,0,1.958,0,2.938,0,1.323,0,2.646.009,3.968-.031.279-.008.763.044.643-.545-.089-.435-.049-.853-.758-.807-4.381.284-8.773.089-13.159.227-1.486.047-3-.045-4.507-.061-2.595-.027-2.776-.142-3.489-2.667a4.023,4.023,0,0,1-.1-.462q-.235-1.524-.462-3.049c-.038-.253-.129-.488-.42-.49-.338,0-.443.293-.465.548a6.418,6.418,0,0,0,.067.94,13.753,13.753,0,0,0,.81,4.1,2.8,2.8,0,0,0,2.967,2.142c1.928.044,3.853.045,5.781.155,2.057.117,4.126.026,6.19.026m10-13.452c-.11-1.611-.175-3.164-.334-4.709a17.351,17.351,0,0,0-.924-4.473,1.586,1.586,0,0,0-.5-.791c-.217-.155-.452-.3-.712-.063a.484.484,0,0,0-.058.7,2.551,2.551,0,0,1,.307.634,22.149,22.149,0,0,1,.82,5.212c.078,1.313.192,2.625.283,3.937.027.382.165.721.581.707s.536-.365.535-.745v-.414M5.4,97.389c0-.583,0-1.165,0-1.747,0-.241-.019-.52-.314-.57-.369-.061-.407.271-.472.514A6.606,6.606,0,0,0,4.422,97c-.076,1.582-.206,3.161-.277,4.743a26.327,26.327,0,0,0-.041,4.9c.043.308.1.653.423.679.346.028.351-.349.347-.6-.045-3.124.5-6.213.524-9.331" transform="translate(0 -23.711)" fill="#fff"/>
        <path id="Trazado_108045" data-name="Trazado 108045" d="M65.744,214.234c.182-.032.363-.071.546-.094.825-.1,1.143.19,1.047,1.034a12.752,12.752,0,0,1-.352,1.95c-.177.644.068.809.661.9,1.855.292,3.716.522,5.584.707a3.156,3.156,0,0,1,2.137.7,4.409,4.409,0,0,1,.209,4.355,2.126,2.126,0,0,1-1.214.695,15.342,15.342,0,0,1-4.5.333c-1.612-.055-3.226-.1-4.833-.284a26.915,26.915,0,0,0-3.464.106c-5.557.087-11.117.082-16.674.08a11.526,11.526,0,0,1-2.522-.214.863.863,0,0,1-.783-.927c-.014-1.774-.033-3.547-.047-5.32-.005-.564.173-.993.821-1.049a3.161,3.161,0,0,1,1.238.951c.327.33.576.8,1.084.88a26.166,26.166,0,0,0,5.5.491c.446-.026.5-.177.274-.527-.367-.579-.715-1.17-1.082-1.749a.744.744,0,0,1-.128-.742c.133-.279.416-.141.638-.152a12.177,12.177,0,0,0,3.143-.182c.9,0,1.792-.035,2.687-.005.729.025.952.362.669,1.039-.344.825-.764,1.618-1.144,2.428-.07.149-.3.35-.066.467a2.034,2.034,0,0,0,.981.238c.309-.021.108-.33.095-.51-.077-1.086-.1-2.14,1.219-2.561.3,0,.6,0,.773.295a2.383,2.383,0,0,0,1.965,1.01c1.444.2,1.444.2,1.068-1.135-.028-.1-.054-.2-.079-.308-.235-.952-.123-1.141.755-1.516a40.08,40.08,0,0,1,3.79-1.391" transform="translate(-11.246 -57.965)" fill="#e17226"/>
        <path id="Trazado_108046" data-name="Trazado 108046" d="M17.772,78.3a44.7,44.7,0,0,0-1.49-7.7,35.044,35.044,0,0,1-.945-4.415,4.2,4.2,0,0,1,1.538-3.871c1.941-1.642,4.07-2.329,6.5-1.063a.819.819,0,0,0,.682-.026,17.559,17.559,0,0,1,7.008-.2,4.508,4.508,0,0,1,2.9,2.069c.651.818-.088,2.118-1.358,2.563a3.985,3.985,0,0,1-1.806.106c-.252-.029-.481-.076-.428.327.066.5-.287.693-.691.82a10.655,10.655,0,0,1-5.09.075c-.688-.179-.861.123-1,.623-.206.764-.368,1.541-.594,2.3-.107.357-.118.908-.6.92-.506.013-.4-.521-.48-.855-.047-.186-.109-.372-.337-.379-.2-.006-.238.171-.3.314a4.328,4.328,0,0,0-.282,2.332c.043.373.272.812.664.79,1.166-.066.748.573.626,1.173-.319,1.575-1.276,2.97-1.293,4.628,0,.221-.163.308-.34.388a1.989,1.989,0,0,1-2.874-.919" transform="translate(-4.143 -16.406)" fill="#532f26"/>
        <path id="Trazado_108047" data-name="Trazado 108047" d="M18.388,80.647a1.99,1.99,0,0,0,2.875.919c.177-.08.337-.166.339-.388.017-1.658.974-3.053,1.294-4.628.121-.6.54-1.239-.626-1.173-.392.022-.621-.417-.664-.789a4.331,4.331,0,0,1,.283-2.333c.065-.144.108-.32.3-.314.228.007.29.193.338.379.084.335-.027.869.479.855.487-.012.5-.562.6-.92.226-.758.387-1.534.594-2.3.135-.5.308-.8,1-.623a10.667,10.667,0,0,0,5.09-.075A21,21,0,0,0,32.205,74.1c.126.29.322.549.443.84.362.874-.1,1.521-1.026,1.363-.516-.088-.645.036-.669.53-.037.764-.151,1.523-.232,2.285a2.684,2.684,0,0,1-1.542-1.595c-.09-.292-.165-.7-.589-.6-.463.112-.367.556-.286.863a3.2,3.2,0,0,0,2.15,2.238,4.939,4.939,0,0,1-1.222,2.263,1.394,1.394,0,0,1-1.37.428,18.453,18.453,0,0,1-3.346-.533c-.785-.227-.889-.137-.755.667.166.986.368,1.965.553,2.948-1.984.777-3.721.052-5.4-.917a1.976,1.976,0,0,1-.855-1.109c-.155-.449-.316-.895-.473-1.342a8.959,8.959,0,0,1,.808-1.78m9.88-7.7c.081.431.173.877.72.881.482,0,.7-.33.692-.783s-.112-.885-.648-.923-.683.384-.764.826" transform="translate(-4.759 -18.749)" fill="#e07458"/>
        <path id="Trazado_108048" data-name="Trazado 108048" d="M57.757,130.868a25.876,25.876,0,0,1,1.826-4.309,18.087,18.087,0,0,1,2.8.85,2.2,2.2,0,0,1,1.012.719c1.212,1.466,2.751,2.62,3.96,4.092a4.582,4.582,0,0,1,.475.629c.16.282.06.609-.247.607-.764,0-.421.36-.27.668a.461.461,0,0,1-.122.635.516.516,0,0,1-.71-.118c-.244-.236-.349-.6-.693-.74-.069-.164-.213-.278-.343-.136-.163.179.053.243.179.314.1.152.19.306.293.454.184.265.381.555.1.839-.328.336-.657.191-.939-.114a.609.609,0,0,0-.354-.446l-.158-.159-.161-.162-.16-.158c-.017-.129-.055-.242-.209-.259-.013,0-.046.039-.043.056a.212.212,0,0,0,.26.194l.159.159.16.161c.01.1.053.159.16.158a.5.5,0,0,0,.112.481c-.075.354.28.863-.266,1.039-.47.15-.777-.212-1.038-.561-.095-.128-.189-.255-.286-.38-.273-.354-.483-.893-.837-1.019-.537-.19-.529.575-.873.823s-.669.465-1.083.267-.357-.607-.31-.976c.053-.419.119-.836.192-1.253a1.535,1.535,0,0,0-1.162-1.9c-.474-.155-.952-.3-1.427-.454" transform="translate(-15.636 -34.261)" fill="#e2785b"/>
        <path id="Trazado_108049" data-name="Trazado 108049" d="M49.124,129.335c0,.527.83.669.6,1.3-.206.083-.412.155-.609-.023a1.332,1.332,0,0,0-.839-.974c-.68-.34-1.39-.621-2.1-.9-.158-.063-.384-.341-.516,0-.095.245.134.378.333.458a16.255,16.255,0,0,1,2.857,1.449c-.178.7-.606.876-1.254.6a4.47,4.47,0,0,1-1.156-.662,5.314,5.314,0,0,0-4.487-1.02,23.682,23.682,0,0,1-3.681.3,18.32,18.32,0,0,1-.6-5.074c.009-.448.177-.61.626-.727a10.7,10.7,0,0,1,3.531.088c.336.022.676.1,1.018.09a4.315,4.315,0,0,1,2.666.836c.834.6,1.667,1.195,2.494,1.8.352.257.8.465.505,1.059-.1.212.19.273.3.408.162.2.548.3.344.686a14.8,14.8,0,0,0-2.579-1.362c-.156-.05-.318-.115-.422.057a.22.22,0,0,0,.114.329c.979.366,1.746,1.2,2.849,1.29m-2.829-2.711c-.139.044-.359-.064-.457.165-.063.149.019.242.159.3.606.257,1.208.522,1.817.771.143.058.34.085.427-.077s-.066-.3-.191-.386a5.721,5.721,0,0,0-1.755-.774" transform="translate(-10.199 -33.547)" fill="#e17658"/>
        <path id="Trazado_108050" data-name="Trazado 108050" d="M9.582,146.4a20.533,20.533,0,0,1,5.55,1.09c-.2.023-.541.005-.438.288.29.8-.093,1.559-.068,2.342a2,2,0,0,1-1.777,2.189,3.3,3.3,0,0,1-2.636-.37c-.848-1.774-.674-3.664-.631-5.54" transform="translate(-2.582 -39.631)" fill="#61a9d8"/>
        <path id="Trazado_108051" data-name="Trazado 108051" d="M53.337,216.66a12.178,12.178,0,0,1-3.143.182c-.223.011-.505-.127-.639.151a.748.748,0,0,0,.128.743c.367.579.715,1.17,1.082,1.749.221.349.171.5-.273.527a26.112,26.112,0,0,1-5.5-.492c-.508-.078-.757-.55-1.084-.88a3.166,3.166,0,0,0-1.238-.951c.011-.425.251-.817.182-1.253,2.05-.117,4.1-.093,6.156-.223,1.445-.091,2.879-.31,4.329-.33,0,.259,0,.518,0,.777" transform="translate(-11.551 -58.443)" fill="#f9f0cd"/>
        <path id="Trazado_108052" data-name="Trazado 108052" d="M71.6,214.063a40.084,40.084,0,0,0-3.79,1.391c-.878.376-.99.564-.755,1.516.025.1.05.206.079.308.376,1.332.376,1.336-1.068,1.135A2.384,2.384,0,0,1,64.1,217.4c-.171-.291-.476-.3-.773-.295a9.359,9.359,0,0,0-.148-2.008c1.254-1.407,3.077-.99,4.632-1.375a19.983,19.983,0,0,1,3.777-.236l.011.573" transform="translate(-17.104 -57.795)" fill="#f9f0cd"/>
        <path id="Trazado_108053" data-name="Trazado 108053" d="M17.178,87.281c.158.447.319.893.474,1.342a1.974,1.974,0,0,0,.855,1.109c1.683.969,3.42,1.695,5.4.917l.607.523c.026.567-.3.846-.79,1.042a4.409,4.409,0,0,1-2.259.158,8.381,8.381,0,0,1-3.981-1.616,3.3,3.3,0,0,1-1.355-3.261.85.85,0,0,1,1.044-.214" transform="translate(-4.358 -23.603)" fill="#467382"/>
        <path id="Trazado_108054" data-name="Trazado 108054" d="M47.494,166.9a.649.649,0,0,1,.706.226c1.879,2.507,4.682,3.822,7.177,5.533.3.209.636.377.954.566.186.111.392.238.291.49s-.354.286-.605.23a5.336,5.336,0,0,1-1.809-.963c-2.025-1.38-4.236-2.511-5.884-4.4a5.859,5.859,0,0,1-.921-1.282c.031-.134.061-.268.091-.4" transform="translate(-12.833 -45.178)" fill="#3d667e"/>
        <path id="Trazado_108055" data-name="Trazado 108055" d="M34.41,82.862a3.193,3.193,0,0,1-2.149-2.238c-.082-.306-.178-.751.286-.863.423-.1.5.3.588.6a2.684,2.684,0,0,0,1.542,1.595,1.2,1.2,0,0,1-.267.909" transform="translate(-8.715 -21.588)" fill="#532f26"/>
        <path id="Trazado_108056" data-name="Trazado 108056" d="M51.817,132.364a16.307,16.307,0,0,0-2.857-1.45c-.2-.079-.428-.212-.333-.457.131-.339.358-.062.516,0,.706.284,1.416.565,2.1.9a1.334,1.334,0,0,1,.839.975l-.26.026" transform="translate(-13.158 -35.272)" fill="#cf5738"/>
        <path id="Trazado_108057" data-name="Trazado 108057" d="M67.431,138.344a.5.5,0,0,1-.112-.481l-.009.01a.61.61,0,0,1,.355.446l-.233.025" transform="translate(-18.218 -37.321)" fill="#fbf1c9"/>
        <path id="Trazado_108058" data-name="Trazado 108058" d="M67.553,184.548c-.218,1.774-.5,3.762-.7,5.76-.3,3.049-.826,6.076-.887,9.15a20.109,20.109,0,0,1-.21,2.288c-.05.368-.188.778-.694.681-.466-.09-.4-.49-.371-.834.446-5.558,1.043-11.1,1.871-16.613a8.587,8.587,0,0,0,.047-.951c.012-.334.065-.7.462-.711s.474.35.479.691c0,.106,0,.211,0,.54" transform="translate(-17.508 -49.627)" fill="#3d667e"/>
        <path id="Trazado_108059" data-name="Trazado 108059" d="M62.57,180.183a14.771,14.771,0,0,1-1.363,5.338,51.1,51.1,0,0,1-3.8,6.674c-.208.312-.381.81-.893.491-.481-.3-.2-.706,0-1.04q1.3-2.221,2.625-4.428a17.507,17.507,0,0,0,2.48-7.364c.039-.394-.076-1,.533-.947.586.05.378.644.414,1.039.005.053,0,.106,0,.236" transform="translate(-15.229 -48.432)" fill="#3d667e"/>
        <path id="Trazado_108060" data-name="Trazado 108060" d="M70.287,163.813a14.789,14.789,0,0,1,.306-3.913,44.9,44.9,0,0,0,.667-5.582,10.657,10.657,0,0,0-.314-3.3,3.68,3.68,0,0,0-1.45-2.024c-.215-.149-.432-.393-.268-.669.187-.316.476-.13.7-.009,1.586.855,2,2.351,2.19,3.985.341,2.895-.3,5.68-.887,8.474-.174.827-.361,1.65-.543,2.476-.044.2-.047.429-.4.565" transform="translate(-18.725 -40.106)" fill="#3d667e"/>
        <path id="Trazado_108061" data-name="Trazado 108061" d="M76.187,180.43c-.128.323-.25.671-.4,1q-1.234,2.7-2.481,5.389c-.034.072-.069.143-.109.211-.181.308-.4.631-.8.432-.425-.209-.266-.57-.112-.89.586-1.211,1.185-2.415,1.76-3.631.429-.906.837-1.821,1.238-2.739.109-.252.273-.415.534-.369.282.05.3.326.376.591" transform="translate(-19.523 -48.683)" fill="#3d667e"/>
        <path id="Trazado_108062" data-name="Trazado 108062" d="M61.589,215.679a9.309,9.309,0,0,1,.147,2.008c-1.317.42-1.3,1.475-1.219,2.561.012.18.214.489-.095.51a2.032,2.032,0,0,1-.982-.238c-.238-.117,0-.318.066-.467.38-.81.8-1.6,1.144-2.428.283-.678.06-1.014-.669-1.039-.894-.031-1.79,0-2.686.005q0-.388,0-.777a19.853,19.853,0,0,1,4.294-.134" transform="translate(-15.511 -58.373)" fill="#faf6f4"/>
        <path id="Trazado_108063" data-name="Trazado 108063" d="M69.236,209.692c-.447-.172-1.159.278-1.222-.419s.688-.487,1.094-.561c1.3-.233,2.6-.4,3.907-.594.343-.051.737-.147.833.329s-.254.642-.656.7c-1.331.187-2.662.368-3.956.546" transform="translate(-18.412 -56.329)" fill="#3d667e"/>
        <path id="Trazado_108064" data-name="Trazado 108064" d="M78.383,169.078a.359.359,0,0,1-.457.4,1.163,1.163,0,0,1-.574-.233,30.407,30.407,0,0,1-2.981-2.955c-.172-.2-.454-.46-.113-.742.281-.233.565-.087.785.117,1.047.966,2.084,1.947,3.124,2.922a.606.606,0,0,1,.216.49" transform="translate(-20.059 -44.784)" fill="#3d667e"/>
        <path id="Trazado_108065" data-name="Trazado 108065" d="M47.343,207.118a.9.9,0,0,1,.338-.591,13.1,13.1,0,0,0,2.471-2.747c.175-.243.346-.629.73-.393.358.219.179.575.027.845a9.511,9.511,0,0,1-3.021,3.164.329.329,0,0,1-.545-.278" transform="translate(-12.816 -55.04)" fill="#3d667e"/>
        <path id="Trazado_108066" data-name="Trazado 108066" d="M49.124,154.653a14.389,14.389,0,0,0-.357,2.685.484.484,0,0,1-.491.519.49.49,0,0,1-.514-.5,8.024,8.024,0,0,1,.52-3.4c.064-.2.257-.411.48-.315.421.18.332.6.362,1.009" transform="translate(-12.921 -41.587)" fill="#3d667e"/>
        <path id="Trazado_108067" data-name="Trazado 108067" d="M53.127,155.567a1.236,1.236,0,0,1-.345.694c-.556.629-1.123,1.249-1.683,1.874-.206.23-.443.425-.746.218a.53.53,0,0,1-.063-.834c.645-.758,1.321-1.489,2.006-2.21a.563.563,0,0,1,.653-.146c.173.079.178.243.178.4" transform="translate(-13.567 -41.991)" fill="#3d667e"/>
        <path id="Trazado_108068" data-name="Trazado 108068" d="M17.2,108.8a48.636,48.636,0,0,1-.144,5.628c-.032.6.16.737.75.77,3.161.182,6.322.361,9.468.742.576.07,1.154.147,1.733.165.524.015.615.31.586.73-.039.593-.478.38-.772.346-3.566-.415-7.151-.6-10.724-.923a1.578,1.578,0,0,0-1.86,1.167,9.067,9.067,0,0,1-.662,1.171c-.282.513-.675.436-1.074.193-.5-.3-.089-.586.064-.848.266-.457.567-.893.842-1.344a.464.464,0,0,0,.048-.524c-.139-.195-.333-.095-.5-.028a8.183,8.183,0,0,1-3.285.384c-.409-.014-.807.008-.811-.6,0-.622.431-.5.772-.49a8.6,8.6,0,0,0,3.908-.881c.263-.121.428-.218.442-.551.178-4.436.457-8.873-.3-13.289a5.253,5.253,0,0,1-.035-.872c0-.242.007-.525.325-.54.271-.012.407.209.472.457a22.1,22.1,0,0,1,.607,3.665A39.553,39.553,0,0,1,17.2,108.8" transform="translate(-2.938 -26.857)" fill="#fbf1c9"/>
        <path id="Trazado_108069" data-name="Trazado 108069" d="M20.7,132.755c-2.064,0-4.133.09-6.19-.026-1.928-.109-3.854-.11-5.781-.155a2.8,2.8,0,0,1-2.967-2.142,13.775,13.775,0,0,1-.809-4.1,6.418,6.418,0,0,1-.067-.94c.022-.255.127-.551.465-.548.291,0,.382.237.42.49q.23,1.525.462,3.049a4.023,4.023,0,0,0,.1.462c.712,2.525.894,2.64,3.489,2.667,1.5.016,3.021.107,4.507.061,4.387-.138,8.778.058,13.159-.227.71-.046.669.372.758.807.12.589-.364.537-.642.545-1.322.04-2.645.028-3.969.031-.979,0-1.958,0-2.937,0Z" transform="translate(-1.321 -33.797)" fill="#fbf2cb"/>
        <path id="Trazado_108070" data-name="Trazado 108070" d="M39.3,113.472v.415c0,.379-.12.731-.536.745s-.553-.325-.58-.707c-.092-1.313-.2-2.625-.283-3.938a22.149,22.149,0,0,0-.82-5.212,2.584,2.584,0,0,0-.307-.634.485.485,0,0,1,.058-.705c.26-.238.5-.091.712.063a1.588,1.588,0,0,1,.5.792,17.388,17.388,0,0,1,.924,4.473c.159,1.545.224,3.1.334,4.708" transform="translate(-9.921 -27.968)" fill="#fbf1c9"/>
        <path id="Trazado_108071" data-name="Trazado 108071" d="M6.881,100.165c-.02,3.118-.57,6.208-.524,9.331,0,.249,0,.626-.347.6-.319-.026-.38-.371-.423-.679a26.327,26.327,0,0,1,.041-4.9c.071-1.582.2-3.161.277-4.743a6.606,6.606,0,0,1,.189-1.409c.065-.244.1-.575.472-.514.295.05.311.329.314.57.007.583,0,1.165,0,1.747" transform="translate(-1.483 -26.487)" fill="#fbf1c9"/>
        <path id="Trazado_108072" data-name="Trazado 108072" d="M52.26,130.7c-1.1-.09-1.869-.924-2.849-1.289a.221.221,0,0,1-.114-.33c.1-.172.265-.106.422-.057a14.8,14.8,0,0,1,2.579,1.362c-.012.1-.025.209-.038.314" transform="translate(-13.336 -34.914)" fill="#cf5738"/>
        <path id="Trazado_108073" data-name="Trazado 108073" d="M32.236,74.007c.081-.442.223-.863.764-.826s.642.481.648.923-.21.788-.692.783c-.547,0-.639-.45-.72-.881" transform="translate(-8.727 -19.811)" fill="#532f26"/>
        <path id="Trazado_108074" data-name="Trazado 108074" d="M68.455,136.729c-.126-.07-.342-.134-.179-.314.129-.141.273-.027.343.136l-.164.177" transform="translate(-18.467 -36.912)" fill="#fefefe"/>
        <path id="Trazado_108075" data-name="Trazado 108075" d="M66.572,137.115a.213.213,0,0,1-.261-.194c0-.017.031-.058.044-.056.153.017.192.13.208.259Z" transform="translate(-17.951 -37.051)" fill="#fbf1c9"/>
        <path id="Trazado_108076" data-name="Trazado 108076" d="M67.264,137.8c-.106,0-.149-.061-.16-.157l-.007.007.158.159Z" transform="translate(-18.164 -37.263)" fill="#fbf1c9"/>
        <path id="Trazado_108077" data-name="Trazado 108077" d="M66.657,137.217l.159.158.008-.007-.158-.159Z" transform="translate(-18.045 -37.144)" fill="#fbf1c9"/>
        <path id="Trazado_108078" data-name="Trazado 108078" d="M66.876,137.433l.161.162.007-.008-.16-.161-.008.007" transform="translate(-18.104 -37.203)" fill="#fbf1c9"/>
        <path id="Trazado_108079" data-name="Trazado 108079" d="M49.316,127.627a5.721,5.721,0,0,1,1.755.775c.125.084.283.214.191.386s-.284.136-.427.077c-.609-.249-1.211-.514-1.817-.771-.14-.06-.222-.153-.159-.3.1-.229.317-.121.457-.165" transform="translate(-13.221 -34.55)" fill="#cf5738"/>
        <path id="Trazado_108080" data-name="Trazado 108080" d="M201.2,74.923H147.348A18.327,18.327,0,0,1,129.02,56.6V18.328A18.328,18.328,0,0,1,147.348,0H201.2a18.327,18.327,0,0,1,18.327,18.328V56.6A18.327,18.327,0,0,1,201.2,74.923" transform="translate(-34.928)" fill="#dbbe36"/>
        <path id="Trazado_108081" data-name="Trazado 108081" d="M153.462,29.417h17.822a8.01,8.01,0,0,1,.936.023.979.979,0,0,1,.885.95.887.887,0,0,1-.718.96,3.545,3.545,0,0,1-1.109.13q-17.775,0-35.55,0a3.628,3.628,0,0,1-1.293-.158c-.435-.161-.831-.411-.812-.908a1,1,0,0,1,.988-.957,9.276,9.276,0,0,1,1.217-.04q8.817,0,17.634,0" transform="translate(-36.173 -7.963)" fill="#fff"/>
        <path id="Trazado_108082" data-name="Trazado 108082" d="M153.46,38.68h17.821a8.173,8.173,0,0,1,.936.023.98.98,0,0,1,.887.948.887.887,0,0,1-.716.962,3.543,3.543,0,0,1-1.109.131q-17.821,0-35.643,0a3.461,3.461,0,0,1-1.2-.159c-.437-.158-.832-.411-.814-.906a1.006,1.006,0,0,1,.986-.959,9.272,9.272,0,0,1,1.217-.04q8.817,0,17.635,0" transform="translate(-36.173 -10.471)" fill="#fff"/>
        <path id="Trazado_108083" data-name="Trazado 108083" d="M153.454,47.943h17.822a8.537,8.537,0,0,1,.937.022.979.979,0,0,1,.89.944.882.882,0,0,1-.71.965,3.5,3.5,0,0,1-1.109.133q-17.821,0-35.642,0a3.321,3.321,0,0,1-1.2-.158c-.464-.176-.884-.432-.813-.993a1.015,1.015,0,0,1,.974-.871,9.672,9.672,0,0,1,1.217-.041q8.817,0,17.634,0" transform="translate(-36.173 -12.979)" fill="#fff"/>
        <path id="Trazado_108084" data-name="Trazado 108084" d="M153.455,57.206h17.822a8.537,8.537,0,0,1,.937.022.979.979,0,0,1,.89.944.882.882,0,0,1-.711.964,3.5,3.5,0,0,1-1.109.132q-17.822,0-35.643,0a3.306,3.306,0,0,1-1.2-.158c-.463-.175-.883-.432-.812-.993a1.016,1.016,0,0,1,.974-.871,9.811,9.811,0,0,1,1.217-.04q8.817,0,17.634,0" transform="translate(-36.173 -15.486)" fill="#fff"/>
        <path id="Trazado_108085" data-name="Trazado 108085" d="M153.366,66.468h17.915a8.176,8.176,0,0,1,.936.023.98.98,0,0,1,.887.948.887.887,0,0,1-.715.962,3.548,3.548,0,0,1-1.11.131q-17.821,0-35.642,0a3.457,3.457,0,0,1-1.2-.159c-.438-.158-.833-.41-.815-.906a1,1,0,0,1,.987-.958,9.133,9.133,0,0,1,1.216-.041q8.77,0,17.541,0" transform="translate(-36.173 -17.994)" fill="#fff"/>
        <path id="Trazado_108086" data-name="Trazado 108086" d="M153.425,75.732q8.957,0,17.915,0a6.147,6.147,0,0,1,.936.033.972.972,0,0,1,.823.906.879.879,0,0,1-.684.982,3.363,3.363,0,0,1-1.107.142q-17.822,0-35.643,0a3.211,3.211,0,0,1-1.376-.214c-.373-.173-.729-.432-.669-.914a.938.938,0,0,1,.775-.842,7,7,0,0,1,1.3-.093q8.863-.008,17.727,0" transform="translate(-36.171 -20.501)" fill="#fff"/>
        <path id="Trazado_108087" data-name="Trazado 108087" d="M195.234,50.285c.168.123.169.246,0,.37-.187-.123-.187-.247,0-.37" transform="translate(-52.815 -13.613)" fill="#edbaa5"/>
        <path id="Trazado_108088" data-name="Trazado 108088" d="M233.695,47.369A22.109,22.109,0,1,1,211.586,25.26a22.109,22.109,0,0,1,22.109,22.109" transform="translate(-51.294 -6.838)" fill="#eaadd5"/>
        <path id="Trazado_108089" data-name="Trazado 108089" d="M217.158,47.416s12.426-8.3,19.724-13.11a22.09,22.09,0,0,0-15.428-8.872c-1.422,6.95-4.3,21.982-4.3,21.982" transform="translate(-58.788 -6.885)" fill="#fbf2d0"/>
        <path id="Trazado_108090" data-name="Trazado 108090" d="M140.939,134.816a127.763,127.763,0,0,1,.746,15.535c.089,8.285.184,16.569.19,24.855,0,3,.629,5.979.675,9a75.039,75.039,0,0,1-.079,8.677c-.053.524.031.821.675.72.8-.126,1.094.431,1.123,1.084a20.19,20.19,0,0,1-.09,2.317.89.89,0,0,1-.819.86c-.48.082-.964.141-1.445.21a87.279,87.279,0,0,1-9.64,0L130.816,198a1.591,1.591,0,0,1-1.647-1.607c-.115-1.92.113-2.252,2.022-2.577.532-.091.55-.338.557-.742a43.331,43.331,0,0,0-.71-8.125,54.078,54.078,0,0,1-.934-10.607,84.9,84.9,0,0,0-.755-9.419c-.422-5.03-1.031-10.036-1.727-15.031-.248-1.779-.706-3.528-1.071-5.306-.26.148-.252.4-.325.607a91.243,91.243,0,0,0-3.025,13.04c-.9,4.9-1.89,9.785-2.685,14.7a101.947,101.947,0,0,0-1.175,10.412,29.687,29.687,0,0,1-.614,4.247,25.647,25.647,0,0,0-.237,4.968c-.006.584.321.8.875.8a3.377,3.377,0,0,1,1.446.093c.7.316.925,1.084.729,2.1-.161.833-.5,1.365-1.472,1.3-.8-.05-1.6.015-2.4.03l-10.89-.176c-1.029-.065-2.059-.12-3.087-.2-.906-.069-1.211-.51-.955-1.386a12.179,12.179,0,0,1,.491-1.375c.121-.284.256-.7.551-.729,1.206-.106,1.049-1.1,1.073-1.777.095-2.617.714-5.161.959-7.754.321-3.391.707-6.778.967-10.174.3-3.943.858-7.853,1.294-11.779.732-6.58,2.091-13.062,2.957-19.618a56.9,56.9,0,0,1,1.389-6.895,10.178,10.178,0,0,1,1.454.008,27.01,27.01,0,0,0,4.446.309c3.375-.077,6.75.078,10.129-.128,3.282-.2,6.571-.306,9.856-.5a8.346,8.346,0,0,1,2.641.1m-20.731,15.636c-.007-.25-.041-.516-.341-.607-.343-.1-.543.094-.656.394-.07.187-.117.383-.173.576a30.278,30.278,0,0,1-3.322,7.989c-.181.285-.562.669-.094.957.416.256.648-.156.869-.465a20.335,20.335,0,0,0,2.6-5.212,32.774,32.774,0,0,0,1.117-3.631m13.73,43.976a13.226,13.226,0,0,0,3.005-.368c1.435-.268,2.862-.573,4.285-.895.367-.083.748-.3.642-.77-.115-.512-.522-.4-.906-.32-1.43.29-2.864.564-4.3.839a19.126,19.126,0,0,1-3.485.46c-.327,0-.665.11-.7.5s.271.536.619.553c.314.015.63,0,.832,0m.067-37.838a2.057,2.057,0,0,0,.443,1.018,15.66,15.66,0,0,0,5.494,4.578c.33.178.8.455,1.066-.026.294-.534-.24-.731-.584-.965-.141-.1-.3-.166-.447-.257a13.9,13.9,0,0,1-5.134-4.707c-.1-.174-.213-.4-.44-.332-.311.1-.377.4-.4.69M115.82,173.252c-.136-.327-.3-.787-.515-1.219a71.526,71.526,0,0,1-3.613-7.306c-.082-.22-.148-.44-.481-.3s-.436.286-.317.651c.993,3.041,2.83,5.682,4.08,8.6a.428.428,0,0,0,.56.273c.262-.091.306-.312.285-.7m-8.7,20.737c2.524.038,5-.475,7.515-.618.33-.019.655-.155.589-.573-.06-.379-.407-.36-.686-.344-3.081.174-6.131.785-9.235.637-.267-.013-.539.081-.562.406-.026.392.294.472.579.485.6.026,1.2.008,1.8.008m31.985-19.167c-.048-.369-.061-.769-.539-.858-.25-.047-.37.125-.391.349-.211,2.221-1.449,4-2.526,5.844-.332.567-.7,1.111-1.028,1.683-.174.308-.276.69.091.92.411.259.622-.1.8-.389a34.887,34.887,0,0,0,2.527-4.381,14.319,14.319,0,0,0,1.061-3.169M109.12,188.049c.458-.061.883-.11,1.305-.176,1.24-.192,2.48-.381,3.716-.593.313-.054.654-.19.585-.6-.079-.469-.448-.322-.75-.271-.619.1-1.237.211-1.856.31-.985.157-1.973.3-2.957.467-.329.057-.626.254-.578.624.036.283.344.236.535.238" transform="translate(-27.788 -36.455)" fill="#db6e5f"/>
        <path id="Trazado_108091" data-name="Trazado 108091" d="M141.567,117.109a8.35,8.35,0,0,0-2.641-.1c-3.284.192-6.573.3-9.855.5-3.38.206-6.754.051-10.129.128a27.009,27.009,0,0,1-4.446-.309,10.178,10.178,0,0,0-1.454-.008,10.291,10.291,0,0,1-1.084-.16,1.539,1.539,0,0,1-1.3-1.633,2.089,2.089,0,0,0-.144-1.076,24.154,24.154,0,0,1,.155-3.255c.215-2.507.242-5.038.588-7.525.611-4.388.792-8.827,1.634-13.184a.959.959,0,0,0,.7-1.478,2.247,2.247,0,0,0,.672-1.262,86.22,86.22,0,0,1,3.195-11.119c.128-.327.146-.636-.2-.823-.387-.211-.589.114-.758.362a6.916,6.916,0,0,0-.8,1.8c-.412,1.27-.818,2.543-1.262,3.93a9.948,9.948,0,0,1-1.039-1.913c-.125-.338-.228-.815-.739-.591-.422.185-.37.6-.213.971.337.79.663,1.585,1.038,2.356a3.272,3.272,0,0,1,.212,2.327,23.969,23.969,0,0,0-.78,3.687c-.612-.12-1.222-.251-1.837-.356-1.957-.335-3.959-.536-5.5-2.016a1.967,1.967,0,0,0-.623-.268c.781-3.261,2.631-5.976,4.363-8.772a10.693,10.693,0,0,1,4.292-4.171,5.6,5.6,0,0,0,.816-.611,7.567,7.567,0,0,0,1.7-.78,24.135,24.135,0,0,1,6.605-2.515,3.514,3.514,0,0,0,3.163,2.6,8.3,8.3,0,0,0,2.849-.332c.061,1.057.025,2.116.186,3.17.224,1.468.328,2.956.67,4.406.129.549.371.783.968.462.756-.406,1.548-.744,2.335-1.089,2.937-1.289,5.666-3,8.63-4.235a14.763,14.763,0,0,0,3.515,1.943l2.482,1.173a3.678,3.678,0,0,0-.159.75c-.009,3.487-.344,6.958-.525,10.437a14.671,14.671,0,0,1-4.979-1.212c-1.044-.349-1.057-.354-1.034.735a152.427,152.427,0,0,0,1.438,17.287c.142,1.049.323,2.1.39,3.152a42.072,42.072,0,0,0,.912,5.326c.446,2.3.209,2.686-2.015,3.281m-7.6-32.856v0c-1.232,0-2.466.01-3.7-.005-.4-.005-.651.068-.661.548-.031,1.459-.224,2.929-.109,4.374.191,2.4.542,3.071,2.966,3.807a8.247,8.247,0,0,0,3.3.252,2.459,2.459,0,0,0,2.456-2.193,39.5,39.5,0,0,0,.17-6.176c-.007-.5-.29-.613-.73-.608-1.232.015-2.466.005-3.7.005m6.8-3.567c-.068-.37-.067-.834-.552-.844-.405-.009-.521.373-.57.736-.109.818-.276,1.632-.325,2.453-.06,1-.039,2-.021,3a.689.689,0,0,0,.653.764c.353.02.505-.249.492-.569a29.26,29.26,0,0,1,.322-5.535" transform="translate(-28.415 -18.747)" fill="#53bced"/>
        <path id="Trazado_108092" data-name="Trazado 108092" d="M146.651,66.052c-2.964,1.234-5.692,2.946-8.63,4.234-.787.345-1.58.683-2.335,1.089-.6.321-.839.088-.968-.462-.342-1.451-.446-2.938-.67-4.407-.16-1.053-.125-2.113-.186-3.169q-.01-.737-.021-1.474c.059-2.575.135-5.149.165-7.725.007-.59.15-.823.79-.9a1.954,1.954,0,0,0,1.674-2.741c-.174-.462-.482-.877-.993-.791-1.033.175-1-.417-.85-1.077s-.154-.659-.641-.568a19.043,19.043,0,0,1-2.98.291c-1.748.048-3.488-.042-5.23-.144a2.872,2.872,0,0,0-.341-.042c-1.863-.012-1.608-.1-1.566-1.895a8.957,8.957,0,0,1,1.015-3.778c1.221-2.423,3.468-3.227,5.969-3.405a20.213,20.213,0,0,1,6.489.446,7.48,7.48,0,0,1,5.523,5.027c1.377,3.913,2.658,7.858,4.047,11.768a17.02,17.02,0,0,0,3.963,6.354,4.528,4.528,0,0,1,.333.393c.122.157.236.321.37.505-1.589.968-3.288,1.658-4.929,2.466" transform="translate(-33.524 -10.562)" fill="#512e25"/>
        <path id="Trazado_108093" data-name="Trazado 108093" d="M165.181,76.72a5.476,5.476,0,0,1,1.307.4c.834.5,1.339.246,1.939-.442,2.525-2.9,5.179-5.676,7.87-8.42.815-.831.594-1.825.424-2.751-.134-.726-.506-1.41.415-1.828.71-.322,1.256.047,1.718,1.091.034.077.074.152.142.292.87-.773,1.492-1.752,2.385-2.457.427-.338.836-.7,1.27-1.028a.749.749,0,0,1,.95-.116.814.814,0,0,1,.24,1.011,4.986,4.986,0,0,1-.982,1.6c-.363.434-.723.87-1.211,1.456a5.731,5.731,0,0,0,2.043-1c.663-.4,1.3-.842,1.951-1.259.43-.274.9-.5,1.311-.02a.944.944,0,0,1-.163,1.324c-.656.72-1.375,1.382-2.054,2.082-.21.217-.518.377-.546.78a1.83,1.83,0,0,0,1.324-.463,4.935,4.935,0,0,1,1.8-.778c.406-.073.767-.071.967.326.221.438-.01.771-.362,1.031a17,17,0,0,0-2.554,2.473,4.1,4.1,0,0,0,1.5-.224c.438-.09.887-.2,1.133.3.263.53-.141.783-.519,1.013a31.6,31.6,0,0,0-6.845,5.939c-2.5,2.755-4.963,5.554-7.544,8.237a30.962,30.962,0,0,1-2.45,2.158,1.894,1.894,0,0,1-1.722.23c-1.408-.292-2.742-.828-4.119-1.222-.2-3.26.425-6.488.383-9.743m19.681-7c-.019-.054-.034-.109-.058-.161a6.682,6.682,0,0,0-3.53-3.358c-.184-.08-.434-.174-.535.047-.119.26.173.308.34.391a6.817,6.817,0,0,1,2.714,2.321c.207.308.381.64.583.952a.281.281,0,0,0,.378.1.241.241,0,0,0,.108-.3m-15.827,11.7a5.513,5.513,0,0,0-.941-3.117c-.1-.141-.194-.321-.4-.237-.256.1-.211.334-.106.507a5.782,5.782,0,0,1,.824,3.113c0,.261.064.578.409.527.3-.046.2-.359.211-.576.005-.115,0-.23,0-.217m14.948-13.9-.036.046.058.009Z" transform="translate(-44.603 -16.604)" fill="#e28064"/>
        <path id="Trazado_108094" data-name="Trazado 108094" d="M112.912,98.053c-.842,4.357-1.023,8.8-1.634,13.184-.346,2.487-.373,5.017-.588,7.525a24.154,24.154,0,0,0-.155,3.255c-.5-.22-.694-.822-1.256-1-.37-.116-.512-.031-.424.319.341,1.356.146,2.787.619,4.133.215.612.529,1.329-.22,1.872-.113.082-.078.2-.033.309.273.645-.071,1.019-.58,1.32-.019-.14.012-.322-.065-.414-1.236-1.466-1.518-3.285-1.913-5.066a5.179,5.179,0,0,0-.5-1.923,2.064,2.064,0,0,0-.094.463c.26,2.272.481,4.558,1.973,6.452a.917.917,0,0,1,.271.61.661.661,0,0,1-.869-.117c.162-.634-.314-1.066-.525-1.575a30.153,30.153,0,0,1-1-3.132l-.358.767a17.083,17.083,0,0,1-.141-7.714,59.676,59.676,0,0,0,1.556-11.9,45.58,45.58,0,0,1,1.184-8.232l4.751.859M107.5,121.194c-.02.19-.048.381-.058.572a12.4,12.4,0,0,0,.835,5.017c.083.225.026.643.356.562.364-.089.194-.475.1-.723a11.053,11.053,0,0,1-.764-3.479,3.544,3.544,0,0,0-.47-1.95" transform="translate(-28.437 -26.312)" fill="#e17f64"/>
        <path id="Trazado_108095" data-name="Trazado 108095" d="M105.868,219.748l10.89.175a3.039,3.039,0,0,0,.225,1.427c.918,2.947-.093,4.521-2.7,5.214-3.454.919-6.82,2.06-10.214,3.145a4.946,4.946,0,0,1-3.428-.376,2.37,2.37,0,0,1-.311-4.1c.855-.619,1.753-1.178,2.632-1.765a.793.793,0,0,0,.593.982c.839.266,1.673.55,2.509.825.376.123.708.047.826-.348a.564.564,0,0,0-.459-.713c-1.159-.243-2.24-.854-3.474-.74a5.579,5.579,0,0,1,1.5-1.082,2.17,2.17,0,0,0,1.407-2.644m.866,2.333c-.455.015-.811-.063-.962.309a.45.45,0,0,0,.307.618c.923.174,1.784.545,2.685.781a.584.584,0,0,0,.672-.414.42.42,0,0,0-.317-.6,16.527,16.527,0,0,0-2.384-.7" transform="translate(-26.882 -59.489)" fill="#12263f"/>
        <path id="Trazado_108096" data-name="Trazado 108096" d="M143.229,221.6a86.908,86.908,0,0,0,9.639,0l.188.473c-1.193-.1-1.8.694-2.321,1.567-.177.3-.307.764.13.968.382.179.635-.153.785-.475a1.6,1.6,0,0,1,1.332-1.052c.511-.054.634-.41.563-.867a5.654,5.654,0,0,1,1.958.373c-1.051.335-1.286,1.275-1.577,2.159a.43.43,0,0,0,.29.552.443.443,0,0,0,.618-.29,3.675,3.675,0,0,1,.684-1.364.731.731,0,0,0,.065-1.067,33.376,33.376,0,0,1,4.282.781,1.524,1.524,0,0,1,1.113,1.1c.429,1.444-.188,3.855-2.553,3.821-2.056-.031-4.1.166-6.152.283a16.336,16.336,0,0,1-6.893-.982,3.269,3.269,0,0,1-2.208-3.932,16.063,16.063,0,0,0,.058-2.056m13.806,4.271c.084-.027.2-.028.239-.083a5.338,5.338,0,0,0,1.064-1.9.507.507,0,0,0-.313-.555c-.249-.109-.432.011-.564.233-.29.485-.619.95-.869,1.455-.212.427-.112.777.443.853" transform="translate(-38.742 -59.99)" fill="#12263f"/>
        <path id="Trazado_108097" data-name="Trazado 108097" d="M126.432,51.555c1.742.1,3.482.193,5.23.144a18.953,18.953,0,0,0,2.98-.29c.487-.091.79-.084.641.567s-.183,1.253.85,1.077c.51-.086.818.328.993.791a1.953,1.953,0,0,1-1.674,2.74c-.64.072-.783.306-.79.9-.03,2.575-.106,5.15-.164,7.725-1.914.733-3.676.8-4.984-1.134a4.631,4.631,0,0,0,.427-1.2c.059-.888.3-1.963-.58-2.517a6.955,6.955,0,0,1-2.62-3.495c-.593-1.409-.352-2.877-.475-4.32l-.008.015c.093-.034.105-.092.049-.169q.062-.414.125-.826m2.725,2.884h0c0-.314.009-.629,0-.943-.008-.229-.021-.5-.33-.5s-.314.271-.325.5c-.031.713-.057,1.425-.093,2.137-.021.421.013.833.467,1a1.049,1.049,0,0,0,1.091-.33c.151-.137.289-.312.171-.524a.321.321,0,0,0-.454-.1c-.6.3-.519-.133-.527-.473-.006-.257,0-.514,0-.772m.773,3.981a2.356,2.356,0,0,0,1.781-1.238c.144-.208.381-.435.112-.667-.33-.287-.535.055-.681.261a1.694,1.694,0,0,1-1.687.928c-.174-.024-.365.034-.386.245s.149.3.315.353c.187.058.386.084.546.117m1.052,1.34a1.187,1.187,0,0,0,.963-.785c.056-.208-.068-.46-.307-.358a1.694,1.694,0,0,0-1.036.778c-.087.207.1.355.38.365m-3.159-5.644c-.009-.306-.12-.541-.437-.522-.356.02-.44.3-.44.61s.1.591.476.544c.355-.045.386-.358.4-.632m3.5.34c.294-.045.475-.2.459-.513-.015-.3-.209-.387-.475-.351a.441.441,0,0,0-.415.464c-.012.292.152.411.43.4" transform="translate(-34.18 -13.906)" fill="#de7d61"/>
        <path id="Trazado_108098" data-name="Trazado 108098" d="M124.016,52.97c.123,1.443-.117,2.91.476,4.32a6.957,6.957,0,0,0,2.619,3.495c.877.554.64,1.629.581,2.517a4.685,4.685,0,0,1-.427,1.2,1.282,1.282,0,0,0-1.008.336,24.131,24.131,0,0,0-6.6,2.515,7.494,7.494,0,0,1-1.7.78,56.036,56.036,0,0,1,5.107-13.486c.3-.571.639-1.121.96-1.68" transform="translate(-31.93 -14.34)" fill="#532f27"/>
        <path id="Trazado_108099" data-name="Trazado 108099" d="M164.544,81.867c.042,3.256-.583,6.483-.383,9.743a2.116,2.116,0,0,1-1.756-.065c.181-3.478.516-6.949.525-10.436a3.682,3.682,0,0,1,.159-.751c1.183-.038,1.294.077,1.455,1.51" transform="translate(-43.965 -21.752)" fill="#0d66bf"/>
        <path id="Trazado_108100" data-name="Trazado 108100" d="M112.611,96.742l-4.751-.859a11.86,11.86,0,0,1-3.359-1.451,1.161,1.161,0,0,1,.184-2.081,1.984,1.984,0,0,1,.623.268c1.543,1.48,3.546,1.68,5.5,2.016.615.105,1.224.236,1.837.356a.84.84,0,0,0,.668.274.959.959,0,0,1-.7,1.478" transform="translate(-28.137 -25.001)" fill="#0d66bf"/>
        <path id="Trazado_108101" data-name="Trazado 108101" d="M156.315,222.392c.071.457-.051.813-.563.868a1.6,1.6,0,0,0-1.332,1.052c-.15.321-.4.653-.785.475-.436-.2-.307-.671-.13-.969.519-.873,1.127-1.669,2.321-1.567.176,0,.363-.031.49.142" transform="translate(-41.511 -60.164)" fill="#faeed0"/>
        <path id="Trazado_108102" data-name="Trazado 108102" d="M108.7,138.142a.924.924,0,0,0-.271-.61c-1.492-1.894-1.713-4.18-1.973-6.452a1.981,1.981,0,0,1,.094-.463,5.163,5.163,0,0,1,.5,1.923c.4,1.781.677,3.6,1.914,5.066.077.091.046.273.065.413l-.325.123" transform="translate(-28.818 -35.36)" fill="#d56446"/>
        <path id="Trazado_108103" data-name="Trazado 108103" d="M105.755,135.087l.359-.766a30.091,30.091,0,0,0,1,3.132c.211.508.687.939.525,1.575a2.842,2.842,0,0,1-1.251-1.741,8.484,8.484,0,0,1-.633-2.2" transform="translate(-28.629 -36.363)" fill="#d56446"/>
        <path id="Trazado_108104" data-name="Trazado 108104" d="M159.591,222.947a.731.731,0,0,1-.065,1.067,3.675,3.675,0,0,0-.684,1.364.443.443,0,0,1-.618.29.43.43,0,0,1-.289-.552c.29-.885.526-1.824,1.577-2.159l.08-.009" transform="translate(-42.749 -60.355)" fill="#faeed0"/>
        <path id="Trazado_108105" data-name="Trazado 108105" d="M126.306,52.758c.056.077.044.135-.049.169.017-.057.033-.113.049-.169" transform="translate(-34.18 -14.282)" fill="#532f27"/>
        <path id="Trazado_108106" data-name="Trazado 108106" d="M124.942,156.077a32.79,32.79,0,0,1-1.117,3.632,20.307,20.307,0,0,1-2.6,5.211c-.22.309-.453.721-.869.466-.468-.288-.088-.672.093-.958a30.271,30.271,0,0,0,3.323-7.989c.055-.193.1-.389.173-.576.112-.3.312-.5.656-.394.3.091.335.357.341.607" transform="translate(-32.521 -42.081)" fill="#f9ebc5"/>
        <path id="Trazado_108107" data-name="Trazado 108107" d="M145.015,215.714c-.2,0-.518.012-.832,0-.348-.017-.652-.151-.619-.553s.369-.5.7-.5a19.125,19.125,0,0,0,3.485-.46c1.434-.275,2.868-.55,4.3-.839.383-.077.79-.191.905.32.106.467-.276.687-.643.77-1.423.322-2.851.626-4.285.895a13.226,13.226,0,0,1-3.005.368" transform="translate(-38.864 -57.741)" fill="#f9ebc5"/>
        <path id="Trazado_108108" data-name="Trazado 108108" d="M145.647,164.469c.022-.29.088-.591.4-.69.227-.071.341.158.44.332a13.9,13.9,0,0,0,5.134,4.707c.146.09.306.16.447.256.344.234.877.432.584.965-.264.481-.736.2-1.066.026a15.676,15.676,0,0,1-5.494-4.578,2.059,2.059,0,0,1-.443-1.018" transform="translate(-39.429 -44.334)" fill="#f9ebc5"/>
        <path id="Trazado_108109" data-name="Trazado 108109" d="M118.866,184.285c.021.385-.023.606-.285.7a.428.428,0,0,1-.56-.273c-1.25-2.919-3.087-5.559-4.08-8.6-.119-.365,0-.519.317-.651s.4.082.481.3a71.526,71.526,0,0,0,3.613,7.306c.218.432.379.893.515,1.219" transform="translate(-30.833 -47.487)" fill="#f9ebc5"/>
        <path id="Trazado_108110" data-name="Trazado 108110" d="M107.9,215.439c-.6,0-1.2.019-1.8-.008-.285-.013-.605-.093-.579-.485.023-.325.295-.419.562-.406,3.1.149,6.154-.463,9.235-.637.279-.015.626-.035.686.344.066.418-.258.554-.589.573-2.512.144-4.991.656-7.515.618" transform="translate(-28.566 -57.905)" fill="#f9ebc5"/>
        <path id="Trazado_108111" data-name="Trazado 108111" d="M150.92,189.409a14.394,14.394,0,0,1-1.061,3.169,34.831,34.831,0,0,1-2.528,4.38c-.182.292-.393.648-.8.389-.367-.231-.265-.613-.092-.92.324-.572.7-1.116,1.028-1.684,1.077-1.845,2.315-3.622,2.526-5.844.021-.223.141-.4.391-.349.478.09.491.489.54.859" transform="translate(-39.6 -51.041)" fill="#f9ebc5"/>
        <path id="Trazado_108112" data-name="Trazado 108112" d="M111.323,207.234c-.19,0-.5.044-.535-.238-.047-.37.249-.567.578-.624.983-.17,1.971-.31,2.957-.467.619-.1,1.237-.207,1.856-.31.3-.05.671-.2.75.271.069.41-.272.546-.585.6-1.236.212-2.476.4-3.716.593-.422.066-.847.114-1.305.176" transform="translate(-29.991 -55.641)" fill="#f9ebc5"/>
        <path id="Trazado_108113" data-name="Trazado 108113" d="M143.067,89.817c1.232,0,2.466.01,3.7-.005.441-.006.723.109.73.607a39.5,39.5,0,0,1-.17,6.176,2.459,2.459,0,0,1-2.455,2.194,8.247,8.247,0,0,1-3.3-.252c-2.424-.737-2.775-1.408-2.966-3.807-.115-1.445.078-2.915.109-4.374.01-.481.258-.554.661-.549,1.232.016,2.466.006,3.7.006Z" transform="translate(-37.511 -24.312)" fill="#0d66bf"/>
        <path id="Trazado_108114" data-name="Trazado 108114" d="M116.333,91.42a.839.839,0,0,1-.668-.273,23.968,23.968,0,0,1,.779-3.687,3.268,3.268,0,0,0-.211-2.327c-.376-.772-.7-1.567-1.039-2.356-.157-.368-.208-.786.214-.971.51-.225.613.252.739.591a10,10,0,0,0,1.038,1.913c.446-1.388.85-2.66,1.262-3.931a6.935,6.935,0,0,1,.8-1.8c.169-.248.37-.573.757-.362.342.187.324.5.2.823a86.254,86.254,0,0,0-3.194,11.118,2.247,2.247,0,0,1-.672,1.261" transform="translate(-31.154 -21.156)" fill="#f0eecf"/>
        <path id="Trazado_108115" data-name="Trazado 108115" d="M129.34,69.125a1.279,1.279,0,0,1,1.008-.337c1.307,1.932,3.069,1.867,4.983,1.134q.01.737.021,1.474a8.3,8.3,0,0,1-2.849.332,3.515,3.515,0,0,1-3.163-2.6" transform="translate(-35.014 -18.622)" fill="#0d66bf"/>
        <path id="Trazado_108116" data-name="Trazado 108116" d="M153.51,84.617a29.259,29.259,0,0,0-.322,5.535c.013.319-.139.589-.492.569a.689.689,0,0,1-.653-.764c-.017-1-.039-2,.021-3,.05-.821.216-1.636.325-2.453.048-.362.164-.745.57-.736.485.01.484.474.552.844" transform="translate(-41.155 -22.679)" fill="#f0eecf"/>
        <path id="Trazado_108117" data-name="Trazado 108117" d="M190.782,71.485a.239.239,0,0,1-.108.3.281.281,0,0,1-.377-.1c-.2-.311-.376-.643-.584-.952A6.811,6.811,0,0,0,187,68.4c-.166-.082-.458-.131-.34-.391.1-.221.352-.128.535-.047a6.686,6.686,0,0,1,3.53,3.358c.024.052.039.107.058.161" transform="translate(-50.524 -18.375)" fill="#66382d"/>
        <path id="Trazado_108118" data-name="Trazado 108118" d="M170.054,87.619c0-.012,0,.1,0,.217-.01.217.09.531-.212.576-.346.052-.411-.265-.409-.526a5.8,5.8,0,0,0-.824-3.114c-.1-.172-.151-.4.106-.507.2-.084.3.1.4.238a5.518,5.518,0,0,1,.941,3.116" transform="translate(-45.622 -22.806)" fill="#66382d"/>
        <path id="Trazado_108119" data-name="Trazado 108119" d="M191.105,69.808l.021.055-.058-.009Z" transform="translate(-51.725 -18.898)" fill="#fefefe"/>
        <path id="Trazado_108120" data-name="Trazado 108120" d="M108.384,130.1a3.544,3.544,0,0,1,.47,1.95,11.052,11.052,0,0,0,.764,3.479c.093.248.263.634-.1.723-.33.081-.273-.338-.356-.562a12.4,12.4,0,0,1-.835-5.018c.01-.192.039-.382.058-.572" transform="translate(-29.321 -35.221)" fill="#d56446"/>
        <path id="Trazado_108121" data-name="Trazado 108121" d="M104.314,224.853c1.233-.114,2.315.5,3.474.741a.563.563,0,0,1,.459.713c-.118.4-.45.472-.826.348-.836-.275-1.671-.558-2.51-.824a.794.794,0,0,1-.592-.982Z" transform="translate(-28.237 -60.867)" fill="#faeed0"/>
        <path id="Trazado_108122" data-name="Trazado 108122" d="M109.122,222.947a16.527,16.527,0,0,1,2.384.7.42.42,0,0,1,.317.6.584.584,0,0,1-.672.414c-.9-.236-1.761-.607-2.685-.781a.45.45,0,0,1-.307-.618c.151-.372.507-.294.962-.308" transform="translate(-29.271 -60.355)" fill="#faeed0"/>
        <path id="Trazado_108123" data-name="Trazado 108123" d="M162,226.5c-.555-.075-.656-.425-.443-.853.25-.5.579-.97.869-1.455.133-.222.316-.342.564-.233a.507.507,0,0,1,.313.555,5.338,5.338,0,0,1-1.064,1.9c-.043.055-.155.056-.239.083" transform="translate(-43.708 -60.617)" fill="#faeed0"/>
        <path id="Trazado_108124" data-name="Trazado 108124" d="M129.954,55.042c0,.257,0,.514,0,.772.007.339-.07.774.527.473a.322.322,0,0,1,.454.1c.117.212-.02.387-.171.524a1.05,1.05,0,0,1-1.091.33c-.455-.168-.489-.58-.467-1,.036-.712.062-1.424.093-2.137.01-.233.015-.5.325-.5s.322.273.33.5c.012.314,0,.629,0,.943Z" transform="translate(-34.977 -14.509)" fill="#66382d"/>
        <path id="Trazado_108125" data-name="Trazado 108125" d="M130.973,60.29a5.185,5.185,0,0,1-.545-.117c-.166-.052-.335-.152-.315-.352s.211-.27.386-.246a1.693,1.693,0,0,0,1.687-.928c.146-.206.35-.548.681-.262.268.233.031.46-.112.667a2.355,2.355,0,0,1-1.781,1.238" transform="translate(-35.223 -15.776)" fill="#66382d"/>
        <path id="Trazado_108126" data-name="Trazado 108126" d="M132.586,62.442c-.277-.01-.467-.157-.381-.365a1.693,1.693,0,0,1,1.036-.777c.239-.1.363.149.307.357a1.19,1.19,0,0,1-.963.785" transform="translate(-35.784 -16.588)" fill="#66382d"/>
        <path id="Trazado_108127" data-name="Trazado 108127" d="M128.078,54.942c-.015.274-.046.588-.4.632-.373.047-.476-.229-.476-.544s.085-.59.44-.61c.317-.018.428.217.437.522" transform="translate(-34.435 -14.732)" fill="#66382d"/>
        <path id="Trazado_108128" data-name="Trazado 108128" d="M133.048,55.278c-.278.01-.442-.108-.43-.4a.442.442,0,0,1,.415-.464c.266-.035.46.055.475.351a.463.463,0,0,1-.459.513" transform="translate(-35.901 -14.729)" fill="#532f27"/>
        <path id="Trazado_108129" data-name="Trazado 108129" d="M234.324,211.352a20.817,20.817,0,0,1,.02,3.331c-.059.387-.129.535-.54.377-.436-.168-1.011-.159-1.311-.449-.323-.312-.015-.884-.041-1.346-.345-6.156-.176-12.318-.094-18.474a123.735,123.735,0,0,1,.786-14.292,24.113,24.113,0,0,1,1.237-6.453c.124-.293.055-.413-.264-.524-1.811-.625-1.9-.588-2.022,1.308-.176,2.693-.121,5.387-.105,8.083.023,3.732-.175,7.465-.289,11.2q-.092,2.967-.222,5.933c-.2,4.4-.349,8.8-.288,13.2.014,1-.088,1.016-1.057.8a1.193,1.193,0,0,1-1.1-1.392c0-4.454.147-8.9.346-13.351.136-3.014.122-6.038.321-9.047.3-4.6.138-9.2.252-13.8a17.933,17.933,0,0,1,.54-4.186,10.846,10.846,0,0,0-.033-2.576,3.371,3.371,0,0,1,1.634-2.749,6.266,6.266,0,0,1,2.674-1.012,60.389,60.389,0,0,1,8.589-.381c1.879-.058,3.76-.042,5.641-.057a9.47,9.47,0,0,1,2.639.354,3.236,3.236,0,0,1,2.533,3.317c.009.445.045.889.071,1.334a2.109,2.109,0,0,1-2.022,2.573c-.65.106-.679.268-.316.748,1.342,1.777,1.614,3.9,1.89,6.014.451,3.457,1.04,6.895,1.326,10.373.356,4.34.624,8.684.7,13.038.067,3.908.151,7.816.052,11.726-.02.793-.277.952-.973.92-1.349-.062-1.211.255-1.157-1.159.2-5.247-.016-10.489-.189-15.731a146.388,146.388,0,0,0-1.7-17.564c-.219-1.417-.341-2.849-.675-4.248a8.469,8.469,0,0,0-1.6-3.395.738.738,0,0,0-.749-.339c-1.152.157-2.306.29-3.462.415-.355.039-.544.1-.414.541a33.716,33.716,0,0,1,1.282,8.114c.117,2.6.447,5.173.664,7.76.281,3.354.33,6.72.314,10.085-.017,3.538.323,7.067.267,10.608-.02,1.277.2,2.559.2,3.848,0,.594-.19.7-.744.592-1.42-.278-1.42-.255-1.5-1.685-.314-5.829-.449-11.663-.5-17.5a102.026,102.026,0,0,0-.683-10.284c-.21-1.917-.121-3.857-.359-5.775a47.222,47.222,0,0,0-.9-5.487.785.785,0,0,0-.913-.7q-2.3-.013-4.6-.167a.907.907,0,0,0-1.023.607,14.743,14.743,0,0,0-1.121,4.743,177.648,177.648,0,0,0-.95,19.853c0,1.014-.094,9.228-.076,12.321m6.414-39.78a37.784,37.784,0,0,0,10.253-1.377,13.231,13.231,0,0,0,1.462-.527c.241-.1.423-.3.3-.59s-.373-.3-.633-.226c-.142.038-.279.1-.419.147a30.335,30.335,0,0,1-7.022,1.461,41.4,41.4,0,0,1-12.245-.647,1.361,1.361,0,0,0-.8.009.447.447,0,0,0-.342.433c0,.253.195.295.4.342a42.335,42.335,0,0,0,9.045.974" transform="translate(-62.003 -44.804)" fill="#355b69"/>
        <path id="Trazado_108130" data-name="Trazado 108130" d="M241.576,172.8a42.337,42.337,0,0,1-9.045-.974c-.208-.048-.4-.089-.4-.343a.447.447,0,0,1,.342-.432,1.361,1.361,0,0,1,.8-.009,41.406,41.406,0,0,0,12.245.647,30.371,30.371,0,0,0,7.022-1.461c.141-.046.277-.109.419-.147.26-.07.516-.051.633.225s-.06.491-.3.59a13.1,13.1,0,0,1-1.462.527,37.816,37.816,0,0,1-10.253,1.377" transform="translate(-62.841 -46.035)" fill="#d7dac0"/>
        <path id="Trazado_108131" data-name="Trazado 108131" d="M200.709,207.113c-.572.061-1.145.125-1.718.18a.939.939,0,0,1-1.074-.54.8.8,0,0,1,.361-1.052c.683-.391.546-.863.356-1.46-1.707-5.364-3.653-10.642-5.655-15.9a28.617,28.617,0,0,1-1.488-5.416,2.761,2.761,0,0,0-.513-1.388c-.543,1.017-1.036,1.946-1.534,2.872a175.743,175.743,0,0,0-7.473,16,43.778,43.778,0,0,1-2.425,4.885c-.354.624-.7,1.2.093,1.789a.685.685,0,0,1,.112.949.883.883,0,0,1-.958.451c-.5-.112-.994-.288-1.49-.437a3.009,3.009,0,0,0-1.043-.376,2.172,2.172,0,0,0-.987-.346,3.472,3.472,0,0,0-1.387-.332,1.145,1.145,0,0,0-.918-.369,1.115,1.115,0,0,0-.882-.36,1.05,1.05,0,0,0-1-.326,1.3,1.3,0,0,0-1.087-.527,16.936,16.936,0,0,1-2.846-1.759c-.26-.269-.639-.45-.579-.893.063-.462.432-.581.827-.61.292-.021.362-.243.479-.438a48.948,48.948,0,0,0,3.129-6.745c2.686-6.614,4.476-13.534,7-20.2.859-2.269,1.7-4.54,2.461-6.845,1.4-4.255,4.578-6.976,8.188-9.293,3.91-2.51,8.357-3.39,12.831-4.209,2.895-.53,5.782-1.1,8.712-1.4a1.534,1.534,0,0,0,1.51,1.493c.716.067,1.429.2,2.146.218a52.77,52.77,0,0,0,10.373-1.119c1.758-.3,3.511-.627,5.267-.942a31.963,31.963,0,0,0-.187,3.354A2.219,2.219,0,0,0,230.506,158a5.005,5.005,0,0,0,4.4.208,7.2,7.2,0,0,1-1.834,4.479,5.953,5.953,0,0,1-3.222,1.561,103.007,103.007,0,0,1-11.591,2.384c-3.764.541-7.5,1.284-11.289,1.65-1.231.12-2.45.363-3.677.537-.463.066-.707.157-.56.761,1.416,5.858,2.186,11.847,3.522,17.722,1.2,5.258,1.78,10.632,3.069,15.871.143.582.33.913.991.936a.907.907,0,0,1,.989.888c.027.632-.4.786-.915.949a6.478,6.478,0,0,1-1.707.154,3.249,3.249,0,0,0-1.41.173l-.883.012a2.645,2.645,0,0,0-1.165.164l-.907.009a3.555,3.555,0,0,0-1.18.17,1.548,1.548,0,0,0-.9.176,4.4,4.4,0,0,0-1.532.31M195.7,158.969c-.147.066-.337.136-.514.23a8.045,8.045,0,0,0-2.684,2.285,16.347,16.347,0,0,0-3.156,12.26,14.923,14.923,0,0,0,.936,4.12c.124.288.272.653.679.489.365-.149.209-.484.121-.753a20.69,20.69,0,0,1-.819-6.758,13.66,13.66,0,0,1,5.332-10.968,4.606,4.606,0,0,0,.4-.334c.1-.1.2-.226.119-.381s-.215-.18-.41-.188m-14.667,28.074a1.919,1.919,0,0,0,.478-.112,30.045,30.045,0,0,0,7.01-4.378,2.149,2.149,0,0,0,.731-1.051c.058-.22.079-.473-.19-.6-.228-.108-.378.038-.522.187a24.855,24.855,0,0,1-7.758,5.066c-.26.12-.606.2-.508.576.075.287.382.308.761.311m-4.581,2.652c0-.461.009-.836,0-1.211-.011-.339.038-.809-.42-.812-.388,0-.37.454-.4.758-.361,3.269.872,6.108,2.4,8.867a.831.831,0,0,0,.1.139c.173.2.354.424.651.245s.213-.44.085-.684c-.08-.152-.2-.288-.268-.444-1.016-2.221-2.315-4.355-2.146-6.857m24.1-31.124a.84.84,0,0,0,.82.044q4.765-1.431,9.526-2.876a1.063,1.063,0,0,0,.238-.1c.189-.114.477-.191.354-.492-.09-.221-.327-.2-.533-.158-.141.028-.282.062-.421.1a81.257,81.257,0,0,0-8.656,2.737,3.593,3.593,0,0,0-1.329.745m4.778,29.932c.039-.207.068-.439-.193-.5-.314-.068-.473.178-.583.416q-1.369,2.986-2.719,5.982c-.136.3-.2.649.179.82s.6-.123.739-.413c.441-.906.885-1.814,1.28-2.741a20.23,20.23,0,0,0,1.3-3.569m-4.622,3.529c-.036-.29-.247-.412-.514-.481a3.726,3.726,0,0,1-2.112-1.4c-.135-.182-.308-.445-.547-.292s-.165.478-.034.7a3.987,3.987,0,0,0,2.611,1.826.427.427,0,0,0,.6-.349" transform="translate(-45.094 -41.329)" fill="#dbbe36"/>
        <path id="Trazado_108132" data-name="Trazado 108132" d="M242.691,135.813c-1.756.315-3.51.64-5.268.942a52.761,52.761,0,0,1-10.373,1.119c-.717-.02-1.431-.151-2.147-.218a1.534,1.534,0,0,1-1.51-1.493c.182-4.5,1.074-8.918,1.567-13.381.166-1.5.066-1.88-1.328-2.493A52.233,52.233,0,0,0,217,118.082c-1.906-.55-1.911-.532-1.453-2.463q.628-3.082,1.257-6.165c.6-1.968.588-1.895,2.736-1.618,2.088.268,4.172.551,6.245.91.456.079.6-.139.754-.49.768-1.778,1.294-3.639,1.882-5.478.7-2.2,1.463-4.371,2.248-6.54.175-.485.548-.627.9-.851a22.424,22.424,0,0,0,5.6-3.215,4.1,4.1,0,0,0,1.232-1.434,3.155,3.155,0,0,1,4.061,1.109,17.806,17.806,0,0,1,3.872,8.749,25.045,25.045,0,0,0,1.148,5.055c.734,2.134.88,4.409,1.531,6.567a46.43,46.43,0,0,1,1.736,6.7c.591,4.074,2,8.021,1.856,12.21a2.131,2.131,0,0,1-1.171,2.038,11.228,11.228,0,0,1-2.7,1.152q-3,.852-6.049,1.494m-.006-30.117a2.466,2.466,0,0,0-.837,1.607c-.61,2.315-1.06,4.671-1.894,6.928-1.742,4.718-5.1,7.115-10.112,7.2a14.05,14.05,0,0,0-2.506.123c-.264.053-.555.12-.493.468.05.284.319.278.559.273,1.154-.02,2.31,0,3.463-.056a10.384,10.384,0,0,0,9.255-6.127,25.068,25.068,0,0,0,2.082-6.676,18.345,18.345,0,0,0,.483-3.738m-8.676-5.89c-.005-.32.007-.627-.322-.678-.291-.046-.363.233-.424.455a53.1,53.1,0,0,1-3.147,7.31c-.111.249-.39.551-.046.758.317.19.505-.149.676-.374a2.267,2.267,0,0,0,.219-.373c.67-1.376,1.366-2.74,1.995-4.135a15.712,15.712,0,0,0,1.049-2.963m-4.267,13.734c.388-.117.3-.4.2-.683a16.756,16.756,0,0,0-1.37-2.789c-.111-.19-.255-.467-.522-.292-.217.144-.141.425-.034.635a23.931,23.931,0,0,1,1.326,2.811.437.437,0,0,0,.4.317m-2.817-2.928c0-.338.029-.642-.3-.706-.29-.055-.365.209-.451.429-.244.617-.5,1.23-.746,1.845-.093.229-.13.462.109.62s.457.024.586-.182a5.608,5.608,0,0,0,.807-2.006m15.281-11.535a5.911,5.911,0,0,0-.508-2.166.436.436,0,0,0-.575-.239c-.2.085-.219.241-.082.409a3.865,3.865,0,0,1,.551,2.033c.041.26-.017.672.4.607.328-.05.2-.412.214-.644" transform="translate(-58.283 -24.476)" fill="#0d66bf"/>
        <path id="Trazado_108133" data-name="Trazado 108133" d="M241.436,86.157A4.105,4.105,0,0,1,240.2,87.59a22.41,22.41,0,0,1-5.6,3.215c0-.66,0-1.32.007-1.979.009-.6-.287-.748-.82-.6a5.894,5.894,0,0,1-1.926.381A2.14,2.14,0,0,1,230,87.556a8.742,8.742,0,0,1-1.09-3.026,1.454,1.454,0,0,0,1.317.093,4.812,4.812,0,0,0,2.862-2.453c.17-.314.5-.688.028-.966-.454-.268-.668.143-.842.476a4.145,4.145,0,0,1-2.83,2.194.67.67,0,0,0-.556.567,1.161,1.161,0,0,1-.146-.389c0-.816-.174-1.356-1.207-1.226-.641.08-.973-.413-1.033-1.036a1.759,1.759,0,0,1,.294-1.24c1.32-1.7,1.427-3.714,1.584-5.726.028-.37.12-.735.182-1.1.594-.236,1.178-.527,1.465.422.1.317.47.384.8.407a4.494,4.494,0,0,0,1.954-.271c.459-.179.785-.289.89.376a.63.63,0,0,0,.58.465c.877.036.714.532.588,1.111-.113.517-.311,1.172.211,1.525.551.373.924-.222,1.327-.515.023-.017.045-.038.069-.052.195-.109.4-.357.613-.2.233.166.049.447-.037.633-.314.678-.707,1.32-1,2.006a2.554,2.554,0,0,0,.815,3.09,2.083,2.083,0,0,0,2.928-.379c-.1,1.561.16,2.962,1.665,3.823M229.4,76.775c-.5.105-.632.505-.665.95-.022.323.147.591.494.567.517-.036.723-.4.734-.887.008-.357-.131-.61-.562-.63" transform="translate(-61.316 -19.894)" fill="#e07e63"/>
        <path id="Trazado_108134" data-name="Trazado 108134" d="M239.441,80.094a2.084,2.084,0,0,1-2.928.379,2.554,2.554,0,0,1-.816-3.09c.294-.686.687-1.329,1-2.006.086-.186.27-.467.037-.632-.216-.154-.418.095-.613.2a.815.815,0,0,0-.069.052c-.4.293-.776.888-1.328.516-.521-.353-.323-1.009-.21-1.526.127-.58.29-1.074-.588-1.111a.631.631,0,0,1-.58-.465c-.105-.664-.43-.555-.89-.376a4.467,4.467,0,0,1-1.953.271c-.334-.023-.707-.09-.8-.407-.287-.948-.87-.658-1.464-.421-.4.031-.8.058-1.2.1a1.6,1.6,0,0,1-1.653-.886,1.461,1.461,0,0,1,.432-1.579,6.826,6.826,0,0,1,5.643-2.652,1.279,1.279,0,0,0,.852-.307c2.911-1.949,6.112-.7,7.789,2.124a6.363,6.363,0,0,1,.8,3.3c.039,2.423.2,4.85-.71,7.18a2.887,2.887,0,0,1-.746,1.338" transform="translate(-60.985 -17.654)" fill="#532f26"/>
        <path id="Trazado_108135" data-name="Trazado 108135" d="M161.658,228.375a3.709,3.709,0,0,1,1.989.742,17.221,17.221,0,0,0,.134,3.444.6.6,0,0,0,.519.609.5.5,0,0,0,.61-.373,6.77,6.77,0,0,0-.338-3.547c-.044-.12-.285-.167-.435-.248-.008-.747.008-1.5-.031-2.24-.037-.714.3-.928.95-.832a16.629,16.629,0,0,0,2.184.452l1.3.2.942.156.789.278c.684.594.389,1.217.042,1.831-.22.39-.484.757-.7,1.15-.182.333-.236.656.273.755a1.549,1.549,0,0,0,1.271.382,1.358,1.358,0,0,0,1.109.007l1.044-.011c.65-.082.775.232.687.815a12.392,12.392,0,0,1-1.347,3.544,1.327,1.327,0,0,1-1.34.63,20.89,20.89,0,0,1-6.992-1.451,37.776,37.776,0,0,0-4.2-1.336c-1.142-.275-2.272-.735-2.456-2.21a3.663,3.663,0,0,1,1.412-3.007c.274.37.126.837.282,1.235.108.273.228.565.585.505a.587.587,0,0,0,.485-.7c-.032-.424-.1-.845-.158-1.268a1.577,1.577,0,0,1,1.287.457c-.214.131-.572.193-.531.5a9.652,9.652,0,0,1,.005,2.388.49.49,0,0,0,.411.5c.261.062.426-.114.556-.319a2.709,2.709,0,0,0-.336-3.032" transform="translate(-42.677 -61.156)" fill="#69b7ea"/>
        <path id="Trazado_108136" data-name="Trazado 108136" d="M213.134,114.809q-.629,3.083-1.257,6.165c-1.93,0-3.741.685-5.62.982-.086.014-.17.04-.256.048-.658.061-1.432.265-1.742-.535-.334-.861.388-1.217,1-1.57a4.493,4.493,0,0,0,.435-.284.406.406,0,0,0,.192-.446c-.061-.211-.262-.187-.43-.21-.743-.1-1.489-.187-2.229-.309-.478-.079-.944-.266-.9-.858.042-.562.494-.763.987-.786.68-.033,1.362-.008,2.055-.08-.617-.462-1.388-.378-2.064-.611-.3-.1-.618-.153-.913-.266a.86.86,0,0,1,.269-1.69,18.548,18.548,0,0,1,3.264.37c.244.032.562.213.7-.087.149-.328-.229-.41-.419-.55-.489-.359-.994-.7-1.491-1.044-.361-.253-.613-.572-.38-1.022a.732.732,0,0,1,1.1-.315,12.97,12.97,0,0,0,3.369,1.071c.439.109.6.1.457-.407a3.061,3.061,0,0,1-.02-1.378.848.848,0,0,1,.78-.8c.447-.026.673.288.755.694a11.418,11.418,0,0,0,1.755,3.458,1.113,1.113,0,0,0,.6.462" transform="translate(-54.617 -29.831)" fill="#e28166"/>
        <path id="Trazado_108137" data-name="Trazado 108137" d="M211.145,234.925a11.61,11.61,0,0,0-1.493-2.5c-.5-.824,1.619-1.857,2.146-2.157a3.791,3.791,0,0,0,1.652-.8,2.015,2.015,0,0,0,.89-.415,1.823,1.823,0,0,1,1.022.17,2.144,2.144,0,0,1,.273,1.05v2.961a1.493,1.493,0,0,0,.817-.473,2.035,2.035,0,0,0,.729-.586,1.472,1.472,0,0,0,.847-.747l.836-.647,1.216-.015a2.561,2.561,0,0,1,.475,4.007,8.823,8.823,0,0,1-3.941,2.549,54.163,54.163,0,0,1-8.247,2.526c-.755.174-1.591.3-2.048-.6a2,2,0,0,1,.719-2.439,5.972,5.972,0,0,1,2.218-.906c.138.708.935.912,1.179,1.55.118.31.362.58.737.338.348-.225.256-.582.069-.844-.333-.466-.724-.89-1.091-1.332.209-.329.562-.335.891-.4.684.487,1.591.623,2.116,1.375.1.144.38.123.555-.012a.445.445,0,0,0,.116-.546,2.5,2.5,0,0,0-2.682-1.116m-1.692,3.593c.333-.068.486-.323.328-.618a2.632,2.632,0,0,0-1.4-1.2.377.377,0,0,0-.546.355,4.785,4.785,0,0,0,1.614,1.459" transform="translate(-55.805 -62.004)" fill="#69b7eb"/>
        <path id="Trazado_108138" data-name="Trazado 108138" d="M252.786,152.111q3.05-.645,6.049-1.494a45.576,45.576,0,0,1-.161,5.281,4.729,4.729,0,0,1-.347,1.424l-.111.256-.022.074a5.006,5.006,0,0,1-4.4-.208,2.22,2.22,0,0,1-1.192-1.979,31.951,31.951,0,0,1,.187-3.353" transform="translate(-68.379 -40.774)" fill="#e07226"/>
        <path id="Trazado_108139" data-name="Trazado 108139" d="M229.782,87.273a.673.673,0,0,1,.556-.567,4.143,4.143,0,0,0,2.83-2.194c.174-.333.388-.744.842-.476.47.278.142.652-.028.966a4.811,4.811,0,0,1-2.863,2.453,1.452,1.452,0,0,1-1.316-.093.19.19,0,0,1-.021-.089" transform="translate(-62.205 -22.726)" fill="#5d3329"/>
        <path id="Trazado_108140" data-name="Trazado 108140" d="M224.477,229.929l-1.216.015-.875-3.838a3.24,3.24,0,0,1,1.41-.173q.34,2,.681,4" transform="translate(-60.203 -61.163)" fill="#f9edc8"/>
        <path id="Trazado_108141" data-name="Trazado 108141" d="M166.334,230.15c.15.081.391.128.435.248a6.77,6.77,0,0,1,.338,3.547.5.5,0,0,1-.61.373.6.6,0,0,1-.519-.609,17.219,17.219,0,0,1-.134-3.444l.49-.115" transform="translate(-44.875 -62.305)" fill="#355d6e"/>
        <path id="Trazado_108142" data-name="Trazado 108142" d="M178.736,231.718l-1.044.01,1.578-3.642a3.014,3.014,0,0,1,1.043.376,25.413,25.413,0,0,1-1.577,3.256" transform="translate(-48.104 -61.746)" fill="#f9edc8"/>
        <path id="Trazado_108143" data-name="Trazado 108143" d="M215.41,228.892a3.792,3.792,0,0,1-1.652.8l-.378-2.48a4.4,4.4,0,0,1,1.532-.31q.249,1,.5,1.993" transform="translate(-57.765 -61.425)" fill="#f9edc8"/>
        <path id="Trazado_108144" data-name="Trazado 108144" d="M162.91,229.28a2.709,2.709,0,0,1,.336,3.032c-.131.2-.3.381-.556.319a.49.49,0,0,1-.411-.5,9.653,9.653,0,0,0-.005-2.388c-.042-.3.317-.366.531-.5a.864.864,0,0,1,.105.031" transform="translate(-43.929 -62.061)" fill="#355d6e"/>
        <path id="Trazado_108145" data-name="Trazado 108145" d="M212.963,237.079a2.5,2.5,0,0,1,2.682,1.116.445.445,0,0,1-.116.546c-.175.134-.454.156-.555.012-.526-.752-1.432-.888-2.117-1.375.036-.1.072-.2.107-.3" transform="translate(-57.623 -64.158)" fill="#355d6e"/>
        <path id="Trazado_108146" data-name="Trazado 108146" d="M211.3,238.053c.367.441.758.866,1.091,1.332.187.263.279.62-.069.844-.375.241-.618-.028-.737-.338-.244-.638-1.041-.842-1.179-1.55.206-.381.559-.306.893-.287" transform="translate(-56.961 -64.439)" fill="#355d6e"/>
        <path id="Trazado_108147" data-name="Trazado 108147" d="M160.795,228.5c.053.423.125.844.157,1.268a.586.586,0,0,1-.485.7c-.357.06-.477-.233-.585-.506-.156-.4-.008-.863-.282-1.234.3-.589.674-.8,1.195-.225" transform="translate(-43.206 -61.766)" fill="#355d6e"/>
        <path id="Trazado_108148" data-name="Trazado 108148" d="M172.1,226.331l-1.3-.2c.068-.4.424-.7.347-1.144a1.3,1.3,0,0,1,1.086.528l-.136.815" transform="translate(-46.238 -60.907)" fill="#f9edc8"/>
        <path id="Trazado_108149" data-name="Trazado 108149" d="M260.306,160.066c.037-.085.074-.171.11-.257-.036.086-.073.171-.11.257" transform="translate(-70.469 -43.263)" fill="#f1d154"/>
        <path id="Trazado_108150" data-name="Trazado 108150" d="M204.091,161.308c.195.009.338.045.41.188s-.018.281-.118.382a4.857,4.857,0,0,1-.4.334,13.657,13.657,0,0,0-5.333,10.968,20.694,20.694,0,0,0,.819,6.759c.088.27.244.6-.121.753-.407.165-.555-.2-.678-.489a14.9,14.9,0,0,1-.936-4.12,16.347,16.347,0,0,1,3.156-12.259,8.035,8.035,0,0,1,2.684-2.285c.177-.095.367-.166.514-.231" transform="translate(-53.489 -43.668)" fill="#3e6265"/>
        <path id="Trazado_108151" data-name="Trazado 108151" d="M186.105,197.511c-.378,0-.686-.024-.761-.311-.1-.372.249-.456.508-.576a24.848,24.848,0,0,0,7.758-5.066c.144-.15.3-.3.523-.187.269.127.249.38.19.6a2.159,2.159,0,0,1-.731,1.051,30.021,30.021,0,0,1-7.011,4.377,1.888,1.888,0,0,1-.478.112" transform="translate(-50.171 -51.797)" fill="#3e6265"/>
        <path id="Trazado_108152" data-name="Trazado 108152" d="M179.781,202.689c-.17,2.5,1.13,4.636,2.146,6.857.071.156.187.291.268.444.128.244.209.507-.085.684s-.478-.045-.651-.245a.831.831,0,0,1-.1-.139c-1.528-2.759-2.761-5.6-2.4-8.868.034-.3.016-.761.4-.758.458,0,.409.474.42.813.012.375,0,.75,0,1.211" transform="translate(-48.428 -54.323)" fill="#3e6265"/>
        <path id="Trazado_108153" data-name="Trazado 108153" d="M213.154,159.422a3.6,3.6,0,0,1,1.329-.745,81.257,81.257,0,0,1,8.656-2.737c.139-.038.28-.072.421-.1.206-.041.443-.063.533.158.123.3-.166.378-.354.492a1.056,1.056,0,0,1-.238.1q-4.763,1.441-9.527,2.876a.84.84,0,0,1-.82-.044" transform="translate(-57.704 -42.181)" fill="#3e6265"/>
        <path id="Trazado_108154" data-name="Trazado 108154" d="M218.367,201.616a20.226,20.226,0,0,1-1.3,3.569c-.4.928-.839,1.835-1.281,2.742-.141.29-.356.583-.739.413s-.314-.519-.179-.821q1.35-3,2.72-5.982c.109-.237.269-.484.582-.416.261.056.233.288.193.5" transform="translate(-58.14 -54.443)" fill="#3e6265"/>
        <path id="Trazado_108155" data-name="Trazado 108155" d="M175.7,231.468a1.546,1.546,0,0,1-1.27-.383,40.96,40.96,0,0,1,1.583-3.931,3.475,3.475,0,0,1,1.387.332q-.851,1.991-1.7,3.982" transform="translate(-47.221 -61.491)" fill="#f9edc8"/>
        <path id="Trazado_108156" data-name="Trazado 108156" d="M221.664,230.66a1.478,1.478,0,0,1-.847.747,29.472,29.472,0,0,1-1.241-5.055,2.645,2.645,0,0,1,1.165-.164q.462,2.236.923,4.473" transform="translate(-59.442 -61.232)" fill="#f9edc8"/>
        <path id="Trazado_108157" data-name="Trazado 108157" d="M219.24,226.412a29.387,29.387,0,0,0,1.24,5.055,2.032,2.032,0,0,1-.726.586q-.408-1.245-.819-2.488a2.159,2.159,0,0,0-.272-1.05q-.166-1.047-.33-2.094l.907-.009" transform="translate(-59.106 -61.293)" fill="#e07a30"/>
        <path id="Trazado_108158" data-name="Trazado 108158" d="M176.171,231.594q.85-1.991,1.7-3.982a2.175,2.175,0,0,1,.987.346L177.28,231.6a1.355,1.355,0,0,1-1.109-.006" transform="translate(-47.692 -61.618)" fill="#e07a30"/>
        <path id="Trazado_108159" data-name="Trazado 108159" d="M222.1,230.655q-.461-2.236-.923-4.473l.885-.012q.435,1.92.874,3.838l-.836.647" transform="translate(-59.875 -61.227)" fill="#e07a30"/>
        <path id="Trazado_108160" data-name="Trazado 108160" d="M212.129,205.818a.427.427,0,0,1-.6.349,3.987,3.987,0,0,1-2.611-1.826c-.131-.224-.218-.54.034-.7s.412.111.547.292a3.726,3.726,0,0,0,2.112,1.4c.267.069.478.192.514.481" transform="translate(-56.524 -55.116)" fill="#3e6265"/>
        <path id="Trazado_108161" data-name="Trazado 108161" d="M175.863,227.02a40.958,40.958,0,0,0-1.583,3.931c-.51-.1-.457-.422-.274-.755.216-.393.478-.76.7-1.15.346-.614.642-1.237-.042-1.831l.282-.564a1.146,1.146,0,0,1,.918.369" transform="translate(-47.071 -61.357)" fill="#e07a30"/>
        <path id="Trazado_108162" data-name="Trazado 108162" d="M217.895,226.422q.164,1.047.329,2.094a1.833,1.833,0,0,0-1.021-.17l-.488-1.755a3.576,3.576,0,0,1,1.18-.169" transform="translate(-58.668 -61.294)" fill="#f9edc8"/>
        <path id="Trazado_108163" data-name="Trazado 108163" d="M216.38,226.655l.488,1.755a2.019,2.019,0,0,1-.89.415q-.248-1-.5-1.994a1.555,1.555,0,0,1,.9-.176" transform="translate(-58.334 -61.357)" fill="#e07a30"/>
        <path id="Trazado_108164" data-name="Trazado 108164" d="M172.58,226.522l.136-.815a1.048,1.048,0,0,1,1,.326c-.063.215-.126.43-.19.646l-.942-.157" transform="translate(-46.72 -61.098)" fill="#e07a30"/>
        <path id="Trazado_108165" data-name="Trazado 108165" d="M173.873,226.8c.063-.215.126-.431.19-.646a1.116,1.116,0,0,1,.882.36l-.283.564-.789-.277" transform="translate(-47.07 -61.224)" fill="#f9edc8"/>
        <path id="Trazado_108166" data-name="Trazado 108166" d="M246.968,111.37a18.346,18.346,0,0,1-.483,3.738,25.1,25.1,0,0,1-2.081,6.676,10.387,10.387,0,0,1-9.256,6.127c-1.152.061-2.308.036-3.462.056-.24,0-.508.01-.559-.273-.062-.349.23-.416.493-.468a14.049,14.049,0,0,1,2.506-.123c5.015-.082,8.369-2.479,10.112-7.2.834-2.257,1.284-4.613,1.895-6.929a2.461,2.461,0,0,1,.836-1.606" transform="translate(-62.567 -30.149)" fill="#eceacb"/>
        <path id="Trazado_108167" data-name="Trazado 108167" d="M239.432,103.04A15.646,15.646,0,0,1,238.383,106c-.629,1.394-1.324,2.759-1.995,4.135a2.217,2.217,0,0,1-.219.373c-.171.225-.358.564-.676.374-.344-.206-.065-.509.046-.758a53.135,53.135,0,0,0,3.147-7.31c.062-.222.133-.5.424-.455.329.051.317.358.322.678" transform="translate(-63.706 -27.71)" fill="#e9e8ca"/>
        <path id="Trazado_108168" data-name="Trazado 108168" d="M234.426,120.708a.435.435,0,0,1-.4-.317,24.167,24.167,0,0,0-1.326-2.811c-.107-.21-.183-.491.034-.634.266-.176.411.1.521.291a16.643,16.643,0,0,1,1.37,2.789c.1.279.187.566-.2.683" transform="translate(-62.968 -31.643)" fill="#e9e8ca"/>
        <path id="Trazado_108169" data-name="Trazado 108169" d="M230.659,117.845a5.611,5.611,0,0,1-.807,2.007c-.129.206-.334.347-.586.181s-.2-.39-.109-.619c.249-.616.5-1.229.746-1.846.087-.22.161-.484.451-.429.333.063.306.368.3.706" transform="translate(-62.017 -31.709)" fill="#e9e8ca"/>
        <path id="Trazado_108170" data-name="Trazado 108170" d="M251.732,101.387c-.014.232.114.594-.214.644-.416.064-.358-.348-.4-.607a3.864,3.864,0,0,0-.551-2.033c-.138-.168-.118-.325.082-.409a.436.436,0,0,1,.575.239,5.912,5.912,0,0,1,.508,2.166" transform="translate(-67.808 -26.786)" fill="#e9e8ca"/>
        <path id="Trazado_108171" data-name="Trazado 108171" d="M230.232,78c.432.02.57.273.562.63-.011.483-.217.851-.734.887-.346.024-.516-.244-.494-.567.033-.444.168-.845.665-.95" transform="translate(-62.147 -21.115)" fill="#5d3329"/>
        <path id="Trazado_108172" data-name="Trazado 108172" d="M210.084,241.35a4.785,4.785,0,0,1-1.614-1.459.377.377,0,0,1,.546-.355,2.632,2.632,0,0,1,1.4,1.2c.158.295.005.55-.328.618" transform="translate(-56.436 -64.836)" fill="#355d6e"/>
        <path id="Trazado_108173" data-name="Trazado 108173" d="M219.159,230.736q.409,1.244.818,2.488a1.513,1.513,0,0,1-.818.473Z" transform="translate(-59.329 -62.464)" fill="#e9e8ca"/>
        <path id="Trazado_108174" data-name="Trazado 108174" d="M121.557,132.667l.148-.278c.01.09.02.181.03.272-.06,0-.119,0-.178.006" transform="translate(-32.907 -35.84)" fill="#f3d2e7"/>
        <path id="Trazado_108175" data-name="Trazado 108175" d="M184.807,147.285c-1.048-1.133-19.11-14.618-19.11-14.618l-117.419-.278s-24.027,10.833-29.59,13.3a2,2,0,0,0-1.265,2.434,1.857,1.857,0,0,0,1.977,1.525c1.043.026,2.087.008,3.131.008,3.62,0,7.24.013,10.861,0,.745,0,1.02.2.707.977a25.643,25.643,0,0,0-.942,3.778c-1.127,4.772-2.383,9.519-3.352,14.323-.795,3.938-1.613,7.874-2.361,11.822-.918,4.847-1.87,9.687-2.79,14.533-.866,4.559-1.5,9.163-2.535,13.689-.6,2.6-1.2,5.192-1.863,7.773-.208.81-.008,1.051.8,1.046a11.871,11.871,0,0,1,2.422.212c.631.128.871-.042,1.015-.641.552-2.307,1.175-4.6,1.712-6.906,1.087-4.681,1.815-9.431,2.662-14.158.864-4.824,1.865-9.624,2.83-14.43,1.164-5.791,2.307-11.588,3.55-17.363.963-4.477,2.1-8.916,3.081-13.39.211-.961.521-1.294,1.555-1.293,21.885.034,43.77,0,65.654.034,20.672.035,41.345-.2,62.017.193.065,0,.947.124.96.7.03,1.329,3.506,30.89,3.547,33.371a33.4,33.4,0,0,0,.49,4.735c.5,3.139,1.253,11.656,1.358,12.753a43,43,0,0,1,.669,5.78c.153,1.283,1,7.93,1.039,9.434.009.35.5.356.759.355.975,0,1.95-.019,2.925-.017.564,0,.683-.2.6-.785-.4-2.718-1.507-13.49-1.769-15.742-.436-3.756-3.161-31.425-3.565-34.271-.292-2.051-1.34-12.6-1.936-15.782-.046-.246-.192-.624.422-.613,3.354.061,6.709.061,10.065.088a3.315,3.315,0,0,0,1.053-.168c1.486-.477,1.681-1.284.634-2.416" transform="translate(-4.704 -35.84)" fill="#eaadd3"/>
        <path id="Trazado_108176" data-name="Trazado 108176" d="M106.952,128.329c-.529,1.043-1.045,2.091-1.674,3.083a1.31,1.31,0,0,1-1.269.675c-3.683-.024-7.367-.059-11.049,0-8.7.136-17.4-.079-26.1-.128-2.964-.016-5.929-.119-8.893-.066a2.81,2.81,0,0,1-2.281-.848c-.7-1.737.244-3.127,2.169-3.135,4.823-.019,9.646-.031,14.468.01a1.717,1.717,0,0,0,1.71-.933c1.762-2.87,7.988-14.8,8.694-16.211a1.134,1.134,0,0,1,1.224-.676q12.073.022,24.144,0c2.738,0,5.475.04,8.212-.016.987-.022.9.332.583.995a111.654,111.654,0,0,1-6.48,11.109c-1.189,1.907-2.288,3.866-3.315,5.865l-.148.278" transform="translate(-15.014 -29.801)" fill="#407084"/>
        <path id="Trazado_108177" data-name="Trazado 108177" d="M113.25,124.084a2.44,2.44,0,0,1-2.8,2.588,2.24,2.24,0,0,1-2.1-1.941,3.332,3.332,0,0,1,2.606-2.761c1.5.018,2.294.75,2.292,2.113" transform="translate(-29.332 -33.019)" fill="#f7f1cf"/>
        <path id="Trazado_108178" data-name="Trazado 108178" d="M186.09,127.946c.217,1.373.22,1.319,1.556,1.383,3.939.187,7.88.058,11.819.158a1.6,1.6,0,0,1,1.635.844c.651,1.522-.022,2.275-1.376,2.272-13.62-.038-27.241-.023-40.862-.034-1.1,0-2.209-.127-3.313-.118-.753.006-1.038-.507-1.274-1.025-.527-1.153-.983-2.338-1.467-3.509-.8-2.93-2.207-5.634-3.189-8.5q-.982-2.863-1.884-5.752c-.393-1.265.021-1.808,1.323-1.809q15.3-.011,30.591-.024a1.621,1.621,0,0,1,1.749,1.332c1.473,4.719,2.723,9.508,4.44,14.15.078.211.168.419.253.629" transform="translate(-39.955 -30.275)" fill="#dbbe36"/>
        <path id="Trazado_108179" data-name="Trazado 108179" d="M170.939,126.442c-1.646,0-3.009-1.064-3-2.332.009-1.365.967-2.145,2.631-2.14s2.785.8,2.771,1.988a2.479,2.479,0,0,1-2.4,2.484" transform="translate(-45.463 -33.019)" fill="#fbf2cd"/>
      </g>
    </g>
  </g>
</svg>
