<svg xmlns="http://www.w3.org/2000/svg" xmlns:xlink="http://www.w3.org/1999/xlink" width="232" height="232" viewBox="0 0 232 232">
  <defs>
    <clipPath id="clip-path">
      <rect id="Rectángulo_5649" data-name="Rectángulo 5649" width="171.492" height="203.246" fill="none"/>
    </clipPath>
  </defs>
  <g id="Grupo_62350" data-name="Grupo 62350" transform="translate(-1022 -3060)">
    <rect id="Rectángulo_5652" data-name="Rectángulo 5652" width="232" height="232" transform="translate(1022 3060)" fill="none"/>
    <g id="Grupo_62344" data-name="Grupo 62344" transform="translate(1052 3074)">
      <g id="Grupo_62343" data-name="Grupo 62343" clip-path="url(#clip-path)">
        <path id="Trazado_107910" data-name="Trazado 107910" d="M144.154,71.426q0,21.177,0,42.355a22.65,22.65,0,0,1-.225,2.9,10.219,10.219,0,0,0-.045,1.3q0,25.56,0,51.118,0,3.152-.016,6.3a1.775,1.775,0,0,1-1.672,1.853c-.305.03-.614.024-.922.024-2.716,0-5.432-.039-8.148,0-19.01.242-38.021.038-57.031.1-5.15.017-10.3,0-15.451.008a11.247,11.247,0,0,1-1.758-.137,4.042,4.042,0,0,1-3.337-4.595,7.533,7.533,0,0,0,.1-1.221q.006-2.229.01-4.458c0-.512.109-1.013.12-1.528.04-1.871-.058-3.741-.164-5.6-.3-5.221-.232-10.445-.269-15.668-.025-3.536.016-7.072-.044-10.608-.207-11.99-.161-23.981-.061-35.969.178-21.266-.006-42.532.066-63.8.007-1.9.011-3.793.044-5.688a22.886,22.886,0,0,1,.16-2.525,3.387,3.387,0,0,1,1.4-2.381,6.525,6.525,0,0,1,3.512-1.2c.561-.035,1.127-.016,1.69-.016q34.053,0,68.107,0c2.436,0,4.858.2,7.281.408.891.079,1.789.026,2.679.19A4.568,4.568,0,0,1,144.061,27c.1,1.485.091,2.968.092,4.452q.006,19.986,0,39.972M97.758,52v-.018H63.94A6.548,6.548,0,0,0,63.1,52a1.578,1.578,0,0,0-1.443,1.451c.019,1.332-.091,2.658-.135,3.986-.075,2.253-.056,4.509-.055,6.764q.013,23.75.042,47.5c.031,11.244-.156,22.489.116,33.733a37.466,37.466,0,0,1-.113,4.216c-.072.817.129,1.626.12,2.448-.02,1.87.007,3.74.04,5.611a1.685,1.685,0,0,0,1.515,1.813,3.93,3.93,0,0,0,.916.073c16.9-.092,33.81.15,50.715-.12,7.4-.118,14.808-.016,22.213-.016.742,0,1.487.015,2.228-.022a1.232,1.232,0,0,0,1.286-1.564,5.45,5.45,0,0,1-.017-.614c0-1.3.028-2.6-.017-3.9-.047-1.334.154-2.653.153-3.985-.009-18.4.031-36.791-.007-55.186-.022-10.6.159-21.206-.113-31.809-.077-3.019-.2-6.038-.2-9.059a1.981,1.981,0,0,0-.125-.752.709.709,0,0,0-.894-.514,4.891,4.891,0,0,1-1.145.077c-2.355,0-4.71-.1-7.062-.107C120,51.98,108.878,52,97.758,52m1.32,122.2a3.888,3.888,0,0,0,4.14-2.931,7.108,7.108,0,0,0,.244-2.045,4.145,4.145,0,0,0-2.045-3.712,4.914,4.914,0,0,0-5.232.119,5.2,5.2,0,0,0-2.018,2.733,4.045,4.045,0,0,0,2.233,5.287,5.5,5.5,0,0,0,2.678.55" transform="translate(-18.764 -7.482)" fill="#dbbe36"/>
        <path id="Trazado_107911" data-name="Trazado 107911" d="M101.01,67.465c11.119,0,22.238-.023,33.357.018,2.353.009,4.708.1,7.062.106a4.853,4.853,0,0,0,1.145-.077.708.708,0,0,1,.894.514,1.981,1.981,0,0,1,.126.752c-.005,3.021.118,6.04.2,9.058.273,10.6.091,21.207.113,31.81.039,18.4,0,36.79.008,55.186,0,1.332-.2,2.651-.154,3.985.046,1.3.014,2.6.018,3.9a5.434,5.434,0,0,0,.017.614,1.233,1.233,0,0,1-1.287,1.565c-.741.037-1.485.022-2.228.022-7.4,0-14.81-.1-22.212.016-16.905.27-33.811.028-50.715.12a3.929,3.929,0,0,1-.915-.073,1.686,1.686,0,0,1-1.516-1.814c-.032-1.87-.06-3.74-.04-5.61.009-.822-.191-1.631-.119-2.448a37.621,37.621,0,0,0,.113-4.216c-.272-11.244-.086-22.488-.117-33.733q-.065-23.75-.042-47.5c0-2.255-.02-4.51.055-6.763.044-1.328.154-2.654.134-3.986a1.578,1.578,0,0,1,1.444-1.452,6.658,6.658,0,0,1,.844-.016H101.01Zm4.261,12.875h-.385q-15.831.026-31.662.05a15.429,15.429,0,0,0-2.6.223,1,1,0,0,0-.98.986,10.835,10.835,0,0,0-.09,1.379c.008,3.151-.147,6.3-.157,9.449-.03,9.4-.018,18.8-.021,28.2,0,.256-.009.513.011.768a1.375,1.375,0,0,0,1.5,1.481q.959.052,1.92.059c18.468.094,36.936-.189,55.4.112,2.177.036,4.355-.006,6.533,0q2.152.008,4.3-.09c.7-.032.845-.183.868-.878,0-.1,0-.205,0-.307q.009-19.674.016-39.348c0-.23.006-.462-.009-.691a1.313,1.313,0,0,0-1.079-1.313,4.274,4.274,0,0,0-1.221-.084q-16.178,0-32.354,0m-20.861,45.6v0c-1.178,0-2.357-.011-3.535,0-3.534.04-7.068-.1-10.6.078-.864.043-1.16.3-1.221,1.135-.144,1.944-.085,3.891-.064,5.837.011,1.011.421,1.376,1.419,1.421.282.013.563.008.845.008,7.582,0,15.164.017,22.746-.014a34.019,34.019,0,0,0,3.675-.111c.953-.108,1.145-.294,1.149-1.247q.011-2.92,0-5.84c0-1.025-.259-1.27-1.274-1.27H84.41m20.561,26.974h20.822q6.723,0,13.446-.005a1.75,1.75,0,0,0,.973-.144c.243-.15.521-.306.422-.647a.6.6,0,0,0-.651-.434c-1.05.054-2.09-.14-3.133-.141q-32.769-.02-65.539-.011l-.615,0a1.741,1.741,0,0,0-.874.248c-.367.213-.371.49-.1.822.29.354.675.307,1.057.307h34.191m.123,5.386V158.3H70.981a6.181,6.181,0,0,0-.767.017.92.92,0,0,0-.688.643c-.022.28.232.468.684.582a6.436,6.436,0,0,0,1.6.14q32.038,0,64.076,0c1.355,0,2.7-.246,4.055-.151a.793.793,0,0,0,.153-.007.6.6,0,0,0,.552-.459c.069-.271-.139-.42-.327-.556a1.759,1.759,0,0,0-1.11-.205H105.094m.08-13.378v-.006h-34.2a5.5,5.5,0,0,0-.767.018.605.605,0,0,0-.549.63.6.6,0,0,0,.534.567,3.452,3.452,0,0,0,.614.02l68.629,0a3.3,3.3,0,0,0,.536-.016.608.608,0,0,0,.55-.628.587.587,0,0,0-.535-.563,5.306,5.306,0,0,0-.767-.019H105.174m6.183-16.137c-.255,0-.512-.013-.767,0a.788.788,0,0,0-.756.433.764.764,0,0,0,.263.891,2.91,2.91,0,0,0,.758.51c.647.314.646.318.414,1.03-.094.292-.175.589-.29.872a.8.8,0,0,0,.166.982c.276.255.616.247,1.059-.041.364-.236.7-.515,1.054-.761.486-.335.487-.326.9.046.343.3.688.609,1.044.9a.855.855,0,0,0,.994.113.744.744,0,0,0,.247-.89c-.11-.313-.176-.64-.275-.956-.245-.784-.249-.783.494-1.2a1.774,1.774,0,0,0,.263-.156.743.743,0,0,0-.261-1.355,3.424,3.424,0,0,0-.833-.086c-.71-.008-.74-.03-.98-.709-.1-.288-.185-.585-.3-.868a.768.768,0,0,0-1.416-.233,4.285,4.285,0,0,0-.608,1.061.612.612,0,0,1-.714.425,3.238,3.238,0,0,0-.46,0m8.419,0v.015c-.281,0-.564-.022-.843.006a.721.721,0,0,0-.635.484.68.68,0,0,0,.2.762,2.989,2.989,0,0,0,.947.635c.507.243.5.253.335.814-.1.342-.2.688-.311,1.025-.123.356-.2.7.135.983.354.3.705.163,1.067-.022.394-.2.67-.549,1.041-.779.5-.309.49-.321.909.044.366.318.726.644,1.1.946a.8.8,0,0,0,.936.071.7.7,0,0,0,.285-.874c-.075-.271-.171-.535-.256-.8-.29-.911-.29-.911.549-1.436a1.382,1.382,0,0,0,.193-.123.722.722,0,0,0-.257-1.308,2.158,2.158,0,0,0-.984-.1.721.721,0,0,1-.842-.6,11.463,11.463,0,0,0-.368-1.089.714.714,0,0,0-1.234-.256,2.275,2.275,0,0,0-.633.948.88.88,0,0,1-1.107.656,1.268,1.268,0,0,0-.23,0m12.48,5.08a.64.64,0,0,0,.676-.863c-.1-.422-.239-.834-.366-1.249-.2-.64-.2-.639.366-.945a3,3,0,0,0,.466-.263.732.732,0,0,0-.226-1.32,2.123,2.123,0,0,0-.984-.1.721.721,0,0,1-.846-.59c-.106-.342-.209-.685-.342-1.016a.73.73,0,0,0-1.313-.287,3.226,3.226,0,0,0-.684,1.1.677.677,0,0,1-.769.465,8.084,8.084,0,0,0-1.226,0,.746.746,0,0,0-.733.462.766.766,0,0,0,.247.829,2.669,2.669,0,0,0,.962.613c.344.136.486.318.323.7s-.257.774-.378,1.163a1.364,1.364,0,0,0-.089.368.73.73,0,0,0,1.08.661,7.056,7.056,0,0,0,1.316-.918.553.553,0,0,1,.858.045c.319.328.693.6,1.035.909a.849.849,0,0,0,.627.236m-30.174-5.078v0a7.431,7.431,0,0,0-.767.006c-.313.032-.626.123-.73.466a.8.8,0,0,0,.3.955,2.905,2.905,0,0,0,.87.478.466.466,0,0,1,.331.66c-.112.367-.24.729-.352,1.1-.166.544-.09.887.234,1.1a.859.859,0,0,0,1.062-.133c.353-.253.691-.527,1.039-.789a.524.524,0,0,1,.806.071,8.613,8.613,0,0,0,1.036.911.868.868,0,0,0,.993.175c.376-.184.311-.573.255-.889a6.233,6.233,0,0,0-.351-1.252.524.524,0,0,1,.324-.789,1.661,1.661,0,0,0,.573-.379.733.733,0,0,0-.348-1.294,3.488,3.488,0,0,0-1.068-.063.507.507,0,0,1-.565-.4c-.121-.39-.269-.773-.422-1.152a.892.892,0,0,0-.708-.631.779.779,0,0,0-.808.468,9.229,9.229,0,0,0-.495.864.7.7,0,0,1-.825.513,2.32,2.32,0,0,0-.383,0" transform="translate(-22.015 -22.944)" fill="#fcf4d5"/>
        <path id="Trazado_107912" data-name="Trazado 107912" d="M119.056,247.848a5.5,5.5,0,0,1-2.678-.55,4.045,4.045,0,0,1-2.233-5.287,5.2,5.2,0,0,1,2.018-2.733,4.914,4.914,0,0,1,5.232-.119,4.145,4.145,0,0,1,2.045,3.712,7.107,7.107,0,0,1-.244,2.045,3.888,3.888,0,0,1-4.14,2.931" transform="translate(-38.743 -81.126)" fill="#db6e5f"/>
        <path id="Trazado_107913" data-name="Trazado 107913" d="M107.676,86.989q16.177,0,32.354,0a4.274,4.274,0,0,1,1.221.084,1.313,1.313,0,0,1,1.079,1.313c.015.23.009.461.009.691q-.008,19.674-.016,39.348c0,.1,0,.205,0,.307-.022.695-.168.846-.868.878q-2.15.1-4.3.09c-2.177-.009-4.355.033-6.532,0-18.468-.3-36.936-.017-55.4-.112q-.96,0-1.92-.059a1.375,1.375,0,0,1-1.5-1.481c-.019-.255-.011-.512-.011-.768,0-9.4-.009-18.8.021-28.2.01-3.149.165-6.3.157-9.449a10.832,10.832,0,0,1,.09-1.379,1,1,0,0,1,.98-.986,15.428,15.428,0,0,1,2.6-.223q15.831-.022,31.662-.049h.385m23.974,32.762a7.05,7.05,0,0,0-2.931-4.506,16.755,16.755,0,0,0-5-2.439.73.73,0,0,0-1.059-.43l-1.959-.847a4.673,4.673,0,0,0,.084-.6,1.467,1.467,0,0,0-2.24-1.405,4.053,4.053,0,0,0-.893.7l-1.108-.475c.465-1.157-.059-1.9-1.289-1.828a2,2,0,0,0-.927.294,3.8,3.8,0,0,1-.809.4l-1.4-.54a3.587,3.587,0,0,0,.046-1.221,1.074,1.074,0,0,0-1.418-.983,3.284,3.284,0,0,0-1.12.482c-.336.229-.692.431-1.039.645l-.392-.158a2.245,2.245,0,0,0-3.21-2.607,8.727,8.727,0,0,0-.96.612,3.694,3.694,0,0,1-1.238-1.011,20.573,20.573,0,0,1-1.648-2.576c-.337-.784-.677-.9-1.467-.59-2.286.887-4.589,1.73-6.841,2.7a1.147,1.147,0,0,0-.682,1.713c.1.251.335.462.274.772a1.7,1.7,0,0,1-.763.055c-2.255-.032-4.478-.44-6.729-.541a10.625,10.625,0,0,0-4.021.379,2.205,2.205,0,0,0-1.256,1.038,6.116,6.116,0,0,0-.484,1.6,13.413,13.413,0,0,0-.656,4.149c.057,1.406,0,2.816.053,4.222a15.964,15.964,0,0,0,.544,3.707,1.433,1.433,0,0,0,.292,1c.1.4.2.8.31,1.19a1.088,1.088,0,0,0,1.2.956c1.075.049,2.15.1,3.225.1,2.741.015,5.483.011,8.224,0,12.451-.029,24.9.09,37.352-.119.205,0,.41,0,.615,0a1.276,1.276,0,0,0,1.407-1.222,6.2,6.2,0,0,0-.007-1.533c.191-.381-.054-.727-.088-1.09" transform="translate(-24.42 -29.593)" fill="#db6e5f"/>
        <path id="Trazado_107914" data-name="Trazado 107914" d="M86.6,156.105h13.14c1.015,0,1.27.244,1.274,1.27q.012,2.92,0,5.84c0,.953-.2,1.139-1.149,1.247a34.019,34.019,0,0,1-3.675.112c-7.582.03-15.163.014-22.746.013-.282,0-.564.005-.845-.007-1-.045-1.408-.409-1.419-1.422-.021-1.945-.08-3.892.064-5.836.061-.83.357-1.092,1.221-1.135,3.533-.175,7.067-.038,10.6-.078,1.178-.013,2.356,0,3.535,0ZM81.065,160.2h0a9.012,9.012,0,0,0,.012,1.375c.164,1.043.6,1.436,1.4,1.366.177-.016.357.009.535.01a1.857,1.857,0,0,0,1.739-1.748.763.763,0,0,0-.086-.439,1.14,1.14,0,0,1-.144-1.071,1.3,1.3,0,0,0-1.239-1.651,5.258,5.258,0,0,0-1.592.164.744.744,0,0,0-.619.77c-.015.408,0,.816,0,1.225m4.122-.1h.008c0,.357-.017.717,0,1.073a1.616,1.616,0,0,0,1.626,1.6c1.2.079,1.892-.352,2.057-1.354a16.4,16.4,0,0,0,.151-1.907,1.368,1.368,0,0,0-.3-.93.53.53,0,0,0-.61-.212.566.566,0,0,0-.395.517,1.209,1.209,0,0,0,.02.3,11.5,11.5,0,0,1-.032,1.758.509.509,0,0,1-.556.583c-.432.008-.664-.11-.757-.481a3.21,3.21,0,0,1-.064-.682c-.015-.459.008-.922-.03-1.38-.034-.411-.319-.674-.628-.625a.575.575,0,0,0-.5.661c0,.358,0,.715,0,1.073m6.207,2.685a.559.559,0,0,0,.527-.466,1.254,1.254,0,0,0,.018-.53,2.759,2.759,0,0,1,.831-2.342c.061-.081.143-.146.21-.222.2-.231.315-.488.078-.749a.557.557,0,0,0-.766-.047,2.642,2.642,0,0,0-.67.618c-.357.444-.364.437-.756-.016-.15-.174-.3-.351-.457-.514a.572.572,0,0,0-.821-.11c-.3.238-.214.546-.043.825a4.1,4.1,0,0,0,.365.49,2.735,2.735,0,0,1,.864,2.259.852.852,0,0,0,.078.444.554.554,0,0,0,.543.36" transform="translate(-24.205 -53.104)" fill="#db6e5f"/>
        <path id="Trazado_107915" data-name="Trazado 107915" d="M107.456,196.28H73.264c-.381,0-.766.047-1.057-.307-.272-.331-.267-.609.1-.822a1.746,1.746,0,0,1,.875-.248l.615,0q32.769,0,65.539.011c1.043,0,2.083.2,3.133.141a.6.6,0,0,1,.651.435c.1.34-.179.5-.422.646a1.751,1.751,0,0,1-.973.144q-6.723,0-13.446.005H107.456Z" transform="translate(-24.5 -66.306)" fill="#f8e7a2"/>
        <path id="Trazado_107916" data-name="Trazado 107916" d="M107.576,205.15h34.113a1.76,1.76,0,0,1,1.11.205c.187.136.4.285.326.556a.6.6,0,0,1-.552.46.744.744,0,0,1-.153.007c-1.357-.1-2.7.152-4.055.151q-32.038-.006-64.077,0a6.442,6.442,0,0,1-1.6-.14c-.451-.114-.706-.3-.684-.582a.922.922,0,0,1,.688-.643,6.192,6.192,0,0,1,.767-.017h34.113Z" transform="translate(-24.497 -69.79)" fill="#f8e7a2"/>
        <path id="Trazado_107917" data-name="Trazado 107917" d="M107.725,184.874H141.77a5.2,5.2,0,0,1,.767.019.586.586,0,0,1,.536.563.608.608,0,0,1-.55.628,3.305,3.305,0,0,1-.537.016l-68.629,0a3.509,3.509,0,0,1-.613-.02.6.6,0,0,1-.534-.567.605.605,0,0,1,.549-.63,5.5,5.5,0,0,1,.767-.018h34.2Z" transform="translate(-24.565 -62.892)" fill="#f8e6a0"/>
        <path id="Trazado_107918" data-name="Trazado 107918" d="M134.594,159.461a3.241,3.241,0,0,1,.46,0,.613.613,0,0,0,.714-.425,4.285,4.285,0,0,1,.608-1.061.768.768,0,0,1,1.416.233c.113.284.2.58.3.868.241.679.271.7.98.709a3.433,3.433,0,0,1,.834.086.743.743,0,0,1,.261,1.355,1.773,1.773,0,0,1-.263.156c-.742.42-.74.419-.494,1.2.1.316.166.643.275.955a.744.744,0,0,1-.247.891.855.855,0,0,1-.993-.113c-.357-.288-.7-.592-1.044-.9-.418-.371-.418-.381-.9-.046-.357.246-.691.526-1.054.761-.443.288-.783.295-1.059.041a.8.8,0,0,1-.166-.982c.115-.284.2-.581.29-.872.232-.712.233-.716-.414-1.03a2.9,2.9,0,0,1-.758-.511.762.762,0,0,1-.263-.89.788.788,0,0,1,.756-.433c.255-.017.511,0,.767,0" transform="translate(-45.252 -53.616)" fill="#dbbe36"/>
        <path id="Trazado_107919" data-name="Trazado 107919" d="M147.381,159.458a1.269,1.269,0,0,1,.23,0,.881.881,0,0,0,1.108-.656,2.269,2.269,0,0,1,.633-.948.714.714,0,0,1,1.234.256c.15.351.252.723.368,1.089a.721.721,0,0,0,.841.6,2.161,2.161,0,0,1,.984.1.723.723,0,0,1,.257,1.308,1.464,1.464,0,0,1-.193.124c-.838.525-.838.525-.549,1.435.086.268.182.532.257.8a.7.7,0,0,1-.286.874.8.8,0,0,1-.935-.071c-.379-.3-.739-.628-1.1-.946-.42-.365-.41-.354-.909-.044-.37.23-.647.577-1.041.779-.362.185-.712.321-1.067.022-.333-.28-.257-.627-.135-.983.116-.337.21-.683.312-1.025.168-.56.172-.569-.335-.814a2.992,2.992,0,0,1-.948-.635.682.682,0,0,1-.2-.762.723.723,0,0,1,.636-.484c.278-.028.561-.006.843-.006v-.015" transform="translate(-49.62 -53.617)" fill="#dbbe36"/>
        <path id="Trazado_107920" data-name="Trazado 107920" d="M163.978,164.536a.849.849,0,0,1-.627-.236c-.342-.306-.716-.581-1.035-.909a.553.553,0,0,0-.858-.045,7.057,7.057,0,0,1-1.316.918.73.73,0,0,1-1.08-.661,1.359,1.359,0,0,1,.089-.368,12.212,12.212,0,0,1,.378-1.163c.163-.385.021-.566-.323-.7a2.668,2.668,0,0,1-.962-.612.767.767,0,0,1-.247-.829.746.746,0,0,1,.733-.463,8.174,8.174,0,0,1,1.226,0,.677.677,0,0,0,.769-.465,3.225,3.225,0,0,1,.684-1.1.73.73,0,0,1,1.313.287c.133.331.236.675.342,1.016a.72.72,0,0,0,.847.591,2.141,2.141,0,0,1,.984.1.732.732,0,0,1,.226,1.32,3,3,0,0,1-.466.263c-.563.307-.561.305-.366.945.127.415.271.827.366,1.249a.64.64,0,0,1-.676.863" transform="translate(-53.737 -53.615)" fill="#dbbe36"/>
        <path id="Trazado_107921" data-name="Trazado 107921" d="M120.554,159.464a2.32,2.32,0,0,1,.383,0,.7.7,0,0,0,.825-.513,9.232,9.232,0,0,1,.495-.864.779.779,0,0,1,.808-.468.892.892,0,0,1,.708.631c.152.379.3.762.422,1.152a.507.507,0,0,0,.565.4,3.488,3.488,0,0,1,1.068.063.733.733,0,0,1,.348,1.294,1.661,1.661,0,0,1-.573.379.524.524,0,0,0-.324.789,6.232,6.232,0,0,1,.351,1.252c.055.315.121.7-.255.889a.868.868,0,0,1-.993-.175,8.609,8.609,0,0,1-1.036-.911.524.524,0,0,0-.806-.071c-.347.262-.686.536-1.039.789a.859.859,0,0,1-1.062.133c-.324-.217-.4-.56-.234-1.1.112-.367.241-.729.352-1.1a.466.466,0,0,0-.331-.66,2.905,2.905,0,0,1-.87-.478.8.8,0,0,1-.3-.955c.1-.342.417-.434.73-.466a7.439,7.439,0,0,1,.767-.006Z" transform="translate(-40.487 -53.621)" fill="#dbbe36"/>
        <path id="Trazado_107922" data-name="Trazado 107922" d="M82.588,127.441a16.009,16.009,0,0,1-.543-3.708c-.054-1.406,0-2.817-.053-4.222a13.409,13.409,0,0,1,.656-4.149,6.142,6.142,0,0,1,.485-1.6,2.2,2.2,0,0,1,1.256-1.038,10.625,10.625,0,0,1,4.021-.379c2.25.1,4.474.509,6.729.54a1.7,1.7,0,0,0,.762-.053c.061-.311-.172-.521-.273-.773a1.147,1.147,0,0,1,.682-1.713c2.252-.973,4.555-1.816,6.84-2.7.79-.307,1.13-.194,1.467.589a20.558,20.558,0,0,0,1.649,2.577,3.7,3.7,0,0,0,1.237,1.012c-.094.119-.19.238-.282.36a13.032,13.032,0,0,0-2.017,3.061,10.45,10.45,0,0,1-1.138,2.422,1.1,1.1,0,0,0-.167.425.834.834,0,0,0,.949,1.054.9.9,0,0,0,.866-1.226,1.378,1.378,0,0,1,.1-1.1,6.928,6.928,0,0,0,.338-.856,10.526,10.526,0,0,1,1.991-3.071.914.914,0,0,1,.558-.383c.658.324,1.273.734,1.962,1a.779.779,0,0,0,1.015.3l.392.157a9.209,9.209,0,0,0-1.743,3.3,7.829,7.829,0,0,0-.36,1.792c-.066.521.2.809.717.909a.821.821,0,0,0,.985-.527.889.889,0,0,0-.107-1.011.834.834,0,0,1-.083-1.05c.183-.422.351-.851.527-1.277a2.843,2.843,0,0,1,1.58-1.687l.944.265c.369.587.369.587,1.072.364l1.4.54c-.136.152-.261.313-.407.455a5.347,5.347,0,0,0-1.479,2.118,2.51,2.51,0,0,1-.658,1.266.983.983,0,0,0,0,1.209,1.032,1.032,0,0,0,1.114.3c.395-.145.558-.447.511-1a3.923,3.923,0,0,1,2.373-3.621.413.413,0,0,1,.548.131.825.825,0,0,0,1.026.27l1.108.475a20.858,20.858,0,0,0-1.5,3.76,1.951,1.951,0,0,0-.064.981.8.8,0,0,0,1.114.487c.447-.168.7-.633.42-.963-.387-.452-.225-.84-.058-1.262.234-.593.478-1.182.736-1.765a1.08,1.08,0,0,1,.494-.655l.834.337a.733.733,0,0,0,1.072.383l1.961.848a11.377,11.377,0,0,0-2.068,1.823,7.756,7.756,0,0,0-2.2,4.375c-.026.383-.034.767-.034,1.15,0,.255-.108.38-.364.378-.128,0-.256,0-.384,0-6.089-.123-12.173.086-18.258.257-2.3.065-4.6-.045-6.9.072-1.353.069-2.709.059-4.064.076a33.463,33.463,0,0,1-5.971-.241.629.629,0,0,1-.581-.49,10,10,0,0,1-.387-2.565,1.671,1.671,0,0,1,.824-1.6A21.83,21.83,0,0,0,88.776,120a3.645,3.645,0,0,0,1.132-2.212,16.355,16.355,0,0,0,.146-2.294c.612.034,1.223.088,1.836.1a16.042,16.042,0,0,0,3.736-.268.915.915,0,0,0,.787-.907c-.015-.372-.328-.649-.848-.745-.05-.009-.1-.009-.152-.015-1.24-.156-2.458-.438-3.7-.573a28.175,28.175,0,0,0-4.5-.336,7.77,7.77,0,0,0-2.609.56c-.685.285-.721.746-.146,1.207a1.452,1.452,0,0,0,.629.253c1.247.28,2.525.362,3.779.6a9.259,9.259,0,0,0-.056,1.452,2.844,2.844,0,0,1-1.06,2.508,27.292,27.292,0,0,1-2.88,2.41,2.456,2.456,0,0,0-1.118,2.144,11.086,11.086,0,0,0,.325,2.881c.11.418.072.474-.346.558a5.224,5.224,0,0,0-1.137.121" transform="translate(-27.892 -36.568)" fill="#fdfdfd"/>
        <path id="Trazado_107923" data-name="Trazado 107923" d="M135.671,138.277a6.173,6.173,0,0,1,.007,1.533,1.276,1.276,0,0,1-1.407,1.223c-.2.007-.41,0-.615,0-12.45.209-24.9.09-37.352.119-2.741.007-5.483.011-8.224,0-1.075-.005-2.15-.056-3.224-.1a1.088,1.088,0,0,1-1.2-.956c-.113-.393-.207-.793-.309-1.19.46-.017.923-.006,1.38-.056a8.579,8.579,0,0,1,2.145.009c.713.1,1.428.107,2.144.139,2,.087,3.989-.156,5.984-.036.051,0,.1,0,.154,0,1.764-.044,3.529-.1,5.294-.131,2.995-.06,5.99-.106,8.984-.167,1.867-.038,3.735-.138,5.6-.128,4.378.022,8.755.1,13.133.026,1.484-.025,2.967-.121,4.451-.131a22.148,22.148,0,0,1,3.058-.144" transform="translate(-28.354 -47.03)" fill="#fafaf9"/>
        <path id="Trazado_107924" data-name="Trazado 107924" d="M135.52,131.872a22.148,22.148,0,0,0-3.058.144c-1.484.01-2.967.106-4.451.131-4.378.074-8.755,0-13.133-.026-1.867-.01-3.735.09-5.6.128-2.995.061-5.99.107-8.984.167-1.765.036-3.529.087-5.294.131-.051,0-.1.006-.154,0-2-.121-3.988.123-5.984.036-.716-.032-1.43-.038-2.144-.139a8.579,8.579,0,0,0-2.145-.009c-.457.05-.92.039-1.38.056a1.429,1.429,0,0,1-.293-1,5.265,5.265,0,0,1,1.136-.121c.419-.084.457-.14.347-.558a11.091,11.091,0,0,1-.325-2.881,2.456,2.456,0,0,1,1.117-2.144,27.143,27.143,0,0,0,2.88-2.41,2.842,2.842,0,0,0,1.061-2.508,9.342,9.342,0,0,1,.055-1.452c.4.036.816-.109,1.194.127a16.242,16.242,0,0,1-.146,2.294,3.645,3.645,0,0,1-1.132,2.212,21.781,21.781,0,0,1-3.036,2.582,1.669,1.669,0,0,0-.824,1.6,10.041,10.041,0,0,0,.386,2.565.631.631,0,0,0,.582.49,33.587,33.587,0,0,0,5.971.241c1.355-.017,2.712-.008,4.064-.077,2.3-.117,4.6-.007,6.9-.072,6.085-.172,12.169-.38,18.258-.257.128,0,.256,0,.384,0,.255,0,.364-.122.364-.378,0-.383.007-.767.034-1.149a7.754,7.754,0,0,1,2.2-4.375,11.377,11.377,0,0,1,2.068-1.824.73.73,0,0,1,1.059.43,1.132,1.132,0,0,1-.52.639,7.251,7.251,0,0,0-1.841,1.612,6.649,6.649,0,0,0-1.964,4.38c.008.67-.014.685.68.676,3.094-.042,6.19-.044,9.283-.209a13.066,13.066,0,0,1,2.291-.151c.034.363.28.709.088,1.09" transform="translate(-28.202 -40.625)" fill="#4d7c8e"/>
        <path id="Trazado_107925" data-name="Trazado 107925" d="M156.2,133.064a13.076,13.076,0,0,0-2.292.151c-3.092.166-6.188.167-9.283.209-.693.009-.672-.006-.679-.676a6.648,6.648,0,0,1,1.964-4.379,7.236,7.236,0,0,1,1.841-1.612,1.133,1.133,0,0,0,.521-.639,16.755,16.755,0,0,1,5,2.439,7.05,7.05,0,0,1,2.931,4.506" transform="translate(-48.972 -42.906)" fill="#fcfcfc"/>
        <path id="Trazado_107926" data-name="Trazado 107926" d="M122.96,115.6a.779.779,0,0,1-1.015-.3,1.161,1.161,0,0,0-.123-.589c-.311-.89-1.085-1.059-1.84-.409a.914.914,0,0,0-.558.383,10.512,10.512,0,0,0-1.991,3.071,7.177,7.177,0,0,1-.338.855,1.378,1.378,0,0,0-.1,1.1.9.9,0,0,1-.866,1.226.834.834,0,0,1-.949-1.054,1.1,1.1,0,0,1,.166-.424,10.416,10.416,0,0,0,1.138-2.423,13.082,13.082,0,0,1,2.018-3.061c.092-.121.187-.24.282-.36a8.729,8.729,0,0,1,.96-.612,2.245,2.245,0,0,1,3.21,2.607" transform="translate(-39.179 -38.349)" fill="#4b7888"/>
        <path id="Trazado_107927" data-name="Trazado 107927" d="M128,117.165a2.841,2.841,0,0,0-1.58,1.687c-.176.426-.344.854-.527,1.277a.833.833,0,0,0,.084,1.05.891.891,0,0,1,.106,1.012.822.822,0,0,1-.985.527c-.521-.1-.783-.388-.717-.91a7.83,7.83,0,0,1,.36-1.791,9.208,9.208,0,0,1,1.743-3.3c.348-.214.7-.416,1.04-.645a3.3,3.3,0,0,1,1.12-.482,1.074,1.074,0,0,1,1.417.984,3.571,3.571,0,0,1-.046,1.221c-.7.223-.7.223-1.071-.364.044-.22.142-.49-.056-.637-.243-.181-.466.046-.676.174-.083.051-.187.084-.212.2" transform="translate(-42.311 -39.309)" fill="#4b7888"/>
        <path id="Trazado_107928" data-name="Trazado 107928" d="M136.65,120.539a.825.825,0,0,1-1.026-.27.413.413,0,0,0-.548-.131,3.922,3.922,0,0,0-2.373,3.621c.047.553-.116.854-.511,1a1.032,1.032,0,0,1-1.115-.3.985.985,0,0,1,0-1.209,2.506,2.506,0,0,0,.659-1.266,5.333,5.333,0,0,1,1.479-2.118c.145-.142.271-.3.406-.455a3.729,3.729,0,0,0,.81-.4,1.992,1.992,0,0,1,.927-.293c1.231-.068,1.755.67,1.289,1.828" transform="translate(-44.523 -40.385)" fill="#4b7888"/>
        <path id="Trazado_107929" data-name="Trazado 107929" d="M141.622,122.323a1.08,1.08,0,0,0-.494.655c-.258.583-.5,1.172-.736,1.765-.167.422-.329.81.059,1.262.283.33.027.8-.42.963a.8.8,0,0,1-1.114-.486,1.959,1.959,0,0,1,.065-.981,20.816,20.816,0,0,1,1.5-3.761,4.068,4.068,0,0,1,.893-.7,1.468,1.468,0,0,1,2.241,1.405,4.648,4.648,0,0,1-.086.6.732.732,0,0,1-1.072-.383c.08-.29.052-.583-.257-.676a.47.47,0,0,0-.577.338" transform="translate(-47.247 -41.11)" fill="#4b7888"/>
        <path id="Trazado_107930" data-name="Trazado 107930" d="M86.164,161.189c0-.408-.011-.816,0-1.224a.744.744,0,0,1,.619-.77,5.255,5.255,0,0,1,1.591-.164,1.3,1.3,0,0,1,1.24,1.651,1.141,1.141,0,0,0,.143,1.07.762.762,0,0,1,.087.44,1.857,1.857,0,0,1-1.739,1.748c-.179,0-.358-.026-.535-.011-.8.071-1.238-.323-1.4-1.366a9.021,9.021,0,0,1-.012-1.376Zm1.6,1.646c.416.028.846-.232.827-.516-.015-.243-.207-.325-.428-.344-.418-.038-.732.137-.763.432-.028.276.073.443.364.428m.622-2.336c.008-.091,0-.174-.075-.2a.934.934,0,0,0-.791.008.3.3,0,0,0-.055.461c.123.177.318.1.482.069a.5.5,0,0,0,.439-.335" transform="translate(-29.304 -54.098)" fill="#faeccc"/>
        <path id="Trazado_107931" data-name="Trazado 107931" d="M92.424,161.255c0-.358,0-.716,0-1.073a.575.575,0,0,1,.5-.661c.309-.049.594.214.629.626.038.457.015.919.03,1.379a3.269,3.269,0,0,0,.065.683c.092.37.324.488.756.48a.508.508,0,0,0,.556-.583,11.5,11.5,0,0,0,.032-1.758,1.149,1.149,0,0,1-.02-.3.565.565,0,0,1,.394-.517.53.53,0,0,1,.61.212,1.364,1.364,0,0,1,.3.931,16.262,16.262,0,0,1-.151,1.907c-.166,1-.858,1.432-2.057,1.354a1.616,1.616,0,0,1-1.626-1.6c-.02-.356,0-.715,0-1.073Z" transform="translate(-31.443 -54.261)" fill="#faeccc"/>
        <path id="Trazado_107932" data-name="Trazado 107932" d="M100.8,163.906a.554.554,0,0,1-.543-.36.852.852,0,0,1-.078-.444,2.734,2.734,0,0,0-.864-2.259,4.1,4.1,0,0,1-.365-.49c-.172-.28-.259-.588.043-.825a.572.572,0,0,1,.821.11c.16.163.307.34.457.514.392.453.4.46.756.016a2.642,2.642,0,0,1,.67-.618.557.557,0,0,1,.766.047c.237.261.127.518-.078.749-.067.076-.149.141-.21.222a2.759,2.759,0,0,0-.831,2.342,1.254,1.254,0,0,1-.018.53.559.559,0,0,1-.527.466" transform="translate(-33.61 -54.228)" fill="#faeccc"/>
        <path id="Trazado_107933" data-name="Trazado 107933" d="M91.118,118.2c-.377-.236-.8-.091-1.194-.127-1.254-.237-2.532-.319-3.779-.6a1.449,1.449,0,0,1-.629-.253c-.575-.462-.54-.922.145-1.207a7.79,7.79,0,0,1,2.609-.56,28.244,28.244,0,0,1,4.5.336c1.245.135,2.464.418,3.7.573.051.007.1.006.153.015.52.1.834.373.848.746a.914.914,0,0,1-.787.907,16.036,16.036,0,0,1-3.735.268c-.612-.011-1.224-.064-1.836-.1" transform="translate(-28.957 -39.273)" fill="#dbbe36"/>
        <path id="Trazado_107934" data-name="Trazado 107934" d="M122.467,114.9c.755-.649,1.529-.481,1.84.409a1.165,1.165,0,0,1,.123.59c-.689-.265-1.3-.676-1.963-1" transform="translate(-41.664 -38.957)" fill="#e48238"/>
        <path id="Trazado_107935" data-name="Trazado 107935" d="M129.869,117.773c.026-.114.129-.147.212-.2.209-.128.432-.356.676-.174.2.147.1.416.056.637l-.944-.265" transform="translate(-44.182 -39.917)" fill="#e48238"/>
        <path id="Trazado_107936" data-name="Trazado 107936" d="M143.038,122.9a.47.47,0,0,1,.577-.338c.309.094.337.386.257.676l-.835-.338" transform="translate(-48.662 -41.691)" fill="#e48238"/>
        <path id="Trazado_107937" data-name="Trazado 107937" d="M88.417,164.356c-.291.015-.393-.152-.364-.428.03-.295.346-.47.763-.433.221.02.412.1.428.345.018.284-.412.544-.828.516" transform="translate(-29.955 -55.62)" fill="#e48238"/>
        <path id="Trazado_107938" data-name="Trazado 107938" d="M89.034,161.115a.5.5,0,0,1-.439.335c-.164.035-.36.108-.482-.069a.3.3,0,0,1,.055-.461.934.934,0,0,1,.791-.008c.077.03.083.113.075.2" transform="translate(-29.949 -54.714)" fill="#e48238"/>
        <path id="Trazado_107939" data-name="Trazado 107939" d="M197.662,211.233H166.416a9.913,9.913,0,0,1-9.913-9.913V189.845a9.913,9.913,0,0,1,9.913-9.913h31.245a9.912,9.912,0,0,1,9.913,9.913V201.32a9.913,9.913,0,0,1-9.913,9.913" transform="translate(-53.243 -61.214)" fill="#db6e5f"/>
        <rect id="Rectángulo_5647" data-name="Rectángulo 5647" width="51.071" height="5.796" transform="translate(103.261 123.539)" fill="#f3d054"/>
        <rect id="Rectángulo_5648" data-name="Rectángulo 5648" width="24.687" height="4.566" transform="translate(116.453 131.91)" fill="#fcf4d5"/>
        <path id="Trazado_107940" data-name="Trazado 107940" d="M34.829,192.264a4.577,4.577,0,0,0,.239,1.359c.2.936-.018,1.238-.981,1.22-.6-.012-1.2-.117-1.807-.17-1.5-.132-2.993-.243-4.486-.394a6.957,6.957,0,0,0-1.461-.121c-.31-.056-.619-.125-.931-.166-1-.13-2-.252-3-.373a.922.922,0,0,1-.7-.278,9.753,9.753,0,0,0,.275-2.634,2.135,2.135,0,0,0,.1-1.065q.253-1.888.507-3.775a25.024,25.024,0,0,0,.589-4.452,37.055,37.055,0,0,1,1.477-8.486,4.43,4.43,0,0,1,1.31-2.1,6.144,6.144,0,0,1,3.2-1.77,3.032,3.032,0,0,1,.771-.07,21.461,21.461,0,0,1,4.354.611,21.972,21.972,0,0,1,1.653,1.746c.4.509.395.512-.119.948-.24.2-.468.42-.7.629-.651.242-1.167.738-1.83.962a.774.774,0,0,0-.55,1.014c.078.364.09.742.146,1.112a47.018,47.018,0,0,1,.61,4.881,27.753,27.753,0,0,0,.424,3.858,11.317,11.317,0,0,0,.274,2.585,2.224,2.224,0,0,0,.071,1.235,16.813,16.813,0,0,0,.556,3.694" transform="translate(-7.385 -57.488)" fill="#2c1a16"/>
        <path id="Trazado_107941" data-name="Trazado 107941" d="M13.213,277.342a30.922,30.922,0,0,0,.335-3.428c.187-1.741,1.215-11.936,1.364-13.362.075-.714.78-8.492.72-9.017.229-.007.457-.02.686-.021,2.5-.011,4.993.206,7.491.065a6.949,6.949,0,0,1-.5,1.648,66.056,66.056,0,0,0-1.916,7.342c-.382,1.473-.67,2.971-.953,4.467-.342,1.8-.631,3.616-.821,5.445-.148,1.426-.388,2.843-.574,4.266-.108.825-.19,1.653-.284,2.48-.243.084-.493.152-.728.253a5.928,5.928,0,0,1-4.817-.137" transform="translate(-4.495 -85.566)" fill="#feaed7"/>
        <path id="Trazado_107942" data-name="Trazado 107942" d="M24.006,247.185c-2.5.141-4.993-.075-7.491-.065-.229,0-.458.014-.687.021a7.4,7.4,0,0,1-1.506-.3.775.775,0,0,1-.525-.868,1.837,1.837,0,0,1,.1-.59,13.579,13.579,0,0,0,.848-3.851,26.246,26.246,0,0,1,.646-2.939,1.825,1.825,0,0,0,1.057.331c1.469.086,2.937.211,4.407.26,1.9.063,3.805.159,5.715.1,2.28-.068,4.557-.2,6.837-.255.305-.008.645-.106.894.187a17.268,17.268,0,0,0,1.213,4.454,5.6,5.6,0,0,1,.385,1.577c.089.577-.068.736-.645.893a5.86,5.86,0,0,1-1.019.133,1.2,1.2,0,0,0-.763-.049c-.484.079-.969.146-1.452.231a33.963,33.963,0,0,1-4.388.415c-.369-.016-.74-.042-1.11-.047-.8-.01-.806,0-1.1-.781a1.214,1.214,0,0,0-.326-.627c-.462.528-.343,1.423-1.089,1.763" transform="translate(-4.692 -81.172)" fill="#0d66bf"/>
        <path id="Trazado_107943" data-name="Trazado 107943" d="M34.767,250.793a33.942,33.942,0,0,0,4.387-.415c.482-.085.968-.152,1.452-.232a1.2,1.2,0,0,1,.763.049c0,.519-.168,6.214-.315,8.54-.089,1.407-.6,13.416-.558,18.018a7.417,7.417,0,0,0-1.108.443,4.754,4.754,0,0,1-2.92.4,10.245,10.245,0,0,1-1.013-.173c-.043-.833-.757-24.1-.689-26.636" transform="translate(-11.826 -85.088)" fill="#feaed7"/>
        <path id="Trazado_107944" data-name="Trazado 107944" d="M2.331,233.7a3.063,3.063,0,0,1-.833,1.092c-.144.135-.289.314-.521.174a.476.476,0,0,1-.2-.534,5.4,5.4,0,0,1,.369-1.325c.086-.174.232-.336.156-.561a1.552,1.552,0,0,0-.68-.068.5.5,0,0,1-.525-.363.444.444,0,0,1,.278-.562,8.837,8.837,0,0,0,2.81-2.646,7.393,7.393,0,0,0,1.2-2.762c.538-1.8,4.2-12.722,4.545-13.79a3.5,3.5,0,0,1,1.709.342,17.926,17.926,0,0,0,2.65,1.207c.585.207.607.309.447.891a18.734,18.734,0,0,0-.619,2.22,1.59,1.59,0,0,0-.363,1.254l-.228,1.388c-.155.227-2.212,3.913-2.967,5.594-.635,1.413-1.392,2.775-2.144,4.132a4.569,4.569,0,0,0-.255,3.261,3.3,3.3,0,0,1,.209.919c-.018.221.059.49-.212.6A.686.686,0,0,1,6.365,234c-.176-.173-.243-.479-.565-.481a1.394,1.394,0,0,0-1.1-.372,3.371,3.371,0,0,1-2.472-.781.271.271,0,0,0-.389-.021.353.353,0,0,0-.108.391c.093.338.41.464.644.67-.014.1-.027.2-.04.295" transform="translate(-0.027 -72.237)" fill="#feaed7"/>
        <path id="Trazado_107945" data-name="Trazado 107945" d="M35.241,291.144a10.236,10.236,0,0,0,1.013.173,4.755,4.755,0,0,0,2.92-.4,7.487,7.487,0,0,1,1.108-.443,24.357,24.357,0,0,1,3.632.053,3.228,3.228,0,0,1,1.08.3,1,1,0,0,1,.2,1.72,21.519,21.519,0,0,1-4.1,2.725c-.784.366-1.6.664-2.4,1a6.912,6.912,0,0,1-3.409.364,1.117,1.117,0,0,1-1.144-1.172,7.2,7.2,0,0,1,.034-1.124c.049-.691.085-1.384.183-2.069.074-.519.248-1.015.883-1.12" transform="translate(-11.611 -98.804)" fill="#db6e5f"/>
        <path id="Trazado_107946" data-name="Trazado 107946" d="M12.9,290.585a5.928,5.928,0,0,0,4.817.137c.236-.1.485-.17.728-.253.921-.01,1.843-.033,2.765-.026.791.006,1.089.323,1.1,1.106a1.614,1.614,0,0,1-.688,1.425,20.331,20.331,0,0,1-5.445,2.951,4.825,4.825,0,0,1-2.479.133,1.552,1.552,0,0,1-1.4-1.769c.012-.836.025-1.673.061-2.507a1.266,1.266,0,0,1,.542-1.2" transform="translate(-4.184 -98.809)" fill="#db6e5f"/>
        <path id="Trazado_107947" data-name="Trazado 107947" d="M35.864,232.712c-2.022.08-3.988.577-5.99.79-3.013.321-5.964,1.048-8.982,1.316-1.178.1-2.361.159-3.542.236a2.343,2.343,0,0,0-1.17.255A1.21,1.21,0,0,1,16.553,234c.5.3,1.018.045,1.522.026a35.851,35.851,0,0,0,6.347-.777.557.557,0,0,0,.69-.137,1.141,1.141,0,0,0,.591-.05c.733-.139,1.462-.328,2.2-.4,1.744-.164,3.462-.5,5.191-.763a18.548,18.548,0,0,1,2.642-.321c.3.351.13.754.125,1.137" transform="translate(-5.489 -78.783)" fill="#ffe9c4"/>
        <path id="Trazado_107948" data-name="Trazado 107948" d="M14.493,205.017a17.825,17.825,0,0,0,4.452.584.923.923,0,0,0,.7.278q1.5.18,3,.373c.312.041.621.109.931.166a3.036,3.036,0,0,1-1.476.317c-.594,0-1.189.019-1.783.03-.277-.336-.525-.119-.777.04a23.338,23.338,0,0,1-5.09-.563.853.853,0,0,0-.857.262,1.474,1.474,0,0,1,.907-1.487" transform="translate(-4.622 -69.748)" fill="#ffe9c4"/>
        <path id="Trazado_107949" data-name="Trazado 107949" d="M12.35,209.994A11.805,11.805,0,0,0,17.344,211a1.729,1.729,0,0,0,.4.295c.509.185.45.478.192.827a23.984,23.984,0,0,1-3.174-.22,3.5,3.5,0,0,0-1.71-.342,1.821,1.821,0,0,1-.847-1.2.315.315,0,0,1,.145-.363" transform="translate(-4.149 -71.441)" fill="#ffe9c4"/>
        <path id="Trazado_107950" data-name="Trazado 107950" d="M6.772,244.787a6.086,6.086,0,0,1-.584,2.066,2.745,2.745,0,0,1-.321.509.435.435,0,0,1-.536.17.452.452,0,0,1-.272-.411,2.045,2.045,0,0,1,.063-.858,1.047,1.047,0,0,0,.08-.577c-.253-.111-.321.092-.422.209s-.181.3-.3.419c-.2.2-.449.439-.75.3-.321-.148-.271-.489-.2-.769.116-.445.269-.881.406-1.322a11.859,11.859,0,0,0,2.834.262" transform="translate(-1.183 -83.188)" fill="#fbaed6"/>
        <path id="Trazado_107951" data-name="Trazado 107951" d="M6.457,244.117a11.861,11.861,0,0,1-2.834-.262l-.049-.011a.414.414,0,0,0-.361-.155c-.234-.205-.551-.331-.643-.669a.352.352,0,0,1,.108-.391.271.271,0,0,1,.389.02,3.368,3.368,0,0,0,2.472.782,1.4,1.4,0,0,1,1.1.372l-.185.314" transform="translate(-0.868 -82.519)" fill="#5d2b1f"/>
        <path id="Trazado_107952" data-name="Trazado 107952" d="M17.873,200.012a14.276,14.276,0,0,0,2.678.187,2.139,2.139,0,0,1-.1,1.064,9.473,9.473,0,0,1-3.249-.335c0-.694,0-.694.672-.917" transform="translate(-5.852 -68.045)" fill="#ffe9c4"/>
        <path id="Trazado_107953" data-name="Trazado 107953" d="M20.7,228.332a16.3,16.3,0,0,0-2.681.353c-.055-.416-.228-.859.265-1.149a6.156,6.156,0,0,0,1.486-.177,2.7,2.7,0,0,1,.93.973" transform="translate(-6.105 -77.349)" fill="#ffe9c4"/>
        <path id="Trazado_107954" data-name="Trazado 107954" d="M3.533,244.273a.414.414,0,0,1,.361.154l-.4.141c.014-.1.027-.2.04-.295" transform="translate(-1.188 -83.103)" fill="#fbaed6"/>
        <path id="Trazado_107955" data-name="Trazado 107955" d="M39.974,209.931a1.1,1.1,0,0,0-.259,0c-1.768.434-3.588.588-5.363.978a14.665,14.665,0,0,1-3.511.437,6.936,6.936,0,0,0-1.627.22,18.877,18.877,0,0,1-6.279.146c-.172-.02-.345-.029-.518-.044a2.044,2.044,0,0,1,.338-1.129,17.766,17.766,0,0,0,5.859-.107,14.218,14.218,0,0,1,2.4-.291,19.376,19.376,0,0,0,3.246-.482c2.121-.41,4.258-.746,6.387-1.118a3.966,3.966,0,0,0,.5-.153,2.023,2.023,0,0,1-1.168,1.54" transform="translate(-7.626 -70.896)" fill="#ffe9c4"/>
        <path id="Trazado_107956" data-name="Trazado 107956" d="M37.991,225.973c-1.568.174-3.139.327-4.7.528a49.408,49.408,0,0,1-6.787.491,10.952,10.952,0,0,0-3.16.306,2.365,2.365,0,0,1-1.031-.959,21.06,21.06,0,0,1,4.854-.536,37.346,37.346,0,0,0,4.279-.293c.428.3.761-.014,1.119-.17,1.464-.142,2.937-.21,4.386-.474a5,5,0,0,1,1.2-.1c-.059.4.141.836-.162,1.2" transform="translate(-7.59 -76.465)" fill="#ffe9c4"/>
        <path id="Trazado_107957" data-name="Trazado 107957" d="M45.7,217.5a8.153,8.153,0,0,0-1.205.154,8.71,8.71,0,0,1,.8-1.391l.422.036q-.008.6-.015,1.2" transform="translate(-15.137 -73.573)" fill="#ffe9c4"/>
        <path id="Trazado_107958" data-name="Trazado 107958" d="M42.066,176.924c.121.188.337.178.515.251.625.256.705.519.323,1.072-.063.092-.137.177-.2.265-.438.15-.736.357-.713.92.025.6-.327.837-.943.83-.265,0-.511-.27-.866-.039a1.348,1.348,0,0,0,1.373.35c.352-.07.476.028.433.394a3.379,3.379,0,0,1-1.388,2.579.779.779,0,0,0-.346,1.019,4.593,4.593,0,0,0,.819,1.412,7.944,7.944,0,0,1-1.465.8,27.731,27.731,0,0,1-.423-3.857,46.819,46.819,0,0,0-.61-4.881c-.055-.37-.068-.748-.146-1.112a.774.774,0,0,1,.55-1.014c.664-.224,1.18-.72,1.831-.962l.2.363a2.543,2.543,0,0,0,1.065,1.605m-1.391-.011c.015-.35-.238-.686-.532-.669a.494.494,0,0,0-.489.5.626.626,0,0,0,.6.614.41.41,0,0,0,.42-.449" transform="translate(-13.061 -59.521)" fill="#fbaed6"/>
        <path id="Trazado_107959" data-name="Trazado 107959" d="M43.438,218.132a8.153,8.153,0,0,0-1.205.154,57.856,57.856,0,0,1-4.383,4.8c1.463-.141,2.936-.209,4.386-.473a5.034,5.034,0,0,1,1.2-.1q0-2.189,0-4.379" transform="translate(-12.877 -74.207)" fill="#db6e5f"/>
        <path id="Trazado_107960" data-name="Trazado 107960" d="M29.867,234.088c-3.013.321-5.964,1.048-8.982,1.316-1.179.1-2.362.159-3.543.237a2.343,2.343,0,0,0-1.17.255,1.7,1.7,0,0,0,.009.9,1.826,1.826,0,0,0,1.057.331c1.469.086,2.937.212,4.407.261,1.9.063,3.805.159,5.715.1,2.28-.068,4.557-.2,6.837-.255.306-.008.645-.106.894.187.176-.243.451-.208.7-.266a.883.883,0,0,0,.766-.819,5.069,5.069,0,0,0-.7-3.037c-2.021.08-3.988.577-5.99.79" transform="translate(-5.483 -79.369)" fill="#db6e5f"/>
        <path id="Trazado_107961" data-name="Trazado 107961" d="M19.947,224.473c-.232-.364-.474-.721-.691-1.094a.383.383,0,0,1,.059-.546c.249-.164.433-.013.56.213A4.36,4.36,0,0,0,21,224.337a21.052,21.052,0,0,1,4.853-.536,37.348,37.348,0,0,0,4.28-.293c-.037-.411.277-.607.521-.842a38.035,38.035,0,0,0,3.275-3.432,4.082,4.082,0,0,0,.236-.358,41.4,41.4,0,0,0-5.906.707,33.735,33.735,0,0,1-7.459.73,4.843,4.843,0,0,0-1.8.183q-.113.694-.227,1.389a1.234,1.234,0,0,1-.141.85,11.5,11.5,0,0,1-.178,1.914,6.2,6.2,0,0,0,1.487-.177" transform="translate(-6.28 -74.463)" fill="#db6e5f"/>
        <path id="Trazado_107962" data-name="Trazado 107962" d="M16.768,233.062c.5.3,1.018.045,1.523.026a35.941,35.941,0,0,0,6.347-.777,1.713,1.713,0,0,0-.336-.386,35.527,35.527,0,0,1-4-3.092,16.23,16.23,0,0,0-2.68.353,33.45,33.45,0,0,1-.851,3.876" transform="translate(-5.705 -77.85)" fill="#db6e5f"/>
        <path id="Trazado_107963" data-name="Trazado 107963" d="M17.424,209.96a4.464,4.464,0,0,0-.871-1.369c-.187-.22-.448-.457-.123-.722.307-.251.535.025.719.237.224.259.412.548.614.826a2.351,2.351,0,0,0,.67.777c.251-.8.478-1.525.707-2.251a23.329,23.329,0,0,1-5.089-.563.853.853,0,0,0-.858.262,5.093,5.093,0,0,0-.763,1.8,11.816,11.816,0,0,0,4.995,1.007" transform="translate(-4.228 -70.377)" fill="#db6e5f"/>
        <path id="Trazado_107964" data-name="Trazado 107964" d="M16.439,201.436l-1.479,2.385a17.8,17.8,0,0,0,4.452.584,9.726,9.726,0,0,0,.274-2.634,9.488,9.488,0,0,1-3.248-.335" transform="translate(-5.089 -68.529)" fill="#db6e5f"/>
        <path id="Trazado_107965" data-name="Trazado 107965" d="M18.219,198.2a14.278,14.278,0,0,0,2.678.187q.253-1.888.507-3.775a11.027,11.027,0,0,0-3.185,3.588" transform="translate(-6.198 -66.206)" fill="#db6e5f"/>
        <path id="Trazado_107966" data-name="Trazado 107966" d="M43.513,199.484a16.434,16.434,0,0,1-1.55.759c-2.2.88-4.487,1.481-6.719,2.259a4.58,4.58,0,0,0,.239,1.359c.208,1-.03,1.238-.981,1.219-.6-.011-1.2-.117-1.807-.17-1.5-.132-2.993-.243-4.486-.394a6.916,6.916,0,0,0-1.461-.121,3.036,3.036,0,0,1-1.476.317c-.594,0-1.189.019-1.783.03a5.855,5.855,0,0,1-.368,1.725c-.08.3-.129.6-.191.905a17.784,17.784,0,0,0,5.859-.107,14.152,14.152,0,0,1,2.4-.292,19.374,19.374,0,0,0,3.246-.482c2.121-.41,4.258-.746,6.387-1.118a3.971,3.971,0,0,0,.5-.153,7.978,7.978,0,0,1,.85-1.562q1.119-2,2.227-4.007c.089-.162.28-.311.123-.578a2.622,2.622,0,0,0-1,.409" transform="translate(-7.801 -67.726)" fill="#db6e5f"/>
        <path id="Trazado_107967" data-name="Trazado 107967" d="M50.826,194.594c-.268-.146-.36-.437-.535-.658a8.447,8.447,0,0,0-.993-1.286,4.679,4.679,0,0,1-1.744,1.243c-2.005.73-3.916,1.684-5.9,2.459a3.285,3.285,0,0,1-.9.293,8.851,8.851,0,0,0,.31,2.591c.93-.311,1.849-.66,2.792-.927a32.8,32.8,0,0,0,6.628-2.727c.6-.322.6-.323.344-.988" transform="translate(-13.864 -65.54)" fill="#db6e5f"/>
        <path id="Trazado_107968" data-name="Trazado 107968" d="M37.56,210.757c-1.768.434-3.588.588-5.363.979a14.665,14.665,0,0,1-3.511.437,6.9,6.9,0,0,0-1.627.22,18.913,18.913,0,0,1-6.279.146c-.172-.02-.345-.03-.518-.044-.072.152-.146.3-.214.457-.1.215-.216.43-.485.383-.324-.057-.335-.332-.323-.6.005-.112.012-.224.018-.337a23.977,23.977,0,0,1-3.174-.22,18.024,18.024,0,0,0,2.649,1.207c.585.207.608.308.447.891a18.782,18.782,0,0,0-.62,2.221c.746-.028,1.492-.067,2.239-.084a30.953,30.953,0,0,0,6.325-.705c1.824-.424,3.7-.47,5.551-.715a9.109,9.109,0,0,1,1.794-.212,2.61,2.61,0,0,0,.437-.723c.139-.244.254-.586.611-.453.454.169.152.519.11.8l.422.036c.026-.111.049-.222.077-.333a15.34,15.34,0,0,1,1.693-3.355,1.134,1.134,0,0,0-.259,0" transform="translate(-5.472 -71.697)" fill="#db6e5f"/>
        <path id="Trazado_107969" data-name="Trazado 107969" d="M27.031,227.615a10.981,10.981,0,0,0-3.16.306,15.152,15.152,0,0,0,2.885,2.268,1.817,1.817,0,0,1,.987,1.223,1.145,1.145,0,0,0,.592-.051c.733-.139,1.461-.328,2.2-.4,1.744-.164,3.462-.5,5.191-.763a18.548,18.548,0,0,1,2.642-.321,17.924,17.924,0,0,0,.152-3.284c-1.568.175-3.139.327-4.7.529a49.5,49.5,0,0,1-6.787.49" transform="translate(-8.121 -77.089)" fill="#db6e5f"/>
        <path id="Trazado_107970" data-name="Trazado 107970" d="M44.618,192.045a13.537,13.537,0,0,1,1.753-.7,8.083,8.083,0,0,0,2.051-1.221c.029-.35-.243-.547-.4-.8-.263-.426-.726-.709-.863-1.224a.845.845,0,0,0-1.213-.1,1.4,1.4,0,0,1-.807.279,3.3,3.3,0,0,1-1.24,1.011,8.018,8.018,0,0,1-2.206,1.08,7.882,7.882,0,0,1-1.464.806,11.391,11.391,0,0,0,.274,2.585c1.373-.568,2.75-1.126,4.116-1.709" transform="translate(-13.685 -63.884)" fill="#db6e5f"/>
        <path id="Trazado_107971" data-name="Trazado 107971" d="M40.611,194.927c1.373-.568,2.75-1.126,4.116-1.709a13.543,13.543,0,0,1,1.753-.7,8.063,8.063,0,0,0,2.051-1.221c.495.08.6.473.7.871a4.688,4.688,0,0,1-1.745,1.242c-2.006.73-3.917,1.684-5.9,2.459a3.276,3.276,0,0,1-.9.293,2.222,2.222,0,0,1-.071-1.234" transform="translate(-13.795 -65.08)" fill="#ffe9c4"/>
        <path id="Trazado_107972" data-name="Trazado 107972" d="M45.433,185.719a3.308,3.308,0,0,1-1.24,1.011,8.033,8.033,0,0,1-2.206,1.079,4.593,4.593,0,0,1-.819-1.411.779.779,0,0,1,.346-1.019A3.382,3.382,0,0,0,42.9,182.8c.044-.366-.08-.464-.433-.394a1.346,1.346,0,0,1-1.373-.35c.355-.231.6.036.866.039.616.007.969-.23.944-.829-.023-.563.274-.771.713-.92.559,1.807,1.124,3.611,1.814,5.373" transform="translate(-13.981 -61.355)" fill="#2c1a16"/>
        <path id="Trazado_107973" data-name="Trazado 107973" d="M43.411,177.111a2.546,2.546,0,0,1-1.064-1.605,2.964,2.964,0,0,1,1.064,1.605" transform="translate(-14.407 -59.708)" fill="#2c1a16"/>
        <path id="Trazado_107974" data-name="Trazado 107974" d="M19.647,218.545c.746-.028,1.492-.067,2.239-.084a30.949,30.949,0,0,0,6.325-.705c1.824-.424,3.7-.47,5.551-.715a9.12,9.12,0,0,1,1.795-.212,3.318,3.318,0,0,1-1.112,1.349,41.5,41.5,0,0,0-5.906.707,33.7,33.7,0,0,1-7.459.73,4.844,4.844,0,0,0-1.8.183,1.592,1.592,0,0,1,.364-1.254" transform="translate(-6.558 -73.764)" fill="#ffe9c4"/>
        <path id="Trazado_107975" data-name="Trazado 107975" d="M40.183,217.559A3.318,3.318,0,0,0,41.3,216.21a2.6,2.6,0,0,0,.436-.724c.139-.243.255-.585.611-.453.454.169.153.519.111.8a8.634,8.634,0,0,0-.8,1.391,57.745,57.745,0,0,1-4.383,4.8c-.359.157-.692.472-1.12.172-.037-.411.277-.607.521-.842a38.131,38.131,0,0,0,3.275-3.432,4.076,4.076,0,0,0,.236-.358" transform="translate(-12.298 -73.145)" fill="#5d2b1f"/>
        <path id="Trazado_107976" data-name="Trazado 107976" d="M22.218,227.3a15.117,15.117,0,0,0,2.885,2.267,1.817,1.817,0,0,1,.987,1.223.556.556,0,0,1-.689.137,1.672,1.672,0,0,0-.335-.385,35.683,35.683,0,0,1-4-3.092c-.221-.41-1.817-1.6-2.034-1.971-.1-.181.271-.51.473-.643.248-.164.432-.013.559.213a11.147,11.147,0,0,0,2.158,2.25" transform="translate(-6.467 -76.467)" fill="#5d2b1f"/>
        <path id="Trazado_107977" data-name="Trazado 107977" d="M21.34,210.2A2.032,2.032,0,0,0,21,211.334c-.072.152-.146.3-.214.457-.1.215-.216.43-.486.383-.324-.057-.335-.332-.323-.6.005-.112.012-.224.018-.337.259-.35.317-.642-.191-.827a1.755,1.755,0,0,1-.4-.3,4.458,4.458,0,0,0-.87-1.369c-.187-.22-.448-.457-.123-.722.307-.251.536.025.719.237.224.259.412.548.614.826a2.355,2.355,0,0,0,.671.777c.25-.8.478-1.525.706-2.251.252-.16.5-.377.777-.041a5.859,5.859,0,0,1-.368,1.725c-.08.3-.129.6-.191.9" transform="translate(-6.212 -70.558)" fill="#5d2b1f"/>
        <path id="Trazado_107978" data-name="Trazado 107978" d="M41.325,177.578a.41.41,0,0,1-.42.449.627.627,0,0,1-.6-.614.5.5,0,0,1,.49-.5c.294-.016.546.319.532.67" transform="translate(-13.711 -60.185)" fill="#2c1a16"/>
        <path id="Trazado_107979" data-name="Trazado 107979" d="M54.37,201.846l.071-.135c-.026.048-.053.1-.079.143Z" transform="translate(-18.494 -68.623)" fill="#fff4d4"/>
        <path id="Trazado_107980" data-name="Trazado 107980" d="M56.021,195.531l.042.11.075-.172a.822.822,0,0,1-.117.061" transform="translate(-19.059 -66.5)" fill="#fff4d4"/>
        <path id="Trazado_107981" data-name="Trazado 107981" d="M49.736,198.793a2.622,2.622,0,0,1,1-.409.379.379,0,0,1,.019.041c.591-1.594-.116-1.371-.116-1.371a32.791,32.791,0,0,1-6.628,2.728c-.942.267-1.861.615-2.792.926a2.112,2.112,0,0,0,.245,1.1c2.231-.778,4.521-1.379,6.719-2.259a16.43,16.43,0,0,0,1.55-.759" transform="translate(-14.024 -67.035)" fill="#fff4d4"/>
        <path id="Trazado_107982" data-name="Trazado 107982" d="M50.729,179.908c.317-.134,12.75-11.793,13.18-12.307a30.992,30.992,0,0,1,2.649-2.7c.252-.235,1.2-1.19,1.571-1.118.482.093.484,1.07.439,1.174a6.243,6.243,0,0,0-1.62,2.024,7.819,7.819,0,0,1,2.213,1.641,1.8,1.8,0,0,1-.25,1.32,5.113,5.113,0,0,1-2.517,1.857c-1.119.283-5.931,5.29-6.761,6.353-.561.719-3.11,3.9-3.288,4.131q-.787,1.024-1.6,2.028a1.348,1.348,0,0,1-.526.439c-.267-.146-.36-.437-.535-.658-.337-.424-3.037-3.342-2.955-4.183" transform="translate(-17.258 -55.719)" fill="#feaed7"/>
        <path id="Trazado_107983" data-name="Trazado 107983" d="M44.21,81.556a3.764,3.764,0,0,1-.521-.706,1.077,1.077,0,0,1-.627-.436A20.207,20.207,0,0,0,38.3,76.737c-.259-.152-1.382-.784-1.728-.95a30.952,30.952,0,0,0-6.735-2.208,22.533,22.533,0,0,0-3.294-.375,27.919,27.919,0,0,0-5.647.385,26.288,26.288,0,0,0-7.885,2.8,26.453,26.453,0,0,0-3.556,2.414,23.474,23.474,0,0,0-4.7,4.948,27.35,27.35,0,0,0-2.513,4.411,25.532,25.532,0,0,0-2.2,8.967,24.065,24.065,0,0,0,.328,5.452,25.149,25.149,0,0,0,9.715,16.175,1.117,1.117,0,0,1,.5,1.263c-.11.449-.088.914-.186,1.35-.238,1.064-.069,2.152-.261,3.212a14.173,14.173,0,0,0-.073,3.224,1.181,1.181,0,0,0,1.708,1.029,4.757,4.757,0,0,0,.942-.516c2.332-1.561,4.682-3.092,7.092-4.53a1.607,1.607,0,0,1,1.2-.308,24.658,24.658,0,0,0,4.469.382c1.411.035,2.793-.261,4.2-.239a1.433,1.433,0,0,1,.8-.32,24.832,24.832,0,0,0,6.338-2.165,2.6,2.6,0,0,1,.916-.315,1.6,1.6,0,0,1,.576-.517,20.772,20.772,0,0,0,4.568-3.49,1.182,1.182,0,0,1,.728-.459,5.217,5.217,0,0,1,1.108-1.482,25.5,25.5,0,0,0-.495-33.32" transform="translate(0 -24.902)" fill="#53bced"/>
        <path id="Trazado_107984" data-name="Trazado 107984" d="M44.765,95.346c.752,0,1.5-.02,2.255,0,.715.015.865.113.837.769a35.172,35.172,0,0,0,.271,4.78,31.052,31.052,0,0,0,.316,4.573,1.009,1.009,0,0,1,.015.293c-.1,1.731.179,3.448.246,5.173.085,2.208.21,4.423.408,6.622a29.852,29.852,0,0,0,.269,3.988c.106.469-.129.715-.593.6a3.836,3.836,0,0,0-1.541.022,5.779,5.779,0,0,1-2.142-.048,4.469,4.469,0,0,0-.773-.094c-4.729-.251-9.462-.172-14.194-.2-.261,0-.523-.005-.784-.008.08-.845.148-1.692.243-2.536.422-3.764.793-7.536,1.3-11.289.555-4.147.8-8.329,1.446-12.465l3.935-.018a1.836,1.836,0,0,0-.142.459c-.044,1.3-.277,2.588-.215,3.894a1.77,1.77,0,0,1-.35,1.279,1.826,1.826,0,0,0-.137,1.771.819.819,0,0,0,.881.63.9.9,0,0,0,.841-.7,1.962,1.962,0,0,0-.039-1.525,2.512,2.512,0,0,1-.221-1.6c.047-.649.08-1.3.13-1.948a8.729,8.729,0,0,1,.4-2.291l.363-.05.977.012c1.61.144,3.222.052,4.834.053a40.261,40.261,0,0,1,.108,4.687,1.89,1.89,0,0,1-.4,1.462,1.158,1.158,0,0,0-.2.934.991.991,0,0,0,.812.969c.422.03.784-.317.889-.872a2.06,2.06,0,0,0,.036-.583,63.259,63.259,0,0,1-.075-6.739" transform="translate(-9.986 -32.434)" fill="#fcf4d4"/>
        <path id="Trazado_107985" data-name="Trazado 107985" d="M28.149,95.581c-.643,4.136-.891,8.317-1.446,12.465-.5,3.754-.874,7.525-1.3,11.289-.094.844-.163,1.69-.243,2.536a1.564,1.564,0,0,1-1.039.181c-2.092.04-4.171-.26-6.265-.222-.735.013-.9-.238-.794-1,.662-4.956,1.066-9.94,1.71-14.9.357-2.751.544-5.517.931-8.263.064-.451.027-.916.086-1.368.09-.7.157-.749.868-.759,1.405-.022,2.811-.03,4.215-.044a3.475,3.475,0,0,0,1.109,0l2.165.079" transform="translate(-5.796 -32.489)" fill="#427185"/>
        <path id="Trazado_107986" data-name="Trazado 107986" d="M30.025,92.11a3.475,3.475,0,0,1-1.109,0A12.508,12.508,0,0,1,30.6,87.43a3.9,3.9,0,0,1,4.59-1.712c.188.056.372.126.561.176A2.067,2.067,0,0,1,37.3,87.117c.146.366.379.539.736.2.848-.808,1.925-.689,2.962-.712a6.194,6.194,0,0,1,.874.1,2.041,2.041,0,0,1,1.789,1.323,7.906,7.906,0,0,1,.757,2.823,7.275,7.275,0,0,0,.2,1.156,63.27,63.27,0,0,0,.075,6.74,2.06,2.06,0,0,1-.036.583c-.1.555-.468.9-.889.872a.992.992,0,0,1-.812-.969,1.158,1.158,0,0,1,.2-.934,1.89,1.89,0,0,0,.4-1.462,40.258,40.258,0,0,0-.108-4.687,8.863,8.863,0,0,0-.7-3.521,1.418,1.418,0,0,0-1.249-.944,9.453,9.453,0,0,0-1.853.006,1.563,1.563,0,0,0-1.38,2.016,5.826,5.826,0,0,1,.345,2.388l-.978-.012c-.094-.162-.044-.4-.284-.591-.034.272-.055.457-.078.641a8.73,8.73,0,0,0-.4,2.291c-.05.649-.083,1.3-.13,1.948a2.514,2.514,0,0,0,.221,1.6A1.961,1.961,0,0,1,37,99.5a.9.9,0,0,1-.841.7.819.819,0,0,1-.881-.63,1.824,1.824,0,0,1,.137-1.771,1.771,1.771,0,0,0,.35-1.279c-.062-1.306.172-2.594.215-3.894a1.828,1.828,0,0,1,.142-.459c.21-.953.43-1.9.625-2.862a2,2,0,0,0-.865-2.146,3.062,3.062,0,0,0-4.5.992,10.535,10.535,0,0,0-1.361,3.954" transform="translate(-9.837 -29.097)" fill="#db6e5f"/>
        <path id="Trazado_107987" data-name="Trazado 107987" d="M41.582,95.215c.022-.185.044-.369.077-.641.24.193.191.429.285.591l-.362.05" transform="translate(-14.146 -32.174)" fill="#ebadd3"/>
        <path id="Trazado_107988" data-name="Trazado 107988" d="M125.914,250.472l43.576-.152-8.451,21.633a1.018,1.018,0,0,1-.949.647l-23.438-.03a.973.973,0,0,1-.882-.567Z" transform="translate(-42.836 -85.16)" fill="#fff4d4"/>
        <path id="Trazado_107989" data-name="Trazado 107989" d="M231.447,199.235a7.509,7.509,0,0,1,3.187,4.025,12.519,12.519,0,0,1,.718,4.466c.048,1.224.111,2.449.2,3.668.2,2.739.264,5.483.271,8.226a50.021,50.021,0,0,0,.5,6.1c.276,2.2.507,4.4.674,6.613q.35,4.626.73,9.249c.024.287.137.566.178.853a.993.993,0,0,1-1.034,1.277c-.961.044-1.923.055-2.885.08-.786-.013-1.573-.043-2.359-.036-1.6.015-3.208-.061-4.811.044-1.281-.118-2.566-.049-3.849-.047-1.575,0-3.151-.07-4.725.044a17.217,17.217,0,0,0-2-.053c-.349-.016-.7-.012-1.045-.061-.489-.07-.663-.308-.446-.709a31.191,31.191,0,0,0,1.466-4.012c.83-2.207,1.591-4.44,2.505-6.616a36.3,36.3,0,0,0,1.628-6.24c.3-1.327.542-2.668.825-4,.046-.219.121-1.086.166-1.365a23.082,23.082,0,0,1,2.561-2.6c.466-.418.484-.512.189-1.033s-.594-1.064-.907-1.585a9.286,9.286,0,0,0-2.229-2.637c-.7-1.062-.679-1.17.2-2.069.405-.415.766-.874,1.172-1.286a3.379,3.379,0,0,0,.963-2.355,19.5,19.5,0,0,1,.794-4.966,8.162,8.162,0,0,0,1.725-.571,20.282,20.282,0,0,0,5.238-2.284,1.474,1.474,0,0,1,.406-.123m-5.016,36.813a1.433,1.433,0,0,0,.335-.152,10.71,10.71,0,0,0,.955-.766,49.993,49.993,0,0,0,6.434-7.832,1.264,1.264,0,0,0,.275-.635.4.4,0,0,0-.167-.38.349.349,0,0,0-.41,0,1.384,1.384,0,0,0-.3.315c-.617.85-1.213,1.714-1.843,2.554a31.164,31.164,0,0,1-5.469,6,1.257,1.257,0,0,0-.249.243.4.4,0,0,0-.011.488.471.471,0,0,0,.447.172m7.163-26.571c-.025-.164-.046-.312-.2-.379a.34.34,0,0,0-.452.145,5.171,5.171,0,0,0-.308.624,9.684,9.684,0,0,1-4.038,4.789c-.2.115-.395.247-.585.383q-1.21.859-2.416,1.725c-.143.1-.325.218-.253.409.088.235.317.217.525.166a2.641,2.641,0,0,0,.847-.443c.938-.639,1.861-1.3,2.815-1.917a10.427,10.427,0,0,0,3.876-4.937c.079-.186.129-.385.189-.565m-5.027,20.158a1.2,1.2,0,0,0,.219,0c.217-.024.418-.111.438-.35s-.165-.368-.368-.432a5.493,5.493,0,0,0-.6-.121,7.342,7.342,0,0,1-4.852-2.679c-.115-.156-.253-.252-.444-.156a.387.387,0,0,0-.177.527,2.367,2.367,0,0,0,.645.928,8.429,8.429,0,0,0,5.137,2.287m1.68-25.495a7.6,7.6,0,0,0-4.057,1.2,1.677,1.677,0,0,0-.4.332c-.136.154-.264.358-.081.539s.307-.036.441-.127a7.971,7.971,0,0,1,2.882-1.194c1.152-.24,2.272-.286,3.071.825a.454.454,0,0,0,.063.061c.112.1.24.194.386.093a.331.331,0,0,0,.087-.463,2.033,2.033,0,0,0-.548-.669,2.461,2.461,0,0,0-1.844-.594" transform="translate(-73.026 -67.781)" fill="#0d66bf"/>
        <path id="Trazado_107990" data-name="Trazado 107990" d="M231.12,191.016a1.474,1.474,0,0,0-.406.123,20.282,20.282,0,0,1-5.238,2.284,8.2,8.2,0,0,1-1.725.571c-.627-.545-1.359-1-1.563-1.9a.544.544,0,0,0-.3-.3c-.664-.295-1.211-.783-1.854-1.112a4.914,4.914,0,0,0-1.264-.767,47.9,47.9,0,0,1-4.29-2.528,1.563,1.563,0,0,1-.786-1.378c.009-.615.559-.664.984-.825.288-.108.549-.232.468-.618a2.247,2.247,0,0,1,1.735-2.111.263.263,0,0,0,.223-.381,2.389,2.389,0,0,1,.115-1.44c.331-.238.651-.548,1.091-.482.5.075.653-.171.761-.6a2.7,2.7,0,0,1,2.5-2.2,2.271,2.271,0,0,0,1.323-.783,5.026,5.026,0,0,1,1.95-1.3,4.233,4.233,0,0,1,5.609,3.589,7.192,7.192,0,0,1-.026.961,1.009,1.009,0,0,0,.724,1.225c1.719.8,1.9,1.2,1.358,2.973a.671.671,0,0,0,0,.586.3.3,0,0,1,.041.077,4.864,4.864,0,0,0,.9,2.1,3.476,3.476,0,0,1,.552,1.735,1.436,1.436,0,0,1-.85,1.5c-.663.358-1.357.66-2.037.987m-6.382-2.862c.028-.114.049-.148.04-.17a2.054,2.054,0,0,0-.121-.229,1.765,1.765,0,0,1,.163-2.116,2.666,2.666,0,0,1,1.444-.921,1.45,1.45,0,0,0,.893-2.16,2.436,2.436,0,0,0-.983-.961,3.517,3.517,0,0,1-1.7-2.986c0-.193.062-.417-.183-.571a3.63,3.63,0,0,1-1.94.635c-.224-.026-.819,1.081-.733,1.3a.318.318,0,0,0,.188.146c.27.087.4.253.285.527a.359.359,0,0,1-.511.2c-.359-.185-.459.007-.56.288-.117.329-.25.654-.386.976a10.441,10.441,0,0,0-.674,4.2,1.8,1.8,0,0,0,1.383,1.9,6.966,6.966,0,0,0,3.4-.056" transform="translate(-72.7 -59.562)" fill="#2c1a16"/>
        <path id="Trazado_107991" data-name="Trazado 107991" d="M200.127,237.657c-.263.248-.418.6-.785.752-.561.234-.8.133-.983-.478a.413.413,0,0,0-.164-.277c-.109-.17-.313-.342-.309-.509.017-.783-.424-1.511-.251-2.3.152-.432.631-.8.195-1.338-.23-.283-.53-.643-.16-.992.325-.307.645.02.942.168.767.377,4.488-1.89,5.4-2.6.606-.474,4.984-4.353,6.251-5.235.651-.454,4.142-4.182,4.851-4.91a9.277,9.277,0,0,1,2.229,2.637c.313.522.607,1.056.907,1.585s.278.615-.189,1.033a23.141,23.141,0,0,0-2.562,2.6c-.319.166-1.816,1.644-2.373,2.1a93.511,93.511,0,0,1-9.265,5.905,4.184,4.184,0,0,1-1.84.494,4.862,4.862,0,0,1-.5.067,1.355,1.355,0,0,0-1.39,1.306" transform="translate(-67.189 -74.821)" fill="#feaed7"/>
        <path id="Trazado_107992" data-name="Trazado 107992" d="M217.454,266.745c1.574-.114,3.15-.042,4.725-.044,1.283,0,2.567-.071,3.849.047-.092.487-.713.771-.524,1.366a26.6,26.6,0,0,0-3.174,5.392,35.48,35.48,0,0,1-2.4,4.448c-.936,1.541-1.839,3.1-2.667,4.7a1.435,1.435,0,0,1-.836-.159,14.578,14.578,0,0,0-1.685-.662,25.179,25.179,0,0,1-2.4-.932,2.726,2.726,0,0,1,.278-1,24.115,24.115,0,0,0,1.283-3.7,53.058,53.058,0,0,1,2.124-5.619c.473-1.279,1.076-2.509,1.43-3.831" transform="translate(-72.239 -90.726)" fill="#feaed7"/>
        <path id="Trazado_107993" data-name="Trazado 107993" d="M240.963,283.08a10.14,10.14,0,0,1-1.344-2.516,2.544,2.544,0,0,0-.411-.765,38.643,38.643,0,0,1-2.807-4.718c-.89-1.706-1.96-3.294-2.972-4.92a2.2,2.2,0,0,1-.368-.783,8.032,8.032,0,0,1,1.873.323,37.753,37.753,0,0,1,4.86.854,1.36,1.36,0,0,0,1.4-.188c.34.136.427.468.539.755,1.177,3.023,2.6,5.941,3.709,8.992a2.9,2.9,0,0,1,.27,1c-1.578.666-3.209,1.205-4.749,1.962" transform="translate(-79.288 -91.641)" fill="#feaed7"/>
        <path id="Trazado_107994" data-name="Trazado 107994" d="M151.486,290.6a4.709,4.709,0,0,1-4.693,4.755,4.574,4.574,0,0,1-4.705-4.514,4.863,4.863,0,0,1,4.822-4.869,4.549,4.549,0,0,1,4.576,4.628m-4.68-1.586a1.754,1.754,0,0,0-1.838,1.784,1.859,1.859,0,0,0,1.865,1.888,1.881,1.881,0,0,0,1.857-1.815,1.828,1.828,0,0,0-1.884-1.857" transform="translate(-48.339 -97.29)" fill="#db6e5f"/>
        <path id="Trazado_107995" data-name="Trazado 107995" d="M167.628,295.116a4.649,4.649,0,0,1-4.661-4.685,4.531,4.531,0,0,1,4.59-4.533,4.609,4.609,0,1,1,.071,9.219m-.159-6.409a1.9,1.9,0,0,0-1.838,1.853,1.793,1.793,0,0,0,1.814,1.748,1.873,1.873,0,0,0,1.832-1.845,1.81,1.81,0,0,0-1.807-1.756" transform="translate(-55.442 -97.263)" fill="#db6e5f"/>
        <path id="Trazado_107996" data-name="Trazado 107996" d="M251.792,295.047a1.654,1.654,0,0,1,1.778.986c.2.358.406.708.6,1.066a1.042,1.042,0,0,1-.211,1.488,5.487,5.487,0,0,1-1.264.931,36.159,36.159,0,0,0-4.275,2.718,10.307,10.307,0,0,1-2.155,1.153,2.213,2.213,0,0,1-1.533.152,1.2,1.2,0,0,1-.739-2.016,10.389,10.389,0,0,1,1.5-1.582c.914-.841.918-.836.149-1.814-.144-.183-.283-.371-.424-.557q-.035-.369-.071-.738c.291-.465.839-.6,1.225-.937a5.869,5.869,0,0,0,.662-.193,1.4,1.4,0,0,1,1.9.372,1.4,1.4,0,0,0,2.057-.117c.272-.3.529-.606.792-.911" transform="translate(-82.898 -100.37)" fill="#db6e5f"/>
        <path id="Trazado_107997" data-name="Trazado 107997" d="M208.294,298.668a18.43,18.43,0,0,1-.414,2.408.916.916,0,0,1-.935.755c-.232.005-.465.046-.7.042-2.567-.044-5.132.032-7.7.073a4.145,4.145,0,0,1-2.138-.321.918.918,0,0,1-.239-1.531,2.406,2.406,0,0,1,1.054-.6c.83-.273,1.667-.523,2.5-.78.5-.154,1-.319,1.506-.453a1.483,1.483,0,0,0,1.134-1.2c.006-.028.022-.055.026-.083a1.362,1.362,0,0,1,1.552-1.3c1,.356,1.182.664.957,1.672-.038.169-.09.335-.135.5-.164.623-.116.707.549.651a12.589,12.589,0,0,0,1.795-.277.943.943,0,0,1,1.178.444" transform="translate(-66.634 -100.591)" fill="#db6e5f"/>
        <path id="Trazado_107998" data-name="Trazado 107998" d="M212.463,296.132a.943.943,0,0,0-1.178-.444,12.589,12.589,0,0,1-1.795.277c-.665.056-.713-.028-.549-.651.044-.168.1-.333.135-.5.225-1.008.047-1.316-.957-1.672a31.965,31.965,0,0,1,1.25-3.391c.2-.554.749-.862.969-1.411.075-.185.369-.088.565-.108a25.168,25.168,0,0,0,2.4.932,14.543,14.543,0,0,1,1.685.663,1.44,1.44,0,0,0,.836.159c.183.3.245.59-.064.858a1.1,1.1,0,0,0-.3.317c-.788,1.688-2.043,3.1-2.824,4.791-.034.073-.117.123-.177.183" transform="translate(-70.803 -98.054)" fill="#fff4d4"/>
        <path id="Trazado_107999" data-name="Trazado 107999" d="M252.257,292.375c-.263.3-.52.614-.792.911a1.4,1.4,0,0,1-2.057.117,1.4,1.4,0,0,0-1.9-.372,5.868,5.868,0,0,1-.662.193c-.556-1.168-1.108-2.339-1.669-3.506a1.251,1.251,0,0,1-.135-.581c1.541-.756,3.171-1.294,4.749-1.962a1.133,1.133,0,0,1,1.15,1.093,17.943,17.943,0,0,0,1.32,4.106" transform="translate(-83.363 -97.698)" fill="#fff4d4"/>
        <path id="Trazado_108000" data-name="Trazado 108000" d="M240.914,269.46a1.356,1.356,0,0,1-1.4.188,37.779,37.779,0,0,0-4.86-.854,8.036,8.036,0,0,0-1.874-.323l-.508-.35c-.189-.594.432-.879.525-1.366,1.6-.1,3.207-.029,4.811-.044.786-.007,1.573.023,2.359.036a28.4,28.4,0,0,1,.947,2.714" transform="translate(-79.008 -90.732)" fill="#fbaed6"/>
        <path id="Trazado_108001" data-name="Trazado 108001" d="M162.755,282.855c-.034-.493-.062-.986-.1-1.479-.032-.386.079-.6.521-.6,1.832.016,3.664.005,5.5.022.513,0,.554.08.405.581s-.319.994-.48,1.491a56.693,56.693,0,0,1-5.839-.019" transform="translate(-55.333 -95.523)" fill="#db6e5f"/>
        <path id="Trazado_108002" data-name="Trazado 108002" d="M139.71,280.672c1.509-.113,3.124.131,4.633.058a.475.475,0,0,1,.484.3,9.933,9.933,0,0,1,.8,1.826c-1.343.006-2.687-.011-4.03.029-.586.017-1.031-.074-1.2-.715a10.445,10.445,0,0,1-.687-1.5" transform="translate(-47.53 -95.476)" fill="#db6e5f"/>
        <path id="Trazado_108003" data-name="Trazado 108003" d="M152.618,282.891a12.96,12.96,0,0,1-1.057-2.1c1.489,0,2.879,0,4.269,0,.3,0,.4.193.412.456.024.553.045,1.106.067,1.659-1.231.024-2.46.054-3.69-.018" transform="translate(-51.562 -95.527)" fill="#db6e5f"/>
        <path id="Trazado_108004" data-name="Trazado 108004" d="M178.464,281.017c.026.347-.206.635-.224.971-.235.964-.925,1.109-1.767.982-.143-.021-.286-.034-.428-.05.156-.495.332-.984.46-1.486a.61.61,0,0,1,.756-.513,6.283,6.283,0,0,1,1.2.1" transform="translate(-59.891 -95.568)" fill="#db6e5f"/>
        <path id="Trazado_108005" data-name="Trazado 108005" d="M201.484,246.09a1.355,1.355,0,0,1,1.39-1.306,4.868,4.868,0,0,0,.5-.067,1.188,1.188,0,0,1-.981,1.3c-.246.067-.49.143-.735.214-.024-.092-.1-.119-.178-.137" transform="translate(-68.546 -83.254)" fill="#ff761a"/>
        <path id="Trazado_108006" data-name="Trazado 108006" d="M245.8,297.763q.036.369.071.738c-.389-.211-.371-.461-.071-.738" transform="translate(-83.546 -101.3)" fill="#ffe7a0"/>
        <path id="Trazado_108007" data-name="Trazado 108007" d="M173.58,259.642a7.735,7.735,0,0,1-.438,1.568c-.3,1-.63,2-.936,3.007a.738.738,0,0,1-.808.613c-3.035-.014-6.071,0-9.106,0-.619,0-.629-.026-.658-.643q-.09-1.968-.172-3.935c-.028-.7-.016-.722.637-.723q5.516-.009,11.032,0a.67.67,0,0,1,.447.113" transform="translate(-54.928 -88.292)" fill="#db6e5f"/>
        <path id="Trazado_108008" data-name="Trazado 108008" d="M175.836,250.19c-.32,1.229-.86,2.33-1.277,3.476-.127.348-.395.375-.7.373-.787-.007-1.575,0-2.363,0H162.3c-.175,0-.35-.009-.525,0-.354.018-.544-.119-.556-.5-.034-1.023.085-2.038.129-3.057a.307.307,0,0,1,.331-.32c.146-.009.292-.009.437-.01q6.431-.048,12.861-.094a1.4,1.4,0,0,1,.853.13" transform="translate(-54.847 -85.068)" fill="#db6e5f"/>
        <path id="Trazado_108009" data-name="Trazado 108009" d="M141.5,259.479c.193-.192.47-.1.719-.1,3,.09,6.009.079,9.014.084.852,0,.877.009.868.875-.013,1.256.228,2.5.174,3.756-.03.718-.032.747-.74.751-2.3.013-4.61.006-6.915.022a.724.724,0,0,1-.806-.5,26.224,26.224,0,0,0-2.264-4.534.332.332,0,0,1-.051-.354" transform="translate(-48.127 -88.234)" fill="#db6e5f"/>
        <path id="Trazado_108010" data-name="Trazado 108010" d="M136.5,250.26c1.089,0,2.079,0,3.069,0q4.816-.016,9.632-.034c.9,0,.929.016.982.92.047.786.03,1.576.068,2.363.022.466-.182.638-.622.592a1.718,1.718,0,0,0-.175,0c-3.386,0-6.772-.016-10.156.111a1.16,1.16,0,0,1-1.257-.7c-.342-.709-.763-1.378-1.136-2.072a3.009,3.009,0,0,1-.406-1.179" transform="translate(-46.438 -85.128)" fill="#db6e5f"/>
        <path id="Trazado_108011" data-name="Trazado 108011" d="M166.467,271.251c1.312,0,2.623-.008,3.934,0,.561,0,.6.051.408.533a23.036,23.036,0,0,0-1,3.073.644.644,0,0,1-.727.573q-3.192-.012-6.383.014c-.4,0-.592-.133-.618-.541-.061-.989-.16-1.975-.21-2.965-.034-.672,0-.7.66-.707,1.312-.011,2.623,0,3.935,0Z" transform="translate(-55.066 -92.274)" fill="#db6e5f"/>
        <path id="Trazado_108012" data-name="Trazado 108012" d="M193.507,242.5c-.173.794.269,1.522.251,2.3,0,.168.2.34.309.509-.54.019-3.246.11-3.368.389-.414.954-2.223,5.307-2.41,5.732h-2.928c.361-1.31.693-2.513,1.023-3.717a.338.338,0,0,1,.4-.257c.423.031,1.429-2.526,1.781-3.515a2.058,2.058,0,0,1,2.1-1.494c.583-.005,2.477.015,2.841.047" transform="translate(-63.061 -82.484)" fill="#db6e5f"/>
        <path id="Trazado_108013" data-name="Trazado 108013" d="M150.406,271.114c.991,0,1.983-.022,2.974.007.726.022.719.051.761.742.059.988.117,1.977.2,2.963.034.418-.117.578-.535.575q-2.187-.017-4.374,0a.761.761,0,0,1-.777-.44c-.547-1.1-1.118-2.179-1.649-3.282-.24-.5-.17-.585.426-.594.992-.015,1.983,0,2.974,0Z" transform="translate(-49.968 -92.223)" fill="#db6e5f"/>
        <path id="Trazado_108014" data-name="Trazado 108014" d="M132.643,264.908a.914.914,0,0,1-.334-.39q-1.11-2.5-2.224-5a.689.689,0,0,1-.028-.171c1.372,0,2.743.006,4.114,0a.621.621,0,0,1,.62.391c.664,1.4,1.59,2.656,2.218,4.076.082.187.162.375.247.561.152.335.05.494-.321.492-.672,0-1.343,0-2.015.01-.759.006-1.518.015-2.277.023" transform="translate(-44.246 -88.232)" fill="#db6e5f"/>
        <path id="Trazado_108015" data-name="Trazado 108015" d="M137.376,275.538c-.76-1.487-1.366-3.017-2.035-4.546,1.254.018,2.509.07,3.763.04a1.25,1.25,0,0,1,1.417.959c.29.851.744,1.646,1.117,2.469a1.693,1.693,0,0,1,.31.878c-1.506.119-3.067.192-4.571.2" transform="translate(-46.044 -92.193)" fill="#db6e5f"/>
        <path id="Trazado_108016" data-name="Trazado 108016" d="M127.729,254.373c-.594-.959-.9-2.061-1.472-3.028l-.342-.88c.144-.235.371-.15.56-.152,1.078-.011,2.158,0,3.237-.015.35-.005.617.049.764.42a22.552,22.552,0,0,0,1.631,3.468c-1.543.161-2.97.008-4.377.187" transform="translate(-42.837 -85.152)" fill="#db6e5f"/>
        <path id="Trazado_108017" data-name="Trazado 108017" d="M186.05,259.553a19.887,19.887,0,0,1-1.119,3.187c-.234.684-.54,1.343-.814,2.014a10.3,10.3,0,0,1-2.26-.022c.48-1.6.951-3.155,1.4-4.71a.608.608,0,0,1,.7-.5c.7.024,1.395.021,2.092.03" transform="translate(-61.869 -88.291)" fill="#db6e5f"/>
        <path id="Trazado_108018" data-name="Trazado 108018" d="M181.758,271.328a3.511,3.511,0,0,1-.435,1.31c-.337.895-.736,1.766-1.11,2.648-.553.015-1.106.015-1.657.05-.341.022-.508-.059-.406-.434a20.09,20.09,0,0,1,1.244-3.255.593.593,0,0,1,.622-.375,13.573,13.573,0,0,1,1.741.057" transform="translate(-60.597 -92.287)" fill="#db6e5f"/>
        <path id="Trazado_108019" data-name="Trazado 108019" d="M232.232,249.959a.472.472,0,0,1-.447-.173.394.394,0,0,1,.011-.487,1.241,1.241,0,0,1,.249-.243,31.143,31.143,0,0,0,5.469-6c.63-.84,1.227-1.7,1.843-2.555a1.4,1.4,0,0,1,.3-.314.348.348,0,0,1,.41,0,.4.4,0,0,1,.167.38,1.259,1.259,0,0,1-.275.635,49.964,49.964,0,0,1-6.433,7.832,11.022,11.022,0,0,1-.955.766,1.447,1.447,0,0,1-.335.152" transform="translate(-78.827 -81.692)" fill="#ffe9c4"/>
        <path id="Trazado_108020" data-name="Trazado 108020" d="M239.1,214.546c-.059.181-.11.379-.189.565a10.428,10.428,0,0,1-3.877,4.937c-.954.615-1.876,1.279-2.815,1.917a2.632,2.632,0,0,1-.846.443c-.209.051-.437.069-.525-.166-.073-.192.11-.307.252-.41q1.207-.863,2.416-1.725c.19-.135.383-.267.585-.383a9.683,9.683,0,0,0,4.037-4.789,5.272,5.272,0,0,1,.308-.624.34.34,0,0,1,.452-.145c.157.067.178.214.2.379" transform="translate(-78.528 -72.849)" fill="#ffe9c4"/>
        <path id="Trazado_108021" data-name="Trazado 108021" d="M232.739,243.362a8.429,8.429,0,0,1-5.137-2.287,2.367,2.367,0,0,1-.645-.928.385.385,0,0,1,.176-.526c.191-.1.329,0,.445.155a7.34,7.34,0,0,0,4.852,2.679,5.461,5.461,0,0,1,.6.121c.2.064.387.2.368.432s-.221.327-.438.35a1.2,1.2,0,0,1-.219,0" transform="translate(-77.199 -81.507)" fill="#ffe9c4"/>
        <path id="Trazado_108022" data-name="Trazado 108022" d="M235.9,206.664a2.461,2.461,0,0,1,1.844.594,2.033,2.033,0,0,1,.548.669.331.331,0,0,1-.087.463c-.146.1-.274.007-.386-.093a.456.456,0,0,1-.063-.061c-.8-1.11-1.919-1.064-3.071-.825A7.972,7.972,0,0,0,231.8,208.6c-.135.091-.267.3-.441.127s-.055-.385.081-.539a1.678,1.678,0,0,1,.4-.332,7.6,7.6,0,0,1,4.057-1.2" transform="translate(-78.679 -70.303)" fill="#ffe9c4"/>
        <path id="Trazado_108023" data-name="Trazado 108023" d="M227.967,189.684a6.958,6.958,0,0,1-3.4.056,1.8,1.8,0,0,1-1.383-1.9,10.461,10.461,0,0,1,.674-4.2c.137-.323.269-.647.386-.976.1-.28.2-.472.56-.287a.36.36,0,0,0,.511-.2c.112-.274-.015-.439-.284-.526a.324.324,0,0,1-.189-.146c-.086-.215.509-1.321.733-1.3a3.626,3.626,0,0,0,1.94-.635c.245.154.181.377.183.57a3.516,3.516,0,0,0,1.7,2.986,2.434,2.434,0,0,1,.983.961,1.45,1.45,0,0,1-.893,2.16,2.659,2.659,0,0,0-1.444.921,1.765,1.765,0,0,0-.163,2.116,1.946,1.946,0,0,1,.121.229c.01.021-.011.055-.04.169m-1.385-7.8c0-.209,0-.268,0-.325-.015-.183-.064-.36-.27-.4s-.313.117-.37.294c-.036.11-.037.234-.082.339-.289.692-.475,1.448-1.258,1.812-.306.143-.329.465-.271.767a1.336,1.336,0,0,0,.812.967c.214.1.46.2.627-.053s-.011-.445-.23-.557c-.443-.227-.432-.428-.076-.771a4.539,4.539,0,0,0,1.118-2.078m-1.066,4.732a2.37,2.37,0,0,0,1.609-.581.413.413,0,0,0,.134-.542c-.143-.233-.348-.142-.523-.02a2.394,2.394,0,0,1-1.279.478c-.293.012-.763-.1-.721.365.038.417.506.246.781.3m1.134,1.046c-.059-.183-.191-.333-.43-.2a5.254,5.254,0,0,0-.778.544.235.235,0,0,0,.056.422.912.912,0,0,0,1.152-.769m.534-5.065a.586.586,0,0,0-.538.589.381.381,0,0,0,.357.417.554.554,0,0,0,.575-.528.436.436,0,0,0-.394-.478" transform="translate(-75.929 -61.091)" fill="#fbaed6"/>
        <path id="Trazado_108024" data-name="Trazado 108024" d="M148.291,290.585a1.828,1.828,0,0,1,1.884,1.857,1.881,1.881,0,0,1-1.857,1.815,1.859,1.859,0,0,1-1.865-1.888,1.754,1.754,0,0,1,1.838-1.784" transform="translate(-49.824 -98.858)" fill="#fff4d4"/>
        <path id="Trazado_108025" data-name="Trazado 108025" d="M168.842,290.155a1.81,1.81,0,0,1,1.807,1.756,1.873,1.873,0,0,1-1.832,1.845A1.793,1.793,0,0,1,167,292.008a1.9,1.9,0,0,1,1.838-1.853" transform="translate(-56.815 -98.712)" fill="#fff4d4"/>
        <path id="Trazado_108026" data-name="Trazado 108026" d="M227.159,182.7a4.535,4.535,0,0,1-1.118,2.078c-.356.342-.368.543.076.77.218.112.408.29.23.558-.168.252-.414.155-.628.053a1.337,1.337,0,0,1-.812-.967c-.057-.3-.034-.624.272-.767.783-.364.968-1.12,1.258-1.812.044-.106.046-.229.081-.34.057-.177.158-.331.37-.294s.255.212.27.4c0,.058,0,.117,0,.326" transform="translate(-76.506 -61.909)" fill="#2c1a16"/>
        <path id="Trazado_108027" data-name="Trazado 108027" d="M226.314,189.6c-.274-.053-.742.117-.78-.3-.042-.463.428-.352.721-.365a2.392,2.392,0,0,0,1.279-.478c.175-.121.381-.212.523.02a.414.414,0,0,1-.135.543,2.373,2.373,0,0,1-1.609.581" transform="translate(-76.727 -64.07)" fill="#2c1a16"/>
        <path id="Trazado_108028" data-name="Trazado 108028" d="M227.758,191.706a.912.912,0,0,1-1.152.769.235.235,0,0,1-.057-.422,5.259,5.259,0,0,1,.779-.544c.239-.137.371.013.43.2" transform="translate(-77.037 -65.134)" fill="#2c1a16"/>
        <path id="Trazado_108029" data-name="Trazado 108029" d="M228.969,184.158a.436.436,0,0,1,.394.478.554.554,0,0,1-.575.528.381.381,0,0,1-.357-.417.586.586,0,0,1,.538-.589" transform="translate(-77.713 -62.651)" fill="#2c1a16"/>
        <path id="Trazado_108030" data-name="Trazado 108030" d="M188.136,41.829c-.332.307-.341.783-.619,1.133a6.262,6.262,0,0,1-3.039,2.067,25.094,25.094,0,0,1-2.774.68,7.8,7.8,0,0,1-2.67-.016c-3.31-.477-5.782-2.1-6.965-5.367a.809.809,0,0,0-.158-.2c-.065-1.563-.063-3.132-.214-4.687a21.9,21.9,0,0,0-.378-3.62c-2.209-8.313-4.373-16.638-6.553-24.959-.514-1.961-1.046-3.917-1.541-5.883-.112-.443-.3-.66-.768-.614a4.293,4.293,0,0,1-.7,0,11.129,11.129,0,0,1-2.416-.106A13.668,13.668,0,0,1,161.254.2a9.248,9.248,0,0,0,2.076-.121,2.035,2.035,0,0,1,.693-.013c3.1.292,6.2.068,9.3.143.7.017,1.392.013,2.088.019a.741.741,0,0,0,.829.686c.429,0,.858,0,1.287,0a1,1,0,0,0,.892-.412c.064.16.139.316.189.48q1.855,5.983,3.7,11.967,3,9.683,6,19.364a2.971,2.971,0,0,1,.124,1.372,12.445,12.445,0,0,0-.106,1.649c-.022.783-.04,1.567-.1,2.348a31.007,31.007,0,0,0-.075,4,1.008,1.008,0,0,0-.02.14" transform="translate(-54.21 -0.016)" fill="#9adfff"/>
        <path id="Trazado_108031" data-name="Trazado 108031" d="M58.324.214A4.01,4.01,0,0,1,59.6.048c3.845.007,7.689,0,11.533.01.329,0,.7-.137.971.2q-1.49,5.95-2.981,11.9Q66.6,22.195,64.055,32.229a5.689,5.689,0,0,0-.119,2.156,30.229,30.229,0,0,1,.285,4.684,1.021,1.021,0,0,0-.36.571,8.743,8.743,0,0,1-2.079,3.172A8.348,8.348,0,0,1,57.6,44.99a8.8,8.8,0,0,1-5.434-.471,7.2,7.2,0,0,1-3.056-2.733,6.953,6.953,0,0,0-.938-1.533,1.884,1.884,0,0,0-.09-.681,16.478,16.478,0,0,1-.754-6.344,4.661,4.661,0,0,1,.241-1.273q1.15-3.325,2.288-6.655,4.107-11.956,8.21-23.914A2.158,2.158,0,0,0,58.324.214" transform="translate(-16.09 -0.01)" fill="#9adfff"/>
        <path id="Trazado_108032" data-name="Trazado 108032" d="M101.058.335C101.78.322,102.5.3,103.223.3q5.072,0,10.145,0c.346,0,.691.032,1.037.049-.342,1.793-.5,3.612-.738,5.419-.333,2.5-.62,5-.94,7.5-.379,2.959-.775,5.916-1.159,8.875-.261,2.01-.51,4.022-.774,6.032a45.132,45.132,0,0,0-.657,7.611c.016.435-.044.869-.063,1.3-.067,1.617-.086,3.236-.124,4.855a1.046,1.046,0,0,0-.342.586,4.9,4.9,0,0,1-2.824,3.017,8.86,8.86,0,0,1-8.111-.347A5.978,5.978,0,0,1,95.9,41.973a1.612,1.612,0,0,0-.4-.755,54.382,54.382,0,0,0-.259-6.071,10.1,10.1,0,0,1-.017-2.341c.609-3.332,1.233-6.662,1.843-9.994,1.217-6.634,2.439-13.267,3.626-19.907a10.167,10.167,0,0,0,.364-2.57" transform="translate(-32.373 -0.101)" fill="#9adfff"/>
        <path id="Trazado_108033" data-name="Trazado 108033" d="M93.329.355a10.166,10.166,0,0,1-.364,2.57c-1.187,6.64-2.41,13.272-3.626,19.907-.61,3.332-1.234,6.662-1.843,9.994a10.1,10.1,0,0,0,.017,2.341,54.386,54.386,0,0,1,.259,6.071,7.992,7.992,0,0,1-2.6,2.626,7.553,7.553,0,0,1-8.158-.071,10.682,10.682,0,0,1-4.236-4.613A30.136,30.136,0,0,0,72.49,34.5a5.687,5.687,0,0,1,.12-2.156q2.559-10.032,5.071-20.075,1.5-5.948,2.981-11.9L93.329.355" transform="translate(-24.644 -0.121)" fill="#0d66bf"/>
        <path id="Trazado_108034" data-name="Trazado 108034" d="M139.626.268c.154-.3.439-.232.689-.232,2.029,0,4.067-.109,6.083.05,1.793.141,3.587-.027,5.372.179-.02.289-.053.577-.055.866-.077,6.958-.015,13.918-.122,20.877-.094,6.089-.044,12.18-.047,18.27a5.522,5.522,0,0,0,.027,1.471,1.411,1.411,0,0,0-.428.536,5.92,5.92,0,0,1-5.058,3.287,11.254,11.254,0,0,1-3.6-.223,6.568,6.568,0,0,1-4.185-2.714.612.612,0,0,0-.333-.257c-.018-1.276-.03-2.552-.057-3.828-.038-1.71-.057-3.42-.1-5.131-.042-1.528.16-3.063.245-4.595q.271-4.86.533-9.721c.143-2.721.238-5.445.422-8.162.077-1.129.108-2.258.177-3.386q.224-3.643.441-7.287" transform="translate(-46.881 0)" fill="#9adfff"/>
        <path id="Trazado_108035" data-name="Trazado 108035" d="M50.225.308a2.158,2.158,0,0,1-.254,1.172q-4.1,11.959-8.21,23.914-1.144,3.328-2.288,6.655a4.661,4.661,0,0,0-.241,1.273,16.478,16.478,0,0,0,.754,6.344,1.884,1.884,0,0,1,.09.681,7.862,7.862,0,0,1-4.751,3.711,12.147,12.147,0,0,1-3.808.265,8.241,8.241,0,0,1-5.557-2.348,6.839,6.839,0,0,1-2.183-3.159,7.793,7.793,0,0,1,.624-5.753c2.912-5.721,5.885-11.411,8.835-17.112.775-1.5,1.406-3.057,2.043-4.619,1.042-2.553,2.193-5.063,3.292-7.593a29.2,29.2,0,0,1,1.4-2.7A1.21,1.21,0,0,1,41.161.345c1.772,0,3.544-.02,5.317-.03,1.249-.007,2.5-.005,3.748-.007" transform="translate(-7.991 -0.105)" fill="#0d66bf"/>
        <path id="Trazado_108036" data-name="Trazado 108036" d="M132.746.4q-.22,3.643-.441,7.287c-.069,1.128-.1,2.257-.177,3.386-.185,2.718-.28,5.441-.422,8.162q-.256,4.861-.533,9.721c-.085,1.532-.287,3.067-.245,4.595.047,1.71.067,3.42.1,5.131.026,1.276.038,2.552.057,3.828a6.682,6.682,0,0,1-6.31,2.937,10.565,10.565,0,0,1-6.694-2.992c-.173-.154-.337-.319-.506-.479.037-1.619.057-3.238.123-4.855.018-.433.079-.868.062-1.3a45.128,45.128,0,0,1,.658-7.611c.263-2.01.513-4.022.774-6.032.384-2.959.779-5.916,1.159-8.876.319-2.5.607-5,.94-7.5.241-1.807.4-3.626.738-5.419L132.746.4" transform="translate(-40.001 -0.128)" fill="#0d66bf"/>
        <path id="Trazado_108037" data-name="Trazado 108037" d="M197.992,41.779a30.881,30.881,0,0,1,.074-4c.055-.781.074-1.565.1-2.348a12.328,12.328,0,0,1,.107-1.649,2.979,2.979,0,0,0-.125-1.372q-3.007-9.68-6-19.364-1.852-5.985-3.705-11.968c-.05-.164-.125-.32-.188-.48q.006-.128.014-.255c1.712-.006,3.424.006,5.137-.028a1.032,1.032,0,0,1,1.037.573c1.839,3.058,3.7,6.1,5.557,9.149q6.646,10.93,13.3,21.858a5.572,5.572,0,0,1,.814,2.171,15.022,15.022,0,0,1-.3,6.467,6.709,6.709,0,0,1-5.654,5.007,7.471,7.471,0,0,1-1.9-.071,15.771,15.771,0,0,1-5.057-1.181,7.249,7.249,0,0,1-3.079-2.34.164.164,0,0,0-.119-.166" transform="translate(-64.044 -0.107)" fill="#0d66bf"/>
        <path id="Trazado_108038" data-name="Trazado 108038" d="M158.641,41.873a5.467,5.467,0,0,1-.027-1.471c0-6.09-.048-12.181.046-18.27.108-6.96.046-13.918.122-20.877,0-.289.036-.577.055-.866l.246-.026A11.042,11.042,0,0,0,161.5.469a4.156,4.156,0,0,0,.7,0c.467-.046.656.171.767.615.495,1.966,1.028,3.922,1.542,5.883,2.179,8.321,4.343,16.646,6.552,24.959a21.9,21.9,0,0,1,.379,3.62c.15,1.554.149,3.123.213,4.687-.136.027-.262.027-.333.207a7.332,7.332,0,0,1-2.079,2.734,5.33,5.33,0,0,1-2.714,1.271,9.038,9.038,0,0,1-7.282-2.072c-.206-.16-.4-.333-.6-.5" transform="translate(-53.947 -0.123)" fill="#0d66bf"/>
        <path id="Trazado_108039" data-name="Trazado 108039" d="M186.716.347c0,.085-.01.17-.015.255a1,1,0,0,1-.892.412c-.429,0-.858,0-1.287,0a.742.742,0,0,1-.829-.686l3.023.018" transform="translate(-62.493 -0.112)" fill="#ecadd4"/>
        <path id="Trazado_108040" data-name="Trazado 108040" d="M203,63.16a.164.164,0,0,1,.119.166l-.074,0-.067-.03A.9.9,0,0,1,203,63.16" transform="translate(-69.055 -21.487)" fill="#ebafd5"/>
      </g>
    </g>
  </g>
</svg>
