<svg xmlns="http://www.w3.org/2000/svg" xmlns:xlink="http://www.w3.org/1999/xlink" width="817.953" height="818" viewBox="0 0 817.953 818">
  <defs>
    <clipPath id="clip-path">
      <rect id="Rectángulo_5520" data-name="Rectángulo 5520" width="168.452" height="216.094" fill="#9851ac"/>
    </clipPath>
    <clipPath id="clip-path-2">
      <rect id="Rectángulo_5521" data-name="Rectángulo 5521" width="136.151" height="216.805" fill="#2392a8"/>
    </clipPath>
    <clipPath id="clip-path-3">
      <rect id="Rectángulo_5522" data-name="Rectángulo 5522" width="249.741" height="77.369" fill="#055e8b"/>
    </clipPath>
    <clipPath id="clip-path-4">
      <rect id="Rectángulo_5523" data-name="Rectángulo 5523" width="168.453" height="216.093" fill="#3bc19d"/>
    </clipPath>
    <clipPath id="clip-path-5">
      <rect id="Rectángulo_5524" data-name="Rectángulo 5524" width="136.152" height="216.803" fill="none"/>
    </clipPath>
    <clipPath id="clip-path-6">
      <rect id="Rectángulo_5525" data-name="Rectángulo 5525" width="249.741" height="77.368" fill="#dbbe36"/>
    </clipPath>
    <clipPath id="clip-path-7">
      <rect id="Rectángulo_5642" data-name="Rectángulo 5642" width="280.142" height="229.57" fill="none"/>
    </clipPath>
  </defs>
  <g id="Grupo_62402" data-name="Grupo 62402" transform="translate(-389.998 -1830.247)">
    <path id="Trazado_107171" data-name="Trazado 107171" d="M17.262,148.713a2.142,2.142,0,0,0-.182,2.266L158.973,396.751a.728.728,0,0,0,1.382,0L386.641,4.819a.857.857,0,0,0-.68-1.376,409.7,409.7,0,0,0-368.7,145.27" transform="translate(466.215 1830.247)" fill="#ac5ac3"/>
    <path id="Trazado_107172" data-name="Trazado 107172" d="M25.81,421.266a2.142,2.142,0,0,0,1.868,1.293h283.8c.763,0,1.072-.536.691-1.2L85.887,29.428a.861.861,0,0,0-1.536-.1A409.695,409.695,0,0,0,25.81,421.266" transform="translate(389.998 1961.065)" fill="#2fb2cc"/>
    <path id="Trazado_107173" data-name="Trazado 107173" d="M315.875,350.079a2.139,2.139,0,0,0,2.056-.973L459.825,103.329c.381-.658.072-1.194-.691-1.194H6.573a.859.859,0,0,0-.857,1.277,409.6,409.6,0,0,0,23.454,47.5A410.451,410.451,0,0,0,73.618,213.5,408.934,408.934,0,0,0,315.875,350.079" transform="translate(415.43 2292.542)" fill="#0770a6"/>
    <path id="Trazado_107174" data-name="Trazado 107174" d="M433.769,324.671a2.141,2.141,0,0,0,.182-2.266L292.058,76.633a.728.728,0,0,0-1.382,0L64.39,468.565a.857.857,0,0,0,.68,1.376,408.564,408.564,0,0,0,52.859,3.443,410.925,410.925,0,0,0,76.435-7.2A408.935,408.935,0,0,0,433.769,324.671" transform="translate(680.704 2174.862)" fill="#47d7b0"/>
    <path id="Trazado_107175" data-name="Trazado 107175" d="M378.013,49.177a2.142,2.142,0,0,0-1.868-1.293H92.346c-.763,0-1.072.536-.691,1.2L317.936,441.015a.861.861,0,0,0,1.536.1,409.381,409.381,0,0,0,29.406-44.056,410.973,410.973,0,0,0,31.986-69.792,408.944,408.944,0,0,0-2.852-278.09" transform="translate(804.124 2046.985)" fill="#db6e5f"/>
    <path id="Trazado_107176" data-name="Trazado 107176" d="M204.285,1.037a2.139,2.139,0,0,0-2.056.973L60.336,247.782c-.381.663-.072,1.2.691,1.2H513.588a.861.861,0,0,0,.857-1.277A409.691,409.691,0,0,0,204.285,1.037" transform="translate(662.359 1834.841)" fill="#f8de63"/>
    <g id="Grupo_62237" data-name="Grupo 62237" transform="translate(582.598 2011.399)" style="isolation: isolate">
      <g id="Grupo_62238" data-name="Grupo 62238">
        <g id="Grupo_62237-2" data-name="Grupo 62237" clip-path="url(#clip-path)">
          <path id="Trazado_107177" data-name="Trazado 107177" d="M78.829,248.378,203.3,32.78A233.22,233.22,0,0,0,34.851,174.6l42.6,73.776a.728.728,0,0,0,1.382,0" transform="translate(-34.851 -32.78)" fill="#9851ac"/>
        </g>
      </g>
    </g>
    <g id="Grupo_62238-2" data-name="Grupo 62238" transform="translate(566.179 2166.817)" style="isolation: isolate">
      <g id="Grupo_62241" data-name="Grupo 62241">
        <g id="Grupo_62240" data-name="Grupo 62240" clip-path="url(#clip-path-2)">
          <path id="Trazado_107178" data-name="Trazado 107178" d="M167.866,276.512,43.386,60.9A233.1,233.1,0,0,0,82.053,277.712l85.122-.006c.763,0,1.072-.531.691-1.194" transform="translate(-31.879 -60.904)" fill="#2392a8"/>
        </g>
      </g>
    </g>
    <g id="Grupo_62239" data-name="Grupo 62239" transform="translate(625.679 2394.675)" style="isolation: isolate">
      <g id="Grupo_62244" data-name="Grupo 62244">
        <g id="Grupo_62243" data-name="Grupo 62243" clip-path="url(#clip-path-3)">
          <path id="Trazado_107179" data-name="Trazado 107179" d="M291.535,102.134H42.646a232.18,232.18,0,0,0,173.3,77.368,235.442,235.442,0,0,0,33.711-2.432l42.569-73.732c.381-.669.072-1.2-.691-1.2" transform="translate(-42.65 -102.137)" fill="#055e8b"/>
        </g>
      </g>
    </g>
    <g id="Grupo_62240-2" data-name="Grupo 62240" transform="translate(846.899 2251.001)" style="isolation: isolate">
      <g id="Grupo_62247" data-name="Grupo 62247">
        <g id="Grupo_62246" data-name="Grupo 62246" clip-path="url(#clip-path-4)">
          <path id="Trazado_107180" data-name="Trazado 107180" d="M207.152,76.63,82.677,292.228A233.22,233.22,0,0,0,251.13,150.406l-42.6-73.776a.73.73,0,0,0-1.382,0" transform="translate(-82.677 -76.135)" fill="#3bc19d"/>
        </g>
      </g>
    </g>
    <g id="Grupo_62241-2" data-name="Grupo 62241" transform="translate(895.619 2094.875)" opacity="0.5" style="mix-blend-mode: multiply;isolation: isolate">
      <g id="Grupo_62250" data-name="Grupo 62250">
        <g id="Grupo_62249" data-name="Grupo 62249" clip-path="url(#clip-path-5)">
          <path id="Trazado_107181" data-name="Trazado 107181" d="M177.468,47.885H92.346c-.763,0-1.072.536-.691,1.2l124.48,215.6a232.462,232.462,0,0,0,11.506-72.428A231.8,231.8,0,0,0,177.468,47.885" transform="translate(-91.495 -47.885)" fill="#e8574a"/>
        </g>
      </g>
    </g>
    <g id="Grupo_62242" data-name="Grupo 62242" transform="translate(722.528 2006.454)" style="isolation: isolate">
      <g id="Grupo_62253" data-name="Grupo 62253">
        <g id="Grupo_62252" data-name="Grupo 62252" clip-path="url(#clip-path-6)">
          <path id="Trazado_107182" data-name="Trazado 107182" d="M61.026,109.253H309.914A232.2,232.2,0,0,0,136.62,31.885,234.66,234.66,0,0,0,102.9,34.322L60.335,108.054c-.381.663-.072,1.2.691,1.2" transform="translate(-60.173 -31.885)" fill="#dbbe36"/>
        </g>
      </g>
    </g>
    <rect id="Rectángulo_5544" data-name="Rectángulo 5544" width="817.95" height="818" transform="translate(390 1830.247)" fill="none"/>
    <rect id="Rectángulo_5545" data-name="Rectángulo 5545" width="817.95" height="818" transform="translate(390 1830.247)" fill="none"/>
    <path id="Trazado_108461" data-name="Trazado 108461" d="M22.594,22.182q0,4.424-1.831,6.768A6.391,6.391,0,0,1,15.4,31.293a6.436,6.436,0,0,1-5.332-2.3A10.488,10.488,0,0,1,8.18,22.4V18.476q0-4.468,1.853-6.782a6.439,6.439,0,0,1,5.339-2.314A6.445,6.445,0,0,1,20.7,11.671a10.456,10.456,0,0,1,1.89,6.584ZM18.36,17.865A7.81,7.81,0,0,0,17.635,14a2.45,2.45,0,0,0-2.263-1.21,2.407,2.407,0,0,0-2.2,1.151,7.309,7.309,0,0,0-.754,3.6v5.191a8.2,8.2,0,0,0,.71,3.878A2.418,2.418,0,0,0,15.4,27.88a2.377,2.377,0,0,0,2.241-1.217,8,8,0,0,0,.718-3.724ZM35.733,31H31.5V14.682l-5.054,1.567V12.807l8.833-3.164h.454Z" transform="translate(791.5 2028.494)" fill="#12263f"/>
    <path id="Trazado_108465" data-name="Trazado 108465" d="M22.594,22.182q0,4.424-1.831,6.768A6.391,6.391,0,0,1,15.4,31.293a6.436,6.436,0,0,1-5.332-2.3A10.488,10.488,0,0,1,8.18,22.4V18.476q0-4.468,1.853-6.782a6.439,6.439,0,0,1,5.339-2.314A6.445,6.445,0,0,1,20.7,11.671a10.456,10.456,0,0,1,1.89,6.584ZM18.36,17.865A7.81,7.81,0,0,0,17.635,14a2.45,2.45,0,0,0-2.263-1.21,2.407,2.407,0,0,0-2.2,1.151,7.309,7.309,0,0,0-.754,3.6v5.191a8.2,8.2,0,0,0,.71,3.878A2.418,2.418,0,0,0,15.4,27.88a2.377,2.377,0,0,0,2.241-1.217,8,8,0,0,0,.718-3.724ZM40.069,31H25.45V28.1l6.9-7.354a17.021,17.021,0,0,0,2.1-2.71,4.354,4.354,0,0,0,.681-2.2,3.258,3.258,0,0,0-.718-2.234,2.591,2.591,0,0,0-2.051-.813,2.794,2.794,0,0,0-2.263.989,3.917,3.917,0,0,0-.828,2.6H25.025a6.992,6.992,0,0,1,.93-3.56,6.556,6.556,0,0,1,2.629-2.527,7.992,7.992,0,0,1,3.853-.916,7.567,7.567,0,0,1,5.12,1.582,5.6,5.6,0,0,1,1.824,4.468,7.171,7.171,0,0,1-.82,3.223,17.909,17.909,0,0,1-2.812,3.823L30.9,27.587h9.17Z" transform="translate(939.695 2119.446)" fill="#f6f6f6"/>
    <path id="Trazado_108467" data-name="Trazado 108467" d="M22.594,22.182q0,4.424-1.831,6.768A6.391,6.391,0,0,1,15.4,31.293a6.436,6.436,0,0,1-5.332-2.3A10.488,10.488,0,0,1,8.18,22.4V18.476q0-4.468,1.853-6.782a6.439,6.439,0,0,1,5.339-2.314A6.445,6.445,0,0,1,20.7,11.671a10.456,10.456,0,0,1,1.89,6.584ZM18.36,17.865A7.81,7.81,0,0,0,17.635,14a2.45,2.45,0,0,0-2.263-1.21,2.407,2.407,0,0,0-2.2,1.151,7.309,7.309,0,0,0-.754,3.6v5.191a8.2,8.2,0,0,0,.71,3.878A2.418,2.418,0,0,0,15.4,27.88a2.377,2.377,0,0,0,2.241-1.217,8,8,0,0,0,.718-3.724Zm11.4.6h2.256a3.179,3.179,0,0,0,2.388-.806,2.952,2.952,0,0,0,.776-2.139,2.61,2.61,0,0,0-.769-2.007,2.98,2.98,0,0,0-2.117-.718,3.124,3.124,0,0,0-2.036.667,2.131,2.131,0,0,0-.82,1.736H25.2a5.206,5.206,0,0,1,.9-3,6,6,0,0,1,2.52-2.073,8.409,8.409,0,0,1,3.567-.747A7.975,7.975,0,0,1,37.491,11a5.523,5.523,0,0,1,1.919,4.46,4.488,4.488,0,0,1-.894,2.7,5.805,5.805,0,0,1-2.344,1.89,5.3,5.3,0,0,1,2.688,1.934,5.245,5.245,0,0,1,.886,3.047,5.614,5.614,0,0,1-2.073,4.556,8.334,8.334,0,0,1-5.486,1.714,7.9,7.9,0,0,1-5.222-1.685,5.5,5.5,0,0,1-2.029-4.453h4.233a2.453,2.453,0,0,0,.9,1.963,3.758,3.758,0,0,0,4.585-.037,2.756,2.756,0,0,0,.857-2.117q0-3.193-3.516-3.193H29.757Z" transform="translate(949.715 2311.678)" fill="#12263f"/>
    <path id="Trazado_108469" data-name="Trazado 108469" d="M22.594,22.182q0,4.424-1.831,6.768A6.391,6.391,0,0,1,15.4,31.293a6.436,6.436,0,0,1-5.332-2.3A10.488,10.488,0,0,1,8.18,22.4V18.476q0-4.468,1.853-6.782a6.439,6.439,0,0,1,5.339-2.314A6.445,6.445,0,0,1,20.7,11.671a10.456,10.456,0,0,1,1.89,6.584ZM18.36,17.865A7.81,7.81,0,0,0,17.635,14a2.45,2.45,0,0,0-2.263-1.21,2.407,2.407,0,0,0-2.2,1.151,7.309,7.309,0,0,0-.754,3.6v5.191a8.2,8.2,0,0,0,.71,3.878A2.418,2.418,0,0,0,15.4,27.88a2.377,2.377,0,0,0,2.241-1.217,8,8,0,0,0,.718-3.724Zm19.614,5.107h2.417v3.413H37.975V31H33.741V26.386H25l-.19-2.666L33.7,9.672h4.277Zm-8.95,0h4.717V15.443l-.278.483Z" transform="translate(791.5 2412.622)" fill="#f6f6f6"/>
    <path id="Trazado_108464" data-name="Trazado 108464" d="M22.594,22.182q0,4.424-1.831,6.768A6.391,6.391,0,0,1,15.4,31.293a6.436,6.436,0,0,1-5.332-2.3A10.488,10.488,0,0,1,8.18,22.4V18.476q0-4.468,1.853-6.782a6.439,6.439,0,0,1,5.339-2.314A6.445,6.445,0,0,1,20.7,11.671a10.456,10.456,0,0,1,1.89,6.584ZM18.36,17.865A7.81,7.81,0,0,0,17.635,14a2.45,2.45,0,0,0-2.263-1.21,2.407,2.407,0,0,0-2.2,1.151,7.309,7.309,0,0,0-.754,3.6v5.191a8.2,8.2,0,0,0,.71,3.878A2.418,2.418,0,0,0,15.4,27.88a2.377,2.377,0,0,0,2.241-1.217,8,8,0,0,0,.718-3.724Zm7.72,2.646,1.23-10.84H39.264V13.2H30.782l-.527,4.585a6.712,6.712,0,0,1,3.208-.806,6.148,6.148,0,0,1,4.775,1.89,7.548,7.548,0,0,1,1.729,5.288,7.733,7.733,0,0,1-.872,3.7,6.152,6.152,0,0,1-2.5,2.534,7.8,7.8,0,0,1-3.838.9,8.28,8.28,0,0,1-3.589-.784,6.366,6.366,0,0,1-2.615-2.2,6.008,6.008,0,0,1-1.018-3.237h4.189a3.129,3.129,0,0,0,.93,2.073,2.949,2.949,0,0,0,2.087.74,2.6,2.6,0,0,0,2.212-1.033,4.784,4.784,0,0,0,.776-2.922,3.956,3.956,0,0,0-.894-2.783,3.279,3.279,0,0,0-2.534-.967,3.665,3.665,0,0,0-2.446.791l-.41.381Z" transform="translate(625.679 2330.178)" fill="#f6f6f6"/>
    <path id="Trazado_108462" data-name="Trazado 108462" d="M22.594,22.182q0,4.424-1.831,6.768A6.391,6.391,0,0,1,15.4,31.293a6.436,6.436,0,0,1-5.332-2.3A10.488,10.488,0,0,1,8.18,22.4V18.476q0-4.468,1.853-6.782a6.439,6.439,0,0,1,5.339-2.314A6.445,6.445,0,0,1,20.7,11.671a10.456,10.456,0,0,1,1.89,6.584ZM18.36,17.865A7.81,7.81,0,0,0,17.635,14a2.45,2.45,0,0,0-2.263-1.21,2.407,2.407,0,0,0-2.2,1.151,7.309,7.309,0,0,0-.754,3.6v5.191a8.2,8.2,0,0,0,.71,3.878A2.418,2.418,0,0,0,15.4,27.88a2.377,2.377,0,0,0,2.241-1.217,8,8,0,0,0,.718-3.724ZM36.935,9.452v3.486h-.41A7.192,7.192,0,0,0,31.9,14.433a6.071,6.071,0,0,0-2.1,4.028,5.766,5.766,0,0,1,4.292-1.729,5.433,5.433,0,0,1,4.424,1.992,7.986,7.986,0,0,1,1.641,5.244,7.855,7.855,0,0,1-.9,3.765,6.461,6.461,0,0,1-2.549,2.622,7.4,7.4,0,0,1-3.728.938,6.916,6.916,0,0,1-5.442-2.344,9.1,9.1,0,0,1-2.073-6.255V21.171a13.691,13.691,0,0,1,1.311-6.13,9.613,9.613,0,0,1,3.765-4.116,11.032,11.032,0,0,1,5.691-1.472ZM32.8,20.146a3.382,3.382,0,0,0-1.86.534,3.215,3.215,0,0,0-1.23,1.411v1.287a5.7,5.7,0,0,0,.835,3.312,2.7,2.7,0,0,0,2.344,1.192,2.668,2.668,0,0,0,2.2-1.075,4.383,4.383,0,0,0,.842-2.785,4.374,4.374,0,0,0-.85-2.807A2.769,2.769,0,0,0,32.8,20.146Z" transform="translate(610.254 2137.946)" fill="#f6f6f6"/>
    <path id="Trazado_108460" data-name="Trazado 108460" d="M12.148,19.135a4.331,4.331,0,0,1-2.017,1.548,8.146,8.146,0,0,1-3.013.513,5.843,5.843,0,0,1-3.086-.815,5.433,5.433,0,0,1-2.085-2.319,8.011,8.011,0,0,1-.757-3.486v-1.24a7.478,7.478,0,0,1,1.5-4.98A5.223,5.223,0,0,1,6.9,6.586a5.4,5.4,0,0,1,3.584,1.138,4.956,4.956,0,0,1,1.66,3.228H10.273A3.1,3.1,0,0,0,6.914,8.119,3.319,3.319,0,0,0,4.058,9.444a6.466,6.466,0,0,0-.981,3.836v1.163A6.06,6.06,0,0,0,4.17,18.25a3.545,3.545,0,0,0,2.959,1.412,6.536,6.536,0,0,0,1.846-.234,2.854,2.854,0,0,0,1.309-.789V15.453H6.992V13.92h5.156ZM19.375,21.2a4.617,4.617,0,0,1-3.5-1.411,5.237,5.237,0,0,1-1.348-3.774v-.332a6.341,6.341,0,0,1,.6-2.808,4.685,4.685,0,0,1,1.68-1.934,4.223,4.223,0,0,1,2.339-.7,3.957,3.957,0,0,1,3.2,1.357A5.877,5.877,0,0,1,23.5,15.482v.752H16.338a3.756,3.756,0,0,0,.913,2.524,2.87,2.87,0,0,0,2.222.962,3.147,3.147,0,0,0,1.621-.391,4.073,4.073,0,0,0,1.162-1.035l1.1.859A4.437,4.437,0,0,1,19.375,21.2Zm-.225-9.473a2.41,2.41,0,0,0-1.836.8A3.868,3.868,0,0,0,16.4,14.75h5.293v-.137a3.441,3.441,0,0,0-.742-2.134A2.269,2.269,0,0,0,19.15,11.723ZM31.738,18.2a1.33,1.33,0,0,0-.552-1.138,5.311,5.311,0,0,0-1.924-.7,9.1,9.1,0,0,1-2.178-.7,3.1,3.1,0,0,1-1.191-.977,2.336,2.336,0,0,1-.386-1.348,2.741,2.741,0,0,1,1.1-2.2,4.291,4.291,0,0,1,2.808-.9,4.415,4.415,0,0,1,2.915.928,2.947,2.947,0,0,1,1.118,2.373H31.631A1.631,1.631,0,0,0,31,12.26a2.36,2.36,0,0,0-1.587-.537,2.47,2.47,0,0,0-1.543.43,1.353,1.353,0,0,0-.557,1.123,1.1,1.1,0,0,0,.518.986,6.368,6.368,0,0,0,1.87.635,9.744,9.744,0,0,1,2.192.723A3.2,3.2,0,0,1,33.14,16.63a2.485,2.485,0,0,1,.405,1.44,2.7,2.7,0,0,1-1.133,2.271,4.752,4.752,0,0,1-2.939.854,5.321,5.321,0,0,1-2.246-.449A3.653,3.653,0,0,1,25.7,19.491a3.025,3.025,0,0,1-.552-1.743h1.807a1.87,1.87,0,0,0,.728,1.44,2.822,2.822,0,0,0,1.792.532,2.913,2.913,0,0,0,1.646-.415A1.275,1.275,0,0,0,31.738,18.2ZM38.35,7.875v2.559h1.973v1.4H38.35v6.561a1.467,1.467,0,0,0,.264.953,1.11,1.11,0,0,0,.9.318,4.374,4.374,0,0,0,.859-.117V21a5.268,5.268,0,0,1-1.387.194,2.25,2.25,0,0,1-1.826-.732,3.147,3.147,0,0,1-.615-2.08V11.83H34.619v-1.4h1.924V7.875ZM44.395,21H42.588V10.434h1.807ZM42.441,7.631a1.078,1.078,0,0,1,.269-.742,1.008,1.008,0,0,1,.8-.3,1.024,1.024,0,0,1,.8.3,1.067,1.067,0,0,1,.273.742,1.032,1.032,0,0,1-.273.732,1.043,1.043,0,0,1-.8.293,1.026,1.026,0,0,1-.8-.293A1.043,1.043,0,0,1,42.441,7.631Zm4.365,7.988a6.241,6.241,0,0,1,.61-2.793,4.553,4.553,0,0,1,1.7-1.914,4.626,4.626,0,0,1,2.485-.674,4.456,4.456,0,0,1,3.491,1.494,5.748,5.748,0,0,1,1.333,3.975v.127a6.3,6.3,0,0,1-.591,2.769,4.486,4.486,0,0,1-1.689,1.909,4.679,4.679,0,0,1-2.524.684A4.445,4.445,0,0,1,48.14,19.7a5.719,5.719,0,0,1-1.333-3.955Zm1.816.215a4.52,4.52,0,0,0,.815,2.822,2.763,2.763,0,0,0,4.37-.015,4.943,4.943,0,0,0,.811-3.022,4.513,4.513,0,0,0-.825-2.817A2.623,2.623,0,0,0,51.6,11.723a2.594,2.594,0,0,0-2.158,1.064A4.906,4.906,0,0,0,48.623,15.834ZM52.422,6h2.188L51.992,8.871l-1.455,0ZM60.4,10.434l.059,1.328a3.851,3.851,0,0,1,3.164-1.523q3.35,0,3.379,3.779V21H65.2V14.008a2.432,2.432,0,0,0-.522-1.689,2.094,2.094,0,0,0-1.6-.547,2.607,2.607,0,0,0-1.543.469,3.183,3.183,0,0,0-1.035,1.23V21H58.691V10.434Zm13.838,5.2a6.19,6.19,0,0,1,1.152-3.911,3.921,3.921,0,0,1,5.957-.21V6h1.807V21h-1.66l-.088-1.133A3.679,3.679,0,0,1,78.389,21.2a3.609,3.609,0,0,1-2.993-1.5,6.26,6.26,0,0,1-1.157-3.926Zm1.807.205a4.687,4.687,0,0,0,.742,2.813,2.4,2.4,0,0,0,2.051,1.016,2.636,2.636,0,0,0,2.51-1.543V13.266a2.656,2.656,0,0,0-2.49-1.494,2.411,2.411,0,0,0-2.07,1.025A5.16,5.16,0,0,0,76.045,15.834Zm14.3,5.361a4.617,4.617,0,0,1-3.5-1.411A5.237,5.237,0,0,1,85.5,16.01v-.332a6.341,6.341,0,0,1,.6-2.808,4.685,4.685,0,0,1,1.68-1.934,4.223,4.223,0,0,1,2.339-.7,3.957,3.957,0,0,1,3.2,1.357,5.877,5.877,0,0,1,1.143,3.887v.752H87.3a3.756,3.756,0,0,0,.913,2.524,2.87,2.87,0,0,0,2.222.962,3.147,3.147,0,0,0,1.621-.391,4.073,4.073,0,0,0,1.162-1.035l1.1.859A4.437,4.437,0,0,1,90.342,21.2Zm-.225-9.473a2.41,2.41,0,0,0-1.836.8,3.869,3.869,0,0,0-.918,2.231h5.293v-.137a3.441,3.441,0,0,0-.742-2.134A2.269,2.269,0,0,0,90.117,11.723Zm15.625,8a2.6,2.6,0,0,0,1.689-.586,2.061,2.061,0,0,0,.8-1.465h1.709a3.276,3.276,0,0,1-.625,1.729,4.116,4.116,0,0,1-1.538,1.309,4.438,4.438,0,0,1-2.036.488,4.353,4.353,0,0,1-3.433-1.44,5.737,5.737,0,0,1-1.274-3.94v-.3a6.361,6.361,0,0,1,.566-2.744,4.314,4.314,0,0,1,1.626-1.865,4.619,4.619,0,0,1,2.5-.664,4.238,4.238,0,0,1,2.954,1.064,3.8,3.8,0,0,1,1.255,2.764h-1.709a2.49,2.49,0,0,0-.776-1.685,2.415,2.415,0,0,0-1.724-.659,2.529,2.529,0,0,0-2.134.991,4.655,4.655,0,0,0-.757,2.866v.342a4.562,4.562,0,0,0,.752,2.813A2.541,2.541,0,0,0,105.742,19.721Zm5.752-4.1a6.241,6.241,0,0,1,.61-2.793,4.553,4.553,0,0,1,1.7-1.914,4.626,4.626,0,0,1,2.485-.674,4.456,4.456,0,0,1,3.491,1.494,5.748,5.748,0,0,1,1.333,3.975v.127a6.3,6.3,0,0,1-.591,2.769,4.486,4.486,0,0,1-1.689,1.909,4.679,4.679,0,0,1-2.524.684,4.445,4.445,0,0,1-3.481-1.494,5.719,5.719,0,0,1-1.333-3.955Zm1.816.215a4.52,4.52,0,0,0,.815,2.822,2.763,2.763,0,0,0,4.37-.015,4.943,4.943,0,0,0,.811-3.022,4.513,4.513,0,0,0-.825-2.817,2.623,2.623,0,0,0-2.192-1.079,2.594,2.594,0,0,0-2.158,1.064A4.906,4.906,0,0,0,113.311,15.834Zm11.768-5.4.049,1.172a3.9,3.9,0,0,1,3.135-1.367,3.021,3.021,0,0,1,3.018,1.7,4,4,0,0,1,1.372-1.23,4.052,4.052,0,0,1,2-.469q3.477,0,3.535,3.682V21h-1.807V14.027a2.426,2.426,0,0,0-.518-1.694,2.279,2.279,0,0,0-1.738-.562,2.4,2.4,0,0,0-1.67.6,2.436,2.436,0,0,0-.771,1.616V21h-1.816V14.076a2.016,2.016,0,0,0-2.256-2.3,2.417,2.417,0,0,0-2.432,1.514V21h-1.807V10.434Zm24.756,5.4a6.327,6.327,0,0,1-1.1,3.887,3.537,3.537,0,0,1-2.988,1.475,3.875,3.875,0,0,1-3.027-1.221v5.088h-1.807V10.434h1.65l.088,1.172a3.722,3.722,0,0,1,3.066-1.367,3.6,3.6,0,0,1,3.013,1.436,6.4,6.4,0,0,1,1.108,3.994Zm-1.807-.205a4.669,4.669,0,0,0-.762-2.822,2.454,2.454,0,0,0-2.09-1.035,2.656,2.656,0,0,0-2.461,1.455v5.049a2.661,2.661,0,0,0,2.48,1.445,2.442,2.442,0,0,0,2.065-1.03A5.1,5.1,0,0,0,148.027,15.629Zm9.209-3.574a5.414,5.414,0,0,0-.889-.068,2.381,2.381,0,0,0-2.412,1.514V21h-1.807V10.434h1.758l.029,1.221a2.813,2.813,0,0,1,2.52-1.416,1.846,1.846,0,0,1,.8.137ZM165.029,21a3.8,3.8,0,0,1-.254-1.113,4.031,4.031,0,0,1-3.008,1.309,3.73,3.73,0,0,1-2.563-.884,2.859,2.859,0,0,1-1-2.241,2.987,2.987,0,0,1,1.255-2.563,5.916,5.916,0,0,1,3.53-.913h1.758v-.83a2.029,2.029,0,0,0-.566-1.509,2.276,2.276,0,0,0-1.67-.562,2.634,2.634,0,0,0-1.621.488,1.439,1.439,0,0,0-.654,1.182h-1.816a2.493,2.493,0,0,1,.562-1.528,3.832,3.832,0,0,1,1.523-1.167,5.125,5.125,0,0,1,2.114-.43,4.177,4.177,0,0,1,2.861.913,3.294,3.294,0,0,1,1.074,2.515v4.863a5.946,5.946,0,0,0,.371,2.314V21Zm-3-1.377a3.175,3.175,0,0,0,1.611-.439,2.658,2.658,0,0,0,1.1-1.143V15.873H163.33q-3.32,0-3.32,1.943a1.645,1.645,0,0,0,.566,1.328A2.177,2.177,0,0,0,162.031,19.623ZM175.537,18.2a1.33,1.33,0,0,0-.552-1.138,5.311,5.311,0,0,0-1.924-.7,9.1,9.1,0,0,1-2.178-.7,3.1,3.1,0,0,1-1.191-.977,2.336,2.336,0,0,1-.386-1.348,2.741,2.741,0,0,1,1.1-2.2,4.291,4.291,0,0,1,2.808-.9,4.415,4.415,0,0,1,2.915.928,2.947,2.947,0,0,1,1.118,2.373H175.43a1.631,1.631,0,0,0-.63-1.279,2.36,2.36,0,0,0-1.587-.537,2.47,2.47,0,0,0-1.543.43,1.353,1.353,0,0,0-.557,1.123,1.1,1.1,0,0,0,.518.986,6.368,6.368,0,0,0,1.87.635,9.744,9.744,0,0,1,2.192.723,3.2,3.2,0,0,1,1.245,1.011,2.485,2.485,0,0,1,.405,1.44,2.7,2.7,0,0,1-1.133,2.271,4.752,4.752,0,0,1-2.939.854,5.321,5.321,0,0,1-2.246-.449,3.653,3.653,0,0,1-1.528-1.255,3.025,3.025,0,0,1-.552-1.743h1.807a1.87,1.87,0,0,0,.728,1.44,2.822,2.822,0,0,0,1.792.532,2.913,2.913,0,0,0,1.646-.415A1.275,1.275,0,0,0,175.537,18.2Z" transform="translate(865.782 1971.407)" fill="#12263f"/>
    <path id="Trazado_108466" data-name="Trazado 108466" d="M12.148,19.135a4.331,4.331,0,0,1-2.017,1.548,8.146,8.146,0,0,1-3.013.513,5.843,5.843,0,0,1-3.086-.815,5.433,5.433,0,0,1-2.085-2.319,8.011,8.011,0,0,1-.757-3.486v-1.24a7.478,7.478,0,0,1,1.5-4.98A5.223,5.223,0,0,1,6.9,6.586a5.4,5.4,0,0,1,3.584,1.138,4.956,4.956,0,0,1,1.66,3.228H10.273A3.1,3.1,0,0,0,6.914,8.119,3.319,3.319,0,0,0,4.058,9.444a6.466,6.466,0,0,0-.981,3.836v1.163A6.06,6.06,0,0,0,4.17,18.25a3.545,3.545,0,0,0,2.959,1.412,6.536,6.536,0,0,0,1.846-.234,2.854,2.854,0,0,0,1.309-.789V15.453H6.992V13.92h5.156ZM21.514,21a3.8,3.8,0,0,1-.254-1.113A4.031,4.031,0,0,1,18.252,21.2a3.73,3.73,0,0,1-2.563-.884,2.859,2.859,0,0,1-1-2.241,2.987,2.987,0,0,1,1.255-2.563,5.916,5.916,0,0,1,3.53-.913H21.23v-.83a2.029,2.029,0,0,0-.566-1.509,2.276,2.276,0,0,0-1.67-.562,2.634,2.634,0,0,0-1.621.488,1.439,1.439,0,0,0-.654,1.182H14.9a2.493,2.493,0,0,1,.562-1.528,3.832,3.832,0,0,1,1.523-1.167,5.125,5.125,0,0,1,2.114-.43,4.177,4.177,0,0,1,2.861.913,3.294,3.294,0,0,1,1.074,2.515v4.863a5.946,5.946,0,0,0,.371,2.314V21Zm-3-1.377a3.175,3.175,0,0,0,1.611-.439,2.658,2.658,0,0,0,1.1-1.143V15.873H19.814q-3.32,0-3.32,1.943a1.645,1.645,0,0,0,.566,1.328A2.177,2.177,0,0,0,18.516,19.623Zm12.461-7.568a5.414,5.414,0,0,0-.889-.068A2.381,2.381,0,0,0,27.676,13.5V21H25.869V10.434h1.758l.029,1.221a2.813,2.813,0,0,1,2.52-1.416,1.846,1.846,0,0,1,.8.137ZM38.77,21a3.8,3.8,0,0,1-.254-1.113A4.031,4.031,0,0,1,35.508,21.2a3.73,3.73,0,0,1-2.563-.884,2.859,2.859,0,0,1-1-2.241A2.987,2.987,0,0,1,33.2,15.507a5.916,5.916,0,0,1,3.53-.913h1.758v-.83a2.029,2.029,0,0,0-.566-1.509,2.276,2.276,0,0,0-1.67-.562,2.634,2.634,0,0,0-1.621.488,1.439,1.439,0,0,0-.654,1.182H32.158a2.493,2.493,0,0,1,.562-1.528,3.832,3.832,0,0,1,1.523-1.167,5.125,5.125,0,0,1,2.114-.43,4.177,4.177,0,0,1,2.861.913,3.294,3.294,0,0,1,1.074,2.515v4.863a5.946,5.946,0,0,0,.371,2.314V21Zm-3-1.377a3.175,3.175,0,0,0,1.611-.439,2.658,2.658,0,0,0,1.1-1.143V15.873H37.07q-3.32,0-3.32,1.943a1.645,1.645,0,0,0,.566,1.328A2.177,2.177,0,0,0,35.771,19.623Zm9.063-9.189.059,1.328a3.851,3.851,0,0,1,3.164-1.523q3.35,0,3.379,3.779V21H49.629V14.008a2.432,2.432,0,0,0-.522-1.689,2.094,2.094,0,0,0-1.6-.547,2.607,2.607,0,0,0-1.543.469,3.183,3.183,0,0,0-1.035,1.23V21H43.125V10.434ZM56.611,7.875v2.559h1.973v1.4H56.611v6.561a1.467,1.467,0,0,0,.264.953,1.11,1.11,0,0,0,.9.318,4.374,4.374,0,0,0,.859-.117V21a5.268,5.268,0,0,1-1.387.194,2.25,2.25,0,0,1-1.826-.732,3.147,3.147,0,0,1-.615-2.08V11.83H52.881v-1.4H54.8V7.875ZM62.656,21H60.84V10.434h1.816Zm.02-14.99h2.188L62.246,8.881l-1.455,0ZM72.158,21a3.8,3.8,0,0,1-.254-1.113A4.031,4.031,0,0,1,68.9,21.2a3.73,3.73,0,0,1-2.563-.884,2.859,2.859,0,0,1-1-2.241,2.987,2.987,0,0,1,1.255-2.563,5.916,5.916,0,0,1,3.53-.913h1.758v-.83a2.029,2.029,0,0,0-.566-1.509,2.276,2.276,0,0,0-1.67-.562,2.634,2.634,0,0,0-1.621.488,1.439,1.439,0,0,0-.654,1.182H65.547a2.493,2.493,0,0,1,.562-1.528,3.832,3.832,0,0,1,1.523-1.167,5.125,5.125,0,0,1,2.114-.43,4.177,4.177,0,0,1,2.861.913,3.294,3.294,0,0,1,1.074,2.515v4.863a5.946,5.946,0,0,0,.371,2.314V21Zm-3-1.377a3.175,3.175,0,0,0,1.611-.439,2.658,2.658,0,0,0,1.1-1.143V15.873H70.459q-3.32,0-3.32,1.943a1.645,1.645,0,0,0,.566,1.328A2.177,2.177,0,0,0,69.16,19.623ZM82.666,18.2a1.33,1.33,0,0,0-.552-1.138,5.311,5.311,0,0,0-1.924-.7,9.1,9.1,0,0,1-2.178-.7,3.1,3.1,0,0,1-1.191-.977,2.336,2.336,0,0,1-.386-1.348,2.741,2.741,0,0,1,1.1-2.2,4.291,4.291,0,0,1,2.808-.9,4.415,4.415,0,0,1,2.915.928,2.947,2.947,0,0,1,1.118,2.373H82.559a1.631,1.631,0,0,0-.63-1.279,2.36,2.36,0,0,0-1.587-.537,2.47,2.47,0,0,0-1.543.43,1.353,1.353,0,0,0-.557,1.123,1.1,1.1,0,0,0,.518.986,6.368,6.368,0,0,0,1.87.635,9.744,9.744,0,0,1,2.192.723,3.2,3.2,0,0,1,1.245,1.011,2.485,2.485,0,0,1,.405,1.44,2.7,2.7,0,0,1-1.133,2.271A4.752,4.752,0,0,1,80.4,21.2a5.321,5.321,0,0,1-2.246-.449,3.653,3.653,0,0,1-1.528-1.255,3.025,3.025,0,0,1-.552-1.743h1.807a1.87,1.87,0,0,0,.728,1.44,2.822,2.822,0,0,0,1.792.532,2.913,2.913,0,0,0,1.646-.415A1.275,1.275,0,0,0,82.666,18.2Z" transform="translate(1065.896 2226.998)" fill="#fff"/>
    <path id="Trazado_108468" data-name="Trazado 108468" d="M5.84,14.662a8.817,8.817,0,0,1-3.511-1.7,3.256,3.256,0,0,1-1.1-2.5A3.439,3.439,0,0,1,2.573,7.685a5.337,5.337,0,0,1,3.491-1.1,5.825,5.825,0,0,1,2.612.566,4.3,4.3,0,0,1,1.777,1.563,4,4,0,0,1,.63,2.178H9.2a2.6,2.6,0,0,0-.82-2.034,3.336,3.336,0,0,0-2.314-.74A3.415,3.415,0,0,0,3.9,8.731a2.04,2.04,0,0,0-.776,1.7A1.835,1.835,0,0,0,3.862,11.9,7.232,7.232,0,0,0,6.372,13a11.645,11.645,0,0,1,2.773,1.1,4.209,4.209,0,0,1,1.484,1.4,3.577,3.577,0,0,1,.483,1.885,3.322,3.322,0,0,1-1.348,2.769,5.746,5.746,0,0,1-3.6,1.04,6.683,6.683,0,0,1-2.734-.562A4.6,4.6,0,0,1,1.47,19.1a3.754,3.754,0,0,1-.688-2.217H2.666a2.449,2.449,0,0,0,.952,2.036,4.009,4.009,0,0,0,2.544.747,3.685,3.685,0,0,0,2.275-.605,1.967,1.967,0,0,0,.791-1.65A1.931,1.931,0,0,0,8.5,15.79,8.444,8.444,0,0,0,5.84,14.662Zm6.914.957a6.241,6.241,0,0,1,.61-2.793,4.553,4.553,0,0,1,1.7-1.914,4.626,4.626,0,0,1,2.485-.674,4.456,4.456,0,0,1,3.491,1.494,5.748,5.748,0,0,1,1.333,3.975v.127a6.3,6.3,0,0,1-.591,2.769,4.486,4.486,0,0,1-1.689,1.909,4.679,4.679,0,0,1-2.524.684A4.445,4.445,0,0,1,14.087,19.7a5.719,5.719,0,0,1-1.333-3.955Zm1.816.215a4.52,4.52,0,0,0,.815,2.822,2.763,2.763,0,0,0,4.37-.015,4.943,4.943,0,0,0,.811-3.022,4.513,4.513,0,0,0-.825-2.817,2.623,2.623,0,0,0-2.192-1.079,2.594,2.594,0,0,0-2.158,1.064A4.906,4.906,0,0,0,14.57,15.834Zm18.994,0a6.327,6.327,0,0,1-1.1,3.887A3.537,3.537,0,0,1,29.473,21.2a3.875,3.875,0,0,1-3.027-1.221v5.088H24.639V10.434h1.65l.088,1.172a3.722,3.722,0,0,1,3.066-1.367,3.6,3.6,0,0,1,3.013,1.436,6.4,6.4,0,0,1,1.108,3.994Zm-1.807-.205A4.669,4.669,0,0,0,31,12.807a2.454,2.454,0,0,0-2.09-1.035,2.656,2.656,0,0,0-2.461,1.455v5.049a2.661,2.661,0,0,0,2.48,1.445,2.442,2.442,0,0,0,2.065-1.03A5.1,5.1,0,0,0,31.758,15.629Zm3.623-.01a6.241,6.241,0,0,1,.61-2.793,4.553,4.553,0,0,1,1.7-1.914,4.626,4.626,0,0,1,2.485-.674,4.456,4.456,0,0,1,3.491,1.494A5.748,5.748,0,0,1,45,15.707v.127a6.3,6.3,0,0,1-.591,2.769,4.486,4.486,0,0,1-1.689,1.909A4.679,4.679,0,0,1,40.2,21.2,4.445,4.445,0,0,1,36.714,19.7a5.719,5.719,0,0,1-1.333-3.955Zm1.816.215a4.52,4.52,0,0,0,.815,2.822,2.763,2.763,0,0,0,4.37-.015,4.943,4.943,0,0,0,.811-3.022,4.513,4.513,0,0,0-.825-2.817,2.623,2.623,0,0,0-2.192-1.079,2.594,2.594,0,0,0-2.158,1.064A4.906,4.906,0,0,0,37.2,15.834Zm15.176-3.779a5.414,5.414,0,0,0-.889-.068A2.381,2.381,0,0,0,49.072,13.5V21H47.266V10.434h1.758l.029,1.221a2.813,2.813,0,0,1,2.52-1.416,1.846,1.846,0,0,1,.8.137Zm4.6-4.18v2.559h1.973v1.4H56.973v6.561a1.467,1.467,0,0,0,.264.953,1.11,1.11,0,0,0,.9.318,4.374,4.374,0,0,0,.859-.117V21a5.268,5.268,0,0,1-1.387.194,2.25,2.25,0,0,1-1.826-.732,3.147,3.147,0,0,1-.615-2.08V11.83H53.242v-1.4h1.924V7.875ZM65.439,21.2a4.617,4.617,0,0,1-3.5-1.411A5.237,5.237,0,0,1,60.6,16.01v-.332a6.341,6.341,0,0,1,.6-2.808,4.685,4.685,0,0,1,1.68-1.934,4.223,4.223,0,0,1,2.339-.7,3.957,3.957,0,0,1,3.2,1.357,5.877,5.877,0,0,1,1.143,3.887v.752H62.4a3.756,3.756,0,0,0,.913,2.524,2.87,2.87,0,0,0,2.222.962,3.147,3.147,0,0,0,1.621-.391,4.073,4.073,0,0,0,1.162-1.035l1.1.859A4.437,4.437,0,0,1,65.439,21.2Zm-.225-9.473a2.41,2.41,0,0,0-1.836.8,3.868,3.868,0,0,0-.918,2.231h5.293v-.137a3.441,3.441,0,0,0-.742-2.134A2.269,2.269,0,0,0,65.215,11.723ZM3.818,29.875v2.559H5.791v1.4H3.818v6.561a1.467,1.467,0,0,0,.264.953,1.11,1.11,0,0,0,.9.318,4.374,4.374,0,0,0,.859-.117V43a5.268,5.268,0,0,1-1.387.194,2.25,2.25,0,0,1-1.826-.732,3.147,3.147,0,0,1-.615-2.08V33.83H.088v-1.4H2.012V29.875ZM12.285,43.2a4.617,4.617,0,0,1-3.5-1.411A5.237,5.237,0,0,1,7.441,38.01v-.332a6.341,6.341,0,0,1,.6-2.808,4.685,4.685,0,0,1,1.68-1.934,4.223,4.223,0,0,1,2.339-.7,3.957,3.957,0,0,1,3.2,1.357,5.877,5.877,0,0,1,1.143,3.887v.752H9.248a3.756,3.756,0,0,0,.913,2.524,2.87,2.87,0,0,0,2.222.962A3.147,3.147,0,0,0,14,41.33a4.073,4.073,0,0,0,1.162-1.035l1.1.859A4.437,4.437,0,0,1,12.285,43.2Zm-.225-9.473a2.41,2.41,0,0,0-1.836.8,3.868,3.868,0,0,0-.918,2.231H14.6v-.137a3.441,3.441,0,0,0-.742-2.134A2.269,2.269,0,0,0,12.061,33.723ZM12.939,28h2.188L12.51,30.871l-1.455,0Zm9.795,13.721a2.6,2.6,0,0,0,1.689-.586,2.061,2.061,0,0,0,.8-1.465h1.709a3.276,3.276,0,0,1-.625,1.729,4.116,4.116,0,0,1-1.538,1.309,4.438,4.438,0,0,1-2.036.488,4.353,4.353,0,0,1-3.433-1.44,5.737,5.737,0,0,1-1.274-3.94v-.3a6.361,6.361,0,0,1,.566-2.744A4.314,4.314,0,0,1,20.22,32.9a4.619,4.619,0,0,1,2.5-.664A4.238,4.238,0,0,1,25.679,33.3a3.8,3.8,0,0,1,1.255,2.764H25.225a2.49,2.49,0,0,0-.776-1.685,2.415,2.415,0,0,0-1.724-.659,2.529,2.529,0,0,0-2.134.991,4.655,4.655,0,0,0-.757,2.866v.342a4.562,4.562,0,0,0,.752,2.813A2.541,2.541,0,0,0,22.734,41.721Zm7.939-9.287.059,1.328A3.85,3.85,0,0,1,33.9,32.238q3.35,0,3.379,3.779V43H35.469V36.008a2.432,2.432,0,0,0-.522-1.689,2.094,2.094,0,0,0-1.6-.547,2.607,2.607,0,0,0-1.543.469,3.183,3.183,0,0,0-1.035,1.23V43H28.965V32.434ZM41.963,43H40.156V32.434h1.807ZM40.01,29.631a1.078,1.078,0,0,1,.269-.742,1.008,1.008,0,0,1,.8-.3,1.024,1.024,0,0,1,.8.3,1.067,1.067,0,0,1,.273.742,1.032,1.032,0,0,1-.273.732,1.043,1.043,0,0,1-.8.293,1.026,1.026,0,0,1-.8-.293A1.043,1.043,0,0,1,40.01,29.631Zm9.082,12.09a2.6,2.6,0,0,0,1.689-.586,2.061,2.061,0,0,0,.8-1.465h1.709a3.276,3.276,0,0,1-.625,1.729,4.116,4.116,0,0,1-1.538,1.309,4.438,4.438,0,0,1-2.036.488,4.353,4.353,0,0,1-3.433-1.44,5.737,5.737,0,0,1-1.274-3.94v-.3a6.361,6.361,0,0,1,.566-2.744A4.314,4.314,0,0,1,46.577,32.9a4.619,4.619,0,0,1,2.5-.664A4.238,4.238,0,0,1,52.036,33.3a3.8,3.8,0,0,1,1.255,2.764H51.582a2.49,2.49,0,0,0-.776-1.685,2.415,2.415,0,0,0-1.724-.659,2.529,2.529,0,0,0-2.134.991,4.655,4.655,0,0,0-.757,2.866v.342a4.562,4.562,0,0,0,.752,2.813A2.541,2.541,0,0,0,49.092,41.721Zm5.752-4.1a6.241,6.241,0,0,1,.61-2.793,4.553,4.553,0,0,1,1.7-1.914,4.626,4.626,0,0,1,2.485-.674,4.456,4.456,0,0,1,3.491,1.494,5.748,5.748,0,0,1,1.333,3.975v.127a6.3,6.3,0,0,1-.591,2.769,4.486,4.486,0,0,1-1.689,1.909,4.679,4.679,0,0,1-2.524.684A4.445,4.445,0,0,1,56.177,41.7a5.719,5.719,0,0,1-1.333-3.955Zm1.816.215a4.52,4.52,0,0,0,.815,2.822,2.763,2.763,0,0,0,4.37-.015,4.943,4.943,0,0,0,.811-3.022,4.513,4.513,0,0,0-.825-2.817,2.623,2.623,0,0,0-2.192-1.079,2.594,2.594,0,0,0-2.158,1.064A4.906,4.906,0,0,0,56.66,37.834Z" transform="translate(914.695 2488.526)" fill="#12263f"/>
    <path id="Trazado_108470" data-name="Trazado 108470" d="M9.492,14.721H3.525V21H1.65V6.781h8.809V8.314H3.525v4.873H9.492ZM16.807,21.2a4.617,4.617,0,0,1-3.5-1.411,5.237,5.237,0,0,1-1.348-3.774v-.332a6.341,6.341,0,0,1,.6-2.808,4.685,4.685,0,0,1,1.68-1.934,4.223,4.223,0,0,1,2.339-.7,3.957,3.957,0,0,1,3.2,1.357,5.877,5.877,0,0,1,1.143,3.887v.752H13.77a3.756,3.756,0,0,0,.913,2.524,2.87,2.87,0,0,0,2.222.962,3.147,3.147,0,0,0,1.621-.391,4.073,4.073,0,0,0,1.162-1.035l1.1.859A4.437,4.437,0,0,1,16.807,21.2Zm-.225-9.473a2.41,2.41,0,0,0-1.836.8,3.868,3.868,0,0,0-.918,2.231h5.293v-.137a3.441,3.441,0,0,0-.742-2.134A2.269,2.269,0,0,0,16.582,11.723ZM27.4,21.2a4.617,4.617,0,0,1-3.5-1.411,5.237,5.237,0,0,1-1.348-3.774v-.332a6.341,6.341,0,0,1,.6-2.808,4.685,4.685,0,0,1,1.68-1.934,4.223,4.223,0,0,1,2.339-.7,3.957,3.957,0,0,1,3.2,1.357,5.877,5.877,0,0,1,1.143,3.887v.752H24.365a3.756,3.756,0,0,0,.913,2.524,2.87,2.87,0,0,0,2.222.962,3.147,3.147,0,0,0,1.621-.391,4.073,4.073,0,0,0,1.162-1.035l1.1.859A4.437,4.437,0,0,1,27.4,21.2Zm-.225-9.473a2.41,2.41,0,0,0-1.836.8,3.868,3.868,0,0,0-.918,2.231h5.293v-.137a3.441,3.441,0,0,0-.742-2.134A2.269,2.269,0,0,0,27.178,11.723Zm6,3.906a6.19,6.19,0,0,1,1.152-3.911,3.921,3.921,0,0,1,5.957-.21V6H42.09V21H40.43l-.088-1.133A3.679,3.679,0,0,1,37.324,21.2a3.609,3.609,0,0,1-2.993-1.5,6.26,6.26,0,0,1-1.157-3.926Zm1.807.205a4.687,4.687,0,0,0,.742,2.813,2.4,2.4,0,0,0,2.051,1.016,2.636,2.636,0,0,0,2.51-1.543V13.266a2.656,2.656,0,0,0-2.49-1.494,2.411,2.411,0,0,0-2.07,1.025A5.16,5.16,0,0,0,34.98,15.834Zm18.857,0a6.283,6.283,0,0,1-1.113,3.892,3.557,3.557,0,0,1-2.988,1.47,3.683,3.683,0,0,1-3.1-1.416L46.553,21h-1.66V6H46.7v5.6a3.663,3.663,0,0,1,3.018-1.357,3.579,3.579,0,0,1,3.022,1.455,6.471,6.471,0,0,1,1.1,3.984Zm-1.807-.205a4.882,4.882,0,0,0-.713-2.852,2.36,2.36,0,0,0-2.051-1.006,2.652,2.652,0,0,0-2.568,1.66V18a2.727,2.727,0,0,0,2.588,1.66,2.347,2.347,0,0,0,2.021-1.006A5.192,5.192,0,0,0,52.031,15.629ZM62.637,21a3.8,3.8,0,0,1-.254-1.113A4.031,4.031,0,0,1,59.375,21.2a3.73,3.73,0,0,1-2.563-.884,2.859,2.859,0,0,1-1-2.241,2.987,2.987,0,0,1,1.255-2.563,5.916,5.916,0,0,1,3.53-.913h1.758v-.83a2.029,2.029,0,0,0-.566-1.509,2.276,2.276,0,0,0-1.67-.562,2.634,2.634,0,0,0-1.621.488,1.439,1.439,0,0,0-.654,1.182H56.025a2.493,2.493,0,0,1,.562-1.528,3.832,3.832,0,0,1,1.523-1.167,5.125,5.125,0,0,1,2.114-.43,4.177,4.177,0,0,1,2.861.913,3.294,3.294,0,0,1,1.074,2.515v4.863a5.946,5.946,0,0,0,.371,2.314V21Zm-3-1.377a3.175,3.175,0,0,0,1.611-.439,2.658,2.658,0,0,0,1.1-1.143V15.873H60.938q-3.32,0-3.32,1.943a1.645,1.645,0,0,0,.566,1.328A2.177,2.177,0,0,0,59.639,19.623Zm11.592.1a2.6,2.6,0,0,0,1.689-.586,2.061,2.061,0,0,0,.8-1.465H75.43A3.276,3.276,0,0,1,74.8,19.4a4.116,4.116,0,0,1-1.538,1.309,4.438,4.438,0,0,1-2.036.488,4.353,4.353,0,0,1-3.433-1.44,5.737,5.737,0,0,1-1.274-3.94v-.3a6.361,6.361,0,0,1,.566-2.744A4.314,4.314,0,0,1,68.716,10.9a4.619,4.619,0,0,1,2.5-.664A4.238,4.238,0,0,1,74.175,11.3a3.8,3.8,0,0,1,1.255,2.764H73.721a2.49,2.49,0,0,0-.776-1.685,2.415,2.415,0,0,0-1.724-.659,2.529,2.529,0,0,0-2.134.991,4.655,4.655,0,0,0-.757,2.866v.342a4.562,4.562,0,0,0,.752,2.813A2.541,2.541,0,0,0,71.23,19.721Zm9.18-3.613-1.133,1.182V21H77.471V6h1.807v9.072l.967-1.162,3.291-3.477h2.2l-4.111,4.414L86.211,21H84.092Z" transform="translate(609.254 2488.526)" fill="#fff"/>
    <path id="Trazado_108463" data-name="Trazado 108463" d="M1.65,21V6.781H5.664a6.461,6.461,0,0,1,3.281.82,5.548,5.548,0,0,1,2.2,2.334,7.6,7.6,0,0,1,.786,3.477v.908a7.624,7.624,0,0,1-.776,3.525A5.461,5.461,0,0,1,8.94,20.17,6.873,6.873,0,0,1,5.586,21ZM3.525,8.314V19.467H5.5a4.292,4.292,0,0,0,3.374-1.349,5.573,5.573,0,0,0,1.206-3.841v-.831A5.661,5.661,0,0,0,8.94,9.678,4.049,4.049,0,0,0,5.713,8.314ZM18.867,21.2a4.617,4.617,0,0,1-3.5-1.411,5.237,5.237,0,0,1-1.348-3.774v-.332a6.341,6.341,0,0,1,.6-2.808,4.685,4.685,0,0,1,1.68-1.934,4.223,4.223,0,0,1,2.339-.7,3.957,3.957,0,0,1,3.2,1.357,5.877,5.877,0,0,1,1.143,3.887v.752H15.83a3.756,3.756,0,0,0,.913,2.524,2.87,2.87,0,0,0,2.222.962,3.147,3.147,0,0,0,1.621-.391,4.073,4.073,0,0,0,1.162-1.035l1.1.859A4.437,4.437,0,0,1,18.867,21.2Zm-.225-9.473a2.41,2.41,0,0,0-1.836.8,3.868,3.868,0,0,0-.918,2.231h5.293v-.137a3.441,3.441,0,0,0-.742-2.134A2.269,2.269,0,0,0,18.643,11.723ZM31.23,18.2a1.33,1.33,0,0,0-.552-1.138,5.311,5.311,0,0,0-1.924-.7,9.1,9.1,0,0,1-2.178-.7,3.1,3.1,0,0,1-1.191-.977A2.336,2.336,0,0,1,25,13.334a2.741,2.741,0,0,1,1.1-2.2,4.291,4.291,0,0,1,2.808-.9,4.415,4.415,0,0,1,2.915.928,2.947,2.947,0,0,1,1.118,2.373H31.123a1.631,1.631,0,0,0-.63-1.279,2.36,2.36,0,0,0-1.587-.537,2.47,2.47,0,0,0-1.543.43,1.353,1.353,0,0,0-.557,1.123,1.1,1.1,0,0,0,.518.986,6.368,6.368,0,0,0,1.87.635,9.744,9.744,0,0,1,2.192.723,3.2,3.2,0,0,1,1.245,1.011,2.485,2.485,0,0,1,.405,1.44A2.7,2.7,0,0,1,31.9,20.341a4.752,4.752,0,0,1-2.939.854,5.321,5.321,0,0,1-2.246-.449,3.653,3.653,0,0,1-1.528-1.255,3.025,3.025,0,0,1-.552-1.743h1.807a1.87,1.87,0,0,0,.728,1.44,2.822,2.822,0,0,0,1.792.532,2.913,2.913,0,0,0,1.646-.415A1.275,1.275,0,0,0,31.23,18.2Zm8.4,1.523a2.6,2.6,0,0,0,1.689-.586,2.061,2.061,0,0,0,.8-1.465h1.709A3.276,3.276,0,0,1,43.2,19.4a4.116,4.116,0,0,1-1.538,1.309,4.438,4.438,0,0,1-2.036.488,4.353,4.353,0,0,1-3.433-1.44,5.737,5.737,0,0,1-1.274-3.94v-.3a6.361,6.361,0,0,1,.566-2.744A4.314,4.314,0,0,1,37.114,10.9a4.619,4.619,0,0,1,2.5-.664A4.238,4.238,0,0,1,42.573,11.3a3.8,3.8,0,0,1,1.255,2.764H42.119a2.49,2.49,0,0,0-.776-1.685,2.415,2.415,0,0,0-1.724-.659,2.529,2.529,0,0,0-2.134.991,4.655,4.655,0,0,0-.757,2.866v.342a4.562,4.562,0,0,0,.752,2.813A2.541,2.541,0,0,0,39.629,19.721Zm12.754.234a3.837,3.837,0,0,1-3.1,1.24,3.285,3.285,0,0,1-2.573-.981,4.248,4.248,0,0,1-.894-2.905V10.434h1.807V17.26q0,2.4,1.953,2.4a2.7,2.7,0,0,0,2.754-1.543V10.434h1.807V21H52.422ZM61.27,21.2a4.617,4.617,0,0,1-3.5-1.411,5.237,5.237,0,0,1-1.348-3.774v-.332a6.341,6.341,0,0,1,.6-2.808,4.685,4.685,0,0,1,1.68-1.934,4.223,4.223,0,0,1,2.339-.7,3.957,3.957,0,0,1,3.2,1.357,5.877,5.877,0,0,1,1.143,3.887v.752H58.232a3.756,3.756,0,0,0,.913,2.524,2.87,2.87,0,0,0,2.222.962,3.147,3.147,0,0,0,1.621-.391,4.073,4.073,0,0,0,1.162-1.035l1.1.859A4.437,4.437,0,0,1,61.27,21.2Zm-.225-9.473a2.41,2.41,0,0,0-1.836.8,3.868,3.868,0,0,0-.918,2.231h5.293v-.137a3.441,3.441,0,0,0-.742-2.134A2.269,2.269,0,0,0,61.045,11.723Zm8.145-1.289.059,1.328a3.85,3.85,0,0,1,3.164-1.523q3.35,0,3.379,3.779V21H73.984V14.008a2.432,2.432,0,0,0-.522-1.689,2.094,2.094,0,0,0-1.6-.547,2.607,2.607,0,0,0-1.543.469,3.183,3.183,0,0,0-1.035,1.23V21H67.48V10.434ZM80.967,7.875v2.559h1.973v1.4H80.967v6.561a1.467,1.467,0,0,0,.264.953,1.11,1.11,0,0,0,.9.318,4.374,4.374,0,0,0,.859-.117V21A5.268,5.268,0,0,1,81.6,21.2a2.25,2.25,0,0,1-1.826-.732,3.147,3.147,0,0,1-.615-2.08V11.83H77.236v-1.4H79.16V7.875Zm3.408,7.744a6.241,6.241,0,0,1,.61-2.793,4.553,4.553,0,0,1,1.7-1.914,4.626,4.626,0,0,1,2.485-.674,4.456,4.456,0,0,1,3.491,1.494,5.748,5.748,0,0,1,1.333,3.975v.127A6.3,6.3,0,0,1,93.4,18.6a4.486,4.486,0,0,1-1.689,1.909,4.679,4.679,0,0,1-2.524.684A4.445,4.445,0,0,1,85.708,19.7a5.719,5.719,0,0,1-1.333-3.955Zm1.816.215a4.52,4.52,0,0,0,.815,2.822,2.763,2.763,0,0,0,4.37-.015,4.943,4.943,0,0,0,.811-3.022,4.513,4.513,0,0,0-.825-2.817,2.623,2.623,0,0,0-2.192-1.079,2.594,2.594,0,0,0-2.158,1.064A4.906,4.906,0,0,0,86.191,15.834ZM102.412,18.2a1.33,1.33,0,0,0-.552-1.138,5.311,5.311,0,0,0-1.924-.7,9.1,9.1,0,0,1-2.178-.7,3.1,3.1,0,0,1-1.191-.977,2.336,2.336,0,0,1-.386-1.348,2.741,2.741,0,0,1,1.1-2.2,4.291,4.291,0,0,1,2.808-.9,4.415,4.415,0,0,1,2.915.928,2.947,2.947,0,0,1,1.118,2.373H102.3a1.631,1.631,0,0,0-.63-1.279,2.36,2.36,0,0,0-1.587-.537,2.47,2.47,0,0,0-1.543.43,1.353,1.353,0,0,0-.557,1.123,1.1,1.1,0,0,0,.518.986,6.368,6.368,0,0,0,1.87.635,9.744,9.744,0,0,1,2.192.723,3.2,3.2,0,0,1,1.245,1.011,2.485,2.485,0,0,1,.405,1.44,2.7,2.7,0,0,1-1.133,2.271,4.752,4.752,0,0,1-2.939.854,5.321,5.321,0,0,1-2.246-.449,3.653,3.653,0,0,1-1.528-1.255,3.025,3.025,0,0,1-.552-1.743h1.807a1.87,1.87,0,0,0,.728,1.44,2.822,2.822,0,0,0,1.792.532,2.913,2.913,0,0,0,1.646-.415A1.275,1.275,0,0,0,102.412,18.2Zm12.568.156,2.461-7.92h1.934l-4.248,12.2q-.986,2.637-3.135,2.637l-.342-.029-.674-.127V23.646l.488.039a2.4,2.4,0,0,0,1.431-.371,2.686,2.686,0,0,0,.845-1.357l.4-1.074-3.77-10.449h1.973ZM10.293,37.834a6.327,6.327,0,0,1-1.1,3.887A3.537,3.537,0,0,1,6.2,43.2a3.875,3.875,0,0,1-3.027-1.221v5.088H1.367V32.434h1.65l.088,1.172a3.722,3.722,0,0,1,3.066-1.367,3.6,3.6,0,0,1,3.013,1.436,6.4,6.4,0,0,1,1.108,3.994Zm-1.807-.205a4.669,4.669,0,0,0-.762-2.822,2.454,2.454,0,0,0-2.09-1.035,2.656,2.656,0,0,0-2.461,1.455v5.049a2.661,2.661,0,0,0,2.48,1.445A2.442,2.442,0,0,0,7.72,40.69,5.1,5.1,0,0,0,8.486,37.629ZM17.7,34.055a5.414,5.414,0,0,0-.889-.068A2.381,2.381,0,0,0,14.395,35.5V43H12.588V32.434h1.758l.029,1.221a2.813,2.813,0,0,1,2.52-1.416,1.846,1.846,0,0,1,.8.137Zm.986,3.564a6.241,6.241,0,0,1,.61-2.793,4.553,4.553,0,0,1,1.7-1.914,4.626,4.626,0,0,1,2.485-.674,4.456,4.456,0,0,1,3.491,1.494A5.748,5.748,0,0,1,28.3,37.707v.127A6.3,6.3,0,0,1,27.71,40.6a4.486,4.486,0,0,1-1.689,1.909A4.679,4.679,0,0,1,23.5,43.2,4.445,4.445,0,0,1,20.015,41.7a5.719,5.719,0,0,1-1.333-3.955Zm1.816.215a4.52,4.52,0,0,0,.815,2.822,2.763,2.763,0,0,0,4.37-.015,4.943,4.943,0,0,0,.811-3.022,4.513,4.513,0,0,0-.825-2.817,2.623,2.623,0,0,0-2.192-1.079,2.594,2.594,0,0,0-2.158,1.064A4.906,4.906,0,0,0,20.5,37.834Zm11.768-5.4.049,1.172a3.9,3.9,0,0,1,3.135-1.367,3.021,3.021,0,0,1,3.018,1.7,4,4,0,0,1,1.372-1.23,4.052,4.052,0,0,1,2-.469q3.477,0,3.535,3.682V43H43.564V36.027a2.426,2.426,0,0,0-.518-1.694,2.279,2.279,0,0,0-1.738-.562,2.4,2.4,0,0,0-1.67.6,2.436,2.436,0,0,0-.771,1.616V43H37.051V36.076a2.016,2.016,0,0,0-2.256-2.3,2.417,2.417,0,0,0-2.432,1.514V43H30.557V32.434Zm15.352,5.186a6.241,6.241,0,0,1,.61-2.793,4.553,4.553,0,0,1,1.7-1.914,4.626,4.626,0,0,1,2.485-.674A4.456,4.456,0,0,1,55.9,33.732a5.748,5.748,0,0,1,1.333,3.975v.127a6.3,6.3,0,0,1-.591,2.769,4.486,4.486,0,0,1-1.689,1.909,4.679,4.679,0,0,1-2.524.684A4.445,4.445,0,0,1,48.95,41.7a5.719,5.719,0,0,1-1.333-3.955Zm1.816.215a4.52,4.52,0,0,0,.815,2.822,2.763,2.763,0,0,0,4.37-.015,4.943,4.943,0,0,0,.811-3.022A4.513,4.513,0,0,0,54.6,34.8a2.623,2.623,0,0,0-2.192-1.079,2.594,2.594,0,0,0-2.158,1.064A4.906,4.906,0,0,0,49.434,37.834ZM63.74,41.721a2.6,2.6,0,0,0,1.689-.586,2.061,2.061,0,0,0,.8-1.465h1.709a3.276,3.276,0,0,1-.625,1.729,4.116,4.116,0,0,1-1.538,1.309,4.438,4.438,0,0,1-2.036.488,4.353,4.353,0,0,1-3.433-1.44,5.737,5.737,0,0,1-1.274-3.94v-.3a6.361,6.361,0,0,1,.566-2.744A4.314,4.314,0,0,1,61.226,32.9a4.619,4.619,0,0,1,2.5-.664A4.238,4.238,0,0,1,66.685,33.3a3.8,3.8,0,0,1,1.255,2.764H66.23a2.49,2.49,0,0,0-.776-1.685,2.415,2.415,0,0,0-1.724-.659,2.529,2.529,0,0,0-2.134.991,4.655,4.655,0,0,0-.757,2.866v.342a4.562,4.562,0,0,0,.752,2.813A2.541,2.541,0,0,0,63.74,41.721ZM71.934,43H70.127V32.434h1.807ZM69.98,29.631a1.078,1.078,0,0,1,.269-.742,1.008,1.008,0,0,1,.8-.3,1.024,1.024,0,0,1,.8.3,1.067,1.067,0,0,1,.273.742,1.032,1.032,0,0,1-.273.732,1.043,1.043,0,0,1-.8.293,1.026,1.026,0,0,1-.8-.293A1.043,1.043,0,0,1,69.98,29.631Zm4.365,7.988a6.241,6.241,0,0,1,.61-2.793,4.553,4.553,0,0,1,1.7-1.914,4.626,4.626,0,0,1,2.485-.674,4.456,4.456,0,0,1,3.491,1.494,5.748,5.748,0,0,1,1.333,3.975v.127a6.3,6.3,0,0,1-.591,2.769,4.486,4.486,0,0,1-1.689,1.909,4.679,4.679,0,0,1-2.524.684A4.445,4.445,0,0,1,75.679,41.7a5.719,5.719,0,0,1-1.333-3.955Zm1.816.215a4.52,4.52,0,0,0,.815,2.822,2.763,2.763,0,0,0,4.37-.015,4.943,4.943,0,0,0,.811-3.022,4.513,4.513,0,0,0-.825-2.817,2.623,2.623,0,0,0-2.192-1.079,2.594,2.594,0,0,0-2.158,1.064A4.906,4.906,0,0,0,76.162,37.834Zm11.777-5.4L88,33.762a3.85,3.85,0,0,1,3.164-1.523q3.35,0,3.379,3.779V43H92.734V36.008a2.432,2.432,0,0,0-.522-1.689,2.094,2.094,0,0,0-1.6-.547,2.607,2.607,0,0,0-1.543.469,3.183,3.183,0,0,0-1.035,1.23V43H86.23V32.434ZM101.65,43.2a4.617,4.617,0,0,1-3.5-1.411,5.237,5.237,0,0,1-1.348-3.774v-.332a6.341,6.341,0,0,1,.6-2.808,4.685,4.685,0,0,1,1.68-1.934,4.223,4.223,0,0,1,2.339-.7,3.957,3.957,0,0,1,3.2,1.357,5.877,5.877,0,0,1,1.143,3.887v.752H98.613a3.756,3.756,0,0,0,.913,2.524,2.87,2.87,0,0,0,2.222.962,3.147,3.147,0,0,0,1.621-.391,4.073,4.073,0,0,0,1.162-1.035l1.1.859A4.437,4.437,0,0,1,101.65,43.2Zm-.225-9.473a2.41,2.41,0,0,0-1.836.8,3.869,3.869,0,0,0-.918,2.231h5.293v-.137a3.441,3.441,0,0,0-.742-2.134A2.269,2.269,0,0,0,101.426,33.723ZM114.014,40.2a1.33,1.33,0,0,0-.552-1.138,5.311,5.311,0,0,0-1.924-.7,9.1,9.1,0,0,1-2.178-.7,3.1,3.1,0,0,1-1.191-.977,2.336,2.336,0,0,1-.386-1.348,2.741,2.741,0,0,1,1.1-2.2,4.291,4.291,0,0,1,2.808-.9,4.415,4.415,0,0,1,2.915.928,2.947,2.947,0,0,1,1.118,2.373h-1.816a1.631,1.631,0,0,0-.63-1.279,2.36,2.36,0,0,0-1.587-.537,2.47,2.47,0,0,0-1.543.43,1.353,1.353,0,0,0-.557,1.123,1.1,1.1,0,0,0,.518.986,6.368,6.368,0,0,0,1.87.635,9.744,9.744,0,0,1,2.192.723,3.2,3.2,0,0,1,1.245,1.011,2.485,2.485,0,0,1,.405,1.44,2.7,2.7,0,0,1-1.133,2.271,4.752,4.752,0,0,1-2.939.854,5.321,5.321,0,0,1-2.246-.449,3.653,3.653,0,0,1-1.528-1.255,3.025,3.025,0,0,1-.552-1.743h1.807a1.87,1.87,0,0,0,.728,1.44,2.822,2.822,0,0,0,1.792.532,2.913,2.913,0,0,0,1.646-.415A1.275,1.275,0,0,0,114.014,40.2Z" transform="translate(421.048 2251.22)" fill="#12263f"/>
    <path id="Trazado_108459" data-name="Trazado 108459" d="M1.65,21V6.781H5.664a6.461,6.461,0,0,1,3.281.82,5.548,5.548,0,0,1,2.2,2.334,7.6,7.6,0,0,1,.786,3.477v.908a7.624,7.624,0,0,1-.776,3.525A5.461,5.461,0,0,1,8.94,20.17,6.873,6.873,0,0,1,5.586,21ZM3.525,8.314V19.467H5.5a4.292,4.292,0,0,0,3.374-1.349,5.573,5.573,0,0,0,1.206-3.841v-.831A5.661,5.661,0,0,0,8.94,9.678,4.049,4.049,0,0,0,5.713,8.314ZM18.867,21.2a4.617,4.617,0,0,1-3.5-1.411,5.237,5.237,0,0,1-1.348-3.774v-.332a6.341,6.341,0,0,1,.6-2.808,4.685,4.685,0,0,1,1.68-1.934,4.223,4.223,0,0,1,2.339-.7,3.957,3.957,0,0,1,3.2,1.357,5.877,5.877,0,0,1,1.143,3.887v.752H15.83a3.756,3.756,0,0,0,.913,2.524,2.87,2.87,0,0,0,2.222.962,3.147,3.147,0,0,0,1.621-.391,4.073,4.073,0,0,0,1.162-1.035l1.1.859A4.437,4.437,0,0,1,18.867,21.2Zm-.225-9.473a2.41,2.41,0,0,0-1.836.8,3.868,3.868,0,0,0-.918,2.231h5.293v-.137a3.441,3.441,0,0,0-.742-2.134A2.269,2.269,0,0,0,18.643,11.723Zm9.795,6.826,2.617-8.115H32.9L29.111,21H27.734L23.906,10.434h1.846Zm5.576-2.93a6.241,6.241,0,0,1,.61-2.793,4.553,4.553,0,0,1,1.7-1.914,4.626,4.626,0,0,1,2.485-.674A4.456,4.456,0,0,1,42.3,11.732a5.748,5.748,0,0,1,1.333,3.975v.127a6.3,6.3,0,0,1-.591,2.769,4.486,4.486,0,0,1-1.689,1.909,4.679,4.679,0,0,1-2.524.684A4.445,4.445,0,0,1,35.347,19.7a5.719,5.719,0,0,1-1.333-3.955Zm1.816.215a4.52,4.52,0,0,0,.815,2.822,2.763,2.763,0,0,0,4.37-.015,4.943,4.943,0,0,0,.811-3.022A4.513,4.513,0,0,0,41,12.8a2.623,2.623,0,0,0-2.192-1.079,2.594,2.594,0,0,0-2.158,1.064A4.906,4.906,0,0,0,35.83,15.834ZM47.861,21H46.055V6h1.807Zm9.414-1.045a3.837,3.837,0,0,1-3.1,1.24,3.285,3.285,0,0,1-2.573-.981,4.248,4.248,0,0,1-.894-2.905V10.434H52.52V17.26q0,2.4,1.953,2.4a2.7,2.7,0,0,0,2.754-1.543V10.434h1.807V21H57.314Zm8.74-.234a2.6,2.6,0,0,0,1.689-.586,2.061,2.061,0,0,0,.8-1.465h1.709A3.276,3.276,0,0,1,69.59,19.4a4.116,4.116,0,0,1-1.538,1.309,4.438,4.438,0,0,1-2.036.488,4.353,4.353,0,0,1-3.433-1.44,5.737,5.737,0,0,1-1.274-3.94v-.3a6.361,6.361,0,0,1,.566-2.744A4.314,4.314,0,0,1,63.5,10.9a4.619,4.619,0,0,1,2.5-.664A4.238,4.238,0,0,1,68.96,11.3a3.8,3.8,0,0,1,1.255,2.764H68.506a2.49,2.49,0,0,0-.776-1.685,2.415,2.415,0,0,0-1.724-.659,2.529,2.529,0,0,0-2.134.991,4.655,4.655,0,0,0-.757,2.866v.342a4.562,4.562,0,0,0,.752,2.813A2.541,2.541,0,0,0,66.016,19.721ZM74.209,21H72.4V10.434h1.807ZM72.256,7.631a1.078,1.078,0,0,1,.269-.742,1.008,1.008,0,0,1,.8-.3,1.024,1.024,0,0,1,.8.3,1.067,1.067,0,0,1,.273.742,1.032,1.032,0,0,1-.273.732,1.043,1.043,0,0,1-.8.293,1.026,1.026,0,0,1-.8-.293A1.043,1.043,0,0,1,72.256,7.631Zm4.365,7.988a6.241,6.241,0,0,1,.61-2.793,4.553,4.553,0,0,1,1.7-1.914,4.626,4.626,0,0,1,2.485-.674,4.456,4.456,0,0,1,3.491,1.494,5.748,5.748,0,0,1,1.333,3.975v.127a6.3,6.3,0,0,1-.591,2.769,4.486,4.486,0,0,1-1.689,1.909,4.679,4.679,0,0,1-2.524.684A4.445,4.445,0,0,1,77.954,19.7a5.719,5.719,0,0,1-1.333-3.955Zm1.816.215a4.52,4.52,0,0,0,.815,2.822,2.763,2.763,0,0,0,4.37-.015,4.943,4.943,0,0,0,.811-3.022,4.513,4.513,0,0,0-.825-2.817,2.623,2.623,0,0,0-2.192-1.079,2.594,2.594,0,0,0-2.158,1.064A4.906,4.906,0,0,0,78.438,15.834Zm11.777-5.4.059,1.328a3.85,3.85,0,0,1,3.164-1.523q3.35,0,3.379,3.779V21H95.01V14.008a2.432,2.432,0,0,0-.522-1.689,2.094,2.094,0,0,0-1.6-.547,2.607,2.607,0,0,0-1.543.469,3.183,3.183,0,0,0-1.035,1.23V21H88.506V10.434ZM103.926,21.2a4.617,4.617,0,0,1-3.5-1.411,5.237,5.237,0,0,1-1.348-3.774v-.332a6.341,6.341,0,0,1,.6-2.808,4.685,4.685,0,0,1,1.68-1.934,4.223,4.223,0,0,1,2.339-.7,3.957,3.957,0,0,1,3.2,1.357,5.877,5.877,0,0,1,1.143,3.887v.752h-7.158a3.756,3.756,0,0,0,.913,2.524,2.87,2.87,0,0,0,2.222.962,3.147,3.147,0,0,0,1.621-.391,4.073,4.073,0,0,0,1.162-1.035l1.1.859A4.437,4.437,0,0,1,103.926,21.2Zm-.225-9.473a2.41,2.41,0,0,0-1.836.8,3.869,3.869,0,0,0-.918,2.231h5.293v-.137a3.441,3.441,0,0,0-.742-2.134A2.269,2.269,0,0,0,103.7,11.723ZM116.289,18.2a1.33,1.33,0,0,0-.552-1.138,5.311,5.311,0,0,0-1.924-.7,9.1,9.1,0,0,1-2.178-.7,3.1,3.1,0,0,1-1.191-.977,2.336,2.336,0,0,1-.386-1.348,2.741,2.741,0,0,1,1.1-2.2,4.291,4.291,0,0,1,2.808-.9,4.415,4.415,0,0,1,2.915.928A2.947,2.947,0,0,1,118,13.539h-1.816a1.631,1.631,0,0,0-.63-1.279,2.36,2.36,0,0,0-1.587-.537,2.47,2.47,0,0,0-1.543.43,1.353,1.353,0,0,0-.557,1.123,1.1,1.1,0,0,0,.518.986,6.368,6.368,0,0,0,1.87.635,9.744,9.744,0,0,1,2.192.723,3.2,3.2,0,0,1,1.245,1.011,2.485,2.485,0,0,1,.405,1.44,2.7,2.7,0,0,1-1.133,2.271,4.752,4.752,0,0,1-2.939.854,5.321,5.321,0,0,1-2.246-.449,3.653,3.653,0,0,1-1.528-1.255,3.025,3.025,0,0,1-.552-1.743H111.5a1.87,1.87,0,0,0,.728,1.44,2.822,2.822,0,0,0,1.792.532,2.913,2.913,0,0,0,1.646-.415A1.275,1.275,0,0,0,116.289,18.2Z" transform="translate(571.754 1959.839)" fill="#fff"/>
    <g id="Grupo_62339" data-name="Grupo 62339" transform="translate(659.929 2126.2)">
      <g id="Grupo_62338" data-name="Grupo 62338" clip-path="url(#clip-path-7)">
        <path id="Trazado_107774" data-name="Trazado 107774" d="M245.188,77.521c22.591,43.445-9.818,105.04-72.387,137.576S41.194,238.79,18.6,195.345,28.42,90.3,90.99,57.768,222.6,34.076,245.188,77.521" transform="translate(-2.951 -15.203)" fill="#e8e8e8"/>
        <path id="Trazado_107775" data-name="Trazado 107775" d="M584.025,123.394l19.527.686a.786.786,0,0,1,.688,1.119L602.1,129.91l-13.257-3.822a.259.259,0,0,0-.212.464l11.626,7.435-2.126,4.725a.786.786,0,0,1-1.295.2l-13.416-14.186a.787.787,0,0,1,.6-1.333" transform="translate(-383.767 -81.196)" fill="#fff"/>
        <path id="Trazado_107776" data-name="Trazado 107776" d="M609.658,138.807l-11.735-7.5a.645.645,0,0,1,.519-1.162l.009,0L611.831,134l3.351,4.412Zm-10.574-7.679,10.774,6.89,3.846-.275-2.334-3.072Z" transform="translate(-393.263 -85.622)" fill="#fff"/>
        <path id="Trazado_107777" data-name="Trazado 107777" d="M36.489,273.687c-1.984-2.24-3.925-4.557-5.769-6.886l1.314-1.04c1.824,2.3,3.745,4.6,5.709,6.815ZM25.345,259.6c-1.725-2.45-3.392-4.971-4.956-7.494l1.424-.883c1.548,2.494,3.2,4.989,4.9,7.413Zm-9.465-15.267c-1.43-2.646-2.785-5.349-4.028-8.036l1.521-.7c1.228,2.655,2.568,5.327,3.981,7.942Zm-7.542-16.31c-1.086-2.808-2.082-5.665-2.96-8.491l1.6-.5c.867,2.789,1.85,5.61,2.923,8.384Zm-5.323-17.17c-.687-2.939-1.265-5.911-1.718-8.833l1.655-.256c.446,2.88,1.017,5.81,1.694,8.708ZM.277,193.079C.093,190.559,0,188.022,0,185.539q0-.733.011-1.465l1.675.024q-.01.719-.011,1.441c0,2.443.092,4.94.273,7.419Zm1.949-17.82L.56,175.077a89.589,89.589,0,0,1,1.423-8.906l1.639.349a87.963,87.963,0,0,0-1.4,8.739m3.7-17.279-1.592-.523a79.3,79.3,0,0,1,3.3-8.4l1.522.7a77.251,77.251,0,0,0-3.233,8.223" transform="translate(0 -98.083)" fill="#cfcfcf"/>
        <path id="Trazado_107778" data-name="Trazado 107778" d="M282.142,621.378c-1.573,0-3.177-.035-4.767-.1l.072-1.674c2.979.129,5.948.135,8.864.02l.067,1.674q-2.108.084-4.237.083m13.209-.837-.214-1.662c2.949-.382,5.88-.9,8.712-1.55l.374,1.633c-2.883.659-5.868,1.191-8.871,1.578m-26.944-.006c-2.935-.356-5.924-.831-8.884-1.411l.321-1.644c2.921.572,5.869,1.04,8.764,1.391Zm-17.646-3.444c-2.854-.766-5.748-1.646-8.6-2.615l.539-1.587c2.819.958,5.678,1.827,8.5,2.584Zm62.135-.582-.541-1.587a80.768,80.768,0,0,0,8.2-3.3l.71,1.517a82.325,82.325,0,0,1-8.371,3.368m-79.152-5.192c-2.746-1.13-5.506-2.364-8.2-3.67l.73-1.508c2.667,1.29,5.4,2.511,8.111,3.628Zm95.465-2.468-.882-1.425a73.682,73.682,0,0,0,7.216-5.09l1.046,1.308a75.284,75.284,0,0,1-7.38,5.207M217.571,603.5c-2.6-1.451-5.195-3-7.717-4.6l.9-1.414c2.495,1.585,5.063,3.117,7.634,4.552Z" transform="translate(-138.091 -393.164)" fill="#cfcfcf"/>
        <path id="Trazado_107779" data-name="Trazado 107779" d="M321.919,173.04l-1.646-.316c.277-1.435.521-2.9.726-4.36l1.659.233c-.209,1.487-.459,2.982-.74,4.443m1.56-13.42-1.674-.072c.061-1.408.091-2.834.091-4.239,0-1.517-.035-3.072-.106-4.622l1.674-.076c.071,1.575.108,3.156.108,4.7,0,1.429-.031,2.879-.093,4.311m-2.465-17.763c-.375-2.89-.873-5.832-1.482-8.746l1.639-.342c.619,2.955,1.125,5.94,1.5,8.873ZM317.395,124.5c-.8-2.8-1.725-5.642-2.74-8.444l1.574-.572c1.03,2.838,1.964,5.716,2.778,8.554Zm-6.044-16.689c-1.174-2.676-2.46-5.374-3.824-8.017l1.49-.769c1.38,2.676,2.682,5.4,3.869,8.113Zm-8.134-15.788c-1.5-2.518-3.1-5.042-4.766-7.5l1.388-.939c1.683,2.486,3.3,5.037,4.818,7.584ZM293.26,77.3c-1.786-2.34-3.666-4.666-5.587-6.913l1.273-1.088c1.942,2.27,3.84,4.62,5.647,6.985Zm-11.55-13.51c-2.019-2.118-4.141-4.227-6.305-6.267l1.148-1.219c2.188,2.061,4.331,4.19,6.37,6.33ZM268.773,51.6c-2.256-1.91-4.589-3.781-6.936-5.561l1.012-1.335c2.371,1.8,4.728,3.688,7.008,5.617ZM254.608,40.869c-2.454-1.656-4.978-3.259-7.5-4.765l.857-1.439c2.554,1.522,5.1,3.142,7.583,4.816Zm-15.264-9.1c-2.642-1.374-5.334-2.676-8-3.869l.685-1.53c2.7,1.206,5.419,2.522,8.089,3.911Zm-16.218-7.248c-2.781-1.043-5.61-2-8.411-2.856l.487-1.6c2.835.862,5.7,1.834,8.512,2.89Zm-78-1.972L144.5,21a85.141,85.141,0,0,1,8.539-2.912L153.5,19.7a83.291,83.291,0,0,0-8.371,2.854m61.012-3.183c-2.9-.673-5.828-1.246-8.711-1.7l.263-1.655c2.922.464,5.892,1.044,8.827,1.726Zm-44.016-1.648-.294-1.649c2.909-.518,5.916-.909,8.936-1.163l.14,1.671c-2.969.249-5.924.633-8.782,1.141m26.5-1.12c-2.97-.245-5.95-.372-8.86-.379l0-1.675c2.954.007,5.979.136,8.993.384Z" transform="translate(-95.087 -9.573)" fill="#cfcfcf"/>
        <path id="Trazado_107780" data-name="Trazado 107780" d="M728.241,63.489a22.685,22.685,0,1,1-6.681-31.377,22.685,22.685,0,0,1,6.681,31.377" transform="translate(-451.756 -18.723)" fill="#53bced"/>
        <path id="Trazado_107781" data-name="Trazado 107781" d="M704.818,134.4l-4.875,14.348,18.077-8.456Z" transform="translate(-460.586 -88.441)" fill="#53bced"/>
        <path id="Trazado_107782" data-name="Trazado 107782" d="M727.68,85.147l-11.992-16.9,4.589-3.256,7.112,10.02,9.049-14.444,4.768,2.987Z" transform="translate(-470.948 -39.857)" fill="#fff"/>
        <path id="Trazado_107783" data-name="Trazado 107783" d="M698.064,629.333h-3.449s.856,4.139-.864,6.882a17.816,17.816,0,0,0,4.365,1.725,72.42,72.42,0,0,1-.052-8.607" transform="translate(-456.512 -414.123)" fill="#b5d6ea"/>
        <path id="Trazado_107784" data-name="Trazado 107784" d="M681.248,649.458a17.782,17.782,0,0,0,4.365,1.725,12.676,12.676,0,0,1,.262,2.367c.007.318.007.658-.007,1.045H674.75l.011-.437a.777.777,0,0,1,.618-.726,9.467,9.467,0,0,0,5.869-3.974" transform="translate(-444.009 -427.366)" fill="#c93b38"/>
        <path id="Trazado_107785" data-name="Trazado 107785" d="M686.4,400.155c-.416,15.755,2.506,82.3,2.506,82.3l6.5,1.089s8.963-18.251,8.956-86.828Z" transform="translate(-451.648 -261.052)" fill="#008eb0"/>
        <path id="Trazado_107786" data-name="Trazado 107786" d="M727.164,421.2l2.584,35.033c.593-7.788,1.055-16.845,1.291-27.339Z" transform="translate(-478.499 -277.163)" fill="#265173"/>
        <path id="Trazado_107787" data-name="Trazado 107787" d="M773.081,630.006h-3.863s1.632,4.842.978,6.652a21.91,21.91,0,0,0,4.128,1.725c-.32-1.262-.964-5.527-1.242-8.377" transform="translate(-506.172 -414.566)" fill="#b5d6ea"/>
        <path id="Trazado_107788" data-name="Trazado 107788" d="M766.161,649.167c.95-.742,3.089,1.476,4.128,1.725a18.923,18.923,0,0,1,.456,2.367c.042.318.081.658.117,1.045H763.13l-.039-.4a1.139,1.139,0,0,1,.434-1.015,7.979,7.979,0,0,0,2.635-3.724" transform="translate(-502.137 -427.075)" fill="#c93b38"/>
        <path id="Trazado_107789" data-name="Trazado 107789" d="M741.908,392.443s9.868,56.776,6.28,87.866l-7.8-.152s-14.741-62.674-14.981-87.752Z" transform="translate(-477.345 -258.216)" fill="#008eb0"/>
        <path id="Trazado_107790" data-name="Trazado 107790" d="M674.151,277.22c4.812,4.919,6.51,12.7,6.163,19.338l-7.953-.889c0-6.181.065-16.441,1.791-18.448" transform="translate(-442.436 -182.42)" fill="#d04a3d"/>
        <path id="Trazado_107791" data-name="Trazado 107791" d="M623.1,304.649c5.428,4.076,16.838,12.3,16.838,12.3.009-.822.007-1.939.007-3.228l7.953.889c-.314,6-2.3,11.064-5.172,12.241-5.8,2.376-16.134-11.472-18.21-18.563Z" transform="translate(-410.023 -200.47)" fill="#f79885"/>
        <path id="Trazado_107792" data-name="Trazado 107792" d="M679.088,315.4c-1-16.382-3.524-42.8-2.207-46.866,7.026-6.381,18.636-4.38,21.538-3.556,7.945,16.566,11.347,38.525,11.944,45.126-13.38,5.906-27.741,6-31.275,5.3" transform="translate(-445.166 -173.736)" fill="#db6e5f"/>
        <path id="Trazado_107793" data-name="Trazado 107793" d="M677.547,234.922s-3.983-8.546-6.631-11.828-4.04-4.517-7.219-2.543-2.892,3.207-2.794,4.743,5.344,11,7.708,10.226a4.841,4.841,0,0,0,2.367-2.11s1.787,5.394,1.908,6.47c0,0,4.156-1.556,4.661-4.958" transform="translate(-434.862 -144.506)" fill="#f79885"/>
        <path id="Trazado_107794" data-name="Trazado 107794" d="M691.81,250.323a18.036,18.036,0,0,1-1.343,3.3s.437,1.176.734,2.243c1.665-3.294.609-5.544.609-5.544" transform="translate(-454.351 -164.721)" fill="#f0786a"/>
        <path id="Trazado_107795" data-name="Trazado 107795" d="M653.35,224.12c-2.046,1-6.43-4.258-5.244-6.532s4.424.316,4.424.316-3.314-5.575,1.948-2.081c0,0,3.52-3.2,5.549-.719s5.049,8.552,5.049,8.552-1.512,2.161-6.267-2.884a44.407,44.407,0,0,1-5.461,3.349" transform="translate(-426.344 -140.926)" fill="#9c2622"/>
        <path id="Trazado_107796" data-name="Trazado 107796" d="M682.279,233.877s.071-2.094,1.2-1.552.138,2.487.138,2.487Z" transform="translate(-448.963 -152.819)" fill="#f79885"/>
        <path id="Trazado_107797" data-name="Trazado 107797" d="M737.924,266.81c2.917-.156,11.7,3.749,17.687,8.2l-5.743,8.164c-9.778-3.957-16.307-13.481-11.944-16.36" transform="translate(-484.672 -175.567)" fill="#d04a3d"/>
        <path id="Trazado_107798" data-name="Trazado 107798" d="M777.235,290.786s8.675,6.124,8.816,9.781-7.854,19.342-16.646,20.678l8.519-19.319-6.432-2.977Z" transform="translate(-506.295 -191.347)" fill="#f79885"/>
        <path id="Trazado_107799" data-name="Trazado 107799" d="M769.636,374.482a2.135,2.135,0,0,0-1.328,2.12c0,.7.211,2.884.7,2.849.439-.031.439-1,.528-.879a3.17,3.17,0,0,1,.387,3.024c-.914,2.462,2.672-.352,2.6-3.095a8.448,8.448,0,0,0-1.407-3.534,2.494,2.494,0,0,0-1.485-.484" transform="translate(-505.573 -246.422)" fill="#f79885"/>
        <path id="Trazado_107800" data-name="Trazado 107800" d="M349.04,29.89c-12.2-14.371-29.8-21.663-52.311-21.663-1.293,0-2.575.023-3.836.079-1.261-.056-2.543-.079-3.846-.079a79.3,79.3,0,0,0-28.108,4.712h20.377a82.874,82.874,0,0,1,11.578-1.257c19.729.777,35.22,7.652,46.091,20.447,21.446,25.253,17.79,65.551,17.758,65.956a1.651,1.651,0,0,0,1.409,1.846.913.913,0,0,0,.17.011H366a1.623,1.623,0,0,0,1.578-1.508c.17-1.71,3.846-42.166-18.542-68.544" transform="translate(-171.707 -5.414)" fill="#53bced"/>
        <path id="Trazado_107801" data-name="Trazado 107801" d="M317.9,16.475a4.2,4.2,0,0,1-3.666,2.228h-7.682a4.006,4.006,0,0,1-2.14-.631c-8.773-5.469-19.517-8.485-32-8.98-10.977.439-20.63,2.836-28.736,7.135a3.959,3.959,0,0,1-1.9.473H234.1a4.2,4.2,0,0,1-3.783-2.487,4.633,4.633,0,0,1,1.9-6.043C242.452,2.746,254.69,0,268.6,0c1.282,0,2.543.022,3.793.079C273.678.022,274.971,0,276.284,0c15.639,0,29.138,3.466,40.115,10.319a4.657,4.657,0,0,1,1.5,6.156" transform="translate(-151.263)" fill="#265173"/>
        <path id="Trazado_107802" data-name="Trazado 107802" d="M328.6,164.751a33.163,33.163,0,1,1-9.767-45.871,33.162,33.162,0,0,1,9.767,45.871" transform="translate(-176.098 -74.708)" fill="#dbbe36"/>
        <path id="Trazado_107803" data-name="Trazado 107803" d="M294.356,268.418l-7.127,20.975,26.426-12.362Z" transform="translate(-189.007 -176.629)" fill="#db6e5f"/>
        <rect id="Rectángulo_5638" data-name="Rectángulo 5638" width="38.161" height="6.239" transform="translate(106.726 56.286)" fill="#fff"/>
        <rect id="Rectángulo_5639" data-name="Rectángulo 5639" width="12.069" height="6.24" transform="translate(106.726 69.434)" fill="#fff"/>
        <rect id="Rectángulo_5640" data-name="Rectángulo 5640" width="20.788" height="6.24" transform="translate(124.098 69.434)" fill="#fff"/>
        <rect id="Rectángulo_5641" data-name="Rectángulo 5641" width="30.366" height="6.24" transform="translate(106.726 82.582)" fill="#fff"/>
        <path id="Trazado_107804" data-name="Trazado 107804" d="M140.283,270.953c0,24.239-13.1,43.888-29.259,43.888s-29.259-19.649-29.259-43.888,13.1-43.888,29.259-43.888,29.259,19.649,29.259,43.888" transform="translate(-53.805 -149.417)" fill="#12263f"/>
        <path id="Trazado_107805" data-name="Trazado 107805" d="M524.734,270.953c0,24.239-13.1,43.888-29.259,43.888s-29.259-19.649-29.259-43.888,13.1-43.888,29.259-43.888,29.259,19.649,29.259,43.888" transform="translate(-306.786 -149.417)" fill="#265173"/>
        <path id="Trazado_107806" data-name="Trazado 107806" d="M521.93,294.749c0,17.409-7.981,31.522-17.826,31.522s-17.826-14.113-17.826-31.522,7.981-31.522,17.826-31.522,17.826,14.113,17.826,31.522" transform="translate(-319.988 -173.212)" fill="#12263f"/>
        <path id="Trazado_107807" data-name="Trazado 107807" d="M377.244,520.331c1.586,5.536,13.731,6.914,22.344,4.446s10.434-7.845,8.848-13.382-5.978-9.135-14.592-6.667-18.187,10.066-16.6,15.6" transform="translate(-248.125 -331.608)" fill="#12263f"/>
        <path id="Trazado_107808" data-name="Trazado 107808" d="M211.416,465.133c-14.1,0-28.351-6.382-42.043-18.976a133.24,133.24,0,0,1-24.117-30.351,3.376,3.376,0,0,1,5.916-3.254c.338.613,34.326,61.182,77.448,42.055a3.376,3.376,0,1,1,2.738,6.172,48.852,48.852,0,0,1-19.942,4.355" transform="translate(-95.308 -270.323)" fill="#12263f"/>
        <path id="Trazado_107809" data-name="Trazado 107809" d="M112.023,285.75c0,19.992-10.8,36.2-24.132,36.2s-24.133-16.207-24.133-36.2,10.8-36.2,24.133-36.2,24.132,16.207,24.132,36.2" transform="translate(-41.955 -164.214)" fill="#53bced"/>
        <path id="Trazado_107810" data-name="Trazado 107810" d="M172.011,31.879a5.309,5.309,0,0,0-2.633.686,57.758,57.758,0,0,0-15.519,12.888C131.47,71.831,135.146,112.287,135.316,114a1.623,1.623,0,0,0,1.579,1.508h7.682a.912.912,0,0,0,.17-.011,1.651,1.651,0,0,0,1.409-1.846c-.032-.4-3.677-40.7,17.769-65.956a54.365,54.365,0,0,1,15.555-12.67,1.677,1.677,0,0,0-.7-3.144Z" transform="translate(-88.83 -20.977)" fill="#53bced"/>
        <path id="Trazado_107811" data-name="Trazado 107811" d="M57.824,39.385A18.648,18.648,0,1,1,39.772,20.159,18.649,18.649,0,0,1,57.824,39.385M39.71,22.141A16.666,16.666,0,1,0,55.842,39.323,16.666,16.666,0,0,0,39.71,22.141" transform="translate(-13.514 -13.259)" fill="#cfcfcf"/>
        <path id="Trazado_107812" data-name="Trazado 107812" d="M74.541,53.9a.469.469,0,0,1-.081-.007l-11.2-1.852L57.679,40.3a.492.492,0,0,1,.888-.422l5.361,11.273,10.693,1.768a.492.492,0,0,1-.08.977" transform="translate(-37.923 -26.059)" fill="#cfcfcf"/>
        <path id="Trazado_107813" data-name="Trazado 107813" d="M72.716,71.048a1.243,1.243,0,1,0,1.2,1.282,1.243,1.243,0,0,0-1.2-1.282" transform="translate(-47.006 -46.751)" fill="#b5d6ea"/>
        <path id="Trazado_107814" data-name="Trazado 107814" d="M330.157,394.089a21.455,21.455,0,0,1-3.185-.239,21.144,21.144,0,0,1,2.908-42.052l.02,2.141a19,19,0,1,0,11.6,3.789l1.285-1.713a21.149,21.149,0,0,1-12.628,38.073" transform="translate(-203.311 -231.495)" fill="#53bced"/>
        <path id="Trazado_107815" data-name="Trazado 107815" d="M371.752,348.88l-7.142-3.146v6.293Z" transform="translate(-239.926 -227.504)" fill="#53bced"/>
        <path id="Trazado_107816" data-name="Trazado 107816" d="M338.315,405.276v-2.065a10.149,10.149,0,0,1,1.658-2.5,22.587,22.587,0,0,1,2.706-2.542,13.9,13.9,0,0,0,2.2-2.1,2.685,2.685,0,0,0,.63-1.621,1.728,1.728,0,0,0-1.959-1.949,1.947,1.947,0,0,0-1.456.514,2.694,2.694,0,0,0-.651,1.541l-3-.17a4.692,4.692,0,0,1,1.552-3.166,5.313,5.313,0,0,1,3.532-1.091,5.559,5.559,0,0,1,3.707,1.1,3.844,3.844,0,0,1,1.292,3.092,4.271,4.271,0,0,1-.413,1.9,6.681,6.681,0,0,1-1.059,1.562,11.889,11.889,0,0,1-1.435,1.34q-.789.625-1.531,1.218a17.242,17.242,0,0,0-1.35,1.2,4.112,4.112,0,0,0-.9,1.292h6.926v2.446Z" transform="translate(-222.623 -256.72)" fill="#53bced"/>
        <path id="Trazado_107817" data-name="Trazado 107817" d="M381.979,402.664V405.7h-2.838v-3.039h-6.789V400.43l6.3-9.649h3.325v9.67h1.992v2.214Zm-2.838-7.1q0-.572.036-1.239c.025-.445.045-.731.059-.858a15.981,15.981,0,0,1-1,1.716l-3.463,5.264h4.363Z" transform="translate(-245.021 -257.147)" fill="#53bced"/>
        <path id="Trazado_107818" data-name="Trazado 107818" d="M121.129,541.666a9.056,9.056,0,0,1-3.164,1.177,6.664,6.664,0,0,0,8.126,8.49,8.961,8.961,0,0,1,1.315-3.119,1.157,1.157,0,0,1,1.848-.089c1.553,1.854,2.957,3.7,4.2,5.488a1.146,1.146,0,0,1-.371,1.66,13.226,13.226,0,0,1-6.106,1.59,14.386,14.386,0,0,1-14.5-15.138,13.226,13.226,0,0,1,1.851-6.032,1.145,1.145,0,0,1,1.674-.3c1.736,1.316,3.515,2.8,5.3,4.427a1.156,1.156,0,0,1-.169,1.844" transform="translate(-73.994 -352.152)" fill="#cfcfcf"/>
        <path id="Trazado_107819" data-name="Trazado 107819" d="M108.1,552.175a17.45,17.45,0,1,1,12.077-4.845,17.413,17.413,0,0,1-12.077,4.845m-.012-33.627a16.183,16.183,0,1,0,.356,0c-.119,0-.238,0-.356,0" transform="translate(-59.645 -340.372)" fill="#cfcfcf"/>
        <path id="Trazado_107820" data-name="Trazado 107820" d="M583.584,509.576a6.048,6.048,0,0,1,1.577,5.8l12.166,12.166a3.076,3.076,0,1,1-4.35,4.351L580.81,519.723a6.053,6.053,0,0,1-7.541-6.466l3.639,3.639,4.282-1.15,1.145-4.277L578.7,507.83a6.053,6.053,0,0,1,4.889,1.746m.92,8.171-1.318,1.318,8.965,8.965,1.318-1.318Z" transform="translate(-377.211 -334.15)" fill="#cfcfcf"/>
        <path id="Trazado_107821" data-name="Trazado 107821" d="M599.811,517.006a.521.521,0,0,0-.737,0l-.927.927a.521.521,0,0,0,0,.737l1.162,1.162-12.391,12.333,1.074,1.074,12.391-12.333,1.162,1.162a.521.521,0,0,0,.737,0l.927-.927a.521.521,0,0,0,0-.737.521.521,0,0,1,0-.737l.214-.214a.52.52,0,0,1,.737,0,.521.521,0,0,0,.737,0l5.887-5.945a.521.521,0,0,0,0-.737l-3.4-3.4a.521.521,0,0,0-.737,0l-5.888,5.945a.521.521,0,0,0,0,.737.521.521,0,0,1,0,.737l-.214.214a.521.521,0,0,1-.737,0" transform="translate(-386.213 -335.085)" fill="#cfcfcf"/>
        <path id="Trazado_107822" data-name="Trazado 107822" d="M577.479,525.013a19.633,19.633,0,1,1,19.634-19.634,19.656,19.656,0,0,1-19.634,19.634m0-37.654a18.02,18.02,0,1,0,18.02,18.02,18.04,18.04,0,0,0-18.02-18.02" transform="translate(-367.081 -319.638)" fill="#cfcfcf"/>
      </g>
    </g>
  </g>
</svg>
