<svg xmlns="http://www.w3.org/2000/svg" width="188" height="188" viewBox="0 0 188 188">
  <g id="Grupo_62335" data-name="Grupo 62335" transform="translate(-308 -8355)">
    <rect id="Rectángulo_5637" data-name="Rectángulo 5637" width="188" height="188" transform="translate(308 8355)" fill="none"/>
    <g id="Grupo_62330" data-name="Grupo 62330" transform="translate(6811.172 11659.863)">
      <path id="Trazado_107481" data-name="Trazado 107481" d="M2089.07,725.357c0,1.413-6.647,2.558-14.847,2.558s-14.847-1.145-14.847-2.558,6.647-2.558,14.847-2.558,14.847,1.145,14.847,2.558" transform="translate(-8529.936 -3872.303)" fill="#044f9a"/>
      <path id="Trazado_107482" data-name="Trazado 107482" d="M1948.642,212.694s-4.97-21.587,14.029-33.929c16.831-10.934,24.383-.569,40.469-7.713s22.816-28.572,57.833-22.086,23.96,55.5,37.661,60.142c0,0,28.57,8.969,20.433,43.71s-66.479,28.652-80.226-22.084-76.66,48.255-90.2-18.039" transform="translate(-8443.463 -3425.617)" fill="#4297ec"/>
      <path id="Trazado_107483" data-name="Trazado 107483" d="M2133.284,232.087h0a2.448,2.448,0,0,1,1.692-4.182,4.408,4.408,0,0,0,4.39-4.465l0-1.273a4.474,4.474,0,0,0-4.416-4.493h0a2.468,2.468,0,0,1-1.718-4.193,4.534,4.534,0,0,0-.02-6.334l-.888-.9a4.35,4.35,0,0,0-6.227-.02,2.416,2.416,0,0,1-4.122-1.747,4.475,4.475,0,0,0-4.417-4.493l-1.251,0a4.408,4.408,0,0,0-4.389,4.465,2.4,2.4,0,0,1-4.111,1.721,4.351,4.351,0,0,0-6.227-.02l-.882.9a4.534,4.534,0,0,0,.02,6.334,2.449,2.449,0,0,1-1.692,4.182,4.408,4.408,0,0,0-4.389,4.465l0,1.273a4.476,4.476,0,0,0,4.417,4.493,2.468,2.468,0,0,1,1.718,4.193,4.534,4.534,0,0,0,.019,6.334l.888.9a4.35,4.35,0,0,0,6.227.02,2.416,2.416,0,0,1,4.121,1.747,4.475,4.475,0,0,0,4.417,4.493l1.252,0a4.408,4.408,0,0,0,4.389-4.465,2.4,2.4,0,0,1,4.111-1.721,4.35,4.35,0,0,0,6.227.02l.883-.9a4.534,4.534,0,0,0-.02-6.334m-23.989-1.519a11.252,11.252,0,0,1-.049-15.72,10.8,10.8,0,0,1,15.454.049,11.251,11.251,0,0,1,.048,15.72,10.8,10.8,0,0,1-15.454-.049" transform="translate(-8557.321 -3466.182)" fill="#f6f6f6"/>
      <path id="Trazado_107484" data-name="Trazado 107484" d="M2201.84,705.109c.006,1.825-24.522,3.383-54.785,3.48s-54.8-1.305-54.8-3.131,24.522-3.383,54.783-3.479,54.8,1.305,54.806,3.131" transform="translate(-8555.473 -3856.127)" fill="#044f9a"/>
      <circle id="Elipse_5004" data-name="Elipse 5004" cx="2.171" cy="2.171" r="2.171" transform="translate(-6340.538 -3209.47) rotate(-5.655)" fill="none" stroke="#1f1406" stroke-linecap="round" stroke-linejoin="round" stroke-width="1.793"/>
      <circle id="Elipse_5005" data-name="Elipse 5005" cx="2.171" cy="2.171" r="2.171" transform="translate(-6385.891 -3269.549) rotate(-22.5)" fill="none" stroke="#1f1406" stroke-linecap="round" stroke-linejoin="round" stroke-width="1.793"/>
      <circle id="Elipse_5006" data-name="Elipse 5006" cx="2.171" cy="2.171" r="2.171" transform="translate(-6483.082 -3222.644) rotate(-5.655)" fill="none" stroke="#1f1406" stroke-linecap="round" stroke-linejoin="round" stroke-width="1.793"/>
      <path id="Trazado_107485" data-name="Trazado 107485" d="M2271.1,375.491H2221.76a3.652,3.652,0,0,1-3.642-3.641v-92.9a3.652,3.652,0,0,1,3.642-3.641H2271.1a3.652,3.652,0,0,1,3.642,3.641v92.9a3.652,3.652,0,0,1-3.642,3.641" transform="translate(-8653.244 -3524.697)" fill="#1b3a61"/>
      <path id="Trazado_107486" data-name="Trazado 107486" d="M2260.449,375.491h-49.342a3.652,3.652,0,0,1-3.642-3.641v-92.9a3.652,3.652,0,0,1,3.642-3.641h49.342a3.652,3.652,0,0,1,3.642,3.641v92.9a3.652,3.652,0,0,1-3.642,3.641" transform="translate(-8644.97 -3524.697)" fill="#12263f"/>
      <path id="Trazado_107487" data-name="Trazado 107487" d="M2268.274,385.922H2216.6a.535.535,0,0,1-.535-.536V295.7a.535.535,0,0,1,.535-.536h51.676a.536.536,0,0,1,.536.536v89.685a.535.535,0,0,1-.535.536" transform="translate(-8651.648 -3540.121)" fill="#d4c8be"/>
      <path id="Trazado_107488" data-name="Trazado 107488" d="M2239.368,361.211h-51.676a.536.536,0,0,1-.536-.536V270.99a.536.536,0,0,1,.536-.536h51.676a.536.536,0,0,1,.536.536v89.685a.536.536,0,0,1-.536.536" transform="translate(-8629.194 -3520.926)" fill="#fff"/>
      <path id="Trazado_107489" data-name="Trazado 107489" d="M2229.693,276.239H2177.24a.147.147,0,0,1-.147-.147v-6.561a.147.147,0,0,1,.147-.147h52.453a.147.147,0,0,1,.147.147v6.561a.147.147,0,0,1-.147.147" transform="translate(-8621.376 -3520.095)" fill="#0d66bf"/>
      <rect id="Rectángulo_5610" data-name="Rectángulo 5610" width="16.046" height="16.046" transform="translate(-6436.512 -3238.751)" fill="#53bced"/>
      <rect id="Rectángulo_5611" data-name="Rectángulo 5611" width="16.046" height="16.046" transform="translate(-6436.512 -3211.645)" fill="#53bced"/>
      <rect id="Rectángulo_5612" data-name="Rectángulo 5612" width="16.046" height="16.046" transform="translate(-6436.512 -3184.537)" fill="#53bced"/>
      <line id="Línea_245" data-name="Línea 245" x2="18.925" transform="translate(-6414.814 -3233.704)" fill="none" stroke="#36261b" stroke-linecap="round" stroke-linejoin="round" stroke-width="2.689"/>
      <line id="Línea_246" data-name="Línea 246" x2="9.462" transform="translate(-6414.814 -3227.464)" fill="none" stroke="#36261b" stroke-linecap="round" stroke-linejoin="round" stroke-width="2.689"/>
      <line id="Línea_247" data-name="Línea 247" x2="18.925" transform="translate(-6414.814 -3207.317)" fill="none" stroke="#36261b" stroke-linecap="round" stroke-linejoin="round" stroke-width="2.689"/>
      <line id="Línea_248" data-name="Línea 248" x2="9.462" transform="translate(-6414.814 -3201.077)" fill="none" stroke="#36261b" stroke-linecap="round" stroke-linejoin="round" stroke-width="2.689"/>
      <line id="Línea_249" data-name="Línea 249" x2="18.925" transform="translate(-6414.814 -3180.93)" fill="none" stroke="#36261b" stroke-linecap="round" stroke-linejoin="round" stroke-width="2.689"/>
      <line id="Línea_250" data-name="Línea 250" x2="9.462" transform="translate(-6414.814 -3174.69)" fill="none" stroke="#36261b" stroke-linecap="round" stroke-linejoin="round" stroke-width="2.689"/>
      <path id="Trazado_107490" data-name="Trazado 107490" d="M2233.5,347.447l2.555,3.506,2.853-5.378" transform="translate(-8665.194 -3579.279)" fill="none" stroke="#fff" stroke-linecap="round" stroke-linejoin="round" stroke-width="2.392"/>
      <path id="Trazado_107491" data-name="Trazado 107491" d="M2233.5,472.649l2.555,3.506,2.853-5.378" transform="translate(-8665.194 -3676.535)" fill="none" stroke="#fff" stroke-linecap="round" stroke-linejoin="round" stroke-width="2.392"/>
      <path id="Trazado_107492" data-name="Trazado 107492" d="M2233.5,597.852l2.555,3.506,2.853-5.378" transform="translate(-8665.194 -3773.792)" fill="none" stroke="#fff" stroke-linecap="round" stroke-linejoin="round" stroke-width="2.392"/>
      <path id="Trazado_107493" data-name="Trazado 107493" d="M2392.341,397.857l-10.047,7.479,1.022-10.314Z" transform="translate(-8780.774 -3617.689)" fill="#db6e5f"/>
      <path id="Trazado_107494" data-name="Trazado 107494" d="M2376.192,347.764l15.483.012a8.768,8.768,0,1,0,.014-17.537l-15.483-.012a8.768,8.768,0,1,0-.014,17.537" transform="translate(-8769.229 -3567.357)" fill="#db6e5f"/>
      <path id="Trazado_107495" data-name="Trazado 107495" d="M2471.311,363.878h0a1.555,1.555,0,1,0-1.666-1.436,1.559,1.559,0,0,0,1.666,1.436" transform="translate(-8848.625 -3591.084)" fill="#fff"/>
      <path id="Trazado_107496" data-name="Trazado 107496" d="M2435.726,363.94h0a1.555,1.555,0,1,0-1.666-1.436,1.56,1.56,0,0,0,1.666,1.436" transform="translate(-8820.983 -3591.132)" fill="#fff"/>
      <path id="Trazado_107497" data-name="Trazado 107497" d="M2400.142,364h0a1.555,1.555,0,1,0-1.666-1.436,1.56,1.56,0,0,0,1.666,1.436" transform="translate(-8793.342 -3591.181)" fill="#fff"/>
      <path id="Trazado_107498" data-name="Trazado 107498" d="M2189.742,367.432v69.11h41.99" transform="translate(-8631.202 -3596.258)" fill="none" stroke="#36261b" stroke-linecap="round" stroke-linejoin="round" stroke-width="1.793"/>
      <path id="Trazado_107499" data-name="Trazado 107499" d="M2203.3,283.1a1.025,1.025,0,1,1-1.026-1.025,1.026,1.026,0,0,1,1.026,1.025" transform="translate(-8640.145 -3529.955)" fill="#fff"/>
      <path id="Trazado_107500" data-name="Trazado 107500" d="M2217.016,283.1a1.025,1.025,0,1,1-1.025-1.025,1.025,1.025,0,0,1,1.025,1.025" transform="translate(-8650.796 -3529.955)" fill="#fff"/>
      <path id="Trazado_107501" data-name="Trazado 107501" d="M2230.729,283.1a1.025,1.025,0,1,1-1.025-1.025,1.025,1.025,0,0,1,1.025,1.025" transform="translate(-8661.448 -3529.955)" fill="#fff"/>
      <path id="Trazado_107502" data-name="Trazado 107502" d="M2177.093,287.843v2.826h37.3" transform="translate(-8621.376 -3534.434)" fill="none" stroke="#36261b" stroke-linecap="round" stroke-linejoin="round" stroke-width="2.689"/>
      <path id="Trazado_107503" data-name="Trazado 107503" d="M2141.43,521.359c1.344,1.182,1.842,3.007,3.471,1.829l4.658-3.223-.718-1.53-5.656,1.958Z" transform="translate(-8593.675 -3713.555)" fill="#f9a56e" fill-rule="evenodd"/>
      <path id="Trazado_107504" data-name="Trazado 107504" d="M2131.541,720.238c1.108,1.251,1.916,1.568,2.182.2l-.332-2.671-2.168.031Z" transform="translate(-8585.746 -3868.391)" fill="#f9a56e" fill-rule="evenodd"/>
      <path id="Trazado_107505" data-name="Trazado 107505" d="M2091.583,548.109c3.926,4.45,4.011,1.753,4.011,1.753s2.537,16.794,2.5,17.351l1.26,17.752c.059.837.363,1.592-.357,1.686l-1.486.223c-1.425-5.248-6.167-9.2-4.914-17.408l-4.819-12.838c-5.774-9.541,3.8-8.518,3.8-8.518" transform="translate(-8550.56 -3736.581)" fill="#53bced" fill-rule="evenodd"/>
      <path id="Trazado_107506" data-name="Trazado 107506" d="M2104.116,616.368l-1.914-.011c-1.137.163-.483-.6-.685-1.247-1.492-4.79-3.637-8.523-2.477-16.124l-4.818-12.838a2.385,2.385,0,0,1,2.687,1.333c5.864,11.154,4.106,22.306,7.207,28.887" transform="translate(-8557.004 -3766.101)" fill="#3ea1cf" fill-rule="evenodd"/>
      <path id="Trazado_107507" data-name="Trazado 107507" d="M2075.886,555.494l-.206,20.86-.632,17.541-1.724.355c-.99-6.32-4.52-11.052-2.786-18.7l-.674-14.242,2.758-5.122Z" transform="translate(-8538.082 -3742.343)" fill="#f9a56e" fill-rule="evenodd"/>
      <path id="Trazado_107508" data-name="Trazado 107508" d="M2074.457,556.794l-.309,20.616-.42,15.256a.833.833,0,0,1-.8.855l-3.09.092a.653.653,0,0,1-.659-.582c-.133-1.344-.266-3.412-.358-4.2-.493-4.231-1.87-5.97-.723-11.607a4.8,4.8,0,0,0,.078-1.4l-1.267-13.887,3.418-4.75Z" transform="translate(-8535.783 -3743.352)" fill="#53bced" fill-rule="evenodd"/>
      <path id="Trazado_107509" data-name="Trazado 107509" d="M2086.9,727.068a13.539,13.539,0,0,1,1.029,2.3.487.487,0,0,1-.128.453.665.665,0,0,1-.481.212l-1.108.006a.769.769,0,0,1-.457-.14l-.261-.192c-.435-.32-.389-.7-.34-1.229a9.569,9.569,0,0,0,.018-1.17,1.71,1.71,0,0,1,1.728-.241" transform="translate(-8549.939 -3875.514)" fill="#12263f" fill-rule="evenodd"/>
      <path id="Trazado_107510" data-name="Trazado 107510" d="M2065.99,566.121s6.694.61,9.147-2.572l-9.41-1.6s.141,3.355.263,4.167" transform="translate(-8534.868 -3747.36)" fill="#3ea1cf" fill-rule="evenodd"/>
      <path id="Trazado_107511" data-name="Trazado 107511" d="M2133.425,728.038l1.621,1.155a11.218,11.218,0,0,0,2.038.84c.18.355-.146.541-.426.588l-5.023-.105s-1.387-.24-.425-2.475c.926.4,2,.692,2.215,0" transform="translate(-8585.472 -3876.373)" fill="#12263f" fill-rule="evenodd"/>
      <path id="Trazado_107512" data-name="Trazado 107512" d="M2130.161,485.793a29.133,29.133,0,0,0-3.892-6.083,12.763,12.763,0,0,1-1.1-1.674c-.576-1.007-1.679-1.309-3.32-1.622l.742,1.157c-.421.157-.569.771-.332,1.378l-.57,10.26c1.826.907-.284.735,1.8-.709,1.135-.785,7.158-1.552,6.667-2.707" transform="translate(-8578.341 -3680.914)" fill="#dbbe36" fill-rule="evenodd"/>
      <path id="Trazado_107513" data-name="Trazado 107513" d="M2079.212,475.1l-1.968-.679-2.823-.574-1.625.233c-1.562.343-3.939.779-4.809,2.995l-1.395,2.982a29.138,29.138,0,0,0-1.2,4.642c-.672,4.781-.489,5.862-1.124,9.115,5.316,3.631,13.031,3.265,15.548,1.038-1.867-9.7,1.075-14.313-.6-19.75" transform="translate(-8533.734 -3678.917)" fill="#dbbe36" fill-rule="evenodd"/>
      <path id="Trazado_107514" data-name="Trazado 107514" d="M2107.227,472.118s.5,3.538-1.742,3.131-2.62-3.463-2.62-3.463l1.79-.9Z" transform="translate(-8563.717 -3676.617)" fill="#f9a56e"/>
      <line id="Línea_251" data-name="Línea 251" x1="0.324" y2="3.622" transform="translate(-6454.846 -3198.91)" fill="none" stroke="#735a4a" stroke-linecap="round" stroke-linejoin="round" stroke-width="1.835"/>
      <path id="Trazado_107515" data-name="Trazado 107515" d="M2173.137,519.276l1.662.142a1.394,1.394,0,0,0,.934-.259l1.095-.79a.673.673,0,0,0-.022-1.107l-2.1-.061a2.1,2.1,0,0,0-1.349.479l-.673.536Z" transform="translate(-8617.954 -3712.596)" fill="#f9a56e"/>
      <path id="Trazado_107516" data-name="Trazado 107516" d="M2212.034,489.512l3.471-4.011-5.024.565Z" transform="translate(-8647.312 -3687.973)" fill="#fff" fill-rule="evenodd"/>
      <path id="Trazado_107517" data-name="Trazado 107517" d="M2212.033,490.2l2.348-2.713a.8.8,0,0,0-.63-1.1l-3.27.368Z" transform="translate(-8647.312 -3688.659)" fill="#ffccab" fill-rule="evenodd"/>
      <path id="Trazado_107518" data-name="Trazado 107518" d="M2075.2,505.145h0a2,2,0,0,0,2.892.725l28.506-14.38c1.2-.607-.21-4.262-1.412-3.656l-28.506,14.38a2.534,2.534,0,0,0-1.48,2.93" transform="translate(-8542.141 -3689.733)" fill="#ffe775"/>
      <path id="Trazado_107519" data-name="Trazado 107519" d="M2078.414,556.4c.491.938,1.232,1.472,1.654,1.194s.365-1.264-.125-2.2-1.232-1.472-1.655-1.193-.366,1.264.126,2.2" transform="translate(-8544.406 -3741.283)" fill="#ffccab" fill-rule="evenodd"/>
      <path id="Trazado_107520" data-name="Trazado 107520" d="M2073.394,557.721l-2.42,1.214-1.56-3.5,2.273-1.148Z" transform="translate(-8537.733 -3741.406)" fill="#ffccab" fill-rule="evenodd"/>
      <path id="Trazado_107521" data-name="Trazado 107521" d="M2067.678,561.752c.491.938,1.232,1.472,1.655,1.194s.365-1.264-.125-2.2-1.232-1.472-1.655-1.193-.366,1.264.125,2.2" transform="translate(-8536.067 -3745.436)" fill="#25a87f" fill-rule="evenodd"/>
      <path id="Trazado_107522" data-name="Trazado 107522" d="M2062.66,563.068l-2.42,1.214-1.56-3.5,2.273-1.148Z" transform="translate(-8529.395 -3745.559)" fill="#25a87f" fill-rule="evenodd"/>
      <path id="Trazado_107523" data-name="Trazado 107523" d="M2057.508,566.9c.465.94,1.17,1.485,1.574,1.219s.354-1.244-.111-2.184-1.169-1.486-1.573-1.219-.354,1.244.11,2.183" transform="translate(-8528.186 -3749.455)" fill="#2cc796" fill-rule="evenodd"/>
      <line id="Línea_252" data-name="Línea 252" x1="28.929" y2="14.513" transform="translate(-6464.172 -3199.947)" fill="none" stroke="#fff4c1" stroke-linecap="round" stroke-linejoin="round" stroke-width="1.835"/>
      <path id="Trazado_107524" data-name="Trazado 107524" d="M2078.979,533.287c.017,1.565.724,2.908,2.528,3.1a24.17,24.17,0,0,0,8.888-.361l.331-1.849A25.293,25.293,0,0,1,2082.51,533Z" transform="translate(-8545.163 -3724.869)" fill="#f9a56e" fill-rule="evenodd"/>
      <path id="Trazado_107525" data-name="Trazado 107525" d="M2126.1,537.726l1.54-.486a1.351,1.351,0,0,1,.937.046l1.2.515a.652.652,0,0,1,.214,1.05l-1.97.5a2.03,2.03,0,0,1-1.376-.167l-.749-.364Z" transform="translate(-8581.605 -3728.114)" fill="#f9a56e"/>
      <path id="Trazado_107526" data-name="Trazado 107526" d="M2092.658,504.461l.349-3.615V500.4" transform="translate(-8555.788 -3699.549)" fill="none" stroke="#735a4a" stroke-linecap="round" stroke-linejoin="round" stroke-width="1.835"/>
      <path id="Trazado_107527" data-name="Trazado 107527" d="M2118.331,451.815a1.6,1.6,0,0,0-.3-2.35c-1.335-1.2-1.517,1.662-1.474,1.7s1.773.651,1.773.651" transform="translate(-8574.349 -3659.751)" fill="#663a24" fill-rule="evenodd"/>
      <path id="Trazado_107528" data-name="Trazado 107528" d="M2106.588,456.1s.194,1.471,1.3,1.491,1.085-3.174,1.085-3.174Z" transform="translate(-8566.609 -3663.829)" fill="#663a24" fill-rule="evenodd"/>
      <path id="Trazado_107529" data-name="Trazado 107529" d="M2110.622,459.98l-.6,2.865a.949.949,0,0,1-.721.713,1.223,1.223,0,0,1-1.082-.256l-.279-.24a1.232,1.232,0,0,1-.411-1.32c.394-1.177,1.11-3.321,1.11-3.321Z" transform="translate(-8567.298 -3666.936)" fill="#f9a56e" fill-rule="evenodd"/>
      <path id="Trazado_107530" data-name="Trazado 107530" d="M2117.225,469.593l-.287.863-.827-.973Z" transform="translate(-8574.007 -3675.53)" fill="#612b19" fill-rule="evenodd"/>
      <path id="Trazado_107531" data-name="Trazado 107531" d="M2109.778,452.47a.848.848,0,0,1,.663-1l1.584-.312a.9.9,0,0,1,.985.671,9.175,9.175,0,0,1,.317,2.482,1.028,1.028,0,0,1-.73,1.045c-.486.1-2.032-.086-2.343-.937a12.319,12.319,0,0,1-.477-1.954" transform="translate(-8569.076 -3661.287)" fill="#f9a56e" fill-rule="evenodd"/>
      <path id="Trazado_107532" data-name="Trazado 107532" d="M2105.325,451.17s-.307-1.785.367-2.484a2.43,2.43,0,0,1,3.564-.364s.776.437-1.665.842c-.31.051.186,1.528-.2,1.671a6.346,6.346,0,0,1-2.061.335" transform="translate(-8565.574 -3658.607)" fill="#12263f" fill-rule="evenodd"/>
      <path id="Trazado_107533" data-name="Trazado 107533" d="M2108.743,462.353a.636.636,0,0,0,.844.3.651.651,0,0,0,.135-.9.636.636,0,0,0-.845-.3.651.651,0,0,0-.134.9" transform="translate(-8568.193 -3669.241)" fill="#f9a56e" fill-rule="evenodd"/>
      <path id="Trazado_107534" data-name="Trazado 107534" d="M2492.684,429.787a2.751,2.751,0,0,1-3.714-1.142l-2.764-7.971,1.756.084,3.014,5.58Z" transform="translate(-8861.492 -3637.616)" fill="#d46d4e" fill-rule="evenodd"/>
      <path id="Trazado_107535" data-name="Trazado 107535" d="M2480.52,417.113l-1.243-.9a1.283,1.283,0,0,0-.86-.241l-1.24.1a.621.621,0,0,0-.51.884l1.627,1.047a1.931,1.931,0,0,0,1.291.264l.786-.1Z" transform="translate(-8854.036 -3633.957)" fill="#d46d4e"/>
      <path id="Trazado_107536" data-name="Trazado 107536" d="M2596.238,528.426a2.751,2.751,0,0,1,3.821.7l3.671,7.6-1.753.12-3.642-5.192Z" transform="translate(-8946.964 -3720.946)" fill="#d46d4e" fill-rule="evenodd"/>
      <path id="Trazado_107537" data-name="Trazado 107537" d="M2621.875,563.169l1.339.753a1.284,1.284,0,0,0,.882.14l1.219-.245a.62.62,0,0,0,.4-.937l-1.737-.851a1.932,1.932,0,0,0-1.314-.112l-.769.193Z" transform="translate(-8966.879 -3747.28)" fill="#d46d4e"/>
      <path id="Trazado_107538" data-name="Trazado 107538" d="M2491.328,426.682l-2.719,1.973s2.367,5.068,2.7,6a8.227,8.227,0,0,0,1.589,2.854c.922,1,4.3,6.411,4.3,6.411s3.425.7,3.662-2.58c.123-1.7-2.452-4.04-4.2-5.42a8.7,8.7,0,0,1-2.5-3.158Z" transform="translate(-8863.359 -3642.282)" fill="#e8e8e8" fill-rule="evenodd"/>
      <path id="Trazado_107539" data-name="Trazado 107539" d="M2516.976,740.023c0,.557,6.061,1.008,13.537,1.008s13.538-.452,13.538-1.008-6.061-1.008-13.538-1.008-13.537.452-13.537,1.008" transform="translate(-8885.395 -3884.9)" fill="#044f9a" fill-rule="evenodd"/>
      <path id="Trazado_107540" data-name="Trazado 107540" d="M2531.268,610.139s1.832-12.25-.534-17.1l1.292-16.618-7.745.534,5.219,33.277Z" transform="translate(-8891.07 -3758.602)" fill="#e3633d" fill-rule="evenodd"/>
      <path id="Trazado_107541" data-name="Trazado 107541" d="M2541.154,722.743l-.52,2.192c-.06.4-.218.4-.218.4l-.872.386a.374.374,0,0,0-.177.481,11.673,11.673,0,0,0,1.291,0l1.1-.068,1.731-2.337a1.426,1.426,0,0,0-.351-2.141c-.422.894-1.422,1.377-1.986,1.083" transform="translate(-8902.771 -3871.418)" fill="#4a2a1a" fill-rule="evenodd"/>
      <path id="Trazado_107542" data-name="Trazado 107542" d="M2521.868,588.921l1.792,14.073,2.357,14.108h5.668a19.932,19.932,0,0,1-.467-3.231c.063-.778.269-8.161-1.459-11.557l.137-13.832Z" transform="translate(-8889.195 -3767.966)" fill="#dbbe36" fill-rule="evenodd"/>
      <path id="Trazado_107543" data-name="Trazado 107543" d="M2548.161,602.313l.137-13.832-2.691.148-.1,10.129a22.46,22.46,0,0,0,.705,5.648,38.449,38.449,0,0,1,.719,9.465,19.9,19.9,0,0,0,.467,3.231h2.688a19.938,19.938,0,0,1-.467-3.231c.063-.778.269-8.161-1.459-11.557" transform="translate(-8907.557 -3767.966)" fill="#c2a417" fill-rule="evenodd"/>
      <path id="Trazado_107544" data-name="Trazado 107544" d="M2591.313,649.631l8.667,12.384c1.441.339,1.434-.476.894-1.715-2.286-5.383-1.967-8.869-7.146-13.3Z" transform="translate(-8943.139 -3813.423)" fill="#e3633d" fill-rule="evenodd"/>
      <path id="Trazado_107545" data-name="Trazado 107545" d="M2552.208,581.985l5.81,13.274a12.63,12.63,0,0,0,1.124,2.065l8.179,11.2,3.326-2.467c-1.562-5.635-2.965-8.275-7.52-13.346l-3.08-13.126-3.622.572Z" transform="translate(-8912.762 -3761.058)" fill="#dbbe36" fill-rule="evenodd"/>
      <path id="Trazado_107546" data-name="Trazado 107546" d="M2629.327,708.39l.167,1.895a10.538,10.538,0,0,1-.308,2.092c.21.318.53.136.71-.074l2.421-4.223s.379-1.083-1.991-1.346c-.122.96-.3,1.805-1,1.656" transform="translate(-8972.559 -3859.824)" fill="#4a2a1a" fill-rule="evenodd"/>
      <path id="Trazado_107547" data-name="Trazado 107547" d="M2533.015,539.531l-10.586.806c-1.722.632-1.034,10.56-1.034,10.56l6.96.323c3.234-.068,7.059,2.469,7.461-2.92.46-6.159-2.8-8.769-2.8-8.769" transform="translate(-8888.723 -3729.942)" fill="#dbbe36" fill-rule="evenodd"/>
      <path id="Trazado_107548" data-name="Trazado 107548" d="M2554.512,565.641s-7.024.756-9.31-2.328l9.258-2.281a46.022,46.022,0,0,1,.052,4.609" transform="translate(-8907.319 -3746.645)" fill="#c2a417" fill-rule="evenodd"/>
      <path id="Trazado_107549" data-name="Trazado 107549" d="M2522.848,481.707l3.825-.832,1.065-.062,4.17,1.011a2.978,2.978,0,0,1,1.83,3.535l-.535,4.712c.7,5.282,1.761,6.367,2.338,9.367-5.509,2.683-13.378,3.348-15.44.9-.4-7.2.414-13.746,2.747-18.633" transform="translate(-8887.747 -3684.331)" fill="#e8e8e8" fill-rule="evenodd"/>
      <path id="Trazado_107550" data-name="Trazado 107550" d="M2543.73,467.205l.178,2.817a.94.94,0,0,0,.526.788.925.925,0,0,0,.939-.078l.262-.186a1.215,1.215,0,0,0,.494-1.193l-.559-3.329Z" transform="translate(-8906.177 -3672.843)" fill="#d46d4e" fill-rule="evenodd"/>
      <path id="Trazado_107551" data-name="Trazado 107551" d="M2543.654,475.094l.129.92.821-.854Z" transform="translate(-8906.118 -3679.888)" fill="#873b24" fill-rule="evenodd"/>
      <path id="Trazado_107552" data-name="Trazado 107552" d="M2539.8,480.366s-.961,3.262,1.207,3.189,3.028-3.451,3.028-3.451l-1.642-.545Z" transform="translate(-8902.958 -3683.358)" fill="#d46d4e"/>
      <path id="Trazado_107553" data-name="Trazado 107553" d="M2542.553,458.726a.819.819,0,0,0-.433-1.071l-1.437-.6a.863.863,0,0,0-1.061.442,8.842,8.842,0,0,0-.784,2.283.991.991,0,0,0,.485,1.129c.44.185,1.937.316,2.4-.428a11.888,11.888,0,0,0,.833-1.753" transform="translate(-8902.359 -3665.827)" fill="#d46d4e" fill-rule="evenodd"/>
      <path id="Trazado_107554" data-name="Trazado 107554" d="M2548.9,458.293s-.866-1.64-1.367-2.431a2.344,2.344,0,0,0-3.3-1.04s.4,1.914,3.088,4.039Z" transform="translate(-8906.571 -3663.892)" fill="#753923" fill-rule="evenodd"/>
      <path id="Trazado_107555" data-name="Trazado 107555" d="M2540.147,468.378l.723.287s-.21.494-.542.314-.182-.6-.182-.6" transform="translate(-8903.367 -3674.671)" fill="#fff" fill-rule="evenodd"/>
      <path id="Trazado_107556" data-name="Trazado 107556" d="M2541.269,461.845s3.875,2.928,1.681,5.172-5.959,6.076-5.347,8.827a3.475,3.475,0,0,1-.968-3.746c.869-2.151,3.572-5.4,3.7-6.09s-1.291-4.9-1.291-4.9l1.928.134Z" transform="translate(-8900.483 -3669.023)" fill="#753923"/>
      <path id="Trazado_107557" data-name="Trazado 107557" d="M2551.008,469.578a.613.613,0,0,1-.857.119.628.628,0,0,1,.048-.872.614.614,0,0,1,.857-.119.628.628,0,0,1-.048.872" transform="translate(-8911.044 -3674.828)" fill="#d46d4e" fill-rule="evenodd"/>
      <path id="Trazado_107558" data-name="Trazado 107558" d="M2574.9,490.023l6.1,6.878,4.326,8.007-2.276,1.973-5-7.855-4.444-4.212Z" transform="translate(-8929.378 -3691.485)" fill="#e8e8e8" fill-rule="evenodd"/>
    </g>
  </g>
</svg>
