<svg xmlns="http://www.w3.org/2000/svg" width="188" height="188" viewBox="0 0 188 188">
  <g id="Grupo_62333" data-name="Grupo 62333" transform="translate(-691 -8355)">
    <rect id="Rectángulo_5635" data-name="Rectángulo 5635" width="188" height="188" transform="translate(691 8355)" fill="none"/>
    <g id="Grupo_62331" data-name="Grupo 62331" transform="translate(7438.95 11441.92)">
      <path id="Trazado_107559" data-name="Trazado 107559" d="M902.7,95.515S889.132,74.605,899.524,59.7s26.952-2.2,37.637-14.142S939.973,9.526,971.883,1.09s41.88,34.918,55.192,33.294c0,0,27.479-3.953,34.294,26.893s-44.5,48.66-75.946,13.57S940.081,143.084,902.7,95.515" transform="translate(-7631.435 -3059.5)" fill="#fff0ab"/>
      <path id="Trazado_107560" data-name="Trazado 107560" d="M1345.475,149.76H1336a8.2,8.2,0,1,1,0-16.407h9.475a8.2,8.2,0,0,1,0,16.407" transform="translate(-7987.067 -3169.231)" fill="#fff"/>
      <path id="Trazado_107561" data-name="Trazado 107561" d="M971.027,675.708H948.406a3.806,3.806,0,1,1,0-7.613h22.621a3.806,3.806,0,1,1,0,7.613" transform="translate(-7671.75 -3609.249)" fill="#c4b4a9"/>
      <path id="Trazado_107562" data-name="Trazado 107562" d="M942.242,461.43l-5.885,2.545-17-45.022,5.885-2.545Z" transform="translate(-7650.978 -3402.146)" fill="#c4b4a9"/>
      <path id="Trazado_107563" data-name="Trazado 107563" d="M917.989,297.5,911,296.359l17.062-23.1,4.03,4.481Z" transform="translate(-7644.104 -3284.353)" fill="#c4b4a9"/>
      <path id="Trazado_107564" data-name="Trazado 107564" d="M987.563,725.009c0,.6-4.6,1.08-10.268,1.08s-10.268-.484-10.268-1.08,4.6-1.08,10.268-1.08,10.268.484,10.268,1.08" transform="translate(-7690.205 -3655.193)" fill="#dbbe36"/>
      <path id="Trazado_107565" data-name="Trazado 107565" d="M990.437,553.754a13.751,13.751,0,0,1-3.106,0l-4.544-17.5a1.354,1.354,0,0,1,1.005-1.658,1.415,1.415,0,0,1,1.694.993Z" transform="translate(-7703.136 -3499.362)" fill="#dbbe36"/>
      <path id="Trazado_107566" data-name="Trazado 107566" d="M1004.174,512.413h0a1.458,1.458,0,0,1-1.645-1.193L998.6,486.86a1.4,1.4,0,0,1,1.193-1.6,1.458,1.458,0,0,1,1.645,1.193l3.933,24.36a1.4,1.4,0,0,1-1.193,1.6" transform="translate(-7716.166 -3458.786)" fill="#7a4940"/>
      <path id="Trazado_107567" data-name="Trazado 107567" d="M1024.365,551.606a16.071,16.071,0,0,1-5.591,1.032l4.283-19.442,4.943,1.24Z" transform="translate(-7732.785 -3498.246)" fill="#db6e5f"/>
      <line id="Línea_253" data-name="Línea 253" x2="1.744" y2="0.328" transform="translate(-6710.454 -2961.752)" fill="none" stroke="#1f1406" stroke-linecap="round" stroke-linejoin="round" stroke-width="2"/>
      <line id="Línea_254" data-name="Línea 254" x2="1.744" y2="0.328" transform="translate(-6711.284 -2958.457)" fill="none" stroke="#1f1406" stroke-linecap="round" stroke-linejoin="round" stroke-width="2"/>
      <line id="Línea_255" data-name="Línea 255" x2="1.744" y2="0.328" transform="translate(-6712.107 -2954.553)" fill="none" stroke="#1f1406" stroke-linecap="round" stroke-linejoin="round" stroke-width="2"/>
      <line id="Línea_256" data-name="Línea 256" x2="1.744" y2="0.328" transform="translate(-6712.923 -2950.079)" fill="none" stroke="#3a4157" stroke-linecap="round" stroke-linejoin="round" stroke-width="1.177"/>
      <line id="Línea_257" data-name="Línea 257" x2="1.744" y2="0.328" transform="translate(-6713.754 -2946.902)" fill="none" stroke="#3a4157" stroke-linecap="round" stroke-linejoin="round" stroke-width="1.177"/>
      <path id="Trazado_107568" data-name="Trazado 107568" d="M993.538,581.561a3.454,3.454,0,0,0,2.785-.689" transform="translate(-7712.019 -3537.477)" fill="none" stroke="#1f1406" stroke-linecap="round" stroke-linejoin="round" stroke-width="2"/>
      <path id="Trazado_107569" data-name="Trazado 107569" d="M979.76,548.144l-.92.291,1.732,6.246" transform="translate(-7699.924 -3510.546)" fill="none" stroke="#1f1406" stroke-linecap="round" stroke-linejoin="round" stroke-width="2"/>
      <path id="Trazado_107570" data-name="Trazado 107570" d="M985.605,535.814c.069.288-.369.63-.978.765s-1.159.01-1.228-.278.369-.63.978-.765S985.536,535.526,985.605,535.814Z" transform="translate(-7703.671 -3500.127)" fill="none" stroke="#1f1406" stroke-linecap="round" stroke-linejoin="round" stroke-width="2"/>
      <path id="Trazado_107571" data-name="Trazado 107571" d="M989.71,635.288h-4.8a5.135,5.135,0,0,1-5.126-4.835l-.939-16.026h16.935l-.939,16.026a5.135,5.135,0,0,1-5.126,4.835" transform="translate(-7699.924 -3565.088)" fill="#ede0d5"/>
      <path id="Trazado_107572" data-name="Trazado 107572" d="M1017.885,635.288h-4.8c6.214-4.027,8.984-11.945,10.87-20.861l-.939,16.026a5.135,5.135,0,0,1-5.126,4.835" transform="translate(-7728.1 -3565.088)" fill="#36261b"/>
      <path id="Trazado_107573" data-name="Trazado 107573" d="M1193.082,709.785c.007,2.241-21.46,4.126-47.948,4.21s-47.966-1.664-47.973-3.9,21.46-4.126,47.948-4.21,47.966,1.664,47.973,3.9" transform="translate(-7797.286 -3640.339)" fill="#dbbe36"/>
      <circle id="Elipse_5007" data-name="Elipse 5007" cx="1.876" cy="1.876" r="1.876" transform="translate(-6576.653 -2985.957) rotate(-80.783)" fill="none" stroke="#1f1406" stroke-linecap="round" stroke-linejoin="round" stroke-width="2"/>
      <circle id="Elipse_5008" data-name="Elipse 5008" cx="1.876" cy="1.876" r="1.876" transform="translate(-6738.45 -2953.628) rotate(-5.655)" fill="none" stroke="#1f1406" stroke-linecap="round" stroke-linejoin="round" stroke-width="2"/>
      <circle id="Elipse_5009" data-name="Elipse 5009" cx="1.876" cy="1.876" r="1.876" transform="matrix(0.383, -0.924, 0.924, 0.383, -6657.696, -3044.07)" fill="none" stroke="#1f1406" stroke-linecap="round" stroke-linejoin="round" stroke-width="2"/>
      <path id="Trazado_107574" data-name="Trazado 107574" d="M1538.542,87.455c-1.945,4.938.278,8.456-7.279,17.079-2.876,3.282-4.535,9.037-5.486,14.906l8.276,15.508c7.281-6.54,14.87-18.892,13.641-24.417-1.235-5.553.671-9.825,4.695-15.237,7.32-9.844.142-23.595.142-23.595s-10.82,7.708-13.99,15.755" transform="translate(-8149.977 -3118.499)" fill="#0d66bf"/>
      <path id="Trazado_107575" data-name="Trazado 107575" d="M1566.566,138.141a.307.307,0,0,0-.408.149c-6.819,14.644-12.745,27.961-17.451,43.409l.41.769c4.725-15.667,10.7-29.113,17.6-43.918a.307.307,0,0,0-.149-.408" transform="translate(-8168.845 -3173.147)" fill="#145943"/>
      <path id="Trazado_107576" data-name="Trazado 107576" d="M1567.642,275.572c-2.083,2.8-4.4,7.725-6.437,12.713l7.038,13.188c11.954-7.359,20.407-28.669,20.407-28.669,13.932,4.74,18.508-6.948,18.508-6.948-27.743-11.09-39.516,9.716-39.516,9.716" transform="translate(-8179.129 -3275.584)" fill="#53bced"/>
      <path id="Trazado_107577" data-name="Trazado 107577" d="M1602.258,284.985a56.332,56.332,0,0,0-16.789,9.4,40.281,40.281,0,0,0-10.783,13.264q-.742,1.508-1.327,3.073l.407.763a38.617,38.617,0,0,1,12.079-16.613,55.7,55.7,0,0,1,16.6-9.3.307.307,0,1,0-.183-.587" transform="translate(-8189.13 -3293.991)" fill="#1d8262"/>
      <rect id="Rectángulo_5613" data-name="Rectángulo 5613" width="12.545" height="22.568" transform="translate(-6654.241 -2958.042)" fill="#69482f"/>
      <path id="Trazado_107578" data-name="Trazado 107578" d="M1337.031,675.071h-30.5a7.473,7.473,0,0,1,7.473-7.473h15.553a7.473,7.473,0,0,1,7.473,7.473" transform="translate(-7969.57 -3608.84)" fill="#704d32"/>
      <path id="Trazado_107579" data-name="Trazado 107579" d="M1222.344,349.7h-80.805a3.2,3.2,0,0,1-3.2-3.2V292.89a3.2,3.2,0,0,1,3.2-3.2h80.805a3.2,3.2,0,0,1,3.2,3.2v53.616a3.2,3.2,0,0,1-3.2,3.2" transform="translate(-7831.172 -3297.877)" fill="#36261b"/>
      <path id="Trazado_107580" data-name="Trazado 107580" d="M1211.219,349.7h-80.394a3.4,3.4,0,0,1-3.4-3.4V293.1a3.4,3.4,0,0,1,3.4-3.4h80.394a3.4,3.4,0,0,1,3.4,3.4v53.2a3.4,3.4,0,0,1-3.4,3.4" transform="translate(-7822.188 -3297.877)" fill="#b38768"/>
      <rect id="Rectángulo_5614" data-name="Rectángulo 5614" width="82.421" height="53.427" transform="translate(-6692.606 -3005.502)" fill="#f0e3d7"/>
      <path id="Trazado_107581" data-name="Trazado 107581" d="M1356.19,628.467h12.545V633Z" transform="translate(-8010.431 -3576.641)" fill="#36261b"/>
      <line id="Línea_258" data-name="Línea 258" x2="11.432" transform="translate(-6653.989 -2941.242)" fill="none" stroke="#36261b" stroke-linecap="round" stroke-linejoin="round" stroke-width="2"/>
      <rect id="Rectángulo_5615" data-name="Rectángulo 5615" width="41.555" height="9.253" transform="translate(-6685.302 -3000.319)" fill="#53bced"/>
      <path id="Trazado_107582" data-name="Trazado 107582" d="M1198.537,347.681a2.776,2.776,0,1,1-2.776-2.776,2.776,2.776,0,0,1,2.776,2.776" transform="translate(-7876.136 -3343.309)" fill="#fff"/>
      <rect id="Rectángulo_5616" data-name="Rectángulo 5616" width="41.555" height="9.253" transform="translate(-6685.302 -2987.436)" fill="#53bced"/>
      <path id="Trazado_107583" data-name="Trazado 107583" d="M1198.537,420.4a2.776,2.776,0,1,1-2.776-2.776,2.776,2.776,0,0,1,2.776,2.776" transform="translate(-7876.136 -3403.149)" fill="#fff"/>
      <path id="Trazado_107584" data-name="Trazado 107584" d="M963.071,205.162l10.1,7.516a6.183,6.183,0,0,0,8.626-1.263l.2-.275a6.183,6.183,0,0,0-1.263-8.626L970.638,195a6.182,6.182,0,0,0-8.626,1.263l-.2.275a6.183,6.183,0,0,0,1.263,8.626" transform="translate(-7684.911 -3218.957)" fill="#91867d"/>
      <path id="Trazado_107585" data-name="Trazado 107585" d="M1060.444,261.257c-5.35,6.651-8.107,13.314-6.158,14.881s7.866-2.553,13.215-9.2,8.107-13.314,6.158-14.881-7.865,2.553-13.215,9.2" transform="translate(-7761.491 -3266.631)" fill="#baaba0"/>
      <path id="Trazado_107586" data-name="Trazado 107586" d="M1020.173,253.83l-3.355-4.487a14.476,14.476,0,0,1,17.606-21.836l5.312,2.426Z" transform="translate(-7728.802 -3245.63)" fill="#91867d"/>
      <path id="Trazado_107587" data-name="Trazado 107587" d="M1053.157,256.452c-5.277,6.561-8,13.134-6.074,14.68s7.759-2.519,13.037-9.08,8-13.134,6.074-14.68-7.759,2.519-13.037,9.08" transform="translate(-7755.571 -3262.783)" fill="#36261b"/>
      <path id="Trazado_107588" data-name="Trazado 107588" d="M1086.592,282.867a8.168,8.168,0,0,1-6.4,7.633,2.751,2.751,0,0,1-3.334-3.537c.969-2.78,3.43-5.823,5.976-6.889a2.738,2.738,0,0,1,3.756,2.793" transform="translate(-7780.454 -3289.788)" fill="#fff"/>
      <path id="Trazado_107589" data-name="Trazado 107589" d="M1051.13,252.509c5.35-6.651,11.266-10.772,13.216-9.2a1.884,1.884,0,0,1,.613,1.383c-2.662.367-7.385,4.1-11.733,9.507s-7.116,11.275-6.9,13.954c-.613.085-.985-.465-1.349-.759-1.949-1.568.808-8.23,6.158-14.881" transform="translate(-7753.827 -3259.432)" fill="#baaba0"/>
      <path id="Trazado_107590" data-name="Trazado 107590" d="M913.906,390.984a4.968,4.968,0,1,1-5.91-3.239,4.773,4.773,0,0,1,5.91,3.239" transform="translate(-7638.48 -3378.429)" fill="#786f67"/>
      <path id="Trazado_107591" data-name="Trazado 107591" d="M923.281,403.244a1.962,1.962,0,1,1-1.962-1.962,1.962,1.962,0,0,1,1.962,1.962" transform="translate(-7650.978 -3389.699)" fill="#c4b4a9"/>
      <path id="Trazado_107592" data-name="Trazado 107592" d="M1023.039,259.617s-1.987,8.154,4.272,13.558a33.557,33.557,0,0,1,3.759-6.854s-3.781-1.308-5.43-10.278Z" transform="translate(-7736.047 -3270.188)" fill="#786f67"/>
      <path id="Trazado_107593" data-name="Trazado 107593" d="M986.413,227.715l-7.157-5.61a2.682,2.682,0,0,1-.5-3.7l.833-1.127,9.427,6.868-1.6,5.653-1-2.289Z" transform="translate(-7699.422 -3238.286)" fill="#786f67"/>
      <rect id="Rectángulo_5617" data-name="Rectángulo 5617" width="41.334" height="18.89" transform="translate(-6685.302 -2973.403)" fill="#fff"/>
      <rect id="Rectángulo_5618" data-name="Rectángulo 5618" width="41.334" height="3.514" transform="translate(-6685.302 -2973.403)" fill="#53bced"/>
      <path id="Trazado_107594" data-name="Trazado 107594" d="M1194.609,525.477l.569,1.154a.524.524,0,0,0,.394.286l1.273.185a.523.523,0,0,1,.29.893l-.921.9a.523.523,0,0,0-.151.463l.217,1.268a.523.523,0,0,1-.76.552l-1.139-.6a.523.523,0,0,0-.487,0l-1.139.6a.524.524,0,0,1-.76-.552l.217-1.268a.523.523,0,0,0-.151-.463l-.921-.9a.523.523,0,0,1,.29-.893l1.273-.185a.524.524,0,0,0,.394-.286l.569-1.154a.523.523,0,0,1,.939,0" transform="translate(-7874.49 -3491.654)" fill="#dbbe36"/>
      <path id="Trazado_107595" data-name="Trazado 107595" d="M1238.171,525.477l.569,1.154a.524.524,0,0,0,.394.286l1.273.185a.523.523,0,0,1,.29.893l-.921.9a.523.523,0,0,0-.151.463l.217,1.268a.523.523,0,0,1-.76.552l-1.139-.6a.523.523,0,0,0-.487,0l-1.139.6a.523.523,0,0,1-.759-.552l.217-1.268a.524.524,0,0,0-.15-.463l-.921-.9a.524.524,0,0,1,.29-.893l1.273-.185a.523.523,0,0,0,.394-.286l.57-1.154a.523.523,0,0,1,.939,0" transform="translate(-7910.335 -3491.654)" fill="#dbbe36"/>
      <path id="Trazado_107596" data-name="Trazado 107596" d="M1281.733,525.477l.569,1.154a.523.523,0,0,0,.394.286l1.273.185a.524.524,0,0,1,.29.893l-.921.9a.524.524,0,0,0-.15.463l.217,1.268a.523.523,0,0,1-.76.552l-1.139-.6a.523.523,0,0,0-.487,0l-1.139.6a.524.524,0,0,1-.76-.552l.218-1.268a.523.523,0,0,0-.15-.463l-.921-.9a.524.524,0,0,1,.29-.893l1.273-.185a.523.523,0,0,0,.394-.286l.57-1.154a.523.523,0,0,1,.939,0" transform="translate(-7946.181 -3491.654)" fill="#dbbe36"/>
      <path id="Trazado_107597" data-name="Trazado 107597" d="M1325.294,525.477l.569,1.154a.524.524,0,0,0,.394.286l1.273.185a.524.524,0,0,1,.29.893l-.921.9a.524.524,0,0,0-.151.463l.217,1.268a.523.523,0,0,1-.76.552l-1.139-.6a.523.523,0,0,0-.487,0l-1.139.6a.524.524,0,0,1-.76-.552l.218-1.268a.524.524,0,0,0-.151-.463l-.921-.9a.524.524,0,0,1,.29-.893l1.273-.185a.523.523,0,0,0,.394-.286l.57-1.154a.523.523,0,0,1,.939,0" transform="translate(-7982.025 -3491.654)" fill="#dbbe36"/>
      <path id="Trazado_107598" data-name="Trazado 107598" d="M1368.856,525.477l.569,1.154a.524.524,0,0,0,.394.286l1.273.185a.524.524,0,0,1,.29.893l-.921.9a.524.524,0,0,0-.151.463l.218,1.268a.523.523,0,0,1-.76.552l-1.139-.6a.523.523,0,0,0-.487,0l-1.139.6a.524.524,0,0,1-.76-.552l.218-1.268a.524.524,0,0,0-.15-.463l-.921-.9a.524.524,0,0,1,.29-.893l1.273-.185a.523.523,0,0,0,.394-.286l.57-1.154a.523.523,0,0,1,.939,0" transform="translate(-8017.871 -3491.654)" fill="#d4cec9"/>
      <rect id="Rectángulo_5619" data-name="Rectángulo 5619" width="1.467" height="4.549" transform="matrix(0.864, -0.504, 0.504, 0.864, -6649.21, -2960.672)" fill="#5c372f"/>
      <path id="Trazado_107599" data-name="Trazado 107599" d="M1382.034,549.592c.01-1-.008-2.944-.015-3.689a.172.172,0,0,1,.263-.144l3.148,1.855a.274.274,0,0,1-.043.5l-.88.311-1.262.788-.744.6a.287.287,0,0,1-.466-.221" transform="translate(-8031.684 -3508.562)" fill="#5c372f"/>
      <rect id="Rectángulo_5620" data-name="Rectángulo 5620" width="25.135" height="3.56" transform="translate(-6640.787 -3000.247)" fill="#53bced"/>
      <rect id="Rectángulo_5621" data-name="Rectángulo 5621" width="25.397" height="3.56" transform="translate(-6640.857 -2981.739)" fill="#53bced"/>
      <rect id="Rectángulo_5622" data-name="Rectángulo 5622" width="11.292" height="3.56" transform="translate(-6640.857 -2990.4)" fill="#fff"/>
      <rect id="Rectángulo_5623" data-name="Rectángulo 5623" width="11.304" height="3.56" transform="translate(-6627.826 -2990.4)" fill="#fff"/>
      <rect id="Rectángulo_5624" data-name="Rectángulo 5624" width="25.695" height="17.777" transform="translate(-6640.857 -2972.939)" fill="#fff"/>
      <path id="Trazado_107600" data-name="Trazado 107600" d="M1469.617,726.316c0,1.363,10.579,2.468,23.628,2.468s23.628-1.105,23.628-2.468-10.579-2.468-23.628-2.468-23.628,1.105-23.628,2.468" transform="translate(-8103.766 -3655.126)" fill="#dbbe36" fill-rule="evenodd"/>
      <path id="Trazado_107601" data-name="Trazado 107601" d="M1514.786,535.095s-12.918,7.463-10.355,17.791c1.006,4.054,6.142,6.473,12,7.154s14.617.119,16.112.142c2.676.041,15.376-3.732,6.481-27.713-1.284-3.461-3.03-9.9-8.993-10.678s-8.394,8.942-15.246,13.3" transform="translate(-8132.136 -3488.824)" fill="#53bced"/>
      <path id="Trazado_107602" data-name="Trazado 107602" d="M1541.606,534.254c-1.2-3.222-2.793-9.024-7.819-10.437,13.378,20.9,4.691,35.433-4.222,33.231-1.451-.358-10.252.539-16.112-.141a23.441,23.441,0,0,1-6.223-1.543c1.39,3.637,6.265,5.82,11.783,6.461,5.86.681,14.617.119,16.112.141,2.676.041,15.375-3.732,6.48-27.713" transform="translate(-8134.716 -3490.529)" fill="#299dd4"/>
      <path id="Trazado_107603" data-name="Trazado 107603" d="M1626.539,528.944s1.333,2.494.527,3.936-1.977-3.081-1.977-3.081Z" transform="translate(-8231.698 -3494.747)" fill="#e3cbbb" fill-rule="evenodd"/>
      <path id="Trazado_107604" data-name="Trazado 107604" d="M1612.511,528.637s2.738-.191,2.739-2.381-1.565-2.433-1.565-2.433l-1.7,3.345Z" transform="translate(-8220.917 -3490.533)" fill="#e3cbbb" fill-rule="evenodd"/>
      <path id="Trazado_107605" data-name="Trazado 107605" d="M1592.693,636.995l-11.185-.271-.082-2.87,7.542-3.824,4.4-.917,1.376-.655c2.017,2.536,1.049,8.519-2.053,8.537" transform="translate(-8195.769 -3576.634)" fill="#c95836" fill-rule="evenodd"/>
      <path id="Trazado_107606" data-name="Trazado 107606" d="M1550.883,631.678l-10.515.624-2.159-3.341,3.352-1.889,10-3.336,1.748,2.039a3.489,3.489,0,0,1-2.426,5.9" transform="translate(-8160.207 -3572.749)" fill="#c95836" fill-rule="evenodd"/>
      <path id="Trazado_107607" data-name="Trazado 107607" d="M1507.332,641.169s-1.872-.186-4.755,4.885c-1.579,2.779-8.082,8.644-8.082,8.644l-.738-1.109,7.678-14.152a3.92,3.92,0,0,1,2.949-1.835l3.293-.27Z" transform="translate(-8123.63 -3583.936)" fill="#c95836" fill-rule="evenodd"/>
      <path id="Trazado_107608" data-name="Trazado 107608" d="M1479.6,726.9l-1.447.651a9.068,9.068,0,0,1-1.792.3c-.2.256.03.47.249.561l4.095.858s.986.023.572-1.984c-.818.156-1.613.22-1.676-.388" transform="translate(-8109.251 -3657.639)" fill="#4a2a1a" fill-rule="evenodd"/>
      <path id="Trazado_107609" data-name="Trazado 107609" d="M1544.384,642.048s-1.88.089-3.989,5.528c-1.156,2.98-6.7,9.459-6.7,9.459l-.666-1.018,5.272-14.82a3.922,3.922,0,0,1,2.649-2.247l3.219-.749Z" transform="translate(-8155.942 -3584.652)" fill="#c95836" fill-rule="evenodd"/>
      <path id="Trazado_107610" data-name="Trazado 107610" d="M1519.8,733.955l-1.373.8a9.062,9.062,0,0,1-1.752.485c-.177.276.078.464.305.532l4.162.434s.983-.079.365-2.033c-.8.239-1.583.385-1.707-.214" transform="translate(-8142.441 -3663.443)" fill="#4a2a1a" fill-rule="evenodd"/>
      <path id="Trazado_107611" data-name="Trazado 107611" d="M1528.957,644.91l4.049,1.105s1.335-1.488,2.2-2.6a57.4,57.4,0,0,0,3.9-6.447c.091-.079,10.282.345,10.8.286,1.337-.152,4.531-2.037,2.006-8.991L1539.23,631.3s-3.01.365-3.68,1.406c-.433.673-.865,1.316-1.444,2.327-3.056,5.335-5.149,9.879-5.149,9.879" transform="translate(-8152.594 -3576.477)" fill="#918b7d" fill-rule="evenodd"/>
      <path id="Trazado_107612" data-name="Trazado 107612" d="M1498.228,642.472l3.406,1.338s6.05-6.188,6.958-7.595,15.95-1.853,15.95-1.853l-.823-6.852-8.786.168s-4.947,1.317-5.393,1.447a5.166,5.166,0,0,0-5.144,2.822c-1.83,3.349-6.168,10.525-6.168,10.525" transform="translate(-8127.308 -3575.854)" fill="#918b7d" fill-rule="evenodd"/>
      <path id="Trazado_107613" data-name="Trazado 107613" d="M1585.095,561.006l2.454-6.44c.567-1.561,2.127-2.193,3.279-1.329a1.344,1.344,0,0,1,.289,1.646l-3.651,7.13Z" transform="translate(-8198.788 -3514.416)" fill="#c95836" fill-rule="evenodd"/>
      <path id="Trazado_107614" data-name="Trazado 107614" d="M1597.145,548.527l2.177-.758,1.868-.219.917.036,3.482,1.214a2.56,2.56,0,0,1,1.269,3.177l-.852,3.986c.906,3.006,1.4,3.755,1.245,6.85-4.549.79-12.3,0-12.66-.414.263-6.193.983-10.75,2.554-13.872" transform="translate(-8206.602 -3510.057)" fill="#fff" fill-rule="evenodd"/>
      <path id="Trazado_107615" data-name="Trazado 107615" d="M1622.563,532.428l.32,2.4a.81.81,0,0,0,.5.645.8.8,0,0,0,.8-.123l.214-.175a1.045,1.045,0,0,0,.353-1.053l-.677-2.821Z" transform="translate(-8229.618 -3496.691)" fill="#c95836" fill-rule="evenodd"/>
      <path id="Trazado_107616" data-name="Trazado 107616" d="M1623.076,540.472l.165.781a2,2,0,0,0,1.09-1.3Z" transform="translate(-8230.041 -3503.804)" fill="#873b24" fill-rule="evenodd"/>
      <path id="Trazado_107617" data-name="Trazado 107617" d="M1620.07,546.61s-1.1,2.71.766,2.829,2.879-2.7,2.879-2.7l-1.359-.6Z" transform="translate(-8227.305 -3508.896)" fill="#c95836"/>
      <path id="Trazado_107618" data-name="Trazado 107618" d="M1617.558,523.675a.7.7,0,0,0-.882-.455l-1.275.412a.741.741,0,0,0-.444.883,7.607,7.607,0,0,0,.769,1.927.853.853,0,0,0,.95.464c.391-.126,1.439-.88,1.321-1.622a10.261,10.261,0,0,0-.439-1.609" transform="translate(-8223.349 -3490.009)" fill="#c95836" fill-rule="evenodd"/>
      <path id="Trazado_107619" data-name="Trazado 107619" d="M1619.7,538.709l.632-.218s.14.44-.176.508-.455-.29-.455-.29" transform="translate(-8227.264 -3502.603)" fill="#fff" fill-rule="evenodd"/>
      <path id="Trazado_107620" data-name="Trazado 107620" d="M1650.806,567.013l-2.631-6.115c-.658-1.465.039-2.855,1.464-2.921a1.436,1.436,0,0,1,1.336,1.014l2.236,7.329Z" transform="translate(-8250.489 -3518.636)" fill="#c95836" fill-rule="evenodd"/>
      <path id="Trazado_107621" data-name="Trazado 107621" d="M1636.71,604.12a2.365,2.365,0,0,1-1.627,2.917l-7.2.893.386-1.46,5.231-1.532Z" transform="translate(-8234.001 -3556.607)" fill="#c95836" fill-rule="evenodd"/>
      <path id="Trazado_107622" data-name="Trazado 107622" d="M1586.4,594.367a2.535,2.535,0,0,0-.426,3.279l1.786,2.592,1.338-.668-1.51-3.2Z" transform="translate(-8199.166 -3548.581)" fill="#c95836" fill-rule="evenodd"/>
      <path id="Trazado_107623" data-name="Trazado 107623" d="M1620.142,617.384l-1.175.6a1.1,1.1,0,0,0-.518.566l-.4.99a.533.533,0,0,0,.48.734l1.434-.841a1.661,1.661,0,0,0,.7-.888l.227-.642Z" transform="translate(-8225.87 -3567.521)" fill="#c95836"/>
      <path id="Trazado_107624" data-name="Trazado 107624" d="M1596.4,620.419l1.271.356a1.1,1.1,0,0,1,.621.451l.592.89a.533.533,0,0,1-.324.815l-1.573-.538a1.659,1.659,0,0,1-.866-.73l-.35-.584Z" transform="translate(-8207.571 -3570.019)" fill="#c95836"/>
      <path id="Trazado_107625" data-name="Trazado 107625" d="M1587.463,632.864h-10.7v-.81h9.888a.809.809,0,0,1,.809.809" transform="translate(-8191.935 -3579.593)" fill="#fad0b9" fill-rule="evenodd"/>
      <path id="Trazado_107626" data-name="Trazado 107626" d="M1545.733,604.96H1535.6l-3.059-6.816h9.9a.358.358,0,0,1,.327.212Z" transform="translate(-8155.541 -3551.689)" fill="#fad0b9" fill-rule="evenodd"/>
      <path id="Trazado_107627" data-name="Trazado 107627" d="M1544.076,604.959h-10.137l-2.918-6.5a.223.223,0,0,1,.2-.314h9.649a.223.223,0,0,1,.2.131Z" transform="translate(-8154.276 -3551.688)" fill="#4a2a1a" fill-rule="evenodd"/>
      <path id="Trazado_107628" data-name="Trazado 107628" d="M1560.673,614.05c.121.425-.208.77-.735.77a1.238,1.238,0,0,1-1.172-.77c-.12-.425.208-.77.735-.77a1.238,1.238,0,0,1,1.171.77" transform="translate(-8177.103 -3564.144)" fill="#fff" fill-rule="evenodd"/>
      <path id="Trazado_107629" data-name="Trazado 107629" d="M1545.78,650.145l3.274-5.93s1.135-2.159,6.183-2.341" transform="translate(-8166.438 -3587.673)" fill="none" stroke="#807872" stroke-linecap="round" stroke-linejoin="round" stroke-width="2.045"/>
      <path id="Trazado_107630" data-name="Trazado 107630" d="M1609.246,523.3a9.9,9.9,0,0,0-.578,3.375s.757.646,1.091.475c0,0-.313-2.931.851-3.927a1.083,1.083,0,0,0,.5-.927c-.008-.639-1.289-.137-1.863,1" transform="translate(-8218.166 -3489.043)" fill="#e3cbbb" fill-rule="evenodd"/>
      <path id="Trazado_107631" data-name="Trazado 107631" d="M1619.34,521.66a3.828,3.828,0,0,0,1.917.837c.774-.061.7.3.7.3s-.241-1.966-1.307-2.1c-.738-.091-1.081-.182-1.309.958" transform="translate(-8226.966 -3487.925)" fill="#e3cbbb" fill-rule="evenodd"/>
      <path id="Trazado_107632" data-name="Trazado 107632" d="M1630.3,530.722a.527.527,0,0,1-.491.558.54.54,0,0,1-.458-.6.528.528,0,0,1,.492-.558.54.54,0,0,1,.458.6" transform="translate(-8235.206 -3495.72)" fill="#c95836" fill-rule="evenodd"/>
      <path id="Trazado_107633" data-name="Trazado 107633" d="M1614.6,535.866a6.685,6.685,0,0,0-.233,2.448" transform="translate(-8222.837 -3500.443)" fill="none" stroke="#bfab9e" stroke-linecap="round" stroke-linejoin="round" stroke-width="0.868"/>
      <line id="Línea_259" data-name="Línea 259" x1="0.096" y1="0.633" transform="translate(-6607.328 -2966.933)" fill="none" stroke="#bfab9e" stroke-linecap="round" stroke-linejoin="round" stroke-width="0.868"/>
      <path id="Trazado_107634" data-name="Trazado 107634" d="M1645.562,555.919l1.7,4.63,3.811-1.377c-.731-.794-1.488-4.6-3.557-5.666-2.275-1.178-1.957,2.413-1.957,2.413" transform="translate(-8248.531 -3514.763)" fill="#fff" fill-rule="evenodd"/>
      <path id="Trazado_107635" data-name="Trazado 107635" d="M1591.8,553.064s-1.47.1-2.245,2.641-1.46,3.056-1.46,3.056l2.782,1.127,2.138-5.262Z" transform="translate(-8201.257 -3514.595)" fill="#fff" fill-rule="evenodd"/>
      <path id="Trazado_107636" data-name="Trazado 107636" d="M1599.855,567.77a26.474,26.474,0,0,1,1.11-3.239,3.309,3.309,0,0,0,.447-1.368" transform="translate(-8210.934 -3522.905)" fill="none" stroke="#8b939c" stroke-linecap="round" stroke-linejoin="round" stroke-width="0.868"/>
      <path id="Trazado_107637" data-name="Trazado 107637" d="M1646.278,567.405l-1.445-3.74v-.5" transform="translate(-8247.944 -3522.905)" fill="none" stroke="#8b939c" stroke-linecap="round" stroke-linejoin="round" stroke-width="0.868"/>
      <path id="Trazado_107638" data-name="Trazado 107638" d="M1633.182,661.523a7.551,7.551,0,0,1,7.018-5.8v3.586Z" transform="translate(-8238.356 -3599.07)" fill="#b0d6c9" fill-rule="evenodd"/>
      <rect id="Rectángulo_5625" data-name="Rectángulo 5625" width="13.155" height="2.277" transform="translate(-6637.891 -2969.891)" fill="#53bced"/>
      <rect id="Rectángulo_5626" data-name="Rectángulo 5626" width="20.14" height="2.277" transform="translate(-6637.891 -2965.097)" fill="#53bced"/>
      <path id="Trazado_107639" data-name="Trazado 107639" d="M1246.016,148.033a.854.854,0,1,0,.877-1,.953.953,0,0,0-.877,1" transform="translate(-7919.772 -3180.486)" fill="#99938b"/>
      <path id="Trazado_107640" data-name="Trazado 107640" d="M1228.8,144.762s-.265,1.3.671,1.645,1.847-2.374,1.847-2.374Z" transform="translate(-7905.579 -3178.018)" fill="#572a22" fill-rule="evenodd"/>
      <path id="Trazado_107641" data-name="Trazado 107641" d="M1264.078,268.566c-.374.24-.285.761.211,1.269.877.9,4.109,2.348,3.868,5.37-.175,2.194,2.219,9.575,3.837,12.871.235.48-.294-.31.574.47l.2.876c.6-.293.892-.29.907-.79l-.918-15.01c.011-.453-1.163-1.361-1.568-1.9-.793-1.056.256-1.6-1.133-2.005l-2.994-.864s.043,1.182-.356,1.438Z" transform="translate(-7934.446 -3280.492)" fill="#c95836" fill-rule="evenodd"/>
      <path id="Trazado_107642" data-name="Trazado 107642" d="M1310.094,378.386l1.231.871a8.618,8.618,0,0,0,1.616.61c.144.276-.114.433-.334.477l-3.976.053s-.924-.159-.171-1.955c.734.294,1.465.5,1.634-.056" transform="translate(-7970.913 -3370.859)" fill="#4a2a1a" fill-rule="evenodd"/>
      <path id="Trazado_107643" data-name="Trazado 107643" d="M1246.046,268.082c-.387.24-.4.764-.035,1.276.645.905,3.352,2.369,2.588,5.405-.554,2.2.235,9.6,1.129,12.914.13.483-.132-.284.526.5l.03.881c.6-.293.784-.335.888-.838l1.94-15.038c.092-.455-.823-1.37-1.1-1.914-.539-1.063.524-1.612-.68-2.018l-2.595-.875s-.173,1.188-.585,1.444Z" transform="translate(-7919.551 -3280.094)" fill="#c95836" fill-rule="evenodd"/>
      <path id="Trazado_107644" data-name="Trazado 107644" d="M1265.234,378.658l.721,1.324a8.6,8.6,0,0,0,1.181,1.26c.007.311-.293.338-.511.28l-3.592-1.707s-.759-.55.709-1.829c.529.588,1.094,1.095,1.492.67" transform="translate(-7933.614 -3370.532)" fill="#4a2a1a" fill-rule="evenodd"/>
      <path id="Trazado_107645" data-name="Trazado 107645" d="M1208.048,251.766s7.175,2.674,9.017,3.888,1.933,2.045,2.025,4.327c.063,1.542.818,12.427.818,12.427a8.258,8.258,0,0,1-3.593.582l-2.407-10.668s-.931,11.159-1.009,11.167-2.557.459-3.1-.277a63.135,63.135,0,0,1-1.082-9.5c.028-4.733-.843-4.789-1.421-4.728s-5.28-.184-5.28-.184-3.84-1.054-3.988-3.766a11.34,11.34,0,0,1,.1-3.438Z" transform="translate(-7880.246 -3266.531)" fill="#7a4f2b" fill-rule="evenodd"/>
      <path id="Trazado_107646" data-name="Trazado 107646" d="M1252.582,180.376l-2.13-6.447c-.608-1.675-2.585-3.269-3.821-2.342a1.442,1.442,0,0,0-.311,1.766l3.917,7.651Z" transform="translate(-7919.884 -3200.468)" fill="#c95836" fill-rule="evenodd"/>
      <path id="Trazado_107647" data-name="Trazado 107647" d="M1207.406,165.864l-2.336-.814-2.005-.235-.983.039-3.737,1.3a2.747,2.747,0,0,0-1.361,3.409l.914,4.277c-.971,3.226-1.5,4.03-1.335,7.35,4.882.848,13.474.292,13.863-.152-2.673-4.577-1.333-11.827-3.019-15.177" transform="translate(-7879.054 -3195.121)" fill="#fff" fill-rule="evenodd"/>
      <path id="Trazado_107648" data-name="Trazado 107648" d="M1226.294,163.808s1.175,2.908-.821,3.036-3.089-2.895-3.089-2.895l1.458-.648Z" transform="translate(-7900.327 -3193.874)" fill="#c95836"/>
      <path id="Trazado_107649" data-name="Trazado 107649" d="M1189.712,193.715l1.369-7.669c.376-1.6-.649-2.813-2.153-2.539a1.553,1.553,0,0,0-1.182,1.32l-1.224,7.3Z" transform="translate(-7870.817 -3210.469)" fill="#c95836" fill-rule="evenodd"/>
      <path id="Trazado_107650" data-name="Trazado 107650" d="M1192.209,173.8l-1.326,5.56-4.36-1.628c.636-3.379,1.366-5.372,3.587-6.521,2.442-1.264,2.1,2.589,2.1,2.589" transform="translate(-7870.817 -3200.17)" fill="#fff" fill-rule="evenodd"/>
      <path id="Trazado_107651" data-name="Trazado 107651" d="M1251.86,170.733a4.889,4.889,0,0,1,3.019,3.343,13.1,13.1,0,0,0,.956,2.769l-2.986,1.209-2.294-5.647Z" transform="translate(-7923.508 -3199.99)" fill="#fff" fill-rule="evenodd"/>
      <path id="Trazado_107652" data-name="Trazado 107652" d="M1261.538,197.978a20.876,20.876,0,0,0-.76-3.569" transform="translate(-7931.92 -3219.471)" fill="none" stroke="#1f8c6a" stroke-linecap="round" stroke-linejoin="round" stroke-width="1.056"/>
      <path id="Trazado_107653" data-name="Trazado 107653" d="M1208.888,202.574l-.022-2.9-.2-.5" transform="translate(-7889.041 -3223.388)" fill="none" stroke="#1f8c6a" stroke-linecap="round" stroke-linejoin="round" stroke-width="1.056"/>
      <path id="Trazado_107654" data-name="Trazado 107654" d="M1265.64,279.231c.087-.092.249-2.848.331-3.615s-.583-2.7-5.193-3.623" transform="translate(-7931.92 -3283.313)" fill="none" stroke="#663b24" stroke-linecap="round" stroke-linejoin="round" stroke-width="0.864"/>
      <path id="Trazado_107655" data-name="Trazado 107655" d="M1230.908,150.018l-.377,2.426a.848.848,0,0,1-.6.649,1.124,1.124,0,0,1-.97-.128l-.26-.177a.968.968,0,0,1-.432-1.064l.808-2.846Z" transform="translate(-7905.141 -3182.006)" fill="#c95836" fill-rule="evenodd"/>
      <path id="Trazado_107656" data-name="Trazado 107656" d="M1237.584,159.471l-.167.789-.949-1.134Z" transform="translate(-7911.917 -3190.439)" fill="#873b24" fill-rule="evenodd"/>
      <path id="Trazado_107657" data-name="Trazado 107657" d="M1242.363,142.005a1.436,1.436,0,0,0,.432-2.08c-.781-1.411-1.771.967-1.746,1.01s1.314,1.069,1.314,1.069" transform="translate(-7915.687 -3174.271)" fill="#572a22" fill-rule="evenodd"/>
      <path id="Trazado_107658" data-name="Trazado 107658" d="M1233.454,141.069a.761.761,0,0,1,.854-.651l1.435.2a.8.8,0,0,1,.639.857,8.228,8.228,0,0,1-.456,2.2.922.922,0,0,1-.924.673c-.44-.061-1.7-.666-1.713-1.478a11.087,11.087,0,0,1,.165-1.8" transform="translate(-7909.3 -3175.039)" fill="#c95836" fill-rule="evenodd"/>
      <path id="Trazado_107659" data-name="Trazado 107659" d="M1227.4,138.183s.26-1.6,1.036-2a2.179,2.179,0,0,1,3.129.731s.531.6-1.658.228c-.278-.047-.288,1.351-.661,1.358a5.693,5.693,0,0,1-1.846-.317" transform="translate(-7904.451 -3171.261)" fill="#572a22" fill-rule="evenodd"/>
      <path id="Trazado_107660" data-name="Trazado 107660" d="M1230.238,149.712a.57.57,0,0,0,.629.5.583.583,0,0,0,.375-.72.57.57,0,0,0-.629-.5.584.584,0,0,0-.375.72" transform="translate(-7906.777 -3182.091)" fill="#c95836" fill-rule="evenodd"/>
      <path id="Trazado_107661" data-name="Trazado 107661" d="M1186.138,230.576a2.9,2.9,0,0,0,1.543,3.556l8.031,2.8-.289-1.67-5.75-2.988Z" transform="translate(-7870.373 -3249.232)" fill="#c95836" fill-rule="evenodd"/>
      <path id="Trazado_107662" data-name="Trazado 107662" d="M1233.134,264.387l6.769-.97a1.5,1.5,0,0,0,.515-2.8l-1.126-.623-8.96,1.313a.4.4,0,0,0-.19.7Z" transform="translate(-7906.587 -3273.437)" fill="#ffd4bd"/>
      <path id="Trazado_107663" data-name="Trazado 107663" d="M1268.763,218.4a4,4,0,0,1,.407,4.278l-1.131,3.841-1.674-1.111.416-5.949Z" transform="translate(-7936.518 -3239.209)" fill="#c95836" fill-rule="evenodd"/>
      <path id="Trazado_107664" data-name="Trazado 107664" d="M1235.2,257.108l1.246.782a1.228,1.228,0,0,1,.521.678l.352,1.138a.594.594,0,0,1-.6.768l-1.511-1.071a1.848,1.848,0,0,1-.7-1.053l-.19-.734Z" transform="translate(-7910.151 -3271.064)" fill="#c95836"/>
      <path id="Trazado_107665" data-name="Trazado 107665" d="M1248.248,253.4l8.04-.989,2.593-5.292a.146.146,0,0,0-.148-.222l-7.653.941a.221.221,0,0,0-.167.121Z" transform="translate(-7921.609 -3262.657)" fill="#ffd4bd" fill-rule="evenodd"/>
      <path id="Trazado_107666" data-name="Trazado 107666" d="M1249.224,254.372l8.04-.989,2.594-5.293a.146.146,0,0,0-.148-.222l-7.653.941a.221.221,0,0,0-.167.121Z" transform="translate(-7922.413 -3263.46)" fill="#cfc3b9" fill-rule="evenodd"/>
      <path id="Trazado_107667" data-name="Trazado 107667" d="M1277.8,263.208c-.114.339.132.572.55.521a1.229,1.229,0,0,0,.962-.707c.114-.339-.132-.573-.55-.521a1.229,1.229,0,0,0-.962.707" transform="translate(-7945.905 -3275.496)" fill="#fff" fill-rule="evenodd"/>
      <path id="Trazado_107668" data-name="Trazado 107668" d="M1227.748,147.149a.854.854,0,1,0,.878-1,.953.953,0,0,0-.878,1" transform="translate(-7904.739 -3179.759)" fill="#99938b"/>
      <path id="Trazado_107669" data-name="Trazado 107669" d="M1228.773,149.551c-.012.286.138.525.335.534s.367-.217.379-.5-.138-.525-.335-.534-.367.217-.379.5" transform="translate(-7905.584 -3182.146)" fill="#6e6964"/>
      <path id="Trazado_107670" data-name="Trazado 107670" d="M1232.1,138s-.347-2.276,1.922-2.178c2.034.088,1.888,2.357,1.888,2.357l-.264-.021s-.049-1.9-1.573-1.962c-1.788-.072-1.584,1.784-1.584,1.784Z" transform="translate(-7908.306 -3171.261)" fill="#99938b"/>
      <path id="Trazado_107671" data-name="Trazado 107671" d="M1227.238,198.535a60.909,60.909,0,0,1-6.975.619v1.283a42.938,42.938,0,0,0,7.1-.5Z" transform="translate(-7898.582 -3222.867)" fill="#fff" fill-rule="evenodd"/>
      <path id="Trazado_107672" data-name="Trazado 107672" d="M1133.646,539.133a1.572,1.572,0,0,1-1.74-1.2c-.283-1.364,1.264-1.7,1.264-1.7Z" transform="translate(-7825.848 -3500.748)" fill="#4a2a1a" fill-rule="evenodd"/>
      <path id="Trazado_107673" data-name="Trazado 107673" d="M1163.2,569.477c.713.02,1.573-.237,1.8-.9a25.687,25.687,0,0,0-3-6.206c-.706-1.247-2-1.9-2.713-1.373-.282.208-.249.75.074,1.217l4.071,7.707Z" transform="translate(-7848.247 -3520.969)" fill="#c95836" fill-rule="evenodd"/>
      <path id="Trazado_107674" data-name="Trazado 107674" d="M1119.545,556.851l-2.062-.66-2.492-.178-3.329,1.161a2.447,2.447,0,0,0-1.213,3.037l-.376,2.483c-.784,4.991-.376,7.729.029,9.174,4.72,1.753,11.209,1.667,12.7-.5-1.692-4.294-2.474-8.406-3.255-14.518" transform="translate(-7807.543 -3517.02)" fill="#c9beb5" fill-rule="evenodd"/>
      <path id="Trazado_107675" data-name="Trazado 107675" d="M1140.657,541.3s-.093,1.265-.17,2.313a.774.774,0,0,1-.439.643.761.761,0,0,1-.771-.072l-.214-.155a1,1,0,0,1-.4-.985l.487-2.731Z" transform="translate(-7831.427 -3504.103)" fill="#c95836" fill-rule="evenodd"/>
      <path id="Trazado_107676" data-name="Trazado 107676" d="M1137.851,554.921a1.182,1.182,0,0,1-1.174,1.687,2.264,2.264,0,0,1-2.3-1.524l1.286-.615Z" transform="translate(-7827.912 -3515.751)" fill="#c95836"/>
      <path id="Trazado_107677" data-name="Trazado 107677" d="M1113.4,573.47l.517-5.7c.138-1.566-.765-2.694-1.9-2.37-.446.128-1,1.661-.985,2.267l-.223,5.92Z" transform="translate(-7808.515 -3524.698)" fill="#c95836" fill-rule="evenodd"/>
      <path id="Trazado_107678" data-name="Trazado 107678" d="M1141.269,598.431l1.254-.146a1.055,1.055,0,0,1,.712.174l.846.573a.51.51,0,0,1,.009.838l-1.587.094a1.587,1.587,0,0,1-1.031-.332l-.521-.39Z" transform="translate(-7833.32 -3551.8)" fill="#c95836"/>
      <path id="Trazado_107679" data-name="Trazado 107679" d="M1155.663,594.555l.892.007a.938.938,0,0,0,.853-.595l.824-2.545a.446.446,0,0,0-.464-.605l-.892-.007a.938.938,0,0,0-.853.595l-.824,2.545a.446.446,0,0,0,.464.605" transform="translate(-7845.02 -3545.654)" fill="#3d2213" fill-rule="evenodd"/>
      <path id="Trazado_107680" data-name="Trazado 107680" d="M1164.229,597.657a.461.461,0,0,0,.539-.229c.237-.458.571-1.308.032-1.678-.758-.52-1.43.806-1.315,1.335.068.315.449.486.745.572" transform="translate(-7851.851 -3549.622)" fill="#c95836" fill-rule="evenodd"/>
      <path id="Trazado_107681" data-name="Trazado 107681" d="M1126.855,661.7s-3.35-.208-3.132-1.463,3.7-.215,3.7-.215Z" transform="translate(-7819.134 -3602.276)" fill="#4a2a1a" fill-rule="evenodd"/>
      <path id="Trazado_107682" data-name="Trazado 107682" d="M1138.506,619.911s5.244-3.8,7.041.612c1.54,3.779-9.381,6.6-12.543,7.331a1.073,1.073,0,0,1-1.209-.583l-1.3-2.71Z" transform="translate(-7824.716 -3568.349)" fill="#7a4f2b" fill-rule="evenodd"/>
      <path id="Trazado_107683" data-name="Trazado 107683" d="M1103.987,627.649s-6.615-2.261-4.671-6.608c.98-2.189,4.5-.079,7.943,1.616,3.394,1.67,6.719,2.91,6.719,2.91l-1.062,2.819a1.018,1.018,0,0,1-1.13.645Z" transform="translate(-7798.765 -3569.759)" fill="#7a4f2b" fill-rule="evenodd"/>
      <path id="Trazado_107684" data-name="Trazado 107684" d="M1173.886,659.975s3.336.373,3.057,1.615-3.709.032-3.709.032Z" transform="translate(-7859.883 -3602.568)" fill="#4a2a1a" fill-rule="evenodd"/>
      <path id="Trazado_107685" data-name="Trazado 107685" d="M1110.806,601.4c0,1.191,1.468,1.785,2.446,1.5l4.082-2.657-.87-1.1-3.682,1.383Z" transform="translate(-7808.514 -3552.51)" fill="#c95836" fill-rule="evenodd"/>
      <path id="Trazado_107686" data-name="Trazado 107686" d="M1172.357,600.341c.274.951.355,2.083-.734,2.239a1.713,1.713,0,0,1-1.188-.292l-2.4-1.605.621-1.267,2.318.5Z" transform="translate(-7855.609 -3552.736)" fill="#c95836" fill-rule="evenodd"/>
      <path id="Trazado_107687" data-name="Trazado 107687" d="M1159.406,642.264l.249-.805s-3.781-1.814-4.188-2.368" transform="translate(-7845.263 -3585.383)" fill="none" stroke="#663b24" stroke-linecap="round" stroke-linejoin="round" stroke-width="0.818"/>
      <path id="Trazado_107688" data-name="Trazado 107688" d="M1140.573,665.01s-3.527-.593-3.987-.674" transform="translate(-7829.727 -3606.155)" fill="none" stroke="#663b24" stroke-linecap="round" stroke-linejoin="round" stroke-width="0.818"/>
      <path id="Trazado_107689" data-name="Trazado 107689" d="M1146.862,531.3a.919.919,0,0,1,.841.982c-.014.92-.732.834-.732.834Z" transform="translate(-7838.183 -3496.686)" fill="#4a2a1a" fill-rule="evenodd"/>
      <path id="Trazado_107690" data-name="Trazado 107690" d="M1135.415,533.7a.637.637,0,0,1,.339-.835l1.129-.476a.679.679,0,0,1,.835.34,6.808,6.808,0,0,1,.617,1.774.772.772,0,0,1-.381.881c-.346.146-1.523.254-1.884-.323a9.148,9.148,0,0,1-.656-1.36" transform="translate(-7828.722 -3497.547)" fill="#c95836" fill-rule="evenodd"/>
      <path id="Trazado_107691" data-name="Trazado 107691" d="M1131.649,532.87s-.5-1.263-.11-1.882a1.857,1.857,0,0,1,2.59-.823.291.291,0,0,1,.025.258c-.152.432-1.937.449-1.487,1.954.1.342-.63.379-1.018.492" transform="translate(-7825.451 -3495.552)" fill="#4a2a1a" fill-rule="evenodd"/>
      <path id="Trazado_107692" data-name="Trazado 107692" d="M1135.94,544.524a.441.441,0,1,0-.038-.679.485.485,0,0,0,.038.679" transform="translate(-7829.064 -3506.927)" fill="#c95836" fill-rule="evenodd"/>
      <path id="Trazado_107693" data-name="Trazado 107693" d="M1147.182,544.518l-.568.226s.165.383.425.242.143-.469.143-.469" transform="translate(-7837.979 -3507.563)" fill="#fff" fill-rule="evenodd"/>
      <path id="Trazado_107694" data-name="Trazado 107694" d="M1141.014,527.295c.1.44-.319.912-.937,1.053s-1.2-.1-1.3-.542.319-.912.937-1.053,1.2.1,1.3.541" transform="translate(-7831.517 -3492.911)" fill="#4a2a1a" fill-rule="evenodd"/>
      <path id="Trazado_107695" data-name="Trazado 107695" d="M1135.5,532.27c.1.44-.319.912-.937,1.053s-1.2-.1-1.3-.542.319-.912.937-1.053,1.2.1,1.3.542" transform="translate(-7826.982 -3497.005)" fill="#4a2a1a" fill-rule="evenodd"/>
      <path id="Trazado_107696" data-name="Trazado 107696" d="M1146.219,549.631l-.037.638-.706-.627a1.01,1.01,0,0,0,.743-.011" transform="translate(-7837.042 -3511.77)" fill="#873b24" fill-rule="evenodd"/>
      <path id="Trazado_107697" data-name="Trazado 107697" d="M1109.46,564.034s-1.277.852-1.607,4.066l-.22,1.41,3.826.088s.707-5.232-.413-5.564-1.585,0-1.585,0" transform="translate(-7805.903 -3523.5)" fill="#c9beb5" fill-rule="evenodd"/>
      <path id="Trazado_107698" data-name="Trazado 107698" d="M1163.817,560.747s1.64.394,3.424,4.065c0,0-1.074,2.158-2.045,2,0,0-1.688-2.246-1.759-2.246s.38-3.823.38-3.823" transform="translate(-7851.815 -3520.917)" fill="#c9beb5" fill-rule="evenodd"/>
      <path id="Trazado_107699" data-name="Trazado 107699" d="M1129.232,581.128l.224-2.855-.112-.373" transform="translate(-7823.676 -3535.031)" fill="none" stroke="#99908a" stroke-linecap="round" stroke-linejoin="round" stroke-width="2"/>
      <path id="Trazado_107700" data-name="Trazado 107700" d="M1165.381,576.259l-.169-1.411.085-.3" transform="translate(-7853.282 -3532.272)" fill="none" stroke="#99908a" stroke-linecap="round" stroke-linejoin="round" stroke-width="2"/>
      <path id="Trazado_107701" data-name="Trazado 107701" d="M1085.547,684.091h25.078V673.516h-25.078c2.439,0,2.439,10.575,0,10.575" transform="translate(-7787.729 -3613.71)" fill="#faf3ed"/>
      <path id="Trazado_107702" data-name="Trazado 107702" d="M1083.167,669.544h24.971v-1.285h-24.971a.642.642,0,0,0,0,1.285" transform="translate(-7785.242 -3609.384)" fill="#f38c7e"/>
      <path id="Trazado_107703" data-name="Trazado 107703" d="M1083.215,730.884h24.923V729.5h-24.923a.69.69,0,1,0,0,1.38" transform="translate(-7785.242 -3659.78)" fill="#f38c7e"/>
      <path id="Trazado_107704" data-name="Trazado 107704" d="M1189.411,668.076h25.921c.555,0,.555,12.229,0,12.229h-25.921c2.94,0,2.94-12.229,0-12.229" transform="translate(-7873.195 -3609.234)" fill="#f38c7e"/>
      <path id="Trazado_107705" data-name="Trazado 107705" d="M1199.208,668.076h29.3a3.884,3.884,0,0,1,3.884,3.884v4.461a3.884,3.884,0,0,1-3.884,3.884h-29.3c2.94,0,2.94-12.229,0-12.229" transform="translate(-7881.257 -3609.234)" fill="#db6e5f"/>
      <line id="Línea_260" data-name="Línea 260" x1="15.722" transform="translate(-6699.506 -2938.41)" fill="none" stroke="#c9c1b8" stroke-linecap="round" stroke-linejoin="round" stroke-width="1.615"/>
      <line id="Línea_261" data-name="Línea 261" x1="15.722" transform="translate(-6699.506 -2935.947)" fill="none" stroke="#c9c1b8" stroke-linecap="round" stroke-linejoin="round" stroke-width="1.615"/>
      <line id="Línea_262" data-name="Línea 262" x1="15.722" transform="translate(-6699.506 -2933.485)" fill="none" stroke="#c9c1b8" stroke-linecap="round" stroke-linejoin="round" stroke-width="1.615"/>
      <line id="Línea_263" data-name="Línea 263" x1="15.722" transform="translate(-6699.506 -2931.022)" fill="none" stroke="#c9c1b8" stroke-linecap="round" stroke-linejoin="round" stroke-width="1.615"/>
      <path id="Trazado_107706" data-name="Trazado 107706" d="M1236.293,667.919h-3.477c1.891,0,1.891,12.295,0,12.295h3.477c1.891,0,1.891-12.295,0-12.295" transform="translate(-7908.911 -3609.104)" fill="#fff"/>
      <path id="Trazado_107707" data-name="Trazado 107707" d="M1267.135,667.919h-1.955c1.891,0,1.891,12.295,0,12.295h1.955c1.891,0,1.891-12.295,0-12.295" transform="translate(-7935.542 -3609.104)" fill="#fff"/>
      <path id="Trazado_107708" data-name="Trazado 107708" d="M1381.95,150.767a5.147,5.147,0,1,1-5.382-4.9,5.147,5.147,0,0,1,5.382,4.9" transform="translate(-8023.162 -3179.523)" fill="#dbbe36"/>
      <path id="Trazado_107709" data-name="Trazado 107709" d="M1388.086,166.533c.018.384-.168.7-.417.715s-.464-.29-.482-.673.169-.7.417-.715.464.29.482.673" transform="translate(-8035.937 -3195.979)" fill="#541d1d"/>
      <path id="Trazado_107710" data-name="Trazado 107710" d="M1409.287,165.539c.018.384-.169.7-.417.715s-.464-.29-.482-.673.169-.7.417-.715.464.29.482.673" transform="translate(-8053.382 -3195.161)" fill="#541d1d"/>
      <path id="Trazado_107711" data-name="Trazado 107711" d="M1390.08,182.886a2.183,2.183,0,0,0,3.65.093" transform="translate(-8038.318 -3209.99)" fill="none" stroke="#541d1d" stroke-linecap="round" stroke-linejoin="round" stroke-width="2.257"/>
      <path id="Trazado_107712" data-name="Trazado 107712" d="M1333.164,201.528l-1.742,5.988,6.765-3.207Z" transform="translate(-7990.05 -3225.329)" fill="#fff"/>
      <path id="Trazado_107713" data-name="Trazado 107713" d="M1382.683,190.88l8.458-.016s6.809.1,7.7-7.539" transform="translate(-8032.231 -3210.351)" fill="none" stroke="#1f1406" stroke-linecap="round" stroke-linejoin="round" stroke-width="2"/>
      <path id="Trazado_107714" data-name="Trazado 107714" d="M1537.216,488.658h7.012v7.147" transform="translate(-8159.39 -3461.597)" fill="none" stroke="#1f1406" stroke-linecap="round" stroke-linejoin="round" stroke-width="2"/>
    </g>
  </g>
</svg>
