<svg xmlns="http://www.w3.org/2000/svg" width="295" height="456" viewBox="0 0 295 456">
  <g id="Grupo_62410" data-name="Grupo 62410" transform="translate(-810 -9784.326)">
    <rect id="Rectángulo_5557" data-name="Rectángulo 5557" width="295" height="456" rx="15" transform="translate(810 9784.326)" fill="#f8de63"/>
    <g id="Grupo_62327" data-name="Grupo 62327" transform="translate(0 -70)">
      <g id="Grupo_62326" data-name="Grupo 62326" transform="translate(7.281 7.904)">
        <path id="Trazado_107772" data-name="Trazado 107772" d="M254.682,51.195c11.652,43.176-35.518,93.457-105.358,112.306s-135.9-.873-147.556-44.048S37.286,26,107.126,7.146s135.9.873,147.556,44.048" transform="translate(864.895 10206.821) rotate(-90)" fill="#ffed97" opacity="0.6"/>
        <g id="Grupo_62323" data-name="Grupo 62323" transform="translate(827.437 9992.29)">
          <path id="Trazado_107333" data-name="Trazado 107333" d="M549.562,159.719a27.446,27.446,0,0,1-7.147-1.469l.446-1.262a26.136,26.136,0,0,0,6.8,1.4Zm7.265-.29-.192-1.325a41.148,41.148,0,0,0,6.826-1.622l.416,1.272a42.444,42.444,0,0,1-7.049,1.675m13.742-4.4-.586-1.2a61.889,61.889,0,0,0,6.156-3.458l.72,1.129a63.282,63.282,0,0,1-6.289,3.533m-34.619-.188a25.767,25.767,0,0,1-5.209-5.116l1.063-.815a24.417,24.417,0,0,0,4.937,4.85Zm46.781-7.518-.827-1.053c1.818-1.428,3.623-2.983,5.364-4.62l.917.976c-1.77,1.663-3.605,3.244-5.454,4.7m-55.663-3.888a37.7,37.7,0,0,1-2.219-6.911l1.307-.289a36.461,36.461,0,0,0,2.139,6.664Zm66.152-5.945-.993-.9c1.564-1.727,3.095-3.556,4.551-5.434l1.058.821c-1.477,1.9-3.03,3.76-4.616,5.513m-69.372-8.131c-.076-1.167-.115-2.373-.115-3.584,0-1.19.037-2.413.111-3.635l1.336.081c-.072,1.2-.108,2.391-.108,3.554,0,1.182.038,2.359.112,3.5Zm78.182-3.22-1.115-.741q.747-1.125,1.473-2.282c.772-1.232,1.525-2.5,2.241-3.759l1.165.66c-.725,1.279-1.489,2.56-2.271,3.81q-.735,1.173-1.493,2.312M525.987,115.2l-1.32-.222c.387-2.312.9-4.68,1.524-7.037l1.295.342c-.614,2.318-1.118,4.644-1.5,6.916m83.12-1.561-1.21-.573c1.016-2.146,1.954-4.338,2.786-6.517l1.251.478c-.845,2.21-1.8,4.434-2.827,6.611M529.59,101.523l-1.261-.451c.8-2.226,1.7-4.471,2.687-6.67l1.221.548c-.972,2.168-1.863,4.379-2.647,6.573m84.637-1.314-1.286-.374c.668-2.3,1.23-4.611,1.672-6.877l1.314.256c-.45,2.306-1.022,4.66-1.7,7m-78.85-11.615-1.178-.637c1.006-1.859,2.09-3.72,3.224-5.53l.419-.664,1.13.718-.415.657c-1.118,1.786-2.188,3.621-3.181,5.456m81.575-2.513-1.333-.121c.169-1.856.254-3.7.254-5.483q0-.791-.022-1.571l1.338-.037q.022.8.023,1.608c0,1.823-.087,3.708-.26,5.6M543,76.642l-1.075-.8c1.436-1.932,2.95-3.818,4.5-5.606l1.011.877c-1.529,1.763-3.022,3.623-4.438,5.528M615.163,71.9a38.83,38.83,0,0,0-1.8-6.774l1.256-.463a40.235,40.235,0,0,1,1.861,7.007Zm-62.881-5.957-.939-.955c1.731-1.7,3.528-3.326,5.339-4.825l.853,1.032c-1.782,1.474-3.55,3.072-5.254,4.748m10.909-9-.751-1.108a66.189,66.189,0,0,1,6.175-3.722l.626,1.183a64.935,64.935,0,0,0-6.05,3.647m12.476-6.542-.467-1.255a45.256,45.256,0,0,1,6.961-1.991l.26,1.313a43.877,43.877,0,0,0-6.753,1.933" transform="translate(-410.498 -34.848)" fill="#b5d6ea"/>
          <path id="Trazado_107334" data-name="Trazado 107334" d="M83.458,405.574l2.877-15.855a51.746,51.746,0,0,0-14.063-17.2l-5.066,20.172-1.281-24.777a94.366,94.366,0,0,0-15.408-7.936l-4.195,16.7L45.357,358a154.7,154.7,0,0,0-16.989-4.959L28.173,364.4l-3.178-12.124A239.731,239.731,0,0,0,0,348.362a156,156,0,0,0,8.811,22.072l15.819-.954-13.787,5a138.376,138.376,0,0,0,9.372,15.547l17.471-4.959-14.252,9.325a83.927,83.927,0,0,0,15.272,15.433L60.689,402.7,44.14,413.53a50.267,50.267,0,0,0,19.831,7.06l14.78-8.325-7.9,8.7a57.744,57.744,0,0,0,18.991-3.719,39.928,39.928,0,0,0-1.017-21.317Z" transform="translate(0 -257.404)" fill="#b5d6ea"/>
          <path id="Trazado_107335" data-name="Trazado 107335" d="M101,427.793q-2.444-2.078-4.852-4.189l-4.89-4.137q-4.888-4.137-9.861-8.165c-6.645-5.353-13.35-10.629-20.171-15.753-6.8-5.155-13.709-10.161-20.642-15.141q-5.2-3.735-10.468-7.38l-10.5-7.345c3.691,2.159,7.313,4.427,10.948,6.68q5.4,3.459,10.739,7.014c7.116,4.746,14.072,9.731,20.91,14.872,6.815,5.171,13.517,10.5,19.989,16.1q4.85,4.2,9.587,8.528C94.9,421.805,98,424.745,101,427.793" transform="translate(-14.492 -270.203)" fill="#fff"/>
          <path id="Trazado_107336" data-name="Trazado 107336" d="M103.01,544.74l-4.048-7.377a33.1,33.1,0,0,0-11.935-3.428l4.533,9.759L82.7,533.705a56.254,56.254,0,0,0-9.422.794l3.753,8.08-6.682-7.533A86.29,86.29,0,0,0,61.23,537.5l3.721,4.79-5.456-4.208a127.154,127.154,0,0,0-12.283,5.022,97.632,97.632,0,0,0,11.261,6.857l6.624-4.609-4.377,5.755a88.454,88.454,0,0,0,9.322,3.987l6.007-6.719-3.133,7.682a53.407,53.407,0,0,0,11.873,2.369l7.264-8.822-3.637,8.92a28.636,28.636,0,0,0,11.07-2.336l3.7-7.406-.554,5.729a26.7,26.7,0,0,0,7.09-6.607,22.474,22.474,0,0,0-7.587-8.617Z" transform="translate(-34.885 -394.353)" fill="#7fb8db"/>
          <path id="Trazado_107337" data-name="Trazado 107337" d="M118.153,575.547c-4.694-.6-9.386-1.164-14.087-1.632s-9.405-.9-14.12-1.194c-4.71-.365-9.429-.6-14.149-.826s-9.445-.387-14.174-.574c4.73-.166,9.463-.169,14.2-.079s9.462.333,14.187.632c4.72.368,9.438.789,14.134,1.395s9.376,1.332,14.014,2.279" transform="translate(-45.532 -422.046)" fill="#fff"/>
          <path id="Trazado_107338" data-name="Trazado 107338" d="M608.034,425.575,601.3,412.812a33.959,33.959,0,0,1,6.8-15.771l9.72,16.08-5.78-20.591a60.7,60.7,0,0,1,10.458-8.274l8.048,13.314-4.359-15.527a106.589,106.589,0,0,1,12.577-5.994l3.293,9.358-.734-10.361a176.17,176.17,0,0,1,19.435-6.029,117.561,117.561,0,0,1-1.146,19.2l-13.247.984,12.695,2.583a95.439,95.439,0,0,1-3.406,13.879l-15.707-2.137,14.269,6.1a53.555,53.555,0,0,1-8.28,14.445l-20.006-3.417L642.5,427.74a33.891,33.891,0,0,1-14.33,8.046l-14.426-5.217,8.88,6.293a51.707,51.707,0,0,1-16.612-.943,36.836,36.836,0,0,1-5.042-17.706Z" transform="translate(-467.567 -272.667)" fill="#b5d6ea"/>
          <path id="Trazado_107339" data-name="Trazado 107339" d="M628.385,445.875c1.628-2.833,3.368-5.6,5.121-8.359q2.7-4.094,5.532-8.1c3.781-5.339,7.819-10.491,11.993-15.526,4.2-5.014,8.537-9.913,13.059-14.634q3.4-3.537,6.863-7c2.35-2.271,4.691-4.55,7.107-6.749l-6.623,7.216q-3.316,3.6-6.571,7.249c-4.328,4.878-8.622,9.781-12.782,14.8-4.185,4.995-8.233,10.1-12.2,15.271q-2.976,3.879-5.827,7.854l-2.861,3.971Z" transform="translate(-487.826 -284.851)" fill="#fff"/>
          <path id="Trazado_107340" data-name="Trazado 107340" d="M689.235,530.937l.623-8.046a24.1,24.1,0,0,1,8.214-6.551l-.175,10.414,3.507-11.84a39.77,39.77,0,0,1,7.7-1.892l-.145,8.623,2.645-8.929a63.887,63.887,0,0,1,8.043-.249L718.383,518l2.836-5.47A98.942,98.942,0,0,1,732.65,513.8a79.251,79.251,0,0,1-6.489,9.576l-6.827-2.467,5.454,4.169a67.01,67.01,0,0,1-5.96,6.344l-7.074-4.616,5.144,6.323a37.973,37.973,0,0,1-8.535,5.541l-8.8-6.236,5.972,7.342a20.882,20.882,0,0,1-9.539.907l-5.494-5.906,2.431,5.214a25.034,25.034,0,0,1-7.889-4.208,21.678,21.678,0,0,1,2.981-10.2Z" transform="translate(-529.692 -378.638)" fill="#7fb8db"/>
          <path id="Trazado_107341" data-name="Trazado 107341" d="M691.672,543.327c3.318-2.163,6.752-4.146,10.244-6.021s7.066-3.592,10.663-5.256c3.623-1.607,7.27-3.158,10.971-4.574s7.432-2.743,11.213-3.925c-3.671,1.486-7.344,2.952-10.99,4.48s-7.286,3.069-10.873,4.726c-3.613,1.6-7.17,3.321-10.71,5.077s-7.036,3.6-10.517,5.491" transform="translate(-534.587 -386.852)" fill="#fff"/>
          <path id="Trazado_107342" data-name="Trazado 107342" d="M285.8,165.745a36.369,36.369,0,0,1-7.107-1.491l.4-1.278a34.987,34.987,0,0,0,6.844,1.437Zm7.3-.278-.259-1.313a17.29,17.29,0,0,0,6.325-2.573l.745,1.112a18.618,18.618,0,0,1-6.812,2.774M271.971,161.6a65.81,65.81,0,0,1-6.321-3.472l.706-1.138a64.339,64.339,0,0,0,6.191,3.4Zm33.088-4.166-1.123-.728a22.226,22.226,0,0,0,2.748-6.331l1.293.348a23.564,23.564,0,0,1-2.918,6.712m-45.342-3.383c-1.867-1.407-3.74-2.939-5.567-4.553l.886-1c1.8,1.592,3.647,3.1,5.486,4.488Zm-10.781-9.5c-1.654-1.681-3.292-3.458-4.869-5.282l1.013-.876c1.558,1.8,3.176,3.559,4.81,5.219Zm60.128-1.016-1.337-.067q.052-1.03.051-2.095a49.336,49.336,0,0,0-.258-4.935l1.333-.135c.175,1.735.264,3.441.265,5.07q0,1.1-.053,2.161m-69.522-9.84q-1.03-1.351-2.036-2.749-1.106-1.537-2.147-3.087l1.111-.747q1.029,1.532,2.123,3.052.994,1.383,2.013,2.719Zm66.851-4.226c-.488-2.227-1.107-4.526-1.841-6.833l1.275-.406c.747,2.345,1.377,4.684,1.873,6.952Zm-74.858-7.689c-1.22-2.079-2.376-4.2-3.436-6.307l1.2-.6c1.046,2.081,2.189,4.177,3.394,6.232Zm70.594-5.8c-.875-2.144-1.856-4.319-2.916-6.465l1.2-.592c1.073,2.174,2.068,4.378,2.955,6.551Zm-77.035-7.032c-.941-2.252-1.788-4.519-2.517-6.737l1.272-.417c.718,2.185,1.553,4.419,2.48,6.638Zm70.769-5.688c-1.172-2.028-2.43-4.058-3.74-6.033l1.116-.74c1.325,2,2.6,4.052,3.783,6.1Zm-75.229-7.981a64.9,64.9,0,0,1-1.239-7.1l1.33-.153a63.668,63.668,0,0,0,1.214,6.957Zm67.392-3.851c-1.425-1.895-2.918-3.759-4.437-5.541l1.019-.868c1.537,1.8,3.047,3.688,4.489,5.6ZM220.4,80.985l-1.338-.042a35.693,35.693,0,0,1,.921-7.206l1.3.313a34.417,34.417,0,0,0-.885,6.935m58.412-.357c-1.665-1.717-3.384-3.373-5.108-4.922l.894-1c1.748,1.569,3.489,3.247,5.175,4.985Zm-10.556-9.456c-1.915-1.471-3.865-2.838-5.8-4.065l.718-1.13c1.964,1.249,3.947,2.639,5.892,4.134Zm-11.947-7.541a50.818,50.818,0,0,0-6.507-2.691l.42-1.272a52.244,52.244,0,0,1,6.679,2.763Z" transform="translate(-185.379 -44.089)" fill="#b5d6ea"/>
          <path id="Trazado_107343" data-name="Trazado 107343" d="M227.741,17.212A12.4,12.4,0,1,0,234.369.972a12.4,12.4,0,0,0-6.628,16.24" transform="translate(-191.072 0)" fill="#db6e5f"/>
          <path id="Trazado_107344" data-name="Trazado 107344" d="M267.382,28.454a2.982,2.982,0,0,1-.373,1.493,4.719,4.719,0,0,1-1.395,1.39l-.652.472a3.481,3.481,0,0,0-.87.85,1.829,1.829,0,0,0-.314.943h-2.291a3.182,3.182,0,0,1,.494-1.562,4.752,4.752,0,0,1,1.3-1.287,5.992,5.992,0,0,0,1.3-1.12,1.71,1.71,0,0,0,.378-1.077,1.513,1.513,0,0,0-.493-1.193,2.047,2.047,0,0,0-1.4-.438,2.149,2.149,0,0,0-1.454.507,2.025,2.025,0,0,0-.691,1.339l-2.446-.1a4.009,4.009,0,0,1,1.433-2.712,4.819,4.819,0,0,1,3.123-.969,5.017,5.017,0,0,1,3.2.922,3.071,3.071,0,0,1,1.163,2.544m-5.964,6.487h2.48v2.317h-2.48Z" transform="translate(-214.493 -18.464)" fill="#fff"/>
          <path id="Trazado_107345" data-name="Trazado 107345" d="M454.384,610.47h-192.9a4.7,4.7,0,0,1-4.544-4.834v-3.153H458.928v3.153a4.7,4.7,0,0,1-4.544,4.834" transform="translate(-213.365 -445.174)" fill="#265173"/>
          <path id="Trazado_107346" data-name="Trazado 107346" d="M284.717,279.815H169.74a8.269,8.269,0,0,1-7.459-5.553l-31.02-102.914a4.061,4.061,0,0,1,4.111-5.553H250.35a8.268,8.268,0,0,1,7.458,5.553l31.02,102.914a4.061,4.061,0,0,1-4.111,5.553" transform="translate(-120.326 -122.506)" fill="#265173"/>
          <path id="Trazado_107347" data-name="Trazado 107347" d="M375.149,587.809h-116.7a8.536,8.536,0,0,1-6.448-3.349,8.334,8.334,0,0,0,7.129,4.706H374.111a4.154,4.154,0,0,0,3.968-2.258,4.774,4.774,0,0,1-2.93.9" transform="translate(-209.719 -431.856)" fill="#22365b"/>
          <path id="Trazado_107348" data-name="Trazado 107348" d="M305.125,289.271H189.649l-29.572-98.108H275.553Z" transform="translate(-141.793 -141.25)" fill="#fff"/>
          <path id="Trazado_107349" data-name="Trazado 107349" d="M311.923,517.745H298.637c-2.3,0-3.618,1.865-2.942,4.165a6.022,6.022,0,0,0,5.389,4.165h13.286c2.3,0,3.618-1.865,2.942-4.165a6.022,6.022,0,0,0-5.388-4.165" transform="translate(-241.87 -382.561)" fill="#e1f0fa"/>
          <path id="Trazado_107350" data-name="Trazado 107350" d="M618.777,517.745h-8.033c-2.3,0-3.618,1.865-2.942,4.165a6.021,6.021,0,0,0,5.388,4.165h8.033c2.3,0,3.618-1.865,2.942-4.165a6.021,6.021,0,0,0-5.388-4.165" transform="translate(-472.486 -382.561)" fill="#e1f0fa"/>
          <path id="Trazado_107351" data-name="Trazado 107351" d="M217.375,214.454c.893,3.04-.848,5.5-3.888,5.5a7.957,7.957,0,0,1-7.12-5.5c-.893-3.04.848-5.5,3.888-5.5a7.957,7.957,0,0,1,7.12,5.5" transform="translate(-175.824 -154.393)" fill="#e1f0fa"/>
          <path id="Trazado_107352" data-name="Trazado 107352" d="M788.719,261.514a21.9,21.9,0,0,0-3.147-1.823c-.189.123.882,1.224.882,1.224s-3.109-.453-3.094.093c.009.319,1.7.465,1.7.465s-1.7.248-1.589.666a3.044,3.044,0,0,0,1.683,1.685c.856.266,4.038-1.353,4.038-1.353Z" transform="translate(-602.337 -191.881)" fill="#f79885"/>
          <path id="Trazado_107353" data-name="Trazado 107353" d="M830.873,249.989s-11.124,4.386-28.765,3.949l.218,2.534s12.8,5.6,29.967-.7c0,0,2.127-5.219-1.421-5.784" transform="translate(-616.189 -184.716)" fill="#c14432"/>
          <path id="Trazado_107354" data-name="Trazado 107354" d="M336.016,290.3c-10.605,0-21.774-4.127-31.447-11.62-9.626-7.451-16.63-17.367-19.723-27.919-3.222-10.966-1.85-21.211,3.865-28.846,5.4-7.213,14.086-11.186,24.464-11.186a42.742,42.742,0,0,1,8.369.839c16.939,3.311,33.212,16.364,40.491,32.478a46.594,46.594,0,0,1,2.31,6.213c3.243,11.071,1.822,21.379-4,29.023-5.408,7.1-14.047,11.017-24.327,11.017" transform="translate(-232.725 -155.706)" fill="#e1f0fa"/>
          <path id="Trazado_107355" data-name="Trazado 107355" d="M310.647,209.094a41.807,41.807,0,0,1,8.194.821c16.664,3.258,32.64,16,39.852,31.971a45.483,45.483,0,0,1,2.267,6.1c3.258,11.121,1.544,21.145-3.856,28.231-5.034,6.614-13.254,10.666-23.617,10.666-10.764,0-21.787-4.374-30.9-11.434-9.086-7.033-16.271-16.744-19.413-27.464-6.31-21.475,5.989-38.888,27.473-38.888m0-1.785c-10.666,0-19.607,4.1-25.178,11.543-5.888,7.867-7.311,18.391-4.007,29.634,3.145,10.73,10.259,20.807,20.033,28.372,9.828,7.613,21.19,11.807,31.993,11.807,10.565,0,19.457-4.038,25.037-11.37,6-7.875,7.474-18.463,4.148-29.814a47.468,47.468,0,0,0-2.355-6.334c-7.39-16.361-23.921-29.619-41.134-32.984a43.655,43.655,0,0,0-8.536-.854" transform="translate(-230.197 -153.18)" fill="#b5d6ea"/>
          <path id="Trazado_107356" data-name="Trazado 107356" d="M559.918,214.142c-8.419,5.711-4.313,47.913,9.967,53.268s37.6-28.74,37.6-28.74l-10.994-4.055s-11.915,8.146-21.138,9.634c0,0-11.157-25.958-15.434-30.107" transform="translate(-434.03 -158.229)" fill="#c7a91e"/>
          <path id="Trazado_107357" data-name="Trazado 107357" d="M686.778,156.545a23.939,23.939,0,1,1-23.939-23.939,23.939,23.939,0,0,1,23.939,23.939" transform="translate(-495.596 -97.982)" fill="#fff"/>
          <path id="Trazado_107358" data-name="Trazado 107358" d="M660.313,178.85a24.831,24.831,0,1,1,24.831-24.831,24.859,24.859,0,0,1-24.831,24.831m0-47.877a23.045,23.045,0,1,0,16.3,6.75,23.072,23.072,0,0,0-16.3-6.75" transform="translate(-493.069 -95.457)" fill="#db6e5f"/>
          <rect id="Rectángulo_5591" data-name="Rectángulo 5591" width="7.83" height="5.654" transform="translate(163.245 43.329)" fill="#db6e5f"/>
          <path id="Trazado_107359" data-name="Trazado 107359" d="M725.377,207.931H715.268v19.5H723.1V209.71h2.278Z" transform="translate(-552.023 -153.64)" fill="#db6e5f"/>
          <path id="Trazado_107360" data-name="Trazado 107360" d="M423.41,234.753c-.286,13.451-1.133,27.419-1.589,34.327-5.034,6.614-13.254,10.666-23.617,10.666-10.764,0-21.787-4.373-30.9-11.434.8-13.852,4.061-51.607,16.253-65.531.25-.286.5-.553.759-.821,5.659-5.525,30.829-5.953,36.487,0,2.535,2.678,2.936,17.4,2.606,32.792" transform="translate(-294.913 -146.047)" fill="#dbbe36"/>
          <path id="Trazado_107361" data-name="Trazado 107361" d="M467.277,259.1a94.578,94.578,0,0,1-9.6,2.267s-14.079-35.312-27.069-26.5c-10.045,6.814.061,48.279,17.1,54.668,5.081,1.906,11.7.373,18.476-2.714.445-7.781.93-17.989,1.1-27.72" transform="translate(-338.739 -172.499)" fill="#c7a91e"/>
          <path id="Trazado_107362" data-name="Trazado 107362" d="M659.793,289.087s6.1-10.946,7.332-10.33-1.357,5.921-1.357,5.921,8.388,2.344,10.731,2.1.987,5.369-5.551,5.83-7.524-.9-10.361,1.448Z" transform="translate(-511.032 -205.955)" fill="#f79885"/>
          <path id="Trazado_107363" data-name="Trazado 107363" d="M426.363,215.737c-8.419,5.711,4.089,50.835,18.37,56.191s44.411-20.006,44.411-20.006l-3.346-11.39s-22.811,8.192-32.034,9.679c0,0-16.514-41.859-27.4-34.474" transform="translate(-336.54 -158.762)" fill="#dbbe36"/>
          <path id="Trazado_107364" data-name="Trazado 107364" d="M488.492,197.263s-.287,5.88,5.849,14.136l6.694-4.574,6.335,3.124A87.355,87.355,0,0,0,505.2,198.7s-8.412-2.667-16.7-1.436" transform="translate(-384.457 -145.518)" fill="#c7a91e"/>
          <path id="Trazado_107365" data-name="Trazado 107365" d="M493.745,97.312A60.925,60.925,0,0,0,501.2,78.97c2.494-10.88-4.128-14.689,6.274-16.468s13.1.087,13.324,9.093-2.246,21.038-5.137,22.151c-1.388.534-5.19-.615-5.19-.615s-2.274,9.95-5.684,12.4c-6.459-.487-11.038-8.223-11.038-8.223" transform="translate(-388.34 -45.733)" fill="#f79885"/>
          <path id="Trazado_107366" data-name="Trazado 107366" d="M538.077,56.342c-.906,1.68-1.954,4.6-14.343,2.1-1.03,1.174-.712,3.106-1.254,5.469,0,0-1.815-3.62-3.077-.706-.26.6-.811,3.315,1.929,3.527,0,0-3.377,7.435-8.038,6.367,1.851-7.9-4.476-24.686,4.927-24.566-3.147-7.808,12.009-2.549,11.409.473l1.357.166c9.756-2.267,8.855,3.893,7.088,7.17" transform="translate(-402.497 -32.846)" fill="#12263f"/>
          <path id="Trazado_107367" data-name="Trazado 107367" d="M543.071,175.479a56.169,56.169,0,0,1-5.2-2.137,29.137,29.137,0,0,0,4.5,4.77s.476-1.538.705-2.633" transform="translate(-420.944 -128.082)" fill="#f0786a"/>
          <path id="Trazado_107368" data-name="Trazado 107368" d="M536.7,106.376c-.236,2.417-1.931,4.229-3.785,4.048s-3.166-2.287-2.93-4.7,1.931-4.229,3.785-4.048,3.166,2.287,2.93,4.7" transform="translate(-415.101 -75.116)" fill="#22365b"/>
          <path id="Trazado_107369" data-name="Trazado 107369" d="M540.064,73.7s-.549-14.2,9.733-12.9l1.256.39s-9.316-1.153-9.316,12.738Z" transform="translate(-422.561 -44.86)" fill="#5aa5d1"/>
          <path id="Trazado_107370" data-name="Trazado 107370" d="M551.686,133.83h0c-9.57-.057-11.645-10.132-11.666-10.234a.446.446,0,0,1,.876-.171c.076.386,1.962,9.461,10.8,9.513a.446.446,0,0,1,0,.892" transform="translate(-422.525 -90.932)" fill="#22365b"/>
          <path id="Trazado_107371" data-name="Trazado 107371" d="M585.7,159.143c0,.672-.475,1.218-1.535,1.218s-2.3-.545-2.3-1.218,1.242-1.218,2.3-1.218,1.535.545,1.535,1.218" transform="translate(-453.448 -116.69)" fill="#22365b"/>
          <path id="Trazado_107372" data-name="Trazado 107372" d="M536.983,109.146c-.18,1.839-1.47,3.219-2.881,3.081s-2.41-1.741-2.23-3.58,1.47-3.219,2.881-3.081,2.41,1.741,2.23,3.58" transform="translate(-416.497 -77.995)" fill="#5aa5d1"/>
          <path id="Trazado_107373" data-name="Trazado 107373" d="M523.433,341.514l-5.5,1.488,4.222-4.572a13.5,13.5,0,0,1,1.282,3.085" transform="translate(-406.209 -250.065)" fill="#008eb0"/>
          <path id="Trazado_107374" data-name="Trazado 107374" d="M903.856,448.646s-2.515,31.94-8.142,35.477c0,0-1.571-22,.42-38.508Z" transform="translate(-684.919 -329.264)" fill="#f79885"/>
          <path id="Trazado_107375" data-name="Trazado 107375" d="M958.263,442.04s7.639,35.905,3.089,39.442c0,0-8.244-26.771-11.985-37.993Z" transform="translate(-724.998 -326.623)" fill="#f79885"/>
          <path id="Trazado_107376" data-name="Trazado 107376" d="M987.216,589.051l.561,3.442h-4.354a20.969,20.969,0,0,0,2.776-3.53Z" transform="translate(-750.163 -435.184)" fill="#eb5654"/>
          <path id="Trazado_107377" data-name="Trazado 107377" d="M885.937,589.051l.561,3.442h-5.99s3.237-1.59,4.412-3.53Z" transform="translate(-674.119 -435.184)" fill="#eb5654"/>
          <path id="Trazado_107378" data-name="Trazado 107378" d="M910.776,336.647s4.481,4.675,7.008,28.433c0,0-6.125,7.577-24.83,3.107,0,0,.567-18.48,2.611-30.7,1.995-8.045,15.211-.842,15.211-.842" transform="translate(-683.314 -246.556)" fill="#0d66bf"/>
          <path id="Trazado_107379" data-name="Trazado 107379" d="M904.694,249.989h4.281c4.011,2.129,7.058,14.661,8.664,25.238,0,0-5.634,2.936-15.824,1.578,0,0-.239-19.55,2.879-26.816" transform="translate(-689.86 -184.716)" fill="#db6e5f"/>
          <path id="Trazado_107380" data-name="Trazado 107380" d="M911.53,259.477l-7.119,4.124a54.132,54.132,0,0,1,1.476-8.764l4.222-1.145Z" transform="translate(-691.78 -187.453)" fill="#c14432"/>
          <path id="Trazado_107381" data-name="Trazado 107381" d="M908.5,203.625c-1.823.016-3.986,3.952-3.2,8.521a4.776,4.776,0,0,0,3.112.191l.065,4.63a4.941,4.941,0,0,0,2.707-1.236s-.614-3.025.525-4.937,3.26-7.226-3.209-7.168" transform="translate(-692.312 -150.458)" fill="#f79885"/>
          <path id="Trazado_107382" data-name="Trazado 107382" d="M905.854,200.254c-.3-1.306,1.7-3.287,4.5-2.36,2.121.7,5.5,2.551,3.393,3.115,1.311,1.351,5.115,4.366,2.584,5.462,0,0,3.738,2.96,2.688,6.195-.319.981-2.649,2.847-5.68.235-2.242-1.933-4.3-3.114-3.595-10.868,0,0-3.672-.815-3.895-1.779" transform="translate(-692.824 -146.047)" fill="#12263f"/>
          <path id="Trazado_107383" data-name="Trazado 107383" d="M798.363,283.107a21.926,21.926,0,0,0-3.53-.872c-.147.171,1.189.929,1.189.929s-3.112.433-2.945.953c.1.3,1.764-.029,1.764-.029s-1.56.712-1.34,1.083a3.043,3.043,0,0,0,2.087,1.148c.9.016,3.5-2.427,3.5-2.427Z" transform="translate(-609.511 -208.529)" fill="#f79885"/>
          <path id="Trazado_107384" data-name="Trazado 107384" d="M840.694,253.693s-15.119,6.942-30.228,8.009l.807,2.52s9.164,4.737,30.841-4.745c0,0,2.127-5.219-1.421-5.784" transform="translate(-622.365 -187.453)" fill="#db6e5f"/>
          <path id="Trazado_107385" data-name="Trazado 107385" d="M794.751,20.489h-1.565a10.5,10.5,0,0,0-1.515-3.645l1.111-1.111a2.1,2.1,0,0,0-2.969-2.968L788.7,13.88a10.266,10.266,0,0,0-3.645-1.515V10.8a2.1,2.1,0,0,0-4.2,0v1.57a10.307,10.307,0,0,0-3.645,1.515l-1.111-1.116a2.1,2.1,0,0,0-2.969,2.968l1.116,1.111a10.306,10.306,0,0,0-1.515,3.645h-1.57a2.1,2.1,0,0,0,0,4.2h1.57a10.267,10.267,0,0,0,1.515,3.645l-1.116,1.111a2.1,2.1,0,1,0,2.969,2.968l1.111-1.11a10.5,10.5,0,0,0,3.645,1.515v1.565a2.1,2.1,0,1,0,4.2,0V32.813A10.46,10.46,0,0,0,788.7,31.3l1.111,1.11a2.1,2.1,0,0,0,2.969-2.968l-1.111-1.111a10.454,10.454,0,0,0,1.515-3.645h1.565a2.1,2.1,0,1,0,0-4.2m-11.789,9.386a7.288,7.288,0,1,1,7.285-7.285,7.3,7.3,0,0,1-7.285,7.285m0-13.818a6.53,6.53,0,1,0,6.528,6.533,6.537,6.537,0,0,0-6.528-6.533m0,11a4.471,4.471,0,1,1,4.468-4.468,4.471,4.471,0,0,1-4.468,4.468" transform="translate(-591.779 -6.428)" fill="#b5d6ea"/>
        </g>
      </g>
      <rect id="Rectángulo_5633" data-name="Rectángulo 5633" width="279" height="279" transform="translate(818 9947)" fill="none"/>
    </g>
  </g>
</svg>
