<svg xmlns="http://www.w3.org/2000/svg" xmlns:xlink="http://www.w3.org/1999/xlink" width="295" height="456" viewBox="0 0 295 456">
  <defs>
    <clipPath id="clip-path">
      <path id="Trazado_107242" data-name="Trazado 107242" d="M224.466,255.215A37.512,37.512,0,1,0,261.978,217.7a37.4,37.4,0,0,0-37.512,37.512" transform="translate(-224.466 -217.703)" fill="none"/>
    </clipPath>
  </defs>
  <g id="Grupo_62408" data-name="Grupo 62408" transform="translate(-180 -9784.326)">
    <rect id="Rectángulo_5546" data-name="Rectángulo 5546" width="295" height="456" rx="15" transform="translate(180 9784.326)" fill="#f8de63"/>
    <g id="Grupo_62329" data-name="Grupo 62329" transform="translate(0 -70)">
      <g id="Grupo_62315" data-name="Grupo 62315" transform="translate(9195.82 11730.033)">
        <path id="Trazado_107193" data-name="Trazado 107193" d="M253.042,50.865c11.577,42.9-35.289,92.855-104.68,111.583S13.334,161.581,1.757,118.683,37.046,25.828,106.436,7.1s135.028.867,146.606,43.765" transform="translate(-8948.022 -1512.776) rotate(-90)" fill="#ffed97" opacity="0.6"/>
        <path id="Trazado_107194" data-name="Trazado 107194" d="M93.641,448.753l10.244-18.2a58.959,58.959,0,0,0-10.11-25.334L79.006,427.915,87.879,397.6A109.386,109.386,0,0,0,72.2,383.01L59.969,401.8l6.691-22.859a185.526,185.526,0,0,0-18.89-11.512l-5.036,13.651,1.19-15.664A295.825,295.825,0,0,0,14.7,352.557a184.564,184.564,0,0,0,1.569,29.5l19.94,4L17.076,387.6a159.279,159.279,0,0,0,5.016,21.81l23.67-.3-21.537,6.615a95.194,95.194,0,0,0,12.35,23.592l30.156-1.441-25.008,7.68a59.669,59.669,0,0,0,21.514,14.973L85,455.295,71.58,463.219A77.155,77.155,0,0,0,96.6,464.911a51.111,51.111,0,0,0,7.739-26.055Z" transform="translate(-8995.987 -2009.825)" fill="#97deff"/>
        <path id="Trazado_107195" data-name="Trazado 107195" d="M102.485,475.452c-1.426-2.207-2.826-4.426-4.221-6.647l-4.291-6.6q-4.291-6.592-8.733-13.078c-5.946-8.631-12-17.182-18.265-25.584-6.222-8.432-12.643-16.716-19.108-24.972q-4.848-6.193-9.815-12.3l-9.881-12.261c3.629,3.8,7.136,7.706,10.661,11.6q5.2,5.921,10.279,11.944c6.772,8.035,13.258,16.312,19.537,24.742,6.239,8.46,12.275,17.075,17.922,25.943q4.229,6.655,8.266,13.424c2.618,4.557,5.22,9.121,7.649,13.778" transform="translate(-9005.038 -2024.163)" fill="#fff"/>
        <path id="Trazado_107196" data-name="Trazado 107196" d="M416.462,594.089l10.464,9.307a31.055,31.055,0,0,0,16.039-3.13l-12.93-12.923,17.927,10.1a57.883,57.883,0,0,0,9.832-8.31l-10.705-10.7,13.518,7.614a104.443,104.443,0,0,0,8.151-10.858l-8.01-5.234,9.468,2.977a175.784,175.784,0,0,0,9.595-17.487,107.8,107.8,0,0,0-18.063-3.091l-3.638,12.6.213-12.849a86.9,86.9,0,0,0-13.586.26l-1.246,15.666-2.729-15.141a49.217,49.217,0,0,0-15.114,4.852l-.942,20.107-3.169-17.581a32.961,32.961,0,0,0-10.417,12.106l1.876,15.1-4.016-9.969a53.21,53.21,0,0,0-2.54,16.281,34.942,34.942,0,0,0,15.4,8.752Z" transform="translate(-9257.751 -2143.039)" fill="#53bced"/>
        <path id="Trazado_107197" data-name="Trazado 107197" d="M413.986,603.1l4.313-1.846,4.284-1.9c2.854-1.27,5.692-2.569,8.5-3.925,5.628-2.7,11.217-5.479,16.694-8.471,5.529-2.9,10.947-6,16.351-9.129,2.706-1.559,5.391-3.156,8.068-4.768l8.046-4.825c-2.527,1.847-5.114,3.607-7.7,5.377q-3.915,2.59-7.888,5.095c-5.308,3.322-10.752,6.426-16.252,9.425-5.551,2.9-11.156,5.714-16.9,8.224q-4.311,1.871-8.68,3.6c-2.933,1.1-5.869,2.184-8.847,3.147" transform="translate(-9262.792 -2153.917)" fill="#fff"/>
        <path id="Trazado_107198" data-name="Trazado 107198" d="M62.929,628.025l-2.059-9.264a36.3,36.3,0,0,0-12.4-6.881l1.788,12.045-6.634-13.411a67.053,67.053,0,0,0-10.995-1.529l1.481,9.973-5-10.113a107.093,107.093,0,0,0-11.224.4l2.581,6.3-4.755-6.092c-4.8.493-10.022,1.293-15.711,2.453a102.284,102.284,0,0,0,10.447,10.532l9.13-3.443-6.969,5.3a94.81,94.81,0,0,0,9.23,6.835l9.156-5.954-6.217,7.765A59.64,59.64,0,0,0,37.47,638.62l11.312-7.977-7.219,9.016a35.068,35.068,0,0,0,13.4.231l6.767-7.312-2.608,6.247a34.965,34.965,0,0,0,10.349-5.551,23.4,23.4,0,0,0-5.658-11.554Z" transform="translate(-8986.217 -2181.034)" fill="#53bced"/>
        <path id="Trazado_107199" data-name="Trazado 107199" d="M75.223,641.957c-5.154-1.883-10.317-3.72-15.516-5.449s-10.41-3.415-15.668-4.951c-5.235-1.613-10.514-3.08-15.8-4.537s-10.587-2.844-15.888-4.262c5.393,1.016,10.749,2.217,16.08,3.523s10.619,2.785,15.889,4.327c5.246,1.619,10.476,3.3,15.633,5.183s10.265,3.905,15.265,6.167" transform="translate(-8994.472 -2190.34)" fill="#fff"/>
        <path id="Trazado_107200" data-name="Trazado 107200" d="M166.883,204.879a55.985,55.985,0,0,1-8.383-1.028l.3-1.533a54.364,54.364,0,0,0,8.147,1Zm8.461-.406-.228-1.546a34.176,34.176,0,0,0,7.851-2.107l.589,1.449a35.768,35.768,0,0,1-8.211,2.2m-24.991-2.781a79.889,79.889,0,0,1-7.835-3.07l.645-1.424a78.474,78.474,0,0,0,7.681,3.011Zm40.584-3.686-.965-1.229c.637-.5,1.261-1.036,1.855-1.593a28.178,28.178,0,0,0,3.712-4.264l1.276.9a29.751,29.751,0,0,1-3.918,4.5c-.628.589-1.287,1.155-1.96,1.682m-55.9-3.209c-2.394-1.364-4.788-2.868-7.113-4.469l.886-1.288c2.29,1.575,4.645,3.055,7,4.4ZM121.2,185.3c-2.151-1.743-4.276-3.6-6.317-5.525l1.072-1.138c2.013,1.9,4.109,3.731,6.229,5.449Zm79.545-1.036-1.469-.534a37.393,37.393,0,0,0,1.9-7.924l1.55.2a38.995,38.995,0,0,1-1.981,8.255M108.985,173.8c-1.9-2.065-3.732-4.212-5.452-6.38l1.225-.971c1.7,2.138,3.506,4.255,5.378,6.293Zm92.514-6.181a59.352,59.352,0,0,0-.948-8.165l1.536-.284a60.87,60.87,0,0,1,.973,8.382ZM98.566,160.658c-1.581-2.334-3.07-4.734-4.428-7.133l1.36-.77c1.338,2.363,2.805,4.727,4.362,7.027Zm100.006-9.2c-.791-2.564-1.744-5.172-2.832-7.754l1.44-.607c1.109,2.629,2.08,5.287,2.885,7.9ZM90.315,146.043c-1.183-2.59-2.236-5.216-3.13-7.8l1.477-.51c.877,2.541,1.912,5.119,3.074,7.664Zm101.871-9.8c-1.272-2.394-2.678-4.8-4.179-7.137l1.315-.844c1.524,2.377,2.952,4.816,4.244,7.248Zm-107.317-6.1a64.7,64.7,0,0,1-1.332-8.326l1.556-.143a63.315,63.315,0,0,0,1.3,8.124Zm98.406-7.827c-1.644-2.177-3.4-4.336-5.23-6.416l1.175-1.032c1.85,2.109,3.634,4.3,5.3,6.505Zm-98.292-8.842-1.56-.11a41.871,41.871,0,0,1,1.419-8.361l1.505.423a40.249,40.249,0,0,0-1.365,8.048m87.383-3.6c-1.971-1.945-4.024-3.827-6.1-5.595l1.013-1.19c2.105,1.792,4.186,3.7,6.184,5.672Zm-12.6-10.715c-2.251-1.634-4.567-3.176-6.883-4.583l.812-1.336c2.353,1.429,4.705,3,6.991,4.655Zm-14.128-8.556a81.771,81.771,0,0,0-7.581-3.264l.543-1.465a83.481,83.481,0,0,1,7.726,3.326Zm-15.459-5.68a58.307,58.307,0,0,0-8.1-1.381l.149-1.556a59.969,59.969,0,0,1,8.32,1.417Z" transform="translate(-9054.954 -1829.068)" fill="#b5d6ea"/>
        <path id="Trazado_107218" data-name="Trazado 107218" d="M197.9,337.849h80a9.475,9.475,0,0,0,9.475-9.475V165.393a9.475,9.475,0,0,0-9.475-9.475h-80a9.475,9.475,0,0,0-9.475,9.475V328.374a9.475,9.475,0,0,0,9.475,9.475" transform="translate(-9112.102 -1878.455)" fill="#265173"/>
        <rect id="Rectángulo_5570" data-name="Rectángulo 5570" width="91.151" height="170.339" rx="16.802" transform="translate(-8919.775 -1718.638)" fill="#fff"/>
        <path id="Trazado_107225" data-name="Trazado 107225" d="M101.246,83.585a16.3,16.3,0,1,1,6.417-1.328,16.266,16.266,0,0,1-6.417,1.328m-.024-31.529a15.239,15.239,0,1,0,14.026,9.23,15.157,15.157,0,0,0-14.026-9.23" transform="translate(-9055.983 -1808.37)" fill="#db6e5f"/>
        <rect id="Rectángulo_5571" data-name="Rectángulo 5571" width="5.155" height="3.723" transform="matrix(0.919, -0.394, 0.394, 0.919, -8961.114, -1749.254)" fill="#db6e5f"/>
        <path id="Trazado_107226" data-name="Trazado 107226" d="M129.5,87.5l-1.378.591-.862.37-3.876,1.663,5.063,11.8,4.738-2.033-4.6-10.724,1.378-.591Z" transform="translate(-9081.652 -1832.747)" fill="#db6e5f"/>
        <path id="Trazado_107227" data-name="Trazado 107227" d="M297.2,595.856H250.965a8.38,8.38,0,0,1,0-16.759H297.2a8.38,8.38,0,1,1,0,16.759" transform="translate(-9148.283 -2161.172)" fill="#db6e5f"/>
        <path id="Trazado_107228" data-name="Trazado 107228" d="M319.094,596.994a7.287,7.287,0,0,1,1.078-2.5,5.368,5.368,0,0,0-9.467,0,7.226,7.226,0,0,1,1.082,2.5.932.932,0,0,1-.979,1.124c-1.943-.13-3.8-.339-5.531-.616a.923.923,0,0,1-.759-1.141A10.659,10.659,0,0,1,307,591.926a11.587,11.587,0,0,1,16.885,0,10.652,10.652,0,0,1,2.477,4.438.923.923,0,0,1-.758,1.141c-1.733.276-3.586.486-5.529.616a.931.931,0,0,1-.978-1.126" transform="translate(-9189.639 -2167.303)" fill="#fff"/>
        <path id="Trazado_107229" data-name="Trazado 107229" d="M299.49,255.215A37.512,37.512,0,1,1,261.978,217.7a37.4,37.4,0,0,1,37.512,37.512" transform="translate(-9136.178 -1919.732)" fill="#e1f0fa"/>
        <g id="Grupo_62270" data-name="Grupo 62270" transform="translate(-8911.712 -1702.029)">
          <g id="Grupo_62269" data-name="Grupo 62269" clip-path="url(#clip-path)">
            <path id="Trazado_107230" data-name="Trazado 107230" d="M315.227,263.305s-7.636-14.3-14.691-7.537c-5.872-5.7-17.325,6.331-13.628,7.781-8.215,8.361-1.306,6.634-1.306,6.634s-5.685,7.847-2.4,13.549c2.209,3.834,6.037,3.408,9.536,1.828a13.172,13.172,0,0,0,8.329,2.876,13.329,13.329,0,0,0,7.427-2.21c3.16,1.488,6.53,1.775,8.608-1.832,3.286-5.7-2.552-12.39-2.552-12.39s5.413-1.645.676-8.7" transform="translate(-263.023 -241.919)" fill="#265173"/>
            <path id="Trazado_107231" data-name="Trazado 107231" d="M308.2,392.435a41.751,41.751,0,0,1-57.83,0c5.973-11.947,16.69-19.9,28.915-19.9s22.942,7.957,28.915,19.9" transform="translate(-241.769 -321.141)" fill="#5aa5d1"/>
            <path id="Trazado_107232" data-name="Trazado 107232" d="M323.8,374.393s4.41,11.225,0,14.753c-2.9,2.32-9.611-3.334-9.611-3.334s-6.711,5.654-9.611,3.334c-4.41-3.528,0-14.753,0-14.753q10.4-3.691,19.222,0" transform="translate(-276.679 -321.151)" fill="#fff"/>
            <path id="Trazado_107233" data-name="Trazado 107233" d="M328.2,339.147s-1.348,6.888,1.639,12.236c0,0-2.607,7.088-7.542,9.794-4.936-2.706-7.542-9.794-7.542-9.794,2.987-5.348,1.639-12.236,1.639-12.236Z" transform="translate(-284.788 -298.837)" fill="#f79885"/>
            <path id="Trazado_107234" data-name="Trazado 107234" d="M331.492,339.137a21.972,21.972,0,0,0-.3,3.678c-1.532,3.3-3.481,5.575-5.6,5.575s-4.085-2.282-5.606-5.6a21.706,21.706,0,0,0-.3-3.657Z" transform="translate(-288.08 -298.83)" fill="#f0786a"/>
            <path id="Trazado_107235" data-name="Trazado 107235" d="M303.86,298.4c0,2.319-1.339,4.244-3.084,4.471a3.084,3.084,0,0,1-.347.024,2.446,2.446,0,0,1-.777-.12c-1.518-.454-2.654-2.247-2.654-4.375,0-2.486,1.542-4.495,3.431-4.495s3.431,2.008,3.431,4.495" transform="translate(-272.924 -268.611)" fill="#5aa5d1"/>
            <path id="Trazado_107236" data-name="Trazado 107236" d="M364.144,298.384c0,2.482-1.536,4.495-3.431,4.495s-3.431-2.012-3.431-4.495,1.536-4.495,3.431-4.495,3.431,2.012,3.431,4.495" transform="translate(-313.198 -268.601)" fill="#5aa5d1"/>
            <path id="Trazado_107237" data-name="Trazado 107237" d="M327.2,274.031c0,8.906-4.544,21-10.149,21s-10.149-12.091-10.149-21,4.544-11.256,10.149-11.256,10.149,2.35,10.149,11.256" transform="translate(-279.542 -247.815)" fill="#f79885"/>
            <path id="Trazado_107238" data-name="Trazado 107238" d="M305.287,275.775c-.086-.982-.133-1.948-.133-2.879,0-9.36,4.546-11.83,10.149-11.83s10.149,2.47,10.149,11.83c0,.932-.047,1.9-.133,2.879h.847c.1-1.069.156-2.121.156-3.135,0-9.835-4.929-12.433-11.019-12.433s-11.019,2.6-11.019,12.433c0,1.013.055,2.065.156,3.135Z" transform="translate(-277.791 -246.099)" fill="#5aa5d1"/>
            <path id="Trazado_107239" data-name="Trazado 107239" d="M317.054,262.775c-5.605,0-10.149,2.35-10.149,11.256q0,.41.013.829h0c7.07,1.289,12.938-7.261,12.938-7.261a13.518,13.518,0,0,0,7.327,7.394c.011-.324.019-.645.019-.962,0-8.906-4.544-11.256-10.149-11.256" transform="translate(-279.542 -247.815)" fill="#265173"/>
            <path id="Trazado_107240" data-name="Trazado 107240" d="M315.382,328.445V329.5c-6.981,0-9.635-6.443-10.388-8.87a2.457,2.457,0,0,0,.777.119,3.159,3.159,0,0,0,.346-.024c.8,2.451,3.228,7.723,9.265,7.723" transform="translate(-278.265 -286.464)" fill="#22365b"/>
            <path id="Trazado_107241" data-name="Trazado 107241" d="M333.624,343.285c0,.68-1.182,1.232-2.64,1.232s-2.64-.552-2.64-1.232,1.182-1.232,2.64-1.232,2.64.552,2.64,1.232" transform="translate(-293.865 -300.779)" fill="#265173"/>
          </g>
        </g>
        <g id="Grupo_62316" data-name="Grupo 62316" transform="translate(-8950.99 -1774.289)">
          <path id="Trazado_107243" data-name="Trazado 107243" d="M260.93,292.2a38.035,38.035,0,1,1,26.338-10.6,37.86,37.86,0,0,1-26.338,10.6m0-75.024a36.99,36.99,0,1,0,36.991,36.991,37.033,37.033,0,0,0-36.991-36.991" transform="translate(-184.139 -144.393)" fill="#b5d6ea"/>
          <path id="Trazado_107244" data-name="Trazado 107244" d="M536.03,259.47a10,10,0,0,1-3.449,1.418,7.362,7.362,0,0,0,9.29,9.068,9.906,9.906,0,0,1,1.334-3.492,1.278,1.278,0,0,1,2.037-.167c1.783,1.989,3.4,3.969,4.84,5.9a1.265,1.265,0,0,1-.347,1.846,14.6,14.6,0,0,1-6.681,1.984,15.891,15.891,0,0,1-16.577-16.168,14.6,14.6,0,0,1,1.817-6.728,1.265,1.265,0,0,1,1.837-.393c1.966,1.388,3.985,2.957,6.017,4.689a1.278,1.278,0,0,1-.118,2.042" transform="translate(-526.471 -190.46)" fill="#fff"/>
          <path id="Trazado_107245" data-name="Trazado 107245" d="M407.338,0H338.046a5.055,5.055,0,0,0-5.055,5.055v36.26a5.055,5.055,0,0,0,5.055,5.054h6.942V63.758l17.388-17.389h44.962a5.055,5.055,0,0,0,5.055-5.054V5.055A5.055,5.055,0,0,0,407.338,0" transform="translate(-257.691 0)" fill="#53bced"/>
          <rect id="Rectángulo_5573" data-name="Rectángulo 5573" width="44.41" height="4.952" transform="translate(85.347 8.847)" fill="#e1f0fa"/>
          <rect id="Rectángulo_5574" data-name="Rectángulo 5574" width="11.664" height="4.952" transform="translate(132.992 8.847)" fill="#e1f0fa"/>
          <rect id="Rectángulo_5575" data-name="Rectángulo 5575" width="20.147" height="4.952" transform="translate(85.347 20.709)" fill="#e1f0fa"/>
          <rect id="Rectángulo_5576" data-name="Rectángulo 5576" width="35.927" height="4.952" transform="translate(108.729 20.709)" fill="#e1f0fa"/>
          <rect id="Rectángulo_5577" data-name="Rectángulo 5577" width="48.993" height="4.952" transform="translate(85.347 32.57)" fill="#e1f0fa"/>
          <rect id="Rectángulo_5578" data-name="Rectángulo 5578" width="9.019" height="4.209" transform="translate(52.264 163.459)" fill="#e1f0fa"/>
          <rect id="Rectángulo_5579" data-name="Rectángulo 5579" width="33.541" height="4.209" transform="translate(67.776 163.459)" fill="#e1f0fa"/>
          <rect id="Rectángulo_5580" data-name="Rectángulo 5580" width="8.951" height="4.209" transform="translate(88.27 172.264)" fill="#e1f0fa"/>
          <rect id="Rectángulo_5581" data-name="Rectángulo 5581" width="16.163" height="4.209" transform="translate(52.264 172.264)" fill="#e1f0fa"/>
          <rect id="Rectángulo_5582" data-name="Rectángulo 5582" width="9.703" height="4.209" transform="translate(74.067 172.264)" fill="#e1f0fa"/>
        </g>
        <g id="Grupo_62314" data-name="Grupo 62314" transform="translate(-8836.688 -1731.952)">
          <path id="Trazado_107202" data-name="Trazado 107202" d="M642.476,689.356a7.85,7.85,0,0,0,4.952-3.414,6.052,6.052,0,0,0,.758-2.383h2.808a27.165,27.165,0,0,0,.223,3.864,11.046,11.046,0,0,1,.279,2.034c.013.273.021.565.018.9h-9.551v-.375a.646.646,0,0,1,.514-.624" transform="translate(-625.646 -499.009)" fill="#265173"/>
          <path id="Trazado_107203" data-name="Trazado 107203" d="M757.635,689.143a7.864,7.864,0,0,0,2.576-3.2,5.45,5.45,0,0,0,.23-2.383h2.889c.073,1.667.182,3.221.282,3.864a15.716,15.716,0,0,1,.194,2.033c.009.273.014.565.012.9h-6.641v-.342a1.086,1.086,0,0,1,.458-.872" transform="translate(-702.619 -499.01)" fill="#265173"/>
          <path id="Trazado_107204" data-name="Trazado 107204" d="M659.366,450.037c-.488,4.538-.9,9.244-1.276,14.012-1.97,24.92-2.8,51.317-6.743,61.773h-3.995c-6.743-36.075-6.227-62.287-3.489-80.386a39.608,39.608,0,0,0,9.06,3.459,43.329,43.329,0,0,0,6.443,1.141" transform="translate(-625.646 -339.924)" fill="#dbbe36"/>
          <path id="Trazado_107205" data-name="Trazado 107205" d="M678.333,467.886l3.557,17.8c.16-2.218.325-4.436.5-6.643q.3-3.827.641-7.581Z" transform="translate(-649.945 -354.922)" fill="#c8ac29"/>
          <path id="Trazado_107206" data-name="Trazado 107206" d="M707.993,527.96h-3.414c-4.8-14.251-17.669-42.772-25.107-61.773a120.92,120.92,0,0,1-5.168-15.154,11.454,11.454,0,0,1-.338-2.4l17.585,1.7c4.24,12.173,20.614,60.225,16.441,77.626" transform="translate(-647.028 -342.062)" fill="#dbbe36"/>
          <path id="Trazado_107207" data-name="Trazado 107207" d="M649.765,355.475,646.4,344.183a67.083,67.083,0,0,1-8.294-2.946l-3.257,8.791a50.31,50.31,0,0,0,14.917,5.447" transform="translate(-620.893 -270.311)" fill="#008eb0"/>
          <path id="Trazado_107208" data-name="Trazado 107208" d="M655.872,363.632l1.6-7.98-4.878,6.821c1.15.45,2.255.836,3.274,1.159" transform="translate(-632.752 -279.941)" fill="#265173"/>
          <path id="Trazado_107209" data-name="Trazado 107209" d="M606.794,316.164c-.993,5.059,3.711,8.67,9.223,11.122l3.257-8.79c-1.231-.527-2.52-1.121-3.82-1.79,0,0,11.634-5.959,17.346-6.5a3.868,3.868,0,0,0,2.983,1.759c2.052.135,2.458-3.653,2.458-3.653s-28.831-5.474-31.447,7.853" transform="translate(-602.063 -247.569)" fill="#f79885"/>
          <path id="Trazado_107210" data-name="Trazado 107210" d="M653.024,349.723s-4.7,9.394-8.259,34.407c0,0,10.94,8.91,28.056,1.876a227.689,227.689,0,0,1,2.633-35.057s-8.78-2.044-22.43-1.226" transform="translate(-627.519 -275.851)" fill="#008eb0"/>
          <path id="Trazado_107211" data-name="Trazado 107211" d="M723,383.062l2.894,5.833.327-3.58Z" transform="translate(-679.787 -298.253)" fill="#265173"/>
          <path id="Trazado_107212" data-name="Trazado 107212" d="M727.721,353.807s-4.129,5.742-4.721,9.711c0,0,2.2,2.606,6.089,6.646l5.209-7.78c-4.871-8.051-6.577-8.577-6.577-8.577" transform="translate(-679.787 -278.708)" fill="#008eb0"/>
          <path id="Trazado_107213" data-name="Trazado 107213" d="M752.547,383.873c-2.375-2.319-4.068-5.019-5.994-7.493l-5.209,7.78s4.8,5.612,9,6.63c11.163,2.706,21.581-16.034,21.581-16.034-11.327,4.745-19.376,9.117-19.376,9.117" transform="translate(-692.042 -292.704)" fill="#f79885"/>
          <path id="Trazado_107214" data-name="Trazado 107214" d="M685.768,308.622l.772,2.86a.351.351,0,0,0,.43.248l5.827-1.573a.351.351,0,0,0,.247-.43l-.772-2.86a.351.351,0,0,0-.43-.248l-5.827,1.573a.351.351,0,0,0-.247.43" transform="translate(-654.905 -247.175)" fill="#265173"/>
          <rect id="Rectángulo_5569" data-name="Rectángulo 5569" width="6.043" height="3.234" rx="0.596" transform="translate(31.232 61.207) rotate(-15.104)" fill="#e1f0fa"/>
          <path id="Trazado_107215" data-name="Trazado 107215" d="M698.894,314.64c-1.449-2.479-.317-7.656-.317-7.656.194-1.883.938-5.141,1.167-8.059.146-1.539-6.1-2.964-7.088-2.116s-3.78,9.018-2.97,11.172a11.506,11.506,0,0,0,2.538.663,26.538,26.538,0,0,0-1.072,4.388c-.164,1.143-.345,5.431,1.331,6.076,2.656,1.023,6.411-4.466,6.411-4.466" transform="translate(-657.434 -240.459)" fill="#f79885"/>
          <path id="Trazado_107216" data-name="Trazado 107216" d="M700.138,301.252a11.676,11.676,0,0,1-1.953-4.1c1.989-.666,1.283-2.4-.205-1.2a14.75,14.75,0,0,1-.1-2.568,10.764,10.764,0,0,1-3.7-.821c-1.452-.737-3.094-2.233-1.868-3.921s4.417.324,5.7,1.041c0,0,3.736-.331,4.676,1.149s-1.5,7.266-2.544,10.429" transform="translate(-658.994 -234.727)" fill="#9c2622"/>
          <path id="Trazado_107217" data-name="Trazado 107217" d="M826.626,374.694s1.8-1.756,2.682-1.5c.446.128,3.319.537,3.288,1.043-.036.569-.822.348-.822.348.682.722,1.8,2.176,1.8,3.288,0,.591-1.283.8-2.01-.213.25.643.164.947-.013.908-.569-.127-1.612-3.857-5.216-2.15Z" transform="translate(-748.823 -291.642)" fill="#f79885"/>
          <path id="Trazado_107219" data-name="Trazado 107219" d="M761.965,161.019a21.669,21.669,0,1,1-6.382-29.973,21.669,21.669,0,0,1,6.382,29.973" transform="translate(-679.196 -127.552)" fill="#db6e5f"/>
          <path id="Trazado_107220" data-name="Trazado 107220" d="M739.979,231.821l-4.657,13.705,17.267-8.078Z" transform="translate(-688.018 -197.212)" fill="#db6e5f"/>
          <path id="Trazado_107221" data-name="Trazado 107221" d="M779.731,166.683a5.21,5.21,0,0,1-.653,2.609,8.238,8.238,0,0,1-2.436,2.428l-1.14.825a6.09,6.09,0,0,0-1.522,1.484,3.2,3.2,0,0,0-.547,1.649h-4a5.548,5.548,0,0,1,.862-2.728,8.3,8.3,0,0,1,2.271-2.249,10.472,10.472,0,0,0,2.263-1.956,2.987,2.987,0,0,0,.66-1.882,2.646,2.646,0,0,0-.862-2.084,3.578,3.578,0,0,0-2.452-.764,3.759,3.759,0,0,0-2.541.884,3.54,3.54,0,0,0-1.207,2.338l-4.273-.18a7,7,0,0,1,2.5-4.737,8.42,8.42,0,0,1,5.457-1.694,8.758,8.758,0,0,1,5.584,1.612,5.361,5.361,0,0,1,2.032,4.445m-10.419,11.333h4.332v4.048h-4.332Z" transform="translate(-707.281 -149.648)" fill="#fff"/>
          <path id="Trazado_107222" data-name="Trazado 107222" d="M593.942,166.459A14.479,14.479,0,1,0,601.68,147.5a14.479,14.479,0,0,0-7.738,18.959" transform="translate(-592.807 -140.121)" fill="#db6e5f"/>
          <path id="Trazado_107223" data-name="Trazado 107223" d="M638.834,220.13l1.444,9.564-10.4-7.352Z" transform="translate(-617.571 -189.401)" fill="#db6e5f"/>
          <path id="Trazado_107224" data-name="Trazado 107224" d="M632.32,173.365a3.485,3.485,0,0,1-.435,1.743,5.507,5.507,0,0,1-1.628,1.622l-.762.551a4.066,4.066,0,0,0-1.016.991,2.13,2.13,0,0,0-.365,1.1h-2.675a3.713,3.713,0,0,1,.576-1.823,5.538,5.538,0,0,1,1.518-1.5,7.032,7.032,0,0,0,1.513-1.308,2,2,0,0,0,.441-1.257,1.768,1.768,0,0,0-.576-1.393,2.389,2.389,0,0,0-1.638-.511,2.512,2.512,0,0,0-1.7.591,2.366,2.366,0,0,0-.806,1.563l-2.855-.12a4.678,4.678,0,0,1,1.673-3.165,5.622,5.622,0,0,1,3.646-1.132,5.848,5.848,0,0,1,3.731,1.077,3.581,3.581,0,0,1,1.357,2.97m-6.962,7.573h2.895v2.7h-2.895Z" transform="translate(-612.251 -155.455)" fill="#fff"/>
        </g>
      </g>
      <rect id="Rectángulo_5631" data-name="Rectángulo 5631" width="279" height="279" transform="translate(188 9947)" fill="none"/>
    </g>
  </g>
</svg>
